G04 #@! TF.GenerationSoftware,KiCad,Pcbnew,5.1.4+dfsg1-1*
G04 #@! TF.CreationDate,2020-01-26T17:09:30+03:00*
G04 #@! TF.ProjectId,smart-roller-gate-controller,736d6172-742d-4726-9f6c-6c65722d6761,rev?*
G04 #@! TF.SameCoordinates,Original*
G04 #@! TF.FileFunction,Legend,Bot*
G04 #@! TF.FilePolarity,Positive*
%FSLAX46Y46*%
G04 Gerber Fmt 4.6, Leading zero omitted, Abs format (unit mm)*
G04 Created by KiCad (PCBNEW 5.1.4+dfsg1-1) date 2020-01-26 17:09:30*
%MOMM*%
%LPD*%
G04 APERTURE LIST*
%ADD10C,0.300000*%
%ADD11C,0.010000*%
G04 APERTURE END LIST*
D10*
X158000000Y-156000000D02*
X158000000Y-175000000D01*
X172500000Y-156000000D02*
X158000000Y-156000000D01*
X172500000Y-133000000D02*
X172500000Y-156000000D01*
X100000000Y-133000000D02*
X172500000Y-133000000D01*
D11*
G36*
X162876266Y-150511333D02*
G01*
X170089866Y-150511333D01*
X170089866Y-138509833D01*
X170072933Y-138509833D01*
X170072933Y-150490167D01*
X162893200Y-150490167D01*
X162893200Y-138509833D01*
X170072933Y-138509833D01*
X170089866Y-138509833D01*
X170089866Y-138488667D01*
X162876266Y-138488667D01*
X162876266Y-150511333D01*
X162876266Y-150511333D01*
G37*
X162876266Y-150511333D02*
X170089866Y-150511333D01*
X170089866Y-138509833D01*
X170072933Y-138509833D01*
X170072933Y-150490167D01*
X162893200Y-150490167D01*
X162893200Y-138509833D01*
X170072933Y-138509833D01*
X170089866Y-138509833D01*
X170089866Y-138488667D01*
X162876266Y-138488667D01*
X162876266Y-150511333D01*
G36*
X167868553Y-148740694D02*
G01*
X167824567Y-148766283D01*
X167797346Y-148783335D01*
X167786933Y-148776867D01*
X167772223Y-148761164D01*
X167736778Y-148754502D01*
X167736133Y-148754500D01*
X167685333Y-148754500D01*
X167685333Y-149028486D01*
X167685726Y-149141948D01*
X167687568Y-149221422D01*
X167691853Y-149275251D01*
X167699574Y-149311779D01*
X167711725Y-149339347D01*
X167724797Y-149359822D01*
X167756317Y-149395920D01*
X167795344Y-149415156D01*
X167854880Y-149423884D01*
X167856030Y-149423970D01*
X167912416Y-149425554D01*
X167957168Y-149422225D01*
X167973199Y-149417956D01*
X168019932Y-149381653D01*
X168050918Y-149333668D01*
X168057866Y-149301553D01*
X168044260Y-149273419D01*
X168011864Y-149261854D01*
X167973312Y-149267634D01*
X167941235Y-149291540D01*
X167939333Y-149294250D01*
X167901744Y-149323171D01*
X167857372Y-149321319D01*
X167816911Y-149294181D01*
X167791057Y-149247242D01*
X167786933Y-149216063D01*
X167790779Y-149186509D01*
X167807231Y-149193887D01*
X167812454Y-149199125D01*
X167845458Y-149216974D01*
X167894246Y-149227153D01*
X167904557Y-149227783D01*
X167974197Y-149211291D01*
X168029900Y-149162019D01*
X168067622Y-149087673D01*
X168083323Y-148995957D01*
X168082046Y-148981887D01*
X167973199Y-148981887D01*
X167961077Y-149047838D01*
X167930268Y-149092809D01*
X167889112Y-149111004D01*
X167845948Y-149096627D01*
X167830476Y-149081071D01*
X167810910Y-149033762D01*
X167804529Y-148970371D01*
X167811994Y-148911435D01*
X167824186Y-148885733D01*
X167864783Y-148859739D01*
X167909098Y-148866474D01*
X167947530Y-148899743D01*
X167970480Y-148953351D01*
X167973199Y-148981887D01*
X168082046Y-148981887D01*
X168074888Y-148903079D01*
X168043400Y-148823238D01*
X167993105Y-148766604D01*
X167932118Y-148737611D01*
X167868553Y-148740694D01*
X167868553Y-148740694D01*
G37*
X167868553Y-148740694D02*
X167824567Y-148766283D01*
X167797346Y-148783335D01*
X167786933Y-148776867D01*
X167772223Y-148761164D01*
X167736778Y-148754502D01*
X167736133Y-148754500D01*
X167685333Y-148754500D01*
X167685333Y-149028486D01*
X167685726Y-149141948D01*
X167687568Y-149221422D01*
X167691853Y-149275251D01*
X167699574Y-149311779D01*
X167711725Y-149339347D01*
X167724797Y-149359822D01*
X167756317Y-149395920D01*
X167795344Y-149415156D01*
X167854880Y-149423884D01*
X167856030Y-149423970D01*
X167912416Y-149425554D01*
X167957168Y-149422225D01*
X167973199Y-149417956D01*
X168019932Y-149381653D01*
X168050918Y-149333668D01*
X168057866Y-149301553D01*
X168044260Y-149273419D01*
X168011864Y-149261854D01*
X167973312Y-149267634D01*
X167941235Y-149291540D01*
X167939333Y-149294250D01*
X167901744Y-149323171D01*
X167857372Y-149321319D01*
X167816911Y-149294181D01*
X167791057Y-149247242D01*
X167786933Y-149216063D01*
X167790779Y-149186509D01*
X167807231Y-149193887D01*
X167812454Y-149199125D01*
X167845458Y-149216974D01*
X167894246Y-149227153D01*
X167904557Y-149227783D01*
X167974197Y-149211291D01*
X168029900Y-149162019D01*
X168067622Y-149087673D01*
X168083323Y-148995957D01*
X168082046Y-148981887D01*
X167973199Y-148981887D01*
X167961077Y-149047838D01*
X167930268Y-149092809D01*
X167889112Y-149111004D01*
X167845948Y-149096627D01*
X167830476Y-149081071D01*
X167810910Y-149033762D01*
X167804529Y-148970371D01*
X167811994Y-148911435D01*
X167824186Y-148885733D01*
X167864783Y-148859739D01*
X167909098Y-148866474D01*
X167947530Y-148899743D01*
X167970480Y-148953351D01*
X167973199Y-148981887D01*
X168082046Y-148981887D01*
X168074888Y-148903079D01*
X168043400Y-148823238D01*
X167993105Y-148766604D01*
X167932118Y-148737611D01*
X167868553Y-148740694D01*
G36*
X164809230Y-148749720D02*
G01*
X164740070Y-148751273D01*
X164726233Y-148751500D01*
X164654266Y-148752549D01*
X164654266Y-149027511D01*
X164654650Y-149141136D01*
X164656465Y-149220762D01*
X164660707Y-149274722D01*
X164668373Y-149311346D01*
X164680457Y-149338967D01*
X164694045Y-149360280D01*
X164723112Y-149394502D01*
X164758492Y-149414187D01*
X164811878Y-149424817D01*
X164837295Y-149427442D01*
X164896121Y-149431087D01*
X164933622Y-149425736D01*
X164962147Y-149406928D01*
X164993365Y-149371050D01*
X165023052Y-149326817D01*
X165036253Y-149292360D01*
X165035382Y-149283901D01*
X165009524Y-149265982D01*
X164968498Y-149264057D01*
X164928056Y-149276842D01*
X164908266Y-149294250D01*
X164870617Y-149323972D01*
X164827876Y-149322367D01*
X164791586Y-149294496D01*
X164773291Y-149245424D01*
X164772799Y-149234835D01*
X164779480Y-149206477D01*
X164802433Y-149211463D01*
X164862928Y-149227423D01*
X164930927Y-149218758D01*
X164982111Y-149192292D01*
X165025053Y-149133943D01*
X165050276Y-149051339D01*
X165052265Y-149008975D01*
X164940218Y-149008975D01*
X164922294Y-149065949D01*
X164888811Y-149104876D01*
X164857466Y-149114333D01*
X164820204Y-149100018D01*
X164799409Y-149081071D01*
X164776900Y-149026146D01*
X164775696Y-148955691D01*
X164790329Y-148901275D01*
X164821078Y-148868417D01*
X164864702Y-148862641D01*
X164907498Y-148884790D01*
X164915523Y-148893595D01*
X164939116Y-148947132D01*
X164940218Y-149008975D01*
X165052265Y-149008975D01*
X165054638Y-148958435D01*
X165046559Y-148906112D01*
X165015506Y-148819107D01*
X164970042Y-148768045D01*
X164905095Y-148748176D01*
X164877307Y-148747694D01*
X164809230Y-148749720D01*
X164809230Y-148749720D01*
G37*
X164809230Y-148749720D02*
X164740070Y-148751273D01*
X164726233Y-148751500D01*
X164654266Y-148752549D01*
X164654266Y-149027511D01*
X164654650Y-149141136D01*
X164656465Y-149220762D01*
X164660707Y-149274722D01*
X164668373Y-149311346D01*
X164680457Y-149338967D01*
X164694045Y-149360280D01*
X164723112Y-149394502D01*
X164758492Y-149414187D01*
X164811878Y-149424817D01*
X164837295Y-149427442D01*
X164896121Y-149431087D01*
X164933622Y-149425736D01*
X164962147Y-149406928D01*
X164993365Y-149371050D01*
X165023052Y-149326817D01*
X165036253Y-149292360D01*
X165035382Y-149283901D01*
X165009524Y-149265982D01*
X164968498Y-149264057D01*
X164928056Y-149276842D01*
X164908266Y-149294250D01*
X164870617Y-149323972D01*
X164827876Y-149322367D01*
X164791586Y-149294496D01*
X164773291Y-149245424D01*
X164772799Y-149234835D01*
X164779480Y-149206477D01*
X164802433Y-149211463D01*
X164862928Y-149227423D01*
X164930927Y-149218758D01*
X164982111Y-149192292D01*
X165025053Y-149133943D01*
X165050276Y-149051339D01*
X165052265Y-149008975D01*
X164940218Y-149008975D01*
X164922294Y-149065949D01*
X164888811Y-149104876D01*
X164857466Y-149114333D01*
X164820204Y-149100018D01*
X164799409Y-149081071D01*
X164776900Y-149026146D01*
X164775696Y-148955691D01*
X164790329Y-148901275D01*
X164821078Y-148868417D01*
X164864702Y-148862641D01*
X164907498Y-148884790D01*
X164915523Y-148893595D01*
X164939116Y-148947132D01*
X164940218Y-149008975D01*
X165052265Y-149008975D01*
X165054638Y-148958435D01*
X165046559Y-148906112D01*
X165015506Y-148819107D01*
X164970042Y-148768045D01*
X164905095Y-148748176D01*
X164877307Y-148747694D01*
X164809230Y-148749720D01*
G36*
X168667466Y-148818000D02*
G01*
X168464266Y-148818000D01*
X168464266Y-148564000D01*
X168345733Y-148564000D01*
X168345733Y-149265182D01*
X168400766Y-149258549D01*
X168455800Y-149251917D01*
X168460775Y-149098458D01*
X168465750Y-148945000D01*
X168665982Y-148945000D01*
X168670958Y-149098458D01*
X168675933Y-149251917D01*
X168730966Y-149258549D01*
X168785999Y-149265182D01*
X168785999Y-148564000D01*
X168667466Y-148564000D01*
X168667466Y-148818000D01*
X168667466Y-148818000D01*
G37*
X168667466Y-148818000D02*
X168464266Y-148818000D01*
X168464266Y-148564000D01*
X168345733Y-148564000D01*
X168345733Y-149265182D01*
X168400766Y-149258549D01*
X168455800Y-149251917D01*
X168460775Y-149098458D01*
X168465750Y-148945000D01*
X168665982Y-148945000D01*
X168670958Y-149098458D01*
X168675933Y-149251917D01*
X168730966Y-149258549D01*
X168785999Y-149265182D01*
X168785999Y-148564000D01*
X168667466Y-148564000D01*
X168667466Y-148818000D01*
G36*
X168159466Y-149262500D02*
G01*
X168207444Y-149262500D01*
X168246226Y-149257967D01*
X168266711Y-149248389D01*
X168271212Y-149222747D01*
X168274861Y-149163865D01*
X168277254Y-149080833D01*
X168278000Y-148994389D01*
X168278000Y-148754500D01*
X168159466Y-148754500D01*
X168159466Y-149262500D01*
X168159466Y-149262500D01*
G37*
X168159466Y-149262500D02*
X168207444Y-149262500D01*
X168246226Y-149257967D01*
X168266711Y-149248389D01*
X168271212Y-149222747D01*
X168274861Y-149163865D01*
X168277254Y-149080833D01*
X168278000Y-148994389D01*
X168278000Y-148754500D01*
X168159466Y-148754500D01*
X168159466Y-149262500D01*
G36*
X167520934Y-148565919D02*
G01*
X167505809Y-148578587D01*
X167500012Y-148612370D01*
X167499066Y-148677637D01*
X167499066Y-148681617D01*
X167498496Y-148748083D01*
X167494578Y-148779672D01*
X167483996Y-148783838D01*
X167463437Y-148768038D01*
X167461432Y-148766283D01*
X167400164Y-148735925D01*
X167337284Y-148744492D01*
X167286630Y-148785288D01*
X167267636Y-148812099D01*
X167255507Y-148841699D01*
X167248718Y-148883836D01*
X167245746Y-148948258D01*
X167245067Y-149044715D01*
X167245066Y-149051212D01*
X167245066Y-149265182D01*
X167300099Y-149258549D01*
X167355133Y-149251917D01*
X167363599Y-149061417D01*
X167368329Y-148970455D01*
X167373906Y-148913500D01*
X167382181Y-148882241D01*
X167395005Y-148868370D01*
X167407415Y-148864603D01*
X167441401Y-148869147D01*
X167465702Y-148900078D01*
X167482159Y-148962209D01*
X167492614Y-149060356D01*
X167494578Y-149092391D01*
X167503905Y-149262500D01*
X167600666Y-149262500D01*
X167600666Y-148564000D01*
X167549866Y-148564000D01*
X167520934Y-148565919D01*
X167520934Y-148565919D01*
G37*
X167520934Y-148565919D02*
X167505809Y-148578587D01*
X167500012Y-148612370D01*
X167499066Y-148677637D01*
X167499066Y-148681617D01*
X167498496Y-148748083D01*
X167494578Y-148779672D01*
X167483996Y-148783838D01*
X167463437Y-148768038D01*
X167461432Y-148766283D01*
X167400164Y-148735925D01*
X167337284Y-148744492D01*
X167286630Y-148785288D01*
X167267636Y-148812099D01*
X167255507Y-148841699D01*
X167248718Y-148883836D01*
X167245746Y-148948258D01*
X167245067Y-149044715D01*
X167245066Y-149051212D01*
X167245066Y-149265182D01*
X167300099Y-149258549D01*
X167355133Y-149251917D01*
X167363599Y-149061417D01*
X167368329Y-148970455D01*
X167373906Y-148913500D01*
X167382181Y-148882241D01*
X167395005Y-148868370D01*
X167407415Y-148864603D01*
X167441401Y-148869147D01*
X167465702Y-148900078D01*
X167482159Y-148962209D01*
X167492614Y-149060356D01*
X167494578Y-149092391D01*
X167503905Y-149262500D01*
X167600666Y-149262500D01*
X167600666Y-148564000D01*
X167549866Y-148564000D01*
X167520934Y-148565919D01*
G36*
X166519077Y-148756879D02*
G01*
X166500343Y-148762708D01*
X166500000Y-148763713D01*
X166505340Y-148786058D01*
X166519904Y-148840261D01*
X166541500Y-148918322D01*
X166567942Y-149012243D01*
X166569495Y-149017713D01*
X166598922Y-149120079D01*
X166620481Y-149189030D01*
X166637380Y-149231155D01*
X166652823Y-149253046D01*
X166670016Y-149261293D01*
X166688560Y-149262500D01*
X166726559Y-149254411D01*
X166746002Y-149236042D01*
X166756283Y-149199519D01*
X166773286Y-149137149D01*
X166794437Y-149058592D01*
X166817163Y-148973508D01*
X166838892Y-148891558D01*
X166857051Y-148822403D01*
X166869068Y-148775703D01*
X166872533Y-148760924D01*
X166857694Y-148756555D01*
X166821539Y-148754519D01*
X166817260Y-148754500D01*
X166788745Y-148756398D01*
X166769624Y-148767809D01*
X166754821Y-148797306D01*
X166739263Y-148853462D01*
X166726424Y-148907958D01*
X166690862Y-149061417D01*
X166653048Y-148907958D01*
X166633238Y-148830199D01*
X166617896Y-148784476D01*
X166601734Y-148762286D01*
X166579463Y-148755124D01*
X166557617Y-148754500D01*
X166519077Y-148756879D01*
X166519077Y-148756879D01*
G37*
X166519077Y-148756879D02*
X166500343Y-148762708D01*
X166500000Y-148763713D01*
X166505340Y-148786058D01*
X166519904Y-148840261D01*
X166541500Y-148918322D01*
X166567942Y-149012243D01*
X166569495Y-149017713D01*
X166598922Y-149120079D01*
X166620481Y-149189030D01*
X166637380Y-149231155D01*
X166652823Y-149253046D01*
X166670016Y-149261293D01*
X166688560Y-149262500D01*
X166726559Y-149254411D01*
X166746002Y-149236042D01*
X166756283Y-149199519D01*
X166773286Y-149137149D01*
X166794437Y-149058592D01*
X166817163Y-148973508D01*
X166838892Y-148891558D01*
X166857051Y-148822403D01*
X166869068Y-148775703D01*
X166872533Y-148760924D01*
X166857694Y-148756555D01*
X166821539Y-148754519D01*
X166817260Y-148754500D01*
X166788745Y-148756398D01*
X166769624Y-148767809D01*
X166754821Y-148797306D01*
X166739263Y-148853462D01*
X166726424Y-148907958D01*
X166690862Y-149061417D01*
X166653048Y-148907958D01*
X166633238Y-148830199D01*
X166617896Y-148784476D01*
X166601734Y-148762286D01*
X166579463Y-148755124D01*
X166557617Y-148754500D01*
X166519077Y-148756879D01*
G36*
X166182670Y-148751628D02*
G01*
X166120282Y-148803882D01*
X166078566Y-148886143D01*
X166060321Y-148994464D01*
X166059733Y-149020149D01*
X166063904Y-149088667D01*
X166081314Y-149139048D01*
X166117306Y-149190533D01*
X166157769Y-149235121D01*
X166195676Y-149256328D01*
X166247457Y-149262383D01*
X166260972Y-149262500D01*
X166321155Y-149257348D01*
X166364449Y-149237234D01*
X166400308Y-149203034D01*
X166435982Y-149153746D01*
X166454577Y-149096958D01*
X166461727Y-149037206D01*
X166460689Y-149011931D01*
X166353623Y-149011931D01*
X166346899Y-149083029D01*
X166330767Y-149124765D01*
X166294320Y-149150960D01*
X166246424Y-149154027D01*
X166203835Y-149134276D01*
X166193424Y-149122243D01*
X166174557Y-149066267D01*
X166171692Y-148993077D01*
X166184090Y-148922258D01*
X166202442Y-148883191D01*
X166245435Y-148844768D01*
X166288326Y-148848675D01*
X166323484Y-148883275D01*
X166345619Y-148938761D01*
X166353623Y-149011931D01*
X166460689Y-149011931D01*
X166457118Y-148924986D01*
X166426662Y-148834405D01*
X166373426Y-148770154D01*
X166300476Y-148736921D01*
X166262933Y-148733333D01*
X166182670Y-148751628D01*
X166182670Y-148751628D01*
G37*
X166182670Y-148751628D02*
X166120282Y-148803882D01*
X166078566Y-148886143D01*
X166060321Y-148994464D01*
X166059733Y-149020149D01*
X166063904Y-149088667D01*
X166081314Y-149139048D01*
X166117306Y-149190533D01*
X166157769Y-149235121D01*
X166195676Y-149256328D01*
X166247457Y-149262383D01*
X166260972Y-149262500D01*
X166321155Y-149257348D01*
X166364449Y-149237234D01*
X166400308Y-149203034D01*
X166435982Y-149153746D01*
X166454577Y-149096958D01*
X166461727Y-149037206D01*
X166460689Y-149011931D01*
X166353623Y-149011931D01*
X166346899Y-149083029D01*
X166330767Y-149124765D01*
X166294320Y-149150960D01*
X166246424Y-149154027D01*
X166203835Y-149134276D01*
X166193424Y-149122243D01*
X166174557Y-149066267D01*
X166171692Y-148993077D01*
X166184090Y-148922258D01*
X166202442Y-148883191D01*
X166245435Y-148844768D01*
X166288326Y-148848675D01*
X166323484Y-148883275D01*
X166345619Y-148938761D01*
X166353623Y-149011931D01*
X166460689Y-149011931D01*
X166457118Y-148924986D01*
X166426662Y-148834405D01*
X166373426Y-148770154D01*
X166300476Y-148736921D01*
X166262933Y-148733333D01*
X166182670Y-148751628D01*
G36*
X165873466Y-149262500D02*
G01*
X165921444Y-149262500D01*
X165960226Y-149257967D01*
X165980711Y-149248389D01*
X165984558Y-149223418D01*
X165987842Y-149163642D01*
X165990320Y-149076587D01*
X165991748Y-148969781D01*
X165992000Y-148899139D01*
X165992000Y-148564000D01*
X165873466Y-148564000D01*
X165873466Y-149262500D01*
X165873466Y-149262500D01*
G37*
X165873466Y-149262500D02*
X165921444Y-149262500D01*
X165960226Y-149257967D01*
X165980711Y-149248389D01*
X165984558Y-149223418D01*
X165987842Y-149163642D01*
X165990320Y-149076587D01*
X165991748Y-148969781D01*
X165992000Y-148899139D01*
X165992000Y-148564000D01*
X165873466Y-148564000D01*
X165873466Y-149262500D01*
G36*
X165699899Y-148589117D02*
G01*
X165663295Y-148597843D01*
X165646442Y-148621143D01*
X165639776Y-148672658D01*
X165639611Y-148675125D01*
X165631982Y-148729439D01*
X165615564Y-148751953D01*
X165601511Y-148754500D01*
X165575399Y-148769215D01*
X165568146Y-148802188D01*
X165579580Y-148836656D01*
X165602533Y-148854200D01*
X165621196Y-148865711D01*
X165631473Y-148891593D01*
X165635732Y-148942062D01*
X165636399Y-149000385D01*
X165635306Y-149074032D01*
X165630449Y-149114809D01*
X165619467Y-149132146D01*
X165602533Y-149135500D01*
X165577743Y-149145479D01*
X165569016Y-149182608D01*
X165568666Y-149199000D01*
X165572832Y-149243878D01*
X165591811Y-149259816D01*
X165615233Y-149260829D01*
X165659723Y-149255534D01*
X165687199Y-149247811D01*
X165721075Y-149221426D01*
X165742202Y-149173972D01*
X165752719Y-149098099D01*
X165754933Y-149015038D01*
X165756322Y-148932527D01*
X165761333Y-148884541D01*
X165771230Y-148863371D01*
X165780333Y-148860333D01*
X165800761Y-148841933D01*
X165805733Y-148807417D01*
X165796901Y-148764857D01*
X165780333Y-148754500D01*
X165762798Y-148740738D01*
X165755462Y-148694946D01*
X165754933Y-148668492D01*
X165753362Y-148613944D01*
X165743493Y-148590570D01*
X165717593Y-148587217D01*
X165699899Y-148589117D01*
X165699899Y-148589117D01*
G37*
X165699899Y-148589117D02*
X165663295Y-148597843D01*
X165646442Y-148621143D01*
X165639776Y-148672658D01*
X165639611Y-148675125D01*
X165631982Y-148729439D01*
X165615564Y-148751953D01*
X165601511Y-148754500D01*
X165575399Y-148769215D01*
X165568146Y-148802188D01*
X165579580Y-148836656D01*
X165602533Y-148854200D01*
X165621196Y-148865711D01*
X165631473Y-148891593D01*
X165635732Y-148942062D01*
X165636399Y-149000385D01*
X165635306Y-149074032D01*
X165630449Y-149114809D01*
X165619467Y-149132146D01*
X165602533Y-149135500D01*
X165577743Y-149145479D01*
X165569016Y-149182608D01*
X165568666Y-149199000D01*
X165572832Y-149243878D01*
X165591811Y-149259816D01*
X165615233Y-149260829D01*
X165659723Y-149255534D01*
X165687199Y-149247811D01*
X165721075Y-149221426D01*
X165742202Y-149173972D01*
X165752719Y-149098099D01*
X165754933Y-149015038D01*
X165756322Y-148932527D01*
X165761333Y-148884541D01*
X165771230Y-148863371D01*
X165780333Y-148860333D01*
X165800761Y-148841933D01*
X165805733Y-148807417D01*
X165796901Y-148764857D01*
X165780333Y-148754500D01*
X165762798Y-148740738D01*
X165755462Y-148694946D01*
X165754933Y-148668492D01*
X165753362Y-148613944D01*
X165743493Y-148590570D01*
X165717593Y-148587217D01*
X165699899Y-148589117D01*
G36*
X165249540Y-148744696D02*
G01*
X165186981Y-148780402D01*
X165171745Y-148796701D01*
X165155129Y-148823366D01*
X165144072Y-148859919D01*
X165137075Y-148915735D01*
X165132642Y-149000185D01*
X165131046Y-149051379D01*
X165125226Y-149262500D01*
X165176202Y-149262500D01*
X165214238Y-149255332D01*
X165233631Y-149238298D01*
X165246855Y-149224682D01*
X165276262Y-149238298D01*
X165343542Y-149261118D01*
X165413199Y-149248310D01*
X165456316Y-149218630D01*
X165491656Y-149166222D01*
X165498485Y-149119457D01*
X165400092Y-149119457D01*
X165388044Y-149142555D01*
X165358944Y-149155410D01*
X165316289Y-149154180D01*
X165277957Y-149140537D01*
X165267253Y-149131267D01*
X165250899Y-149090786D01*
X165246933Y-149056780D01*
X165251350Y-149022892D01*
X165271408Y-149016242D01*
X165293499Y-149021608D01*
X165357480Y-149048832D01*
X165393799Y-149082457D01*
X165400092Y-149119457D01*
X165498485Y-149119457D01*
X165500933Y-149102702D01*
X165491632Y-149042633D01*
X165460678Y-148998442D01*
X165403491Y-148965407D01*
X165350720Y-148947859D01*
X165285483Y-148923193D01*
X165253556Y-148894763D01*
X165254488Y-148862177D01*
X165281509Y-148842323D01*
X165322394Y-148842271D01*
X165361582Y-148860860D01*
X165371514Y-148870917D01*
X165407722Y-148895691D01*
X165440457Y-148902667D01*
X165475201Y-148890767D01*
X165482481Y-148858834D01*
X165461752Y-148812516D01*
X165450564Y-148797372D01*
X165393524Y-148753210D01*
X165322452Y-148735642D01*
X165249540Y-148744696D01*
X165249540Y-148744696D01*
G37*
X165249540Y-148744696D02*
X165186981Y-148780402D01*
X165171745Y-148796701D01*
X165155129Y-148823366D01*
X165144072Y-148859919D01*
X165137075Y-148915735D01*
X165132642Y-149000185D01*
X165131046Y-149051379D01*
X165125226Y-149262500D01*
X165176202Y-149262500D01*
X165214238Y-149255332D01*
X165233631Y-149238298D01*
X165246855Y-149224682D01*
X165276262Y-149238298D01*
X165343542Y-149261118D01*
X165413199Y-149248310D01*
X165456316Y-149218630D01*
X165491656Y-149166222D01*
X165498485Y-149119457D01*
X165400092Y-149119457D01*
X165388044Y-149142555D01*
X165358944Y-149155410D01*
X165316289Y-149154180D01*
X165277957Y-149140537D01*
X165267253Y-149131267D01*
X165250899Y-149090786D01*
X165246933Y-149056780D01*
X165251350Y-149022892D01*
X165271408Y-149016242D01*
X165293499Y-149021608D01*
X165357480Y-149048832D01*
X165393799Y-149082457D01*
X165400092Y-149119457D01*
X165498485Y-149119457D01*
X165500933Y-149102702D01*
X165491632Y-149042633D01*
X165460678Y-148998442D01*
X165403491Y-148965407D01*
X165350720Y-148947859D01*
X165285483Y-148923193D01*
X165253556Y-148894763D01*
X165254488Y-148862177D01*
X165281509Y-148842323D01*
X165322394Y-148842271D01*
X165361582Y-148860860D01*
X165371514Y-148870917D01*
X165407722Y-148895691D01*
X165440457Y-148902667D01*
X165475201Y-148890767D01*
X165482481Y-148858834D01*
X165461752Y-148812516D01*
X165450564Y-148797372D01*
X165393524Y-148753210D01*
X165322452Y-148735642D01*
X165249540Y-148744696D01*
G36*
X164341081Y-148740278D02*
G01*
X164274351Y-148779898D01*
X164266419Y-148787795D01*
X164232834Y-148836819D01*
X164205031Y-148900869D01*
X164187564Y-148965717D01*
X164184988Y-149017135D01*
X164188841Y-149030155D01*
X164209484Y-149039863D01*
X164255105Y-149047126D01*
X164316828Y-149050675D01*
X164333532Y-149050833D01*
X164406819Y-149053041D01*
X164449543Y-149061088D01*
X164464880Y-149077110D01*
X164456004Y-149103243D01*
X164441390Y-149123405D01*
X164396687Y-149153950D01*
X164346538Y-149143661D01*
X164323069Y-149125590D01*
X164289093Y-149105167D01*
X164248535Y-149094961D01*
X164213788Y-149096250D01*
X164197243Y-149110311D01*
X164197066Y-149112602D01*
X164212638Y-149175357D01*
X164256049Y-149223742D01*
X164322344Y-149253953D01*
X164392261Y-149262500D01*
X164449611Y-149256408D01*
X164490973Y-149232727D01*
X164518857Y-149202185D01*
X164564350Y-149116753D01*
X164582468Y-149013550D01*
X164572950Y-148916872D01*
X164465809Y-148916872D01*
X164457274Y-148935438D01*
X164419434Y-148943837D01*
X164382737Y-148945000D01*
X164333098Y-148943719D01*
X164310654Y-148937076D01*
X164308744Y-148920874D01*
X164315599Y-148902667D01*
X164345987Y-148870736D01*
X164390697Y-148860203D01*
X164433943Y-148873090D01*
X164447680Y-148885733D01*
X164465809Y-148916872D01*
X164572950Y-148916872D01*
X164571524Y-148902388D01*
X164570868Y-148899612D01*
X164535595Y-148818205D01*
X164480005Y-148762480D01*
X164412400Y-148735488D01*
X164341081Y-148740278D01*
X164341081Y-148740278D01*
G37*
X164341081Y-148740278D02*
X164274351Y-148779898D01*
X164266419Y-148787795D01*
X164232834Y-148836819D01*
X164205031Y-148900869D01*
X164187564Y-148965717D01*
X164184988Y-149017135D01*
X164188841Y-149030155D01*
X164209484Y-149039863D01*
X164255105Y-149047126D01*
X164316828Y-149050675D01*
X164333532Y-149050833D01*
X164406819Y-149053041D01*
X164449543Y-149061088D01*
X164464880Y-149077110D01*
X164456004Y-149103243D01*
X164441390Y-149123405D01*
X164396687Y-149153950D01*
X164346538Y-149143661D01*
X164323069Y-149125590D01*
X164289093Y-149105167D01*
X164248535Y-149094961D01*
X164213788Y-149096250D01*
X164197243Y-149110311D01*
X164197066Y-149112602D01*
X164212638Y-149175357D01*
X164256049Y-149223742D01*
X164322344Y-149253953D01*
X164392261Y-149262500D01*
X164449611Y-149256408D01*
X164490973Y-149232727D01*
X164518857Y-149202185D01*
X164564350Y-149116753D01*
X164582468Y-149013550D01*
X164572950Y-148916872D01*
X164465809Y-148916872D01*
X164457274Y-148935438D01*
X164419434Y-148943837D01*
X164382737Y-148945000D01*
X164333098Y-148943719D01*
X164310654Y-148937076D01*
X164308744Y-148920874D01*
X164315599Y-148902667D01*
X164345987Y-148870736D01*
X164390697Y-148860203D01*
X164433943Y-148873090D01*
X164447680Y-148885733D01*
X164465809Y-148916872D01*
X164572950Y-148916872D01*
X164571524Y-148902388D01*
X164570868Y-148899612D01*
X164535595Y-148818205D01*
X164480005Y-148762480D01*
X164412400Y-148735488D01*
X164341081Y-148740278D01*
G36*
X168178914Y-148567540D02*
G01*
X168162582Y-148585495D01*
X168159466Y-148627500D01*
X168163757Y-148672574D01*
X168183352Y-148689165D01*
X168207444Y-148691000D01*
X168246226Y-148686467D01*
X168266711Y-148676889D01*
X168275621Y-148646601D01*
X168278000Y-148613389D01*
X168273015Y-148579850D01*
X168251554Y-148566150D01*
X168218733Y-148564000D01*
X168178914Y-148567540D01*
X168178914Y-148567540D01*
G37*
X168178914Y-148567540D02*
X168162582Y-148585495D01*
X168159466Y-148627500D01*
X168163757Y-148672574D01*
X168183352Y-148689165D01*
X168207444Y-148691000D01*
X168246226Y-148686467D01*
X168266711Y-148676889D01*
X168275621Y-148646601D01*
X168278000Y-148613389D01*
X168273015Y-148579850D01*
X168251554Y-148566150D01*
X168218733Y-148564000D01*
X168178914Y-148567540D01*
G36*
X165798346Y-146993656D02*
G01*
X165743137Y-147031939D01*
X165722371Y-147052459D01*
X165670266Y-147107263D01*
X165670266Y-147052465D01*
X165668296Y-147022109D01*
X165657076Y-147005722D01*
X165628643Y-146999007D01*
X165575031Y-146997670D01*
X165568666Y-146997667D01*
X165467066Y-146997667D01*
X165467066Y-147516930D01*
X165467461Y-147694371D01*
X165469091Y-147834887D01*
X165472625Y-147943880D01*
X165478733Y-148026754D01*
X165488083Y-148088911D01*
X165501345Y-148135752D01*
X165519187Y-148172682D01*
X165542279Y-148205102D01*
X165554015Y-148219031D01*
X165620213Y-148273272D01*
X165707644Y-148314734D01*
X165804472Y-148339762D01*
X165898858Y-148344704D01*
X165941200Y-148338555D01*
X166039687Y-148301764D01*
X166120290Y-148243380D01*
X166177566Y-148168430D01*
X166203713Y-148096119D01*
X166208001Y-148066067D01*
X166201327Y-148048436D01*
X166176764Y-148038373D01*
X166127382Y-148031023D01*
X166107517Y-148028715D01*
X166040798Y-148024704D01*
X166002318Y-148030800D01*
X165994116Y-148038866D01*
X165961961Y-148095078D01*
X165909582Y-148130362D01*
X165847001Y-148142834D01*
X165784238Y-148130612D01*
X165731317Y-148091814D01*
X165728763Y-148088712D01*
X165699581Y-148038541D01*
X165688067Y-147974796D01*
X165687199Y-147941183D01*
X165687199Y-147845609D01*
X165748829Y-147897888D01*
X165804090Y-147933921D01*
X165866819Y-147948807D01*
X165901904Y-147950167D01*
X166010155Y-147931580D01*
X166101407Y-147876861D01*
X166174081Y-147787566D01*
X166226595Y-147665253D01*
X166239336Y-147617461D01*
X166257098Y-147478676D01*
X166254799Y-147446887D01*
X166040708Y-147446887D01*
X166035751Y-147514242D01*
X166009081Y-147604516D01*
X165963996Y-147670811D01*
X165907193Y-147710788D01*
X165845372Y-147722111D01*
X165785228Y-147702441D01*
X165733459Y-147649441D01*
X165719535Y-147624610D01*
X165696311Y-147548141D01*
X165687761Y-147456270D01*
X165694807Y-147369238D01*
X165706115Y-147329650D01*
X165751897Y-147257384D01*
X165812156Y-147216873D01*
X165878711Y-147209925D01*
X165943379Y-147238350D01*
X165975502Y-147270121D01*
X166024016Y-147353665D01*
X166040708Y-147446887D01*
X166254799Y-147446887D01*
X166247456Y-147345409D01*
X166213317Y-147223906D01*
X166157590Y-147120415D01*
X166083183Y-147041184D01*
X165993004Y-146992459D01*
X165943308Y-146981536D01*
X165861040Y-146978149D01*
X165798346Y-146993656D01*
X165798346Y-146993656D01*
G37*
X165798346Y-146993656D02*
X165743137Y-147031939D01*
X165722371Y-147052459D01*
X165670266Y-147107263D01*
X165670266Y-147052465D01*
X165668296Y-147022109D01*
X165657076Y-147005722D01*
X165628643Y-146999007D01*
X165575031Y-146997670D01*
X165568666Y-146997667D01*
X165467066Y-146997667D01*
X165467066Y-147516930D01*
X165467461Y-147694371D01*
X165469091Y-147834887D01*
X165472625Y-147943880D01*
X165478733Y-148026754D01*
X165488083Y-148088911D01*
X165501345Y-148135752D01*
X165519187Y-148172682D01*
X165542279Y-148205102D01*
X165554015Y-148219031D01*
X165620213Y-148273272D01*
X165707644Y-148314734D01*
X165804472Y-148339762D01*
X165898858Y-148344704D01*
X165941200Y-148338555D01*
X166039687Y-148301764D01*
X166120290Y-148243380D01*
X166177566Y-148168430D01*
X166203713Y-148096119D01*
X166208001Y-148066067D01*
X166201327Y-148048436D01*
X166176764Y-148038373D01*
X166127382Y-148031023D01*
X166107517Y-148028715D01*
X166040798Y-148024704D01*
X166002318Y-148030800D01*
X165994116Y-148038866D01*
X165961961Y-148095078D01*
X165909582Y-148130362D01*
X165847001Y-148142834D01*
X165784238Y-148130612D01*
X165731317Y-148091814D01*
X165728763Y-148088712D01*
X165699581Y-148038541D01*
X165688067Y-147974796D01*
X165687199Y-147941183D01*
X165687199Y-147845609D01*
X165748829Y-147897888D01*
X165804090Y-147933921D01*
X165866819Y-147948807D01*
X165901904Y-147950167D01*
X166010155Y-147931580D01*
X166101407Y-147876861D01*
X166174081Y-147787566D01*
X166226595Y-147665253D01*
X166239336Y-147617461D01*
X166257098Y-147478676D01*
X166254799Y-147446887D01*
X166040708Y-147446887D01*
X166035751Y-147514242D01*
X166009081Y-147604516D01*
X165963996Y-147670811D01*
X165907193Y-147710788D01*
X165845372Y-147722111D01*
X165785228Y-147702441D01*
X165733459Y-147649441D01*
X165719535Y-147624610D01*
X165696311Y-147548141D01*
X165687761Y-147456270D01*
X165694807Y-147369238D01*
X165706115Y-147329650D01*
X165751897Y-147257384D01*
X165812156Y-147216873D01*
X165878711Y-147209925D01*
X165943379Y-147238350D01*
X165975502Y-147270121D01*
X166024016Y-147353665D01*
X166040708Y-147446887D01*
X166254799Y-147446887D01*
X166247456Y-147345409D01*
X166213317Y-147223906D01*
X166157590Y-147120415D01*
X166083183Y-147041184D01*
X165993004Y-146992459D01*
X165943308Y-146981536D01*
X165861040Y-146978149D01*
X165798346Y-146993656D01*
G36*
X164851034Y-146986660D02*
G01*
X164754090Y-147023341D01*
X164675508Y-147086250D01*
X164659327Y-147106263D01*
X164615371Y-147185525D01*
X164576865Y-147290143D01*
X164549432Y-147403142D01*
X164541041Y-147463354D01*
X164531016Y-147569167D01*
X164821241Y-147569167D01*
X164916118Y-147569788D01*
X164997993Y-147571512D01*
X165061390Y-147574124D01*
X165100835Y-147577414D01*
X165111466Y-147580430D01*
X165105537Y-147605611D01*
X165090958Y-147652949D01*
X165087855Y-147662330D01*
X165045789Y-147741846D01*
X164987845Y-147789871D01*
X164921544Y-147804411D01*
X164854409Y-147783474D01*
X164803438Y-147737721D01*
X164772416Y-147702004D01*
X164744979Y-147684499D01*
X164708715Y-147681099D01*
X164651909Y-147687599D01*
X164596539Y-147696772D01*
X164568020Y-147707235D01*
X164559437Y-147723570D01*
X164562923Y-147746587D01*
X164593572Y-147824429D01*
X164640591Y-147897740D01*
X164674995Y-147933581D01*
X164765461Y-147986477D01*
X164870133Y-148015431D01*
X164974691Y-148017541D01*
X165029363Y-148005414D01*
X165119708Y-147964329D01*
X165188291Y-147905556D01*
X165235243Y-147839477D01*
X165286318Y-147724661D01*
X165313484Y-147597738D01*
X165318206Y-147466104D01*
X165302029Y-147337794D01*
X165096505Y-147337794D01*
X165084770Y-147360760D01*
X165044964Y-147373355D01*
X164974769Y-147378257D01*
X164933666Y-147378667D01*
X164857567Y-147377640D01*
X164809429Y-147373748D01*
X164783373Y-147365769D01*
X164773521Y-147352485D01*
X164772799Y-147345288D01*
X164784073Y-147310049D01*
X164812146Y-147263437D01*
X164822297Y-147250038D01*
X164871924Y-147203429D01*
X164926918Y-147188289D01*
X164933666Y-147188167D01*
X164990147Y-147200506D01*
X165039593Y-147243388D01*
X165045035Y-147250038D01*
X165082488Y-147301779D01*
X165096505Y-147337794D01*
X165302029Y-147337794D01*
X165301947Y-147337151D01*
X165266168Y-147218273D01*
X165212334Y-147116865D01*
X165141908Y-147040320D01*
X165069133Y-146999996D01*
X164958622Y-146978212D01*
X164851034Y-146986660D01*
X164851034Y-146986660D01*
G37*
X164851034Y-146986660D02*
X164754090Y-147023341D01*
X164675508Y-147086250D01*
X164659327Y-147106263D01*
X164615371Y-147185525D01*
X164576865Y-147290143D01*
X164549432Y-147403142D01*
X164541041Y-147463354D01*
X164531016Y-147569167D01*
X164821241Y-147569167D01*
X164916118Y-147569788D01*
X164997993Y-147571512D01*
X165061390Y-147574124D01*
X165100835Y-147577414D01*
X165111466Y-147580430D01*
X165105537Y-147605611D01*
X165090958Y-147652949D01*
X165087855Y-147662330D01*
X165045789Y-147741846D01*
X164987845Y-147789871D01*
X164921544Y-147804411D01*
X164854409Y-147783474D01*
X164803438Y-147737721D01*
X164772416Y-147702004D01*
X164744979Y-147684499D01*
X164708715Y-147681099D01*
X164651909Y-147687599D01*
X164596539Y-147696772D01*
X164568020Y-147707235D01*
X164559437Y-147723570D01*
X164562923Y-147746587D01*
X164593572Y-147824429D01*
X164640591Y-147897740D01*
X164674995Y-147933581D01*
X164765461Y-147986477D01*
X164870133Y-148015431D01*
X164974691Y-148017541D01*
X165029363Y-148005414D01*
X165119708Y-147964329D01*
X165188291Y-147905556D01*
X165235243Y-147839477D01*
X165286318Y-147724661D01*
X165313484Y-147597738D01*
X165318206Y-147466104D01*
X165302029Y-147337794D01*
X165096505Y-147337794D01*
X165084770Y-147360760D01*
X165044964Y-147373355D01*
X164974769Y-147378257D01*
X164933666Y-147378667D01*
X164857567Y-147377640D01*
X164809429Y-147373748D01*
X164783373Y-147365769D01*
X164773521Y-147352485D01*
X164772799Y-147345288D01*
X164784073Y-147310049D01*
X164812146Y-147263437D01*
X164822297Y-147250038D01*
X164871924Y-147203429D01*
X164926918Y-147188289D01*
X164933666Y-147188167D01*
X164990147Y-147200506D01*
X165039593Y-147243388D01*
X165045035Y-147250038D01*
X165082488Y-147301779D01*
X165096505Y-147337794D01*
X165302029Y-147337794D01*
X165301947Y-147337151D01*
X165266168Y-147218273D01*
X165212334Y-147116865D01*
X165141908Y-147040320D01*
X165069133Y-146999996D01*
X164958622Y-146978212D01*
X164851034Y-146986660D01*
G36*
X167571475Y-146978022D02*
G01*
X167476301Y-146999662D01*
X167397287Y-147041056D01*
X167366224Y-147069390D01*
X167335625Y-147107312D01*
X167313087Y-147146911D01*
X167297400Y-147195232D01*
X167287354Y-147259319D01*
X167281739Y-147346214D01*
X167279344Y-147462962D01*
X167278933Y-147577450D01*
X167277926Y-147709560D01*
X167275060Y-147816376D01*
X167270570Y-147892893D01*
X167264689Y-147934105D01*
X167261999Y-147939583D01*
X167244134Y-147963223D01*
X167258393Y-147980420D01*
X167303333Y-147990337D01*
X167353297Y-147992500D01*
X167412417Y-147991222D01*
X167446178Y-147984917D01*
X167463070Y-147969878D01*
X167471585Y-147942398D01*
X167471928Y-147940706D01*
X167482327Y-147888913D01*
X167524804Y-147938121D01*
X167588803Y-147986172D01*
X167671057Y-148010160D01*
X167761051Y-148008356D01*
X167829266Y-147988188D01*
X167899170Y-147939654D01*
X167955307Y-147866509D01*
X167992369Y-147779366D01*
X168003807Y-147697706D01*
X167786933Y-147697706D01*
X167776554Y-147752424D01*
X167742996Y-147785627D01*
X167682628Y-147800156D01*
X167654397Y-147801356D01*
X167597688Y-147794486D01*
X167554848Y-147766449D01*
X167531630Y-147740128D01*
X167497827Y-147687487D01*
X167483906Y-147629847D01*
X167482133Y-147583676D01*
X167482133Y-147489096D01*
X167610595Y-147538640D01*
X167689553Y-147571116D01*
X167741096Y-147598984D01*
X167770787Y-147627262D01*
X167784191Y-147660970D01*
X167786933Y-147697706D01*
X168003807Y-147697706D01*
X168005050Y-147688839D01*
X168000576Y-147645556D01*
X167982509Y-147595435D01*
X167950729Y-147536670D01*
X167939360Y-147519523D01*
X167882551Y-147462630D01*
X167798931Y-147417141D01*
X167685986Y-147381879D01*
X167612527Y-147366785D01*
X167545710Y-147346117D01*
X167500273Y-147313812D01*
X167482216Y-147274264D01*
X167482133Y-147271321D01*
X167493023Y-147243301D01*
X167515999Y-147209333D01*
X167566176Y-147173738D01*
X167628478Y-147166126D01*
X167690037Y-147185913D01*
X167728436Y-147218954D01*
X167756544Y-147259954D01*
X167769838Y-147290884D01*
X167769999Y-147293038D01*
X167785558Y-147305619D01*
X167826893Y-147313474D01*
X167865348Y-147315167D01*
X167960697Y-147315167D01*
X167950626Y-147237587D01*
X167924415Y-147153370D01*
X167873571Y-147076373D01*
X167807118Y-147018515D01*
X167771248Y-147000635D01*
X167673046Y-146977794D01*
X167571475Y-146978022D01*
X167571475Y-146978022D01*
G37*
X167571475Y-146978022D02*
X167476301Y-146999662D01*
X167397287Y-147041056D01*
X167366224Y-147069390D01*
X167335625Y-147107312D01*
X167313087Y-147146911D01*
X167297400Y-147195232D01*
X167287354Y-147259319D01*
X167281739Y-147346214D01*
X167279344Y-147462962D01*
X167278933Y-147577450D01*
X167277926Y-147709560D01*
X167275060Y-147816376D01*
X167270570Y-147892893D01*
X167264689Y-147934105D01*
X167261999Y-147939583D01*
X167244134Y-147963223D01*
X167258393Y-147980420D01*
X167303333Y-147990337D01*
X167353297Y-147992500D01*
X167412417Y-147991222D01*
X167446178Y-147984917D01*
X167463070Y-147969878D01*
X167471585Y-147942398D01*
X167471928Y-147940706D01*
X167482327Y-147888913D01*
X167524804Y-147938121D01*
X167588803Y-147986172D01*
X167671057Y-148010160D01*
X167761051Y-148008356D01*
X167829266Y-147988188D01*
X167899170Y-147939654D01*
X167955307Y-147866509D01*
X167992369Y-147779366D01*
X168003807Y-147697706D01*
X167786933Y-147697706D01*
X167776554Y-147752424D01*
X167742996Y-147785627D01*
X167682628Y-147800156D01*
X167654397Y-147801356D01*
X167597688Y-147794486D01*
X167554848Y-147766449D01*
X167531630Y-147740128D01*
X167497827Y-147687487D01*
X167483906Y-147629847D01*
X167482133Y-147583676D01*
X167482133Y-147489096D01*
X167610595Y-147538640D01*
X167689553Y-147571116D01*
X167741096Y-147598984D01*
X167770787Y-147627262D01*
X167784191Y-147660970D01*
X167786933Y-147697706D01*
X168003807Y-147697706D01*
X168005050Y-147688839D01*
X168000576Y-147645556D01*
X167982509Y-147595435D01*
X167950729Y-147536670D01*
X167939360Y-147519523D01*
X167882551Y-147462630D01*
X167798931Y-147417141D01*
X167685986Y-147381879D01*
X167612527Y-147366785D01*
X167545710Y-147346117D01*
X167500273Y-147313812D01*
X167482216Y-147274264D01*
X167482133Y-147271321D01*
X167493023Y-147243301D01*
X167515999Y-147209333D01*
X167566176Y-147173738D01*
X167628478Y-147166126D01*
X167690037Y-147185913D01*
X167728436Y-147218954D01*
X167756544Y-147259954D01*
X167769838Y-147290884D01*
X167769999Y-147293038D01*
X167785558Y-147305619D01*
X167826893Y-147313474D01*
X167865348Y-147315167D01*
X167960697Y-147315167D01*
X167950626Y-147237587D01*
X167924415Y-147153370D01*
X167873571Y-147076373D01*
X167807118Y-147018515D01*
X167771248Y-147000635D01*
X167673046Y-146977794D01*
X167571475Y-146978022D01*
G36*
X168623092Y-146639279D02*
G01*
X168525162Y-146645032D01*
X168449391Y-146657215D01*
X168389947Y-146677950D01*
X168340999Y-146709361D01*
X168296716Y-146753568D01*
X168251265Y-146812696D01*
X168245237Y-146821205D01*
X168182560Y-146931277D01*
X168142290Y-147055331D01*
X168122219Y-147202002D01*
X168118963Y-147315167D01*
X168131552Y-147496313D01*
X168168354Y-147649480D01*
X168230055Y-147777138D01*
X168258297Y-147817072D01*
X168303709Y-147872129D01*
X168346731Y-147913526D01*
X168393303Y-147943349D01*
X168449367Y-147963683D01*
X168520863Y-147976614D01*
X168613732Y-147984228D01*
X168733915Y-147988610D01*
X168747899Y-147988957D01*
X169039999Y-147995997D01*
X169039999Y-147742586D01*
X168802933Y-147742586D01*
X168643399Y-147735251D01*
X168566372Y-147730585D01*
X168514726Y-147723438D01*
X168479977Y-147711319D01*
X168453639Y-147691740D01*
X168438017Y-147675000D01*
X168391962Y-147606962D01*
X168363018Y-147524471D01*
X168348718Y-147418031D01*
X168346105Y-147321138D01*
X168355170Y-147174406D01*
X168382880Y-147057760D01*
X168431119Y-146964502D01*
X168454908Y-146934167D01*
X168481281Y-146908075D01*
X168511264Y-146891448D01*
X168553731Y-146881567D01*
X168617558Y-146875714D01*
X168651875Y-146873852D01*
X168802933Y-146866454D01*
X168802933Y-147742586D01*
X169039999Y-147742586D01*
X169039999Y-146637833D01*
X168749012Y-146637833D01*
X168623092Y-146639279D01*
X168623092Y-146639279D01*
G37*
X168623092Y-146639279D02*
X168525162Y-146645032D01*
X168449391Y-146657215D01*
X168389947Y-146677950D01*
X168340999Y-146709361D01*
X168296716Y-146753568D01*
X168251265Y-146812696D01*
X168245237Y-146821205D01*
X168182560Y-146931277D01*
X168142290Y-147055331D01*
X168122219Y-147202002D01*
X168118963Y-147315167D01*
X168131552Y-147496313D01*
X168168354Y-147649480D01*
X168230055Y-147777138D01*
X168258297Y-147817072D01*
X168303709Y-147872129D01*
X168346731Y-147913526D01*
X168393303Y-147943349D01*
X168449367Y-147963683D01*
X168520863Y-147976614D01*
X168613732Y-147984228D01*
X168733915Y-147988610D01*
X168747899Y-147988957D01*
X169039999Y-147995997D01*
X169039999Y-147742586D01*
X168802933Y-147742586D01*
X168643399Y-147735251D01*
X168566372Y-147730585D01*
X168514726Y-147723438D01*
X168479977Y-147711319D01*
X168453639Y-147691740D01*
X168438017Y-147675000D01*
X168391962Y-147606962D01*
X168363018Y-147524471D01*
X168348718Y-147418031D01*
X168346105Y-147321138D01*
X168355170Y-147174406D01*
X168382880Y-147057760D01*
X168431119Y-146964502D01*
X168454908Y-146934167D01*
X168481281Y-146908075D01*
X168511264Y-146891448D01*
X168553731Y-146881567D01*
X168617558Y-146875714D01*
X168651875Y-146873852D01*
X168802933Y-146866454D01*
X168802933Y-147742586D01*
X169039999Y-147742586D01*
X169039999Y-146637833D01*
X168749012Y-146637833D01*
X168623092Y-146639279D01*
G36*
X166598315Y-146985293D02*
G01*
X166564067Y-146995686D01*
X166513102Y-147027726D01*
X166463343Y-147075350D01*
X166456226Y-147084162D01*
X166406866Y-147148511D01*
X166401646Y-147570506D01*
X166396426Y-147992500D01*
X166599320Y-147992500D01*
X166604693Y-147643949D01*
X166607197Y-147511251D01*
X166610388Y-147414407D01*
X166614851Y-147346941D01*
X166621170Y-147302374D01*
X166629930Y-147274228D01*
X166639458Y-147258716D01*
X166685577Y-147227923D01*
X166743688Y-147223578D01*
X166799850Y-147244905D01*
X166826342Y-147269112D01*
X166840732Y-147289847D01*
X166851222Y-147315276D01*
X166858672Y-147352487D01*
X166863945Y-147408567D01*
X166867903Y-147490605D01*
X166871407Y-147605689D01*
X166872533Y-147649054D01*
X166880999Y-147981917D01*
X166986833Y-147988218D01*
X167092666Y-147994520D01*
X167092666Y-146997667D01*
X166992207Y-146997667D01*
X166934326Y-146999767D01*
X166901629Y-147008232D01*
X166885524Y-147026308D01*
X166881086Y-147039659D01*
X166872438Y-147066279D01*
X166859347Y-147068448D01*
X166831609Y-147045757D01*
X166822441Y-147037307D01*
X166758625Y-146999380D01*
X166678918Y-146981237D01*
X166598315Y-146985293D01*
X166598315Y-146985293D01*
G37*
X166598315Y-146985293D02*
X166564067Y-146995686D01*
X166513102Y-147027726D01*
X166463343Y-147075350D01*
X166456226Y-147084162D01*
X166406866Y-147148511D01*
X166401646Y-147570506D01*
X166396426Y-147992500D01*
X166599320Y-147992500D01*
X166604693Y-147643949D01*
X166607197Y-147511251D01*
X166610388Y-147414407D01*
X166614851Y-147346941D01*
X166621170Y-147302374D01*
X166629930Y-147274228D01*
X166639458Y-147258716D01*
X166685577Y-147227923D01*
X166743688Y-147223578D01*
X166799850Y-147244905D01*
X166826342Y-147269112D01*
X166840732Y-147289847D01*
X166851222Y-147315276D01*
X166858672Y-147352487D01*
X166863945Y-147408567D01*
X166867903Y-147490605D01*
X166871407Y-147605689D01*
X166872533Y-147649054D01*
X166880999Y-147981917D01*
X166986833Y-147988218D01*
X167092666Y-147994520D01*
X167092666Y-146997667D01*
X166992207Y-146997667D01*
X166934326Y-146999767D01*
X166901629Y-147008232D01*
X166885524Y-147026308D01*
X166881086Y-147039659D01*
X166872438Y-147066279D01*
X166859347Y-147068448D01*
X166831609Y-147045757D01*
X166822441Y-147037307D01*
X166758625Y-146999380D01*
X166678918Y-146981237D01*
X166598315Y-146985293D01*
G36*
X163958276Y-146980958D02*
G01*
X163947901Y-147000808D01*
X163943720Y-147045765D01*
X163943066Y-147103500D01*
X163943066Y-147230500D01*
X163994462Y-147230500D01*
X164056597Y-147241820D01*
X164104620Y-147277971D01*
X164139759Y-147342242D01*
X164163238Y-147437919D01*
X164176285Y-147568291D01*
X164180133Y-147728345D01*
X164180133Y-147992500D01*
X164400890Y-147992500D01*
X164396345Y-147500375D01*
X164391799Y-147008250D01*
X164290199Y-147008250D01*
X164233819Y-147009292D01*
X164202876Y-147015596D01*
X164188945Y-147031925D01*
X164183599Y-147063045D01*
X164183058Y-147068833D01*
X164177517Y-147129417D01*
X164151212Y-147082472D01*
X164111060Y-147036744D01*
X164053157Y-146998608D01*
X163993572Y-146977866D01*
X163977477Y-146976500D01*
X163958276Y-146980958D01*
X163958276Y-146980958D01*
G37*
X163958276Y-146980958D02*
X163947901Y-147000808D01*
X163943720Y-147045765D01*
X163943066Y-147103500D01*
X163943066Y-147230500D01*
X163994462Y-147230500D01*
X164056597Y-147241820D01*
X164104620Y-147277971D01*
X164139759Y-147342242D01*
X164163238Y-147437919D01*
X164176285Y-147568291D01*
X164180133Y-147728345D01*
X164180133Y-147992500D01*
X164400890Y-147992500D01*
X164396345Y-147500375D01*
X164391799Y-147008250D01*
X164290199Y-147008250D01*
X164233819Y-147009292D01*
X164202876Y-147015596D01*
X164188945Y-147031925D01*
X164183599Y-147063045D01*
X164183058Y-147068833D01*
X164177517Y-147129417D01*
X164151212Y-147082472D01*
X164111060Y-147036744D01*
X164053157Y-146998608D01*
X163993572Y-146977866D01*
X163977477Y-146976500D01*
X163958276Y-146980958D01*
G36*
X166496724Y-138750136D02*
G01*
X166479590Y-138751774D01*
X166460653Y-138753128D01*
X166453758Y-138753250D01*
X166396598Y-138756942D01*
X166358384Y-138772553D01*
X166324448Y-138806882D01*
X166316763Y-138816750D01*
X166303437Y-138841583D01*
X166274294Y-138901375D01*
X166230200Y-138994242D01*
X166172022Y-139118302D01*
X166100624Y-139271671D01*
X166016874Y-139452468D01*
X165921637Y-139658809D01*
X165815779Y-139888811D01*
X165700166Y-140140592D01*
X165575663Y-140412270D01*
X165443137Y-140701960D01*
X165303454Y-141007781D01*
X165157479Y-141327850D01*
X165006079Y-141660284D01*
X164850120Y-142003199D01*
X164758571Y-142204708D01*
X164569659Y-142620620D01*
X164396733Y-143001299D01*
X164239116Y-143348370D01*
X164096136Y-143663459D01*
X163967118Y-143948191D01*
X163851388Y-144204190D01*
X163748271Y-144433081D01*
X163657094Y-144636490D01*
X163577181Y-144816041D01*
X163507858Y-144973359D01*
X163448453Y-145110070D01*
X163398289Y-145227799D01*
X163356693Y-145328169D01*
X163322990Y-145412807D01*
X163296507Y-145483338D01*
X163276569Y-145541386D01*
X163262501Y-145588576D01*
X163253630Y-145626534D01*
X163249281Y-145656884D01*
X163248780Y-145681252D01*
X163251452Y-145701262D01*
X163256624Y-145718539D01*
X163263621Y-145734709D01*
X163271769Y-145751396D01*
X163279741Y-145768695D01*
X163316830Y-145828832D01*
X163364952Y-145877106D01*
X163368377Y-145879489D01*
X163376506Y-145884256D01*
X163387029Y-145888614D01*
X163401421Y-145892583D01*
X163421158Y-145896180D01*
X163447715Y-145899425D01*
X163482566Y-145902334D01*
X163527186Y-145904926D01*
X163583051Y-145907220D01*
X163651635Y-145909233D01*
X163734414Y-145910984D01*
X163832862Y-145912491D01*
X163948455Y-145913772D01*
X164082667Y-145914846D01*
X164236974Y-145915730D01*
X164412850Y-145916443D01*
X164611770Y-145917002D01*
X164835210Y-145917427D01*
X165084645Y-145917735D01*
X165361548Y-145917945D01*
X165667397Y-145918074D01*
X166003664Y-145918142D01*
X166371827Y-145918165D01*
X166503379Y-145918167D01*
X169580688Y-145918167D01*
X169639510Y-145853608D01*
X169696380Y-145768193D01*
X169725844Y-145671156D01*
X169725250Y-145574135D01*
X169715722Y-145548832D01*
X169690170Y-145488698D01*
X169649444Y-145395607D01*
X169647656Y-145391572D01*
X169175466Y-145391572D01*
X169158798Y-145393753D01*
X169109855Y-145395847D01*
X169030228Y-145397842D01*
X168921509Y-145399728D01*
X168785289Y-145401494D01*
X168623160Y-145403128D01*
X168436714Y-145404620D01*
X168227541Y-145405959D01*
X167997233Y-145407133D01*
X167747382Y-145408132D01*
X167479579Y-145408944D01*
X167195416Y-145409560D01*
X166896484Y-145409967D01*
X166584375Y-145410155D01*
X166481655Y-145410167D01*
X166102500Y-145410039D01*
X165749857Y-145409661D01*
X165424334Y-145409036D01*
X165126534Y-145408169D01*
X164857062Y-145407064D01*
X164616525Y-145405727D01*
X164405527Y-145404161D01*
X164224673Y-145402372D01*
X164074569Y-145400363D01*
X163955819Y-145398140D01*
X163869028Y-145395707D01*
X163814803Y-145393069D01*
X163793748Y-145390230D01*
X163793488Y-145389786D01*
X163803747Y-145364174D01*
X163829459Y-145304626D01*
X163869549Y-145213513D01*
X163922944Y-145093209D01*
X163988570Y-144946085D01*
X164065351Y-144774514D01*
X164152215Y-144580869D01*
X164248088Y-144367523D01*
X164351895Y-144136848D01*
X164462561Y-143891217D01*
X164579014Y-143633002D01*
X164700179Y-143364576D01*
X164824981Y-143088312D01*
X164952348Y-142806582D01*
X165081204Y-142521759D01*
X165210476Y-142236215D01*
X165339089Y-141952323D01*
X165465970Y-141672456D01*
X165590045Y-141398986D01*
X165710239Y-141134286D01*
X165825478Y-140880728D01*
X165934688Y-140640686D01*
X166036795Y-140416531D01*
X166130726Y-140210636D01*
X166215405Y-140025375D01*
X166289759Y-139863118D01*
X166352714Y-139726240D01*
X166403196Y-139617113D01*
X166440131Y-139538109D01*
X166462444Y-139491600D01*
X166469114Y-139479393D01*
X166479333Y-139499941D01*
X166505194Y-139554780D01*
X166545611Y-139641534D01*
X166599496Y-139757832D01*
X166665765Y-139901298D01*
X166743329Y-140069560D01*
X166831103Y-140260244D01*
X166928000Y-140470976D01*
X167032932Y-140699382D01*
X167144815Y-140943089D01*
X167262561Y-141199722D01*
X167385083Y-141466910D01*
X167511295Y-141742276D01*
X167640111Y-142023449D01*
X167770443Y-142308054D01*
X167901206Y-142593717D01*
X168031312Y-142878066D01*
X168159676Y-143158725D01*
X168285209Y-143433322D01*
X168406827Y-143699483D01*
X168523442Y-143954834D01*
X168633968Y-144197002D01*
X168737319Y-144423612D01*
X168832406Y-144632292D01*
X168918145Y-144820666D01*
X168993449Y-144986363D01*
X169057230Y-145127007D01*
X169108402Y-145240226D01*
X169145880Y-145323646D01*
X169168575Y-145374892D01*
X169175466Y-145391572D01*
X169647656Y-145391572D01*
X169594392Y-145271434D01*
X169525861Y-145118053D01*
X169444701Y-144937340D01*
X169351759Y-144731169D01*
X169247884Y-144501414D01*
X169133924Y-144249952D01*
X169010727Y-143978656D01*
X168879141Y-143689401D01*
X168740016Y-143384063D01*
X168594198Y-143064515D01*
X168442537Y-142732632D01*
X168285881Y-142390291D01*
X168187569Y-142175685D01*
X167996586Y-141758864D01*
X167821742Y-141377174D01*
X167662257Y-141029076D01*
X167517352Y-140713031D01*
X167386246Y-140427497D01*
X167268159Y-140170937D01*
X167162311Y-139941809D01*
X167067923Y-139738575D01*
X166984213Y-139559693D01*
X166910402Y-139403625D01*
X166845710Y-139268830D01*
X166789357Y-139153769D01*
X166740562Y-139056902D01*
X166698546Y-138976689D01*
X166662528Y-138911591D01*
X166631729Y-138860066D01*
X166605368Y-138820577D01*
X166582665Y-138791582D01*
X166562841Y-138771542D01*
X166545115Y-138758917D01*
X166528707Y-138752168D01*
X166512836Y-138749754D01*
X166496724Y-138750136D01*
X166496724Y-138750136D01*
G37*
X166496724Y-138750136D02*
X166479590Y-138751774D01*
X166460653Y-138753128D01*
X166453758Y-138753250D01*
X166396598Y-138756942D01*
X166358384Y-138772553D01*
X166324448Y-138806882D01*
X166316763Y-138816750D01*
X166303437Y-138841583D01*
X166274294Y-138901375D01*
X166230200Y-138994242D01*
X166172022Y-139118302D01*
X166100624Y-139271671D01*
X166016874Y-139452468D01*
X165921637Y-139658809D01*
X165815779Y-139888811D01*
X165700166Y-140140592D01*
X165575663Y-140412270D01*
X165443137Y-140701960D01*
X165303454Y-141007781D01*
X165157479Y-141327850D01*
X165006079Y-141660284D01*
X164850120Y-142003199D01*
X164758571Y-142204708D01*
X164569659Y-142620620D01*
X164396733Y-143001299D01*
X164239116Y-143348370D01*
X164096136Y-143663459D01*
X163967118Y-143948191D01*
X163851388Y-144204190D01*
X163748271Y-144433081D01*
X163657094Y-144636490D01*
X163577181Y-144816041D01*
X163507858Y-144973359D01*
X163448453Y-145110070D01*
X163398289Y-145227799D01*
X163356693Y-145328169D01*
X163322990Y-145412807D01*
X163296507Y-145483338D01*
X163276569Y-145541386D01*
X163262501Y-145588576D01*
X163253630Y-145626534D01*
X163249281Y-145656884D01*
X163248780Y-145681252D01*
X163251452Y-145701262D01*
X163256624Y-145718539D01*
X163263621Y-145734709D01*
X163271769Y-145751396D01*
X163279741Y-145768695D01*
X163316830Y-145828832D01*
X163364952Y-145877106D01*
X163368377Y-145879489D01*
X163376506Y-145884256D01*
X163387029Y-145888614D01*
X163401421Y-145892583D01*
X163421158Y-145896180D01*
X163447715Y-145899425D01*
X163482566Y-145902334D01*
X163527186Y-145904926D01*
X163583051Y-145907220D01*
X163651635Y-145909233D01*
X163734414Y-145910984D01*
X163832862Y-145912491D01*
X163948455Y-145913772D01*
X164082667Y-145914846D01*
X164236974Y-145915730D01*
X164412850Y-145916443D01*
X164611770Y-145917002D01*
X164835210Y-145917427D01*
X165084645Y-145917735D01*
X165361548Y-145917945D01*
X165667397Y-145918074D01*
X166003664Y-145918142D01*
X166371827Y-145918165D01*
X166503379Y-145918167D01*
X169580688Y-145918167D01*
X169639510Y-145853608D01*
X169696380Y-145768193D01*
X169725844Y-145671156D01*
X169725250Y-145574135D01*
X169715722Y-145548832D01*
X169690170Y-145488698D01*
X169649444Y-145395607D01*
X169647656Y-145391572D01*
X169175466Y-145391572D01*
X169158798Y-145393753D01*
X169109855Y-145395847D01*
X169030228Y-145397842D01*
X168921509Y-145399728D01*
X168785289Y-145401494D01*
X168623160Y-145403128D01*
X168436714Y-145404620D01*
X168227541Y-145405959D01*
X167997233Y-145407133D01*
X167747382Y-145408132D01*
X167479579Y-145408944D01*
X167195416Y-145409560D01*
X166896484Y-145409967D01*
X166584375Y-145410155D01*
X166481655Y-145410167D01*
X166102500Y-145410039D01*
X165749857Y-145409661D01*
X165424334Y-145409036D01*
X165126534Y-145408169D01*
X164857062Y-145407064D01*
X164616525Y-145405727D01*
X164405527Y-145404161D01*
X164224673Y-145402372D01*
X164074569Y-145400363D01*
X163955819Y-145398140D01*
X163869028Y-145395707D01*
X163814803Y-145393069D01*
X163793748Y-145390230D01*
X163793488Y-145389786D01*
X163803747Y-145364174D01*
X163829459Y-145304626D01*
X163869549Y-145213513D01*
X163922944Y-145093209D01*
X163988570Y-144946085D01*
X164065351Y-144774514D01*
X164152215Y-144580869D01*
X164248088Y-144367523D01*
X164351895Y-144136848D01*
X164462561Y-143891217D01*
X164579014Y-143633002D01*
X164700179Y-143364576D01*
X164824981Y-143088312D01*
X164952348Y-142806582D01*
X165081204Y-142521759D01*
X165210476Y-142236215D01*
X165339089Y-141952323D01*
X165465970Y-141672456D01*
X165590045Y-141398986D01*
X165710239Y-141134286D01*
X165825478Y-140880728D01*
X165934688Y-140640686D01*
X166036795Y-140416531D01*
X166130726Y-140210636D01*
X166215405Y-140025375D01*
X166289759Y-139863118D01*
X166352714Y-139726240D01*
X166403196Y-139617113D01*
X166440131Y-139538109D01*
X166462444Y-139491600D01*
X166469114Y-139479393D01*
X166479333Y-139499941D01*
X166505194Y-139554780D01*
X166545611Y-139641534D01*
X166599496Y-139757832D01*
X166665765Y-139901298D01*
X166743329Y-140069560D01*
X166831103Y-140260244D01*
X166928000Y-140470976D01*
X167032932Y-140699382D01*
X167144815Y-140943089D01*
X167262561Y-141199722D01*
X167385083Y-141466910D01*
X167511295Y-141742276D01*
X167640111Y-142023449D01*
X167770443Y-142308054D01*
X167901206Y-142593717D01*
X168031312Y-142878066D01*
X168159676Y-143158725D01*
X168285209Y-143433322D01*
X168406827Y-143699483D01*
X168523442Y-143954834D01*
X168633968Y-144197002D01*
X168737319Y-144423612D01*
X168832406Y-144632292D01*
X168918145Y-144820666D01*
X168993449Y-144986363D01*
X169057230Y-145127007D01*
X169108402Y-145240226D01*
X169145880Y-145323646D01*
X169168575Y-145374892D01*
X169175466Y-145391572D01*
X169647656Y-145391572D01*
X169594392Y-145271434D01*
X169525861Y-145118053D01*
X169444701Y-144937340D01*
X169351759Y-144731169D01*
X169247884Y-144501414D01*
X169133924Y-144249952D01*
X169010727Y-143978656D01*
X168879141Y-143689401D01*
X168740016Y-143384063D01*
X168594198Y-143064515D01*
X168442537Y-142732632D01*
X168285881Y-142390291D01*
X168187569Y-142175685D01*
X167996586Y-141758864D01*
X167821742Y-141377174D01*
X167662257Y-141029076D01*
X167517352Y-140713031D01*
X167386246Y-140427497D01*
X167268159Y-140170937D01*
X167162311Y-139941809D01*
X167067923Y-139738575D01*
X166984213Y-139559693D01*
X166910402Y-139403625D01*
X166845710Y-139268830D01*
X166789357Y-139153769D01*
X166740562Y-139056902D01*
X166698546Y-138976689D01*
X166662528Y-138911591D01*
X166631729Y-138860066D01*
X166605368Y-138820577D01*
X166582665Y-138791582D01*
X166562841Y-138771542D01*
X166545115Y-138758917D01*
X166528707Y-138752168D01*
X166512836Y-138749754D01*
X166496724Y-138750136D01*
G36*
X166705633Y-140488103D02*
G01*
X166667330Y-140518772D01*
X166610126Y-140575685D01*
X166562917Y-140626884D01*
X166414167Y-140792358D01*
X166283517Y-140807648D01*
X166206751Y-140817107D01*
X166130910Y-140827225D01*
X166072370Y-140835819D01*
X166072208Y-140835844D01*
X165991550Y-140848750D01*
X166362304Y-141695417D01*
X166438104Y-141868965D01*
X166508445Y-142030885D01*
X166571738Y-142177456D01*
X166626394Y-142304956D01*
X166670826Y-142409667D01*
X166703443Y-142487868D01*
X166722658Y-142535838D01*
X166727275Y-142550053D01*
X166709995Y-142544744D01*
X166662830Y-142524223D01*
X166587270Y-142489209D01*
X166484809Y-142440418D01*
X166356938Y-142378567D01*
X166205149Y-142304374D01*
X166030935Y-142218555D01*
X165835787Y-142121827D01*
X165825228Y-142116579D01*
X165683856Y-142046298D01*
X165695054Y-142103691D01*
X165702059Y-142138034D01*
X165716493Y-142207590D01*
X165737347Y-142307552D01*
X165763609Y-142433113D01*
X165794268Y-142579465D01*
X165828315Y-142741802D01*
X165864739Y-142915315D01*
X165902529Y-143095199D01*
X165940675Y-143276645D01*
X165978165Y-143454846D01*
X166013990Y-143624996D01*
X166047139Y-143782286D01*
X166076602Y-143921910D01*
X166101367Y-144039061D01*
X166120424Y-144128931D01*
X166132763Y-144186713D01*
X166137203Y-144206964D01*
X166137437Y-144224681D01*
X166125581Y-144238581D01*
X166097302Y-144249833D01*
X166048269Y-144259611D01*
X165974150Y-144269086D01*
X165870611Y-144279428D01*
X165868509Y-144279624D01*
X165803026Y-144287323D01*
X165753412Y-144296226D01*
X165726958Y-144304877D01*
X165724576Y-144308376D01*
X165737947Y-144326075D01*
X165772923Y-144367999D01*
X165826077Y-144430249D01*
X165893986Y-144508928D01*
X165973224Y-144600137D01*
X166060367Y-144699978D01*
X166151990Y-144804552D01*
X166244668Y-144909963D01*
X166334976Y-145012311D01*
X166419490Y-145107698D01*
X166494785Y-145192227D01*
X166557435Y-145261998D01*
X166604017Y-145313115D01*
X166631104Y-145341678D01*
X166636527Y-145346374D01*
X166643256Y-145326851D01*
X166658149Y-145271195D01*
X166680088Y-145183985D01*
X166707954Y-145069799D01*
X166740628Y-144933218D01*
X166776991Y-144778819D01*
X166812418Y-144626378D01*
X166850683Y-144459276D01*
X166885321Y-144305234D01*
X166915334Y-144168918D01*
X166939719Y-144054993D01*
X166957478Y-143968126D01*
X166967609Y-143912984D01*
X166969364Y-143894316D01*
X166951502Y-143898723D01*
X166910094Y-143919572D01*
X166851485Y-143953413D01*
X166788412Y-143992683D01*
X166720154Y-144035630D01*
X166663944Y-144069331D01*
X166625929Y-144090212D01*
X166612313Y-144095035D01*
X166606069Y-144071757D01*
X166593269Y-144015117D01*
X166575368Y-143932218D01*
X166553822Y-143830163D01*
X166530087Y-143716054D01*
X166505619Y-143596994D01*
X166481874Y-143480086D01*
X166460307Y-143372433D01*
X166442374Y-143281137D01*
X166429532Y-143213302D01*
X166423236Y-143176030D01*
X166422937Y-143171106D01*
X166439293Y-143177134D01*
X166483542Y-143197130D01*
X166552119Y-143229389D01*
X166641456Y-143272200D01*
X166747989Y-143323857D01*
X166868152Y-143382651D01*
X166990156Y-143442804D01*
X167120036Y-143506627D01*
X167239835Y-143564645D01*
X167345954Y-143615182D01*
X167434798Y-143656561D01*
X167502768Y-143687106D01*
X167546267Y-143705139D01*
X167561621Y-143709196D01*
X167557648Y-143688244D01*
X167544028Y-143630773D01*
X167521718Y-143540465D01*
X167491679Y-143421006D01*
X167454868Y-143276078D01*
X167412243Y-143109366D01*
X167364765Y-142924554D01*
X167313392Y-142725324D01*
X167259081Y-142515362D01*
X167202793Y-142298351D01*
X167145486Y-142077975D01*
X167088119Y-141857917D01*
X167031650Y-141641862D01*
X166977038Y-141433493D01*
X166925242Y-141236494D01*
X166877220Y-141054550D01*
X166833932Y-140891343D01*
X166796336Y-140750558D01*
X166765391Y-140635879D01*
X166742056Y-140550989D01*
X166727289Y-140499572D01*
X166722695Y-140485747D01*
X166705633Y-140488103D01*
X166705633Y-140488103D01*
G37*
X166705633Y-140488103D02*
X166667330Y-140518772D01*
X166610126Y-140575685D01*
X166562917Y-140626884D01*
X166414167Y-140792358D01*
X166283517Y-140807648D01*
X166206751Y-140817107D01*
X166130910Y-140827225D01*
X166072370Y-140835819D01*
X166072208Y-140835844D01*
X165991550Y-140848750D01*
X166362304Y-141695417D01*
X166438104Y-141868965D01*
X166508445Y-142030885D01*
X166571738Y-142177456D01*
X166626394Y-142304956D01*
X166670826Y-142409667D01*
X166703443Y-142487868D01*
X166722658Y-142535838D01*
X166727275Y-142550053D01*
X166709995Y-142544744D01*
X166662830Y-142524223D01*
X166587270Y-142489209D01*
X166484809Y-142440418D01*
X166356938Y-142378567D01*
X166205149Y-142304374D01*
X166030935Y-142218555D01*
X165835787Y-142121827D01*
X165825228Y-142116579D01*
X165683856Y-142046298D01*
X165695054Y-142103691D01*
X165702059Y-142138034D01*
X165716493Y-142207590D01*
X165737347Y-142307552D01*
X165763609Y-142433113D01*
X165794268Y-142579465D01*
X165828315Y-142741802D01*
X165864739Y-142915315D01*
X165902529Y-143095199D01*
X165940675Y-143276645D01*
X165978165Y-143454846D01*
X166013990Y-143624996D01*
X166047139Y-143782286D01*
X166076602Y-143921910D01*
X166101367Y-144039061D01*
X166120424Y-144128931D01*
X166132763Y-144186713D01*
X166137203Y-144206964D01*
X166137437Y-144224681D01*
X166125581Y-144238581D01*
X166097302Y-144249833D01*
X166048269Y-144259611D01*
X165974150Y-144269086D01*
X165870611Y-144279428D01*
X165868509Y-144279624D01*
X165803026Y-144287323D01*
X165753412Y-144296226D01*
X165726958Y-144304877D01*
X165724576Y-144308376D01*
X165737947Y-144326075D01*
X165772923Y-144367999D01*
X165826077Y-144430249D01*
X165893986Y-144508928D01*
X165973224Y-144600137D01*
X166060367Y-144699978D01*
X166151990Y-144804552D01*
X166244668Y-144909963D01*
X166334976Y-145012311D01*
X166419490Y-145107698D01*
X166494785Y-145192227D01*
X166557435Y-145261998D01*
X166604017Y-145313115D01*
X166631104Y-145341678D01*
X166636527Y-145346374D01*
X166643256Y-145326851D01*
X166658149Y-145271195D01*
X166680088Y-145183985D01*
X166707954Y-145069799D01*
X166740628Y-144933218D01*
X166776991Y-144778819D01*
X166812418Y-144626378D01*
X166850683Y-144459276D01*
X166885321Y-144305234D01*
X166915334Y-144168918D01*
X166939719Y-144054993D01*
X166957478Y-143968126D01*
X166967609Y-143912984D01*
X166969364Y-143894316D01*
X166951502Y-143898723D01*
X166910094Y-143919572D01*
X166851485Y-143953413D01*
X166788412Y-143992683D01*
X166720154Y-144035630D01*
X166663944Y-144069331D01*
X166625929Y-144090212D01*
X166612313Y-144095035D01*
X166606069Y-144071757D01*
X166593269Y-144015117D01*
X166575368Y-143932218D01*
X166553822Y-143830163D01*
X166530087Y-143716054D01*
X166505619Y-143596994D01*
X166481874Y-143480086D01*
X166460307Y-143372433D01*
X166442374Y-143281137D01*
X166429532Y-143213302D01*
X166423236Y-143176030D01*
X166422937Y-143171106D01*
X166439293Y-143177134D01*
X166483542Y-143197130D01*
X166552119Y-143229389D01*
X166641456Y-143272200D01*
X166747989Y-143323857D01*
X166868152Y-143382651D01*
X166990156Y-143442804D01*
X167120036Y-143506627D01*
X167239835Y-143564645D01*
X167345954Y-143615182D01*
X167434798Y-143656561D01*
X167502768Y-143687106D01*
X167546267Y-143705139D01*
X167561621Y-143709196D01*
X167557648Y-143688244D01*
X167544028Y-143630773D01*
X167521718Y-143540465D01*
X167491679Y-143421006D01*
X167454868Y-143276078D01*
X167412243Y-143109366D01*
X167364765Y-142924554D01*
X167313392Y-142725324D01*
X167259081Y-142515362D01*
X167202793Y-142298351D01*
X167145486Y-142077975D01*
X167088119Y-141857917D01*
X167031650Y-141641862D01*
X166977038Y-141433493D01*
X166925242Y-141236494D01*
X166877220Y-141054550D01*
X166833932Y-140891343D01*
X166796336Y-140750558D01*
X166765391Y-140635879D01*
X166742056Y-140550989D01*
X166727289Y-140499572D01*
X166722695Y-140485747D01*
X166705633Y-140488103D01*
M02*
