M48
; DRILL file {KiCad 5.1.4+dfsg1-1} date Вс 26 янв 2020 17:02:57
; FORMAT={-:-/ absolute / metric / decimal}
; #@! TF.CreationDate,2020-01-26T17:02:57+03:00
; #@! TF.GenerationSoftware,Kicad,Pcbnew,5.1.4+dfsg1-1
FMAT,2
METRIC
T1C0.400
T2C0.700
T3C0.710
T4C0.800
T5C0.950
T6C1.000
T7C1.199
T8C1.200
T9C1.250
T10C1.400
T11C0.700
T12C1.500
%
G90
G05
T1
X102.5Y-107.0
X108.0Y-116.0
X111.513Y-107.013
X111.64Y-104.268
X113.5Y-104.0
X117.5Y-129.0
X118.075Y-104.725
X119.69Y-116.284
X120.255Y-114.583
X120.67Y-116.631
X120.825Y-113.431
X121.0Y-119.0
X122.5Y-101.5
X123.0Y-106.5
X125.0Y-122.0
X129.5Y-112.0
X130.0Y-108.5
X130.0Y-110.0
X130.5Y-122.0
X131.0Y-117.0
X132.5Y-129.0
X140.0Y-102.5
X140.0Y-105.0
X140.0Y-108.5
X141.0Y-103.5
X141.5Y-115.0
X146.5Y-102.5
X149.643Y-112.871
X150.411Y-110.097
X150.534Y-113.325
X151.558Y-113.775
X151.85Y-110.574
X153.513Y-107.487
X155.0Y-106.5
X167.175Y-110.5
X167.423Y-108.589
X167.625Y-111.5
X173.5Y-105.5
X173.5Y-131.0
X176.0Y-130.0
X176.5Y-131.4
X184.5Y-121.0
X193.5Y-112.5
T2
X118.0Y-106.5
X124.0Y-101.5
X149.5Y-101.5
T3
X141.0Y-148.5
X142.2Y-143.4
X141.9Y-138.8
X147.0Y-140.0
T4
X105.285Y-113.27
X106.555Y-110.73
X107.825Y-113.27
X109.095Y-110.73
X110.365Y-113.27
X111.635Y-110.73
X112.905Y-113.27
X114.175Y-110.73
X115.445Y-113.27
X116.715Y-110.73
X105.285Y-121.27
X106.555Y-118.73
X107.825Y-121.27
X109.095Y-118.73
X110.365Y-121.27
X111.635Y-118.73
X112.905Y-121.27
X114.175Y-118.73
X115.445Y-121.27
X116.715Y-118.73
T5
X184.0Y-108.0
X186.5Y-108.0
X189.0Y-108.0
X191.5Y-108.0
T6
X150.9Y-150.0
X153.0Y-140.0
X158.0Y-142.5
X158.0Y-147.5
X187.4Y-137.3
X187.4Y-152.7
T7
X103.0Y-141.0
X103.0Y-163.0
X147.0Y-153.0
X103.0Y-170.0
T8
X107.0Y-151.0
X108.2Y-140.8
T9
X109.75Y-164.95
X113.25Y-170.05
X116.75Y-164.95
X120.25Y-170.05
X179.75Y-164.95
X183.25Y-170.05
X186.75Y-164.95
X190.25Y-170.05
X144.75Y-164.95
X148.25Y-170.05
X151.75Y-164.95
X155.25Y-170.05
X162.25Y-164.95
X165.75Y-170.05
X169.25Y-164.95
X172.75Y-170.05
X127.25Y-164.95
X130.75Y-170.05
X134.25Y-164.95
X137.75Y-170.05
T10
X129.0Y-136.0
X129.0Y-146.16
X129.0Y-153.78
X136.62Y-136.0
X136.62Y-153.78
X114.0Y-136.0
X114.0Y-146.16
X114.0Y-153.78
X121.62Y-136.0
X121.62Y-153.78
T11
X110.46Y-102.405
X111.73Y-102.405
X113.0Y-102.405
X114.27Y-102.405
X115.54Y-102.405
T12
X117.48Y-112.53
X117.48Y-120.53
T0
M30
