G04 #@! TF.GenerationSoftware,KiCad,Pcbnew,5.1.4+dfsg1-1*
G04 #@! TF.CreationDate,2020-01-26T17:09:30+03:00*
G04 #@! TF.ProjectId,smart-roller-gate-controller,736d6172-742d-4726-9f6c-6c65722d6761,rev?*
G04 #@! TF.SameCoordinates,Original*
G04 #@! TF.FileFunction,Soldermask,Bot*
G04 #@! TF.FilePolarity,Negative*
%FSLAX46Y46*%
G04 Gerber Fmt 4.6, Leading zero omitted, Abs format (unit mm)*
G04 Created by KiCad (PCBNEW 5.1.4+dfsg1-1) date 2020-01-26 17:09:30*
%MOMM*%
%LPD*%
G04 APERTURE LIST*
%ADD10C,0.100000*%
G04 APERTURE END LIST*
D10*
G36*
X103226905Y-168208789D02*
G01*
X103525350Y-168268153D01*
X103853122Y-168403921D01*
X104148109Y-168601025D01*
X104398975Y-168851891D01*
X104596079Y-169146878D01*
X104731847Y-169474650D01*
X104801060Y-169822611D01*
X104801060Y-170177389D01*
X104731847Y-170525350D01*
X104596079Y-170853122D01*
X104398975Y-171148109D01*
X104148109Y-171398975D01*
X103853122Y-171596079D01*
X103525350Y-171731847D01*
X103226905Y-171791211D01*
X103177390Y-171801060D01*
X102822610Y-171801060D01*
X102773095Y-171791211D01*
X102474650Y-171731847D01*
X102146878Y-171596079D01*
X101851891Y-171398975D01*
X101601025Y-171148109D01*
X101403921Y-170853122D01*
X101268153Y-170525350D01*
X101198940Y-170177389D01*
X101198940Y-169822611D01*
X101268153Y-169474650D01*
X101403921Y-169146878D01*
X101601025Y-168851891D01*
X101851891Y-168601025D01*
X102146878Y-168403921D01*
X102474650Y-168268153D01*
X102773095Y-168208789D01*
X102822610Y-168198940D01*
X103177390Y-168198940D01*
X103226905Y-168208789D01*
X103226905Y-168208789D01*
G37*
G36*
X190614903Y-168847075D02*
G01*
X190842571Y-168941378D01*
X191047466Y-169078285D01*
X191221715Y-169252534D01*
X191221716Y-169252536D01*
X191358623Y-169457431D01*
X191452925Y-169685097D01*
X191501000Y-169926786D01*
X191501000Y-170173214D01*
X191452925Y-170414903D01*
X191407177Y-170525350D01*
X191358622Y-170642571D01*
X191221715Y-170847466D01*
X191047466Y-171021715D01*
X190842571Y-171158622D01*
X190842570Y-171158623D01*
X190842569Y-171158623D01*
X190614903Y-171252925D01*
X190373214Y-171301000D01*
X190126786Y-171301000D01*
X189885097Y-171252925D01*
X189657431Y-171158623D01*
X189657430Y-171158623D01*
X189657429Y-171158622D01*
X189452534Y-171021715D01*
X189278285Y-170847466D01*
X189141378Y-170642571D01*
X189092824Y-170525350D01*
X189047075Y-170414903D01*
X188999000Y-170173214D01*
X188999000Y-169926786D01*
X189047075Y-169685097D01*
X189141377Y-169457431D01*
X189278284Y-169252536D01*
X189278285Y-169252534D01*
X189452534Y-169078285D01*
X189657429Y-168941378D01*
X189885097Y-168847075D01*
X190126786Y-168799000D01*
X190373214Y-168799000D01*
X190614903Y-168847075D01*
X190614903Y-168847075D01*
G37*
G36*
X173114903Y-168847075D02*
G01*
X173342571Y-168941378D01*
X173547466Y-169078285D01*
X173721715Y-169252534D01*
X173721716Y-169252536D01*
X173858623Y-169457431D01*
X173952925Y-169685097D01*
X174001000Y-169926786D01*
X174001000Y-170173214D01*
X173952925Y-170414903D01*
X173907177Y-170525350D01*
X173858622Y-170642571D01*
X173721715Y-170847466D01*
X173547466Y-171021715D01*
X173342571Y-171158622D01*
X173342570Y-171158623D01*
X173342569Y-171158623D01*
X173114903Y-171252925D01*
X172873214Y-171301000D01*
X172626786Y-171301000D01*
X172385097Y-171252925D01*
X172157431Y-171158623D01*
X172157430Y-171158623D01*
X172157429Y-171158622D01*
X171952534Y-171021715D01*
X171778285Y-170847466D01*
X171641378Y-170642571D01*
X171592824Y-170525350D01*
X171547075Y-170414903D01*
X171499000Y-170173214D01*
X171499000Y-169926786D01*
X171547075Y-169685097D01*
X171641377Y-169457431D01*
X171778284Y-169252536D01*
X171778285Y-169252534D01*
X171952534Y-169078285D01*
X172157429Y-168941378D01*
X172385097Y-168847075D01*
X172626786Y-168799000D01*
X172873214Y-168799000D01*
X173114903Y-168847075D01*
X173114903Y-168847075D01*
G37*
G36*
X166114903Y-168847075D02*
G01*
X166342571Y-168941378D01*
X166547466Y-169078285D01*
X166721715Y-169252534D01*
X166721716Y-169252536D01*
X166858623Y-169457431D01*
X166952925Y-169685097D01*
X167001000Y-169926786D01*
X167001000Y-170173214D01*
X166952925Y-170414903D01*
X166907177Y-170525350D01*
X166858622Y-170642571D01*
X166721715Y-170847466D01*
X166547466Y-171021715D01*
X166342571Y-171158622D01*
X166342570Y-171158623D01*
X166342569Y-171158623D01*
X166114903Y-171252925D01*
X165873214Y-171301000D01*
X165626786Y-171301000D01*
X165385097Y-171252925D01*
X165157431Y-171158623D01*
X165157430Y-171158623D01*
X165157429Y-171158622D01*
X164952534Y-171021715D01*
X164778285Y-170847466D01*
X164641378Y-170642571D01*
X164592824Y-170525350D01*
X164547075Y-170414903D01*
X164499000Y-170173214D01*
X164499000Y-169926786D01*
X164547075Y-169685097D01*
X164641377Y-169457431D01*
X164778284Y-169252536D01*
X164778285Y-169252534D01*
X164952534Y-169078285D01*
X165157429Y-168941378D01*
X165385097Y-168847075D01*
X165626786Y-168799000D01*
X165873214Y-168799000D01*
X166114903Y-168847075D01*
X166114903Y-168847075D01*
G37*
G36*
X148614903Y-168847075D02*
G01*
X148842571Y-168941378D01*
X149047466Y-169078285D01*
X149221715Y-169252534D01*
X149221716Y-169252536D01*
X149358623Y-169457431D01*
X149452925Y-169685097D01*
X149501000Y-169926786D01*
X149501000Y-170173214D01*
X149452925Y-170414903D01*
X149407177Y-170525350D01*
X149358622Y-170642571D01*
X149221715Y-170847466D01*
X149047466Y-171021715D01*
X148842571Y-171158622D01*
X148842570Y-171158623D01*
X148842569Y-171158623D01*
X148614903Y-171252925D01*
X148373214Y-171301000D01*
X148126786Y-171301000D01*
X147885097Y-171252925D01*
X147657431Y-171158623D01*
X147657430Y-171158623D01*
X147657429Y-171158622D01*
X147452534Y-171021715D01*
X147278285Y-170847466D01*
X147141378Y-170642571D01*
X147092824Y-170525350D01*
X147047075Y-170414903D01*
X146999000Y-170173214D01*
X146999000Y-169926786D01*
X147047075Y-169685097D01*
X147141377Y-169457431D01*
X147278284Y-169252536D01*
X147278285Y-169252534D01*
X147452534Y-169078285D01*
X147657429Y-168941378D01*
X147885097Y-168847075D01*
X148126786Y-168799000D01*
X148373214Y-168799000D01*
X148614903Y-168847075D01*
X148614903Y-168847075D01*
G37*
G36*
X155614903Y-168847075D02*
G01*
X155842571Y-168941378D01*
X156047466Y-169078285D01*
X156221715Y-169252534D01*
X156221716Y-169252536D01*
X156358623Y-169457431D01*
X156452925Y-169685097D01*
X156501000Y-169926786D01*
X156501000Y-170173214D01*
X156452925Y-170414903D01*
X156407177Y-170525350D01*
X156358622Y-170642571D01*
X156221715Y-170847466D01*
X156047466Y-171021715D01*
X155842571Y-171158622D01*
X155842570Y-171158623D01*
X155842569Y-171158623D01*
X155614903Y-171252925D01*
X155373214Y-171301000D01*
X155126786Y-171301000D01*
X154885097Y-171252925D01*
X154657431Y-171158623D01*
X154657430Y-171158623D01*
X154657429Y-171158622D01*
X154452534Y-171021715D01*
X154278285Y-170847466D01*
X154141378Y-170642571D01*
X154092824Y-170525350D01*
X154047075Y-170414903D01*
X153999000Y-170173214D01*
X153999000Y-169926786D01*
X154047075Y-169685097D01*
X154141377Y-169457431D01*
X154278284Y-169252536D01*
X154278285Y-169252534D01*
X154452534Y-169078285D01*
X154657429Y-168941378D01*
X154885097Y-168847075D01*
X155126786Y-168799000D01*
X155373214Y-168799000D01*
X155614903Y-168847075D01*
X155614903Y-168847075D01*
G37*
G36*
X138114903Y-168847075D02*
G01*
X138342571Y-168941378D01*
X138547466Y-169078285D01*
X138721715Y-169252534D01*
X138721716Y-169252536D01*
X138858623Y-169457431D01*
X138952925Y-169685097D01*
X139001000Y-169926786D01*
X139001000Y-170173214D01*
X138952925Y-170414903D01*
X138907177Y-170525350D01*
X138858622Y-170642571D01*
X138721715Y-170847466D01*
X138547466Y-171021715D01*
X138342571Y-171158622D01*
X138342570Y-171158623D01*
X138342569Y-171158623D01*
X138114903Y-171252925D01*
X137873214Y-171301000D01*
X137626786Y-171301000D01*
X137385097Y-171252925D01*
X137157431Y-171158623D01*
X137157430Y-171158623D01*
X137157429Y-171158622D01*
X136952534Y-171021715D01*
X136778285Y-170847466D01*
X136641378Y-170642571D01*
X136592824Y-170525350D01*
X136547075Y-170414903D01*
X136499000Y-170173214D01*
X136499000Y-169926786D01*
X136547075Y-169685097D01*
X136641377Y-169457431D01*
X136778284Y-169252536D01*
X136778285Y-169252534D01*
X136952534Y-169078285D01*
X137157429Y-168941378D01*
X137385097Y-168847075D01*
X137626786Y-168799000D01*
X137873214Y-168799000D01*
X138114903Y-168847075D01*
X138114903Y-168847075D01*
G37*
G36*
X113614903Y-168847075D02*
G01*
X113842571Y-168941378D01*
X114047466Y-169078285D01*
X114221715Y-169252534D01*
X114221716Y-169252536D01*
X114358623Y-169457431D01*
X114452925Y-169685097D01*
X114501000Y-169926786D01*
X114501000Y-170173214D01*
X114452925Y-170414903D01*
X114407177Y-170525350D01*
X114358622Y-170642571D01*
X114221715Y-170847466D01*
X114047466Y-171021715D01*
X113842571Y-171158622D01*
X113842570Y-171158623D01*
X113842569Y-171158623D01*
X113614903Y-171252925D01*
X113373214Y-171301000D01*
X113126786Y-171301000D01*
X112885097Y-171252925D01*
X112657431Y-171158623D01*
X112657430Y-171158623D01*
X112657429Y-171158622D01*
X112452534Y-171021715D01*
X112278285Y-170847466D01*
X112141378Y-170642571D01*
X112092824Y-170525350D01*
X112047075Y-170414903D01*
X111999000Y-170173214D01*
X111999000Y-169926786D01*
X112047075Y-169685097D01*
X112141377Y-169457431D01*
X112278284Y-169252536D01*
X112278285Y-169252534D01*
X112452534Y-169078285D01*
X112657429Y-168941378D01*
X112885097Y-168847075D01*
X113126786Y-168799000D01*
X113373214Y-168799000D01*
X113614903Y-168847075D01*
X113614903Y-168847075D01*
G37*
G36*
X120614903Y-168847075D02*
G01*
X120842571Y-168941378D01*
X121047466Y-169078285D01*
X121221715Y-169252534D01*
X121221716Y-169252536D01*
X121358623Y-169457431D01*
X121452925Y-169685097D01*
X121501000Y-169926786D01*
X121501000Y-170173214D01*
X121452925Y-170414903D01*
X121407177Y-170525350D01*
X121358622Y-170642571D01*
X121221715Y-170847466D01*
X121047466Y-171021715D01*
X120842571Y-171158622D01*
X120842570Y-171158623D01*
X120842569Y-171158623D01*
X120614903Y-171252925D01*
X120373214Y-171301000D01*
X120126786Y-171301000D01*
X119885097Y-171252925D01*
X119657431Y-171158623D01*
X119657430Y-171158623D01*
X119657429Y-171158622D01*
X119452534Y-171021715D01*
X119278285Y-170847466D01*
X119141378Y-170642571D01*
X119092824Y-170525350D01*
X119047075Y-170414903D01*
X118999000Y-170173214D01*
X118999000Y-169926786D01*
X119047075Y-169685097D01*
X119141377Y-169457431D01*
X119278284Y-169252536D01*
X119278285Y-169252534D01*
X119452534Y-169078285D01*
X119657429Y-168941378D01*
X119885097Y-168847075D01*
X120126786Y-168799000D01*
X120373214Y-168799000D01*
X120614903Y-168847075D01*
X120614903Y-168847075D01*
G37*
G36*
X183614903Y-168847075D02*
G01*
X183842571Y-168941378D01*
X184047466Y-169078285D01*
X184221715Y-169252534D01*
X184221716Y-169252536D01*
X184358623Y-169457431D01*
X184452925Y-169685097D01*
X184501000Y-169926786D01*
X184501000Y-170173214D01*
X184452925Y-170414903D01*
X184407177Y-170525350D01*
X184358622Y-170642571D01*
X184221715Y-170847466D01*
X184047466Y-171021715D01*
X183842571Y-171158622D01*
X183842570Y-171158623D01*
X183842569Y-171158623D01*
X183614903Y-171252925D01*
X183373214Y-171301000D01*
X183126786Y-171301000D01*
X182885097Y-171252925D01*
X182657431Y-171158623D01*
X182657430Y-171158623D01*
X182657429Y-171158622D01*
X182452534Y-171021715D01*
X182278285Y-170847466D01*
X182141378Y-170642571D01*
X182092824Y-170525350D01*
X182047075Y-170414903D01*
X181999000Y-170173214D01*
X181999000Y-169926786D01*
X182047075Y-169685097D01*
X182141377Y-169457431D01*
X182278284Y-169252536D01*
X182278285Y-169252534D01*
X182452534Y-169078285D01*
X182657429Y-168941378D01*
X182885097Y-168847075D01*
X183126786Y-168799000D01*
X183373214Y-168799000D01*
X183614903Y-168847075D01*
X183614903Y-168847075D01*
G37*
G36*
X131114903Y-168847075D02*
G01*
X131342571Y-168941378D01*
X131547466Y-169078285D01*
X131721715Y-169252534D01*
X131721716Y-169252536D01*
X131858623Y-169457431D01*
X131952925Y-169685097D01*
X132001000Y-169926786D01*
X132001000Y-170173214D01*
X131952925Y-170414903D01*
X131907177Y-170525350D01*
X131858622Y-170642571D01*
X131721715Y-170847466D01*
X131547466Y-171021715D01*
X131342571Y-171158622D01*
X131342570Y-171158623D01*
X131342569Y-171158623D01*
X131114903Y-171252925D01*
X130873214Y-171301000D01*
X130626786Y-171301000D01*
X130385097Y-171252925D01*
X130157431Y-171158623D01*
X130157430Y-171158623D01*
X130157429Y-171158622D01*
X129952534Y-171021715D01*
X129778285Y-170847466D01*
X129641378Y-170642571D01*
X129592824Y-170525350D01*
X129547075Y-170414903D01*
X129499000Y-170173214D01*
X129499000Y-169926786D01*
X129547075Y-169685097D01*
X129641377Y-169457431D01*
X129778284Y-169252536D01*
X129778285Y-169252534D01*
X129952534Y-169078285D01*
X130157429Y-168941378D01*
X130385097Y-168847075D01*
X130626786Y-168799000D01*
X130873214Y-168799000D01*
X131114903Y-168847075D01*
X131114903Y-168847075D01*
G37*
G36*
X127614903Y-163747075D02*
G01*
X127842571Y-163841378D01*
X128047466Y-163978285D01*
X128221715Y-164152534D01*
X128221716Y-164152536D01*
X128358623Y-164357431D01*
X128375831Y-164398975D01*
X128452925Y-164585097D01*
X128501000Y-164826787D01*
X128501000Y-165073213D01*
X128452925Y-165314903D01*
X128358622Y-165542571D01*
X128221715Y-165747466D01*
X128047466Y-165921715D01*
X127842571Y-166058622D01*
X127842570Y-166058623D01*
X127842569Y-166058623D01*
X127614903Y-166152925D01*
X127373214Y-166201000D01*
X127126786Y-166201000D01*
X126885097Y-166152925D01*
X126657431Y-166058623D01*
X126657430Y-166058623D01*
X126657429Y-166058622D01*
X126452534Y-165921715D01*
X126278285Y-165747466D01*
X126141378Y-165542571D01*
X126047075Y-165314903D01*
X125999000Y-165073213D01*
X125999000Y-164826787D01*
X126047075Y-164585097D01*
X126124169Y-164398975D01*
X126141377Y-164357431D01*
X126278284Y-164152536D01*
X126278285Y-164152534D01*
X126452534Y-163978285D01*
X126657429Y-163841378D01*
X126885097Y-163747075D01*
X127126786Y-163699000D01*
X127373214Y-163699000D01*
X127614903Y-163747075D01*
X127614903Y-163747075D01*
G37*
G36*
X169614903Y-163747075D02*
G01*
X169842571Y-163841378D01*
X170047466Y-163978285D01*
X170221715Y-164152534D01*
X170221716Y-164152536D01*
X170358623Y-164357431D01*
X170375831Y-164398975D01*
X170452925Y-164585097D01*
X170501000Y-164826787D01*
X170501000Y-165073213D01*
X170452925Y-165314903D01*
X170358622Y-165542571D01*
X170221715Y-165747466D01*
X170047466Y-165921715D01*
X169842571Y-166058622D01*
X169842570Y-166058623D01*
X169842569Y-166058623D01*
X169614903Y-166152925D01*
X169373214Y-166201000D01*
X169126786Y-166201000D01*
X168885097Y-166152925D01*
X168657431Y-166058623D01*
X168657430Y-166058623D01*
X168657429Y-166058622D01*
X168452534Y-165921715D01*
X168278285Y-165747466D01*
X168141378Y-165542571D01*
X168047075Y-165314903D01*
X167999000Y-165073213D01*
X167999000Y-164826787D01*
X168047075Y-164585097D01*
X168124169Y-164398975D01*
X168141377Y-164357431D01*
X168278284Y-164152536D01*
X168278285Y-164152534D01*
X168452534Y-163978285D01*
X168657429Y-163841378D01*
X168885097Y-163747075D01*
X169126786Y-163699000D01*
X169373214Y-163699000D01*
X169614903Y-163747075D01*
X169614903Y-163747075D01*
G37*
G36*
X180114903Y-163747075D02*
G01*
X180342571Y-163841378D01*
X180547466Y-163978285D01*
X180721715Y-164152534D01*
X180721716Y-164152536D01*
X180858623Y-164357431D01*
X180875831Y-164398975D01*
X180952925Y-164585097D01*
X181001000Y-164826787D01*
X181001000Y-165073213D01*
X180952925Y-165314903D01*
X180858622Y-165542571D01*
X180721715Y-165747466D01*
X180547466Y-165921715D01*
X180342571Y-166058622D01*
X180342570Y-166058623D01*
X180342569Y-166058623D01*
X180114903Y-166152925D01*
X179873214Y-166201000D01*
X179626786Y-166201000D01*
X179385097Y-166152925D01*
X179157431Y-166058623D01*
X179157430Y-166058623D01*
X179157429Y-166058622D01*
X178952534Y-165921715D01*
X178778285Y-165747466D01*
X178641378Y-165542571D01*
X178547075Y-165314903D01*
X178499000Y-165073213D01*
X178499000Y-164826787D01*
X178547075Y-164585097D01*
X178624169Y-164398975D01*
X178641377Y-164357431D01*
X178778284Y-164152536D01*
X178778285Y-164152534D01*
X178952534Y-163978285D01*
X179157429Y-163841378D01*
X179385097Y-163747075D01*
X179626786Y-163699000D01*
X179873214Y-163699000D01*
X180114903Y-163747075D01*
X180114903Y-163747075D01*
G37*
G36*
X187114903Y-163747075D02*
G01*
X187342571Y-163841378D01*
X187547466Y-163978285D01*
X187721715Y-164152534D01*
X187721716Y-164152536D01*
X187858623Y-164357431D01*
X187875831Y-164398975D01*
X187952925Y-164585097D01*
X188001000Y-164826787D01*
X188001000Y-165073213D01*
X187952925Y-165314903D01*
X187858622Y-165542571D01*
X187721715Y-165747466D01*
X187547466Y-165921715D01*
X187342571Y-166058622D01*
X187342570Y-166058623D01*
X187342569Y-166058623D01*
X187114903Y-166152925D01*
X186873214Y-166201000D01*
X186626786Y-166201000D01*
X186385097Y-166152925D01*
X186157431Y-166058623D01*
X186157430Y-166058623D01*
X186157429Y-166058622D01*
X185952534Y-165921715D01*
X185778285Y-165747466D01*
X185641378Y-165542571D01*
X185547075Y-165314903D01*
X185499000Y-165073213D01*
X185499000Y-164826787D01*
X185547075Y-164585097D01*
X185624169Y-164398975D01*
X185641377Y-164357431D01*
X185778284Y-164152536D01*
X185778285Y-164152534D01*
X185952534Y-163978285D01*
X186157429Y-163841378D01*
X186385097Y-163747075D01*
X186626786Y-163699000D01*
X186873214Y-163699000D01*
X187114903Y-163747075D01*
X187114903Y-163747075D01*
G37*
G36*
X117114903Y-163747075D02*
G01*
X117342571Y-163841378D01*
X117547466Y-163978285D01*
X117721715Y-164152534D01*
X117721716Y-164152536D01*
X117858623Y-164357431D01*
X117875831Y-164398975D01*
X117952925Y-164585097D01*
X118001000Y-164826787D01*
X118001000Y-165073213D01*
X117952925Y-165314903D01*
X117858622Y-165542571D01*
X117721715Y-165747466D01*
X117547466Y-165921715D01*
X117342571Y-166058622D01*
X117342570Y-166058623D01*
X117342569Y-166058623D01*
X117114903Y-166152925D01*
X116873214Y-166201000D01*
X116626786Y-166201000D01*
X116385097Y-166152925D01*
X116157431Y-166058623D01*
X116157430Y-166058623D01*
X116157429Y-166058622D01*
X115952534Y-165921715D01*
X115778285Y-165747466D01*
X115641378Y-165542571D01*
X115547075Y-165314903D01*
X115499000Y-165073213D01*
X115499000Y-164826787D01*
X115547075Y-164585097D01*
X115624169Y-164398975D01*
X115641377Y-164357431D01*
X115778284Y-164152536D01*
X115778285Y-164152534D01*
X115952534Y-163978285D01*
X116157429Y-163841378D01*
X116385097Y-163747075D01*
X116626786Y-163699000D01*
X116873214Y-163699000D01*
X117114903Y-163747075D01*
X117114903Y-163747075D01*
G37*
G36*
X110114903Y-163747075D02*
G01*
X110342571Y-163841378D01*
X110547466Y-163978285D01*
X110721715Y-164152534D01*
X110721716Y-164152536D01*
X110858623Y-164357431D01*
X110875831Y-164398975D01*
X110952925Y-164585097D01*
X111001000Y-164826787D01*
X111001000Y-165073213D01*
X110952925Y-165314903D01*
X110858622Y-165542571D01*
X110721715Y-165747466D01*
X110547466Y-165921715D01*
X110342571Y-166058622D01*
X110342570Y-166058623D01*
X110342569Y-166058623D01*
X110114903Y-166152925D01*
X109873214Y-166201000D01*
X109626786Y-166201000D01*
X109385097Y-166152925D01*
X109157431Y-166058623D01*
X109157430Y-166058623D01*
X109157429Y-166058622D01*
X108952534Y-165921715D01*
X108778285Y-165747466D01*
X108641378Y-165542571D01*
X108547075Y-165314903D01*
X108499000Y-165073213D01*
X108499000Y-164826787D01*
X108547075Y-164585097D01*
X108624169Y-164398975D01*
X108641377Y-164357431D01*
X108778284Y-164152536D01*
X108778285Y-164152534D01*
X108952534Y-163978285D01*
X109157429Y-163841378D01*
X109385097Y-163747075D01*
X109626786Y-163699000D01*
X109873214Y-163699000D01*
X110114903Y-163747075D01*
X110114903Y-163747075D01*
G37*
G36*
X152114903Y-163747075D02*
G01*
X152342571Y-163841378D01*
X152547466Y-163978285D01*
X152721715Y-164152534D01*
X152721716Y-164152536D01*
X152858623Y-164357431D01*
X152875831Y-164398975D01*
X152952925Y-164585097D01*
X153001000Y-164826787D01*
X153001000Y-165073213D01*
X152952925Y-165314903D01*
X152858622Y-165542571D01*
X152721715Y-165747466D01*
X152547466Y-165921715D01*
X152342571Y-166058622D01*
X152342570Y-166058623D01*
X152342569Y-166058623D01*
X152114903Y-166152925D01*
X151873214Y-166201000D01*
X151626786Y-166201000D01*
X151385097Y-166152925D01*
X151157431Y-166058623D01*
X151157430Y-166058623D01*
X151157429Y-166058622D01*
X150952534Y-165921715D01*
X150778285Y-165747466D01*
X150641378Y-165542571D01*
X150547075Y-165314903D01*
X150499000Y-165073213D01*
X150499000Y-164826787D01*
X150547075Y-164585097D01*
X150624169Y-164398975D01*
X150641377Y-164357431D01*
X150778284Y-164152536D01*
X150778285Y-164152534D01*
X150952534Y-163978285D01*
X151157429Y-163841378D01*
X151385097Y-163747075D01*
X151626786Y-163699000D01*
X151873214Y-163699000D01*
X152114903Y-163747075D01*
X152114903Y-163747075D01*
G37*
G36*
X145114903Y-163747075D02*
G01*
X145342571Y-163841378D01*
X145547466Y-163978285D01*
X145721715Y-164152534D01*
X145721716Y-164152536D01*
X145858623Y-164357431D01*
X145875831Y-164398975D01*
X145952925Y-164585097D01*
X146001000Y-164826787D01*
X146001000Y-165073213D01*
X145952925Y-165314903D01*
X145858622Y-165542571D01*
X145721715Y-165747466D01*
X145547466Y-165921715D01*
X145342571Y-166058622D01*
X145342570Y-166058623D01*
X145342569Y-166058623D01*
X145114903Y-166152925D01*
X144873214Y-166201000D01*
X144626786Y-166201000D01*
X144385097Y-166152925D01*
X144157431Y-166058623D01*
X144157430Y-166058623D01*
X144157429Y-166058622D01*
X143952534Y-165921715D01*
X143778285Y-165747466D01*
X143641378Y-165542571D01*
X143547075Y-165314903D01*
X143499000Y-165073213D01*
X143499000Y-164826787D01*
X143547075Y-164585097D01*
X143624169Y-164398975D01*
X143641377Y-164357431D01*
X143778284Y-164152536D01*
X143778285Y-164152534D01*
X143952534Y-163978285D01*
X144157429Y-163841378D01*
X144385097Y-163747075D01*
X144626786Y-163699000D01*
X144873214Y-163699000D01*
X145114903Y-163747075D01*
X145114903Y-163747075D01*
G37*
G36*
X162614903Y-163747075D02*
G01*
X162842571Y-163841378D01*
X163047466Y-163978285D01*
X163221715Y-164152534D01*
X163221716Y-164152536D01*
X163358623Y-164357431D01*
X163375831Y-164398975D01*
X163452925Y-164585097D01*
X163501000Y-164826787D01*
X163501000Y-165073213D01*
X163452925Y-165314903D01*
X163358622Y-165542571D01*
X163221715Y-165747466D01*
X163047466Y-165921715D01*
X162842571Y-166058622D01*
X162842570Y-166058623D01*
X162842569Y-166058623D01*
X162614903Y-166152925D01*
X162373214Y-166201000D01*
X162126786Y-166201000D01*
X161885097Y-166152925D01*
X161657431Y-166058623D01*
X161657430Y-166058623D01*
X161657429Y-166058622D01*
X161452534Y-165921715D01*
X161278285Y-165747466D01*
X161141378Y-165542571D01*
X161047075Y-165314903D01*
X160999000Y-165073213D01*
X160999000Y-164826787D01*
X161047075Y-164585097D01*
X161124169Y-164398975D01*
X161141377Y-164357431D01*
X161278284Y-164152536D01*
X161278285Y-164152534D01*
X161452534Y-163978285D01*
X161657429Y-163841378D01*
X161885097Y-163747075D01*
X162126786Y-163699000D01*
X162373214Y-163699000D01*
X162614903Y-163747075D01*
X162614903Y-163747075D01*
G37*
G36*
X134614903Y-163747075D02*
G01*
X134842571Y-163841378D01*
X135047466Y-163978285D01*
X135221715Y-164152534D01*
X135221716Y-164152536D01*
X135358623Y-164357431D01*
X135375831Y-164398975D01*
X135452925Y-164585097D01*
X135501000Y-164826787D01*
X135501000Y-165073213D01*
X135452925Y-165314903D01*
X135358622Y-165542571D01*
X135221715Y-165747466D01*
X135047466Y-165921715D01*
X134842571Y-166058622D01*
X134842570Y-166058623D01*
X134842569Y-166058623D01*
X134614903Y-166152925D01*
X134373214Y-166201000D01*
X134126786Y-166201000D01*
X133885097Y-166152925D01*
X133657431Y-166058623D01*
X133657430Y-166058623D01*
X133657429Y-166058622D01*
X133452534Y-165921715D01*
X133278285Y-165747466D01*
X133141378Y-165542571D01*
X133047075Y-165314903D01*
X132999000Y-165073213D01*
X132999000Y-164826787D01*
X133047075Y-164585097D01*
X133124169Y-164398975D01*
X133141377Y-164357431D01*
X133278284Y-164152536D01*
X133278285Y-164152534D01*
X133452534Y-163978285D01*
X133657429Y-163841378D01*
X133885097Y-163747075D01*
X134126786Y-163699000D01*
X134373214Y-163699000D01*
X134614903Y-163747075D01*
X134614903Y-163747075D01*
G37*
G36*
X103226905Y-161208789D02*
G01*
X103525350Y-161268153D01*
X103853122Y-161403921D01*
X104148109Y-161601025D01*
X104398975Y-161851891D01*
X104596079Y-162146878D01*
X104731847Y-162474650D01*
X104801060Y-162822611D01*
X104801060Y-163177389D01*
X104731847Y-163525350D01*
X104596079Y-163853122D01*
X104398975Y-164148109D01*
X104148109Y-164398975D01*
X103853122Y-164596079D01*
X103525350Y-164731847D01*
X103226905Y-164791211D01*
X103177390Y-164801060D01*
X102822610Y-164801060D01*
X102773095Y-164791211D01*
X102474650Y-164731847D01*
X102146878Y-164596079D01*
X101851891Y-164398975D01*
X101601025Y-164148109D01*
X101403921Y-163853122D01*
X101268153Y-163525350D01*
X101198940Y-163177389D01*
X101198940Y-162822611D01*
X101268153Y-162474650D01*
X101403921Y-162146878D01*
X101601025Y-161851891D01*
X101851891Y-161601025D01*
X102146878Y-161403921D01*
X102474650Y-161268153D01*
X102773095Y-161208789D01*
X102822610Y-161198940D01*
X103177390Y-161198940D01*
X103226905Y-161208789D01*
X103226905Y-161208789D01*
G37*
G36*
X114350318Y-152625153D02*
G01*
X114568885Y-152715687D01*
X114568887Y-152715688D01*
X114765593Y-152847122D01*
X114932878Y-153014407D01*
X114956873Y-153050319D01*
X115064313Y-153211115D01*
X115154847Y-153429682D01*
X115201000Y-153661710D01*
X115201000Y-153898290D01*
X115154847Y-154130318D01*
X115064313Y-154348885D01*
X115064312Y-154348887D01*
X114932878Y-154545593D01*
X114765593Y-154712878D01*
X114568887Y-154844312D01*
X114568886Y-154844313D01*
X114568885Y-154844313D01*
X114350318Y-154934847D01*
X114118290Y-154981000D01*
X113881710Y-154981000D01*
X113649682Y-154934847D01*
X113431115Y-154844313D01*
X113431114Y-154844313D01*
X113431113Y-154844312D01*
X113234407Y-154712878D01*
X113067122Y-154545593D01*
X112935688Y-154348887D01*
X112935687Y-154348885D01*
X112845153Y-154130318D01*
X112799000Y-153898290D01*
X112799000Y-153661710D01*
X112845153Y-153429682D01*
X112935687Y-153211115D01*
X113043127Y-153050319D01*
X113067122Y-153014407D01*
X113234407Y-152847122D01*
X113431113Y-152715688D01*
X113431115Y-152715687D01*
X113649682Y-152625153D01*
X113881710Y-152579000D01*
X114118290Y-152579000D01*
X114350318Y-152625153D01*
X114350318Y-152625153D01*
G37*
G36*
X121970318Y-152625153D02*
G01*
X122188885Y-152715687D01*
X122188887Y-152715688D01*
X122385593Y-152847122D01*
X122552878Y-153014407D01*
X122576873Y-153050319D01*
X122684313Y-153211115D01*
X122774847Y-153429682D01*
X122821000Y-153661710D01*
X122821000Y-153898290D01*
X122774847Y-154130318D01*
X122684313Y-154348885D01*
X122684312Y-154348887D01*
X122552878Y-154545593D01*
X122385593Y-154712878D01*
X122188887Y-154844312D01*
X122188886Y-154844313D01*
X122188885Y-154844313D01*
X121970318Y-154934847D01*
X121738290Y-154981000D01*
X121501710Y-154981000D01*
X121269682Y-154934847D01*
X121051115Y-154844313D01*
X121051114Y-154844313D01*
X121051113Y-154844312D01*
X120854407Y-154712878D01*
X120687122Y-154545593D01*
X120555688Y-154348887D01*
X120555687Y-154348885D01*
X120465153Y-154130318D01*
X120419000Y-153898290D01*
X120419000Y-153661710D01*
X120465153Y-153429682D01*
X120555687Y-153211115D01*
X120663127Y-153050319D01*
X120687122Y-153014407D01*
X120854407Y-152847122D01*
X121051113Y-152715688D01*
X121051115Y-152715687D01*
X121269682Y-152625153D01*
X121501710Y-152579000D01*
X121738290Y-152579000D01*
X121970318Y-152625153D01*
X121970318Y-152625153D01*
G37*
G36*
X136970318Y-152625153D02*
G01*
X137188885Y-152715687D01*
X137188887Y-152715688D01*
X137385593Y-152847122D01*
X137552878Y-153014407D01*
X137576873Y-153050319D01*
X137684313Y-153211115D01*
X137774847Y-153429682D01*
X137821000Y-153661710D01*
X137821000Y-153898290D01*
X137774847Y-154130318D01*
X137684313Y-154348885D01*
X137684312Y-154348887D01*
X137552878Y-154545593D01*
X137385593Y-154712878D01*
X137188887Y-154844312D01*
X137188886Y-154844313D01*
X137188885Y-154844313D01*
X136970318Y-154934847D01*
X136738290Y-154981000D01*
X136501710Y-154981000D01*
X136269682Y-154934847D01*
X136051115Y-154844313D01*
X136051114Y-154844313D01*
X136051113Y-154844312D01*
X135854407Y-154712878D01*
X135687122Y-154545593D01*
X135555688Y-154348887D01*
X135555687Y-154348885D01*
X135465153Y-154130318D01*
X135419000Y-153898290D01*
X135419000Y-153661710D01*
X135465153Y-153429682D01*
X135555687Y-153211115D01*
X135663127Y-153050319D01*
X135687122Y-153014407D01*
X135854407Y-152847122D01*
X136051113Y-152715688D01*
X136051115Y-152715687D01*
X136269682Y-152625153D01*
X136501710Y-152579000D01*
X136738290Y-152579000D01*
X136970318Y-152625153D01*
X136970318Y-152625153D01*
G37*
G36*
X129350318Y-152625153D02*
G01*
X129568885Y-152715687D01*
X129568887Y-152715688D01*
X129765593Y-152847122D01*
X129932878Y-153014407D01*
X129956873Y-153050319D01*
X130064313Y-153211115D01*
X130154847Y-153429682D01*
X130201000Y-153661710D01*
X130201000Y-153898290D01*
X130154847Y-154130318D01*
X130064313Y-154348885D01*
X130064312Y-154348887D01*
X129932878Y-154545593D01*
X129765593Y-154712878D01*
X129568887Y-154844312D01*
X129568886Y-154844313D01*
X129568885Y-154844313D01*
X129350318Y-154934847D01*
X129118290Y-154981000D01*
X128881710Y-154981000D01*
X128649682Y-154934847D01*
X128431115Y-154844313D01*
X128431114Y-154844313D01*
X128431113Y-154844312D01*
X128234407Y-154712878D01*
X128067122Y-154545593D01*
X127935688Y-154348887D01*
X127935687Y-154348885D01*
X127845153Y-154130318D01*
X127799000Y-153898290D01*
X127799000Y-153661710D01*
X127845153Y-153429682D01*
X127935687Y-153211115D01*
X128043127Y-153050319D01*
X128067122Y-153014407D01*
X128234407Y-152847122D01*
X128431113Y-152715688D01*
X128431115Y-152715687D01*
X128649682Y-152625153D01*
X128881710Y-152579000D01*
X129118290Y-152579000D01*
X129350318Y-152625153D01*
X129350318Y-152625153D01*
G37*
G36*
X147226905Y-151208789D02*
G01*
X147525350Y-151268153D01*
X147853122Y-151403921D01*
X148148109Y-151601025D01*
X148398975Y-151851891D01*
X148596079Y-152146878D01*
X148731847Y-152474650D01*
X148801060Y-152822611D01*
X148801060Y-153177389D01*
X148731847Y-153525350D01*
X148596079Y-153853122D01*
X148398975Y-154148109D01*
X148148109Y-154398975D01*
X147853122Y-154596079D01*
X147525350Y-154731847D01*
X147226905Y-154791211D01*
X147177390Y-154801060D01*
X146822610Y-154801060D01*
X146773095Y-154791211D01*
X146474650Y-154731847D01*
X146146878Y-154596079D01*
X145851891Y-154398975D01*
X145601025Y-154148109D01*
X145403921Y-153853122D01*
X145268153Y-153525350D01*
X145198940Y-153177389D01*
X145198940Y-152822611D01*
X145268153Y-152474650D01*
X145403921Y-152146878D01*
X145601025Y-151851891D01*
X145851891Y-151601025D01*
X146146878Y-151403921D01*
X146474650Y-151268153D01*
X146773095Y-151208789D01*
X146822610Y-151198940D01*
X147177390Y-151198940D01*
X147226905Y-151208789D01*
X147226905Y-151208789D01*
G37*
G36*
X187750318Y-151545153D02*
G01*
X187885206Y-151601026D01*
X187968887Y-151635688D01*
X188165593Y-151767122D01*
X188332878Y-151934407D01*
X188448045Y-152106768D01*
X188464313Y-152131115D01*
X188554847Y-152349682D01*
X188601000Y-152581710D01*
X188601000Y-152818290D01*
X188554847Y-153050318D01*
X188488243Y-153211113D01*
X188464312Y-153268887D01*
X188332878Y-153465593D01*
X188165593Y-153632878D01*
X187968887Y-153764312D01*
X187968886Y-153764313D01*
X187968885Y-153764313D01*
X187750318Y-153854847D01*
X187518290Y-153901000D01*
X187281710Y-153901000D01*
X187049682Y-153854847D01*
X186831115Y-153764313D01*
X186831114Y-153764313D01*
X186831113Y-153764312D01*
X186634407Y-153632878D01*
X186467122Y-153465593D01*
X186335688Y-153268887D01*
X186311757Y-153211113D01*
X186245153Y-153050318D01*
X186199000Y-152818290D01*
X186199000Y-152581710D01*
X186245153Y-152349682D01*
X186335687Y-152131115D01*
X186351955Y-152106768D01*
X186467122Y-151934407D01*
X186634407Y-151767122D01*
X186831113Y-151635688D01*
X186914794Y-151601026D01*
X187049682Y-151545153D01*
X187281710Y-151499000D01*
X187518290Y-151499000D01*
X187750318Y-151545153D01*
X187750318Y-151545153D01*
G37*
G36*
X107224549Y-149871116D02*
G01*
X107335734Y-149893232D01*
X107545203Y-149979997D01*
X107733720Y-150105960D01*
X107894040Y-150266280D01*
X108020003Y-150454797D01*
X108106768Y-150664266D01*
X108151000Y-150886636D01*
X108151000Y-151113364D01*
X108106768Y-151335734D01*
X108020003Y-151545203D01*
X107894040Y-151733720D01*
X107733720Y-151894040D01*
X107545203Y-152020003D01*
X107335734Y-152106768D01*
X107224549Y-152128884D01*
X107113365Y-152151000D01*
X106886635Y-152151000D01*
X106775451Y-152128884D01*
X106664266Y-152106768D01*
X106454797Y-152020003D01*
X106266280Y-151894040D01*
X106105960Y-151733720D01*
X105979997Y-151545203D01*
X105893232Y-151335734D01*
X105849000Y-151113364D01*
X105849000Y-150886636D01*
X105893232Y-150664266D01*
X105979997Y-150454797D01*
X106105960Y-150266280D01*
X106266280Y-150105960D01*
X106454797Y-149979997D01*
X106664266Y-149893232D01*
X106775451Y-149871116D01*
X106886635Y-149849000D01*
X107113365Y-149849000D01*
X107224549Y-149871116D01*
X107224549Y-149871116D01*
G37*
G36*
X151206564Y-148989389D02*
G01*
X151397833Y-149068615D01*
X151397835Y-149068616D01*
X151569973Y-149183635D01*
X151716365Y-149330027D01*
X151767129Y-149406000D01*
X151831385Y-149502167D01*
X151910611Y-149693436D01*
X151951000Y-149896484D01*
X151951000Y-150103516D01*
X151910611Y-150306564D01*
X151849211Y-150454797D01*
X151831384Y-150497835D01*
X151716365Y-150669973D01*
X151569973Y-150816365D01*
X151397835Y-150931384D01*
X151397834Y-150931385D01*
X151397833Y-150931385D01*
X151206564Y-151010611D01*
X151003516Y-151051000D01*
X150796484Y-151051000D01*
X150593436Y-151010611D01*
X150402167Y-150931385D01*
X150402166Y-150931385D01*
X150402165Y-150931384D01*
X150230027Y-150816365D01*
X150083635Y-150669973D01*
X149968616Y-150497835D01*
X149950789Y-150454797D01*
X149889389Y-150306564D01*
X149849000Y-150103516D01*
X149849000Y-149896484D01*
X149889389Y-149693436D01*
X149968615Y-149502167D01*
X150032872Y-149406000D01*
X150083635Y-149330027D01*
X150230027Y-149183635D01*
X150402165Y-149068616D01*
X150402167Y-149068615D01*
X150593436Y-148989389D01*
X150796484Y-148949000D01*
X151003516Y-148949000D01*
X151206564Y-148989389D01*
X151206564Y-148989389D01*
G37*
G36*
X141264270Y-147628816D02*
G01*
X141429153Y-147697113D01*
X141577539Y-147796261D01*
X141703739Y-147922461D01*
X141802887Y-148070847D01*
X141871184Y-148235730D01*
X141906000Y-148410765D01*
X141906000Y-148589235D01*
X141871184Y-148764270D01*
X141802887Y-148929153D01*
X141703739Y-149077539D01*
X141577539Y-149203739D01*
X141429153Y-149302887D01*
X141264270Y-149371184D01*
X141089235Y-149406000D01*
X140910765Y-149406000D01*
X140735730Y-149371184D01*
X140570847Y-149302887D01*
X140422461Y-149203739D01*
X140296261Y-149077539D01*
X140197113Y-148929153D01*
X140128816Y-148764270D01*
X140094000Y-148589235D01*
X140094000Y-148410765D01*
X140128816Y-148235730D01*
X140197113Y-148070847D01*
X140296261Y-147922461D01*
X140422461Y-147796261D01*
X140570847Y-147697113D01*
X140735730Y-147628816D01*
X140910765Y-147594000D01*
X141089235Y-147594000D01*
X141264270Y-147628816D01*
X141264270Y-147628816D01*
G37*
G36*
X158350318Y-146345153D02*
G01*
X158568885Y-146435687D01*
X158568887Y-146435688D01*
X158765593Y-146567122D01*
X158932878Y-146734407D01*
X159064312Y-146931113D01*
X159064313Y-146931115D01*
X159154847Y-147149682D01*
X159201000Y-147381710D01*
X159201000Y-147618290D01*
X159154847Y-147850318D01*
X159124965Y-147922459D01*
X159064312Y-148068887D01*
X158932878Y-148265593D01*
X158765593Y-148432878D01*
X158568887Y-148564312D01*
X158568886Y-148564313D01*
X158568885Y-148564313D01*
X158350318Y-148654847D01*
X158118290Y-148701000D01*
X157881710Y-148701000D01*
X157649682Y-148654847D01*
X157431115Y-148564313D01*
X157431114Y-148564313D01*
X157431113Y-148564312D01*
X157234407Y-148432878D01*
X157067122Y-148265593D01*
X156935688Y-148068887D01*
X156875035Y-147922459D01*
X156845153Y-147850318D01*
X156799000Y-147618290D01*
X156799000Y-147381710D01*
X156845153Y-147149682D01*
X156935687Y-146931115D01*
X156935688Y-146931113D01*
X157067122Y-146734407D01*
X157234407Y-146567122D01*
X157431113Y-146435688D01*
X157431115Y-146435687D01*
X157649682Y-146345153D01*
X157881710Y-146299000D01*
X158118290Y-146299000D01*
X158350318Y-146345153D01*
X158350318Y-146345153D01*
G37*
G36*
X129350318Y-145005153D02*
G01*
X129568885Y-145095687D01*
X129568887Y-145095688D01*
X129765593Y-145227122D01*
X129932878Y-145394407D01*
X130064312Y-145591113D01*
X130064313Y-145591115D01*
X130154847Y-145809682D01*
X130201000Y-146041710D01*
X130201000Y-146278290D01*
X130154847Y-146510318D01*
X130064313Y-146728885D01*
X130064312Y-146728887D01*
X129932878Y-146925593D01*
X129765593Y-147092878D01*
X129568887Y-147224312D01*
X129568886Y-147224313D01*
X129568885Y-147224313D01*
X129350318Y-147314847D01*
X129118290Y-147361000D01*
X128881710Y-147361000D01*
X128649682Y-147314847D01*
X128431115Y-147224313D01*
X128431114Y-147224313D01*
X128431113Y-147224312D01*
X128234407Y-147092878D01*
X128067122Y-146925593D01*
X127935688Y-146728887D01*
X127935687Y-146728885D01*
X127845153Y-146510318D01*
X127799000Y-146278290D01*
X127799000Y-146041710D01*
X127845153Y-145809682D01*
X127935687Y-145591115D01*
X127935688Y-145591113D01*
X128067122Y-145394407D01*
X128234407Y-145227122D01*
X128431113Y-145095688D01*
X128431115Y-145095687D01*
X128649682Y-145005153D01*
X128881710Y-144959000D01*
X129118290Y-144959000D01*
X129350318Y-145005153D01*
X129350318Y-145005153D01*
G37*
G36*
X114350318Y-145005153D02*
G01*
X114568885Y-145095687D01*
X114568887Y-145095688D01*
X114765593Y-145227122D01*
X114932878Y-145394407D01*
X115064312Y-145591113D01*
X115064313Y-145591115D01*
X115154847Y-145809682D01*
X115201000Y-146041710D01*
X115201000Y-146278290D01*
X115154847Y-146510318D01*
X115064313Y-146728885D01*
X115064312Y-146728887D01*
X114932878Y-146925593D01*
X114765593Y-147092878D01*
X114568887Y-147224312D01*
X114568886Y-147224313D01*
X114568885Y-147224313D01*
X114350318Y-147314847D01*
X114118290Y-147361000D01*
X113881710Y-147361000D01*
X113649682Y-147314847D01*
X113431115Y-147224313D01*
X113431114Y-147224313D01*
X113431113Y-147224312D01*
X113234407Y-147092878D01*
X113067122Y-146925593D01*
X112935688Y-146728887D01*
X112935687Y-146728885D01*
X112845153Y-146510318D01*
X112799000Y-146278290D01*
X112799000Y-146041710D01*
X112845153Y-145809682D01*
X112935687Y-145591115D01*
X112935688Y-145591113D01*
X113067122Y-145394407D01*
X113234407Y-145227122D01*
X113431113Y-145095688D01*
X113431115Y-145095687D01*
X113649682Y-145005153D01*
X113881710Y-144959000D01*
X114118290Y-144959000D01*
X114350318Y-145005153D01*
X114350318Y-145005153D01*
G37*
G36*
X142464270Y-142528816D02*
G01*
X142629153Y-142597113D01*
X142777539Y-142696261D01*
X142903739Y-142822461D01*
X143002887Y-142970847D01*
X143071184Y-143135730D01*
X143106000Y-143310765D01*
X143106000Y-143489235D01*
X143071184Y-143664270D01*
X143002887Y-143829153D01*
X142903739Y-143977539D01*
X142777539Y-144103739D01*
X142629153Y-144202887D01*
X142464270Y-144271184D01*
X142289235Y-144306000D01*
X142110765Y-144306000D01*
X141935730Y-144271184D01*
X141770847Y-144202887D01*
X141622461Y-144103739D01*
X141496261Y-143977539D01*
X141397113Y-143829153D01*
X141328816Y-143664270D01*
X141294000Y-143489235D01*
X141294000Y-143310765D01*
X141328816Y-143135730D01*
X141397113Y-142970847D01*
X141496261Y-142822461D01*
X141622461Y-142696261D01*
X141770847Y-142597113D01*
X141935730Y-142528816D01*
X142110765Y-142494000D01*
X142289235Y-142494000D01*
X142464270Y-142528816D01*
X142464270Y-142528816D01*
G37*
G36*
X159201000Y-143551000D02*
G01*
X156799000Y-143551000D01*
X156799000Y-141449000D01*
X159201000Y-141449000D01*
X159201000Y-143551000D01*
X159201000Y-143551000D01*
G37*
G36*
X103226905Y-139208789D02*
G01*
X103525350Y-139268153D01*
X103853122Y-139403921D01*
X104148109Y-139601025D01*
X104398975Y-139851891D01*
X104596079Y-140146878D01*
X104731847Y-140474650D01*
X104801060Y-140822611D01*
X104801060Y-141177389D01*
X104731847Y-141525350D01*
X104596079Y-141853122D01*
X104398975Y-142148109D01*
X104148109Y-142398975D01*
X103853122Y-142596079D01*
X103525350Y-142731847D01*
X103226905Y-142791211D01*
X103177390Y-142801060D01*
X102822610Y-142801060D01*
X102773095Y-142791211D01*
X102474650Y-142731847D01*
X102146878Y-142596079D01*
X101851891Y-142398975D01*
X101601025Y-142148109D01*
X101403921Y-141853122D01*
X101268153Y-141525350D01*
X101198940Y-141177389D01*
X101198940Y-140822611D01*
X101268153Y-140474650D01*
X101403921Y-140146878D01*
X101601025Y-139851891D01*
X101851891Y-139601025D01*
X102146878Y-139403921D01*
X102474650Y-139268153D01*
X102773095Y-139208789D01*
X102822610Y-139198940D01*
X103177390Y-139198940D01*
X103226905Y-139208789D01*
X103226905Y-139208789D01*
G37*
G36*
X108424549Y-139671116D02*
G01*
X108535734Y-139693232D01*
X108745203Y-139779997D01*
X108933720Y-139905960D01*
X109094040Y-140066280D01*
X109220003Y-140254797D01*
X109292224Y-140429153D01*
X109306768Y-140464267D01*
X109351000Y-140686635D01*
X109351000Y-140913365D01*
X109331657Y-141010610D01*
X109306768Y-141135734D01*
X109220003Y-141345203D01*
X109094040Y-141533720D01*
X108933720Y-141694040D01*
X108745203Y-141820003D01*
X108535734Y-141906768D01*
X108424549Y-141928884D01*
X108313365Y-141951000D01*
X108086635Y-141951000D01*
X107975451Y-141928884D01*
X107864266Y-141906768D01*
X107654797Y-141820003D01*
X107466280Y-141694040D01*
X107305960Y-141533720D01*
X107179997Y-141345203D01*
X107093232Y-141135734D01*
X107068343Y-141010610D01*
X107049000Y-140913365D01*
X107049000Y-140686635D01*
X107093232Y-140464267D01*
X107107777Y-140429153D01*
X107179997Y-140254797D01*
X107305960Y-140066280D01*
X107466280Y-139905960D01*
X107654797Y-139779997D01*
X107864266Y-139693232D01*
X107975451Y-139671116D01*
X108086635Y-139649000D01*
X108313365Y-139649000D01*
X108424549Y-139671116D01*
X108424549Y-139671116D01*
G37*
G36*
X153306564Y-138989389D02*
G01*
X153497833Y-139068615D01*
X153497835Y-139068616D01*
X153669973Y-139183635D01*
X153816365Y-139330027D01*
X153848112Y-139377539D01*
X153931385Y-139502167D01*
X154010611Y-139693436D01*
X154051000Y-139896484D01*
X154051000Y-140103516D01*
X154010611Y-140306564D01*
X153940987Y-140474651D01*
X153931384Y-140497835D01*
X153816365Y-140669973D01*
X153669973Y-140816365D01*
X153497835Y-140931384D01*
X153497834Y-140931385D01*
X153497833Y-140931385D01*
X153306564Y-141010611D01*
X153103516Y-141051000D01*
X152896484Y-141051000D01*
X152693436Y-141010611D01*
X152502167Y-140931385D01*
X152502166Y-140931385D01*
X152502165Y-140931384D01*
X152330027Y-140816365D01*
X152183635Y-140669973D01*
X152068616Y-140497835D01*
X152059013Y-140474651D01*
X151989389Y-140306564D01*
X151949000Y-140103516D01*
X151949000Y-139896484D01*
X151989389Y-139693436D01*
X152068615Y-139502167D01*
X152151889Y-139377539D01*
X152183635Y-139330027D01*
X152330027Y-139183635D01*
X152502165Y-139068616D01*
X152502167Y-139068615D01*
X152693436Y-138989389D01*
X152896484Y-138949000D01*
X153103516Y-138949000D01*
X153306564Y-138989389D01*
X153306564Y-138989389D01*
G37*
G36*
X147264270Y-139128816D02*
G01*
X147429153Y-139197113D01*
X147577539Y-139296261D01*
X147703739Y-139422461D01*
X147802887Y-139570847D01*
X147871184Y-139735730D01*
X147906000Y-139910765D01*
X147906000Y-140089235D01*
X147871184Y-140264270D01*
X147802887Y-140429153D01*
X147703739Y-140577539D01*
X147577539Y-140703739D01*
X147429153Y-140802887D01*
X147264270Y-140871184D01*
X147089235Y-140906000D01*
X146910765Y-140906000D01*
X146735730Y-140871184D01*
X146570847Y-140802887D01*
X146422461Y-140703739D01*
X146296261Y-140577539D01*
X146197113Y-140429153D01*
X146128816Y-140264270D01*
X146094000Y-140089235D01*
X146094000Y-139910765D01*
X146128816Y-139735730D01*
X146197113Y-139570847D01*
X146296261Y-139422461D01*
X146422461Y-139296261D01*
X146570847Y-139197113D01*
X146735730Y-139128816D01*
X146910765Y-139094000D01*
X147089235Y-139094000D01*
X147264270Y-139128816D01*
X147264270Y-139128816D01*
G37*
G36*
X142164270Y-137928816D02*
G01*
X142329153Y-137997113D01*
X142477539Y-138096261D01*
X142603739Y-138222461D01*
X142702887Y-138370847D01*
X142771184Y-138535730D01*
X142806000Y-138710765D01*
X142806000Y-138889235D01*
X142771184Y-139064270D01*
X142702887Y-139229153D01*
X142603739Y-139377539D01*
X142477539Y-139503739D01*
X142329153Y-139602887D01*
X142164270Y-139671184D01*
X141989235Y-139706000D01*
X141810765Y-139706000D01*
X141635730Y-139671184D01*
X141470847Y-139602887D01*
X141322461Y-139503739D01*
X141196261Y-139377539D01*
X141097113Y-139229153D01*
X141028816Y-139064270D01*
X140994000Y-138889235D01*
X140994000Y-138710765D01*
X141028816Y-138535730D01*
X141097113Y-138370847D01*
X141196261Y-138222461D01*
X141322461Y-138096261D01*
X141470847Y-137997113D01*
X141635730Y-137928816D01*
X141810765Y-137894000D01*
X141989235Y-137894000D01*
X142164270Y-137928816D01*
X142164270Y-137928816D01*
G37*
G36*
X187750318Y-136145153D02*
G01*
X187968885Y-136235687D01*
X187968887Y-136235688D01*
X188165593Y-136367122D01*
X188332878Y-136534407D01*
X188464312Y-136731113D01*
X188464313Y-136731115D01*
X188554847Y-136949682D01*
X188601000Y-137181710D01*
X188601000Y-137418290D01*
X188554847Y-137650318D01*
X188464313Y-137868885D01*
X188464312Y-137868887D01*
X188332878Y-138065593D01*
X188165593Y-138232878D01*
X187968887Y-138364312D01*
X187968886Y-138364313D01*
X187968885Y-138364313D01*
X187750318Y-138454847D01*
X187518290Y-138501000D01*
X187281710Y-138501000D01*
X187049682Y-138454847D01*
X186831115Y-138364313D01*
X186831114Y-138364313D01*
X186831113Y-138364312D01*
X186634407Y-138232878D01*
X186467122Y-138065593D01*
X186335688Y-137868887D01*
X186335687Y-137868885D01*
X186245153Y-137650318D01*
X186199000Y-137418290D01*
X186199000Y-137181710D01*
X186245153Y-136949682D01*
X186335687Y-136731115D01*
X186335688Y-136731113D01*
X186467122Y-136534407D01*
X186634407Y-136367122D01*
X186831113Y-136235688D01*
X186831115Y-136235687D01*
X187049682Y-136145153D01*
X187281710Y-136099000D01*
X187518290Y-136099000D01*
X187750318Y-136145153D01*
X187750318Y-136145153D01*
G37*
G36*
X129350318Y-134845153D02*
G01*
X129568885Y-134935687D01*
X129568887Y-134935688D01*
X129765593Y-135067122D01*
X129932878Y-135234407D01*
X130064312Y-135431113D01*
X130064313Y-135431115D01*
X130154847Y-135649682D01*
X130201000Y-135881710D01*
X130201000Y-136118290D01*
X130154847Y-136350318D01*
X130078594Y-136534407D01*
X130064312Y-136568887D01*
X129932878Y-136765593D01*
X129765593Y-136932878D01*
X129568887Y-137064312D01*
X129568886Y-137064313D01*
X129568885Y-137064313D01*
X129350318Y-137154847D01*
X129118290Y-137201000D01*
X128881710Y-137201000D01*
X128649682Y-137154847D01*
X128431115Y-137064313D01*
X128431114Y-137064313D01*
X128431113Y-137064312D01*
X128234407Y-136932878D01*
X128067122Y-136765593D01*
X127935688Y-136568887D01*
X127921406Y-136534407D01*
X127845153Y-136350318D01*
X127799000Y-136118290D01*
X127799000Y-135881710D01*
X127845153Y-135649682D01*
X127935687Y-135431115D01*
X127935688Y-135431113D01*
X128067122Y-135234407D01*
X128234407Y-135067122D01*
X128431113Y-134935688D01*
X128431115Y-134935687D01*
X128649682Y-134845153D01*
X128881710Y-134799000D01*
X129118290Y-134799000D01*
X129350318Y-134845153D01*
X129350318Y-134845153D01*
G37*
G36*
X121970318Y-134845153D02*
G01*
X122188885Y-134935687D01*
X122188887Y-134935688D01*
X122385593Y-135067122D01*
X122552878Y-135234407D01*
X122684312Y-135431113D01*
X122684313Y-135431115D01*
X122774847Y-135649682D01*
X122821000Y-135881710D01*
X122821000Y-136118290D01*
X122774847Y-136350318D01*
X122698594Y-136534407D01*
X122684312Y-136568887D01*
X122552878Y-136765593D01*
X122385593Y-136932878D01*
X122188887Y-137064312D01*
X122188886Y-137064313D01*
X122188885Y-137064313D01*
X121970318Y-137154847D01*
X121738290Y-137201000D01*
X121501710Y-137201000D01*
X121269682Y-137154847D01*
X121051115Y-137064313D01*
X121051114Y-137064313D01*
X121051113Y-137064312D01*
X120854407Y-136932878D01*
X120687122Y-136765593D01*
X120555688Y-136568887D01*
X120541406Y-136534407D01*
X120465153Y-136350318D01*
X120419000Y-136118290D01*
X120419000Y-135881710D01*
X120465153Y-135649682D01*
X120555687Y-135431115D01*
X120555688Y-135431113D01*
X120687122Y-135234407D01*
X120854407Y-135067122D01*
X121051113Y-134935688D01*
X121051115Y-134935687D01*
X121269682Y-134845153D01*
X121501710Y-134799000D01*
X121738290Y-134799000D01*
X121970318Y-134845153D01*
X121970318Y-134845153D01*
G37*
G36*
X114350318Y-134845153D02*
G01*
X114568885Y-134935687D01*
X114568887Y-134935688D01*
X114765593Y-135067122D01*
X114932878Y-135234407D01*
X115064312Y-135431113D01*
X115064313Y-135431115D01*
X115154847Y-135649682D01*
X115201000Y-135881710D01*
X115201000Y-136118290D01*
X115154847Y-136350318D01*
X115078594Y-136534407D01*
X115064312Y-136568887D01*
X114932878Y-136765593D01*
X114765593Y-136932878D01*
X114568887Y-137064312D01*
X114568886Y-137064313D01*
X114568885Y-137064313D01*
X114350318Y-137154847D01*
X114118290Y-137201000D01*
X113881710Y-137201000D01*
X113649682Y-137154847D01*
X113431115Y-137064313D01*
X113431114Y-137064313D01*
X113431113Y-137064312D01*
X113234407Y-136932878D01*
X113067122Y-136765593D01*
X112935688Y-136568887D01*
X112921406Y-136534407D01*
X112845153Y-136350318D01*
X112799000Y-136118290D01*
X112799000Y-135881710D01*
X112845153Y-135649682D01*
X112935687Y-135431115D01*
X112935688Y-135431113D01*
X113067122Y-135234407D01*
X113234407Y-135067122D01*
X113431113Y-134935688D01*
X113431115Y-134935687D01*
X113649682Y-134845153D01*
X113881710Y-134799000D01*
X114118290Y-134799000D01*
X114350318Y-134845153D01*
X114350318Y-134845153D01*
G37*
G36*
X136970318Y-134845153D02*
G01*
X137188885Y-134935687D01*
X137188887Y-134935688D01*
X137385593Y-135067122D01*
X137552878Y-135234407D01*
X137684312Y-135431113D01*
X137684313Y-135431115D01*
X137774847Y-135649682D01*
X137821000Y-135881710D01*
X137821000Y-136118290D01*
X137774847Y-136350318D01*
X137698594Y-136534407D01*
X137684312Y-136568887D01*
X137552878Y-136765593D01*
X137385593Y-136932878D01*
X137188887Y-137064312D01*
X137188886Y-137064313D01*
X137188885Y-137064313D01*
X136970318Y-137154847D01*
X136738290Y-137201000D01*
X136501710Y-137201000D01*
X136269682Y-137154847D01*
X136051115Y-137064313D01*
X136051114Y-137064313D01*
X136051113Y-137064312D01*
X135854407Y-136932878D01*
X135687122Y-136765593D01*
X135555688Y-136568887D01*
X135541406Y-136534407D01*
X135465153Y-136350318D01*
X135419000Y-136118290D01*
X135419000Y-135881710D01*
X135465153Y-135649682D01*
X135555687Y-135431115D01*
X135555688Y-135431113D01*
X135687122Y-135234407D01*
X135854407Y-135067122D01*
X136051113Y-134935688D01*
X136051115Y-134935687D01*
X136269682Y-134845153D01*
X136501710Y-134799000D01*
X136738290Y-134799000D01*
X136970318Y-134845153D01*
X136970318Y-134845153D01*
G37*
G36*
X110484777Y-120377840D02*
G01*
X110599947Y-120412778D01*
X110599950Y-120412779D01*
X110706095Y-120469514D01*
X110706097Y-120469515D01*
X110706096Y-120469515D01*
X110799132Y-120545867D01*
X110875486Y-120638903D01*
X110875487Y-120638905D01*
X110932221Y-120745049D01*
X110932221Y-120745050D01*
X110932222Y-120745052D01*
X110967160Y-120860222D01*
X110976000Y-120949983D01*
X110976000Y-121590017D01*
X110967160Y-121679778D01*
X110932222Y-121794948D01*
X110932221Y-121794951D01*
X110875486Y-121901096D01*
X110875485Y-121901097D01*
X110799133Y-121994133D01*
X110714438Y-122063640D01*
X110706096Y-122070486D01*
X110599951Y-122127221D01*
X110599948Y-122127222D01*
X110484778Y-122162160D01*
X110365000Y-122173956D01*
X110245223Y-122162160D01*
X110130053Y-122127222D01*
X110130050Y-122127221D01*
X110023905Y-122070486D01*
X110015563Y-122063640D01*
X109930868Y-121994133D01*
X109854514Y-121901095D01*
X109797778Y-121794950D01*
X109762840Y-121679778D01*
X109754000Y-121590017D01*
X109754000Y-120949984D01*
X109762840Y-120860223D01*
X109797778Y-120745053D01*
X109797779Y-120745050D01*
X109854514Y-120638905D01*
X109879145Y-120608892D01*
X109930867Y-120545868D01*
X110023903Y-120469514D01*
X110073759Y-120442866D01*
X110130049Y-120412779D01*
X110130052Y-120412778D01*
X110245222Y-120377840D01*
X110365000Y-120366044D01*
X110484777Y-120377840D01*
X110484777Y-120377840D01*
G37*
G36*
X105404777Y-120377840D02*
G01*
X105519947Y-120412778D01*
X105519950Y-120412779D01*
X105626095Y-120469514D01*
X105626097Y-120469515D01*
X105626096Y-120469515D01*
X105719132Y-120545867D01*
X105795486Y-120638903D01*
X105795487Y-120638905D01*
X105852221Y-120745049D01*
X105852221Y-120745050D01*
X105852222Y-120745052D01*
X105887160Y-120860222D01*
X105896000Y-120949983D01*
X105896000Y-121590017D01*
X105887160Y-121679778D01*
X105852222Y-121794948D01*
X105852221Y-121794951D01*
X105795486Y-121901096D01*
X105795485Y-121901097D01*
X105719133Y-121994133D01*
X105634438Y-122063640D01*
X105626096Y-122070486D01*
X105519951Y-122127221D01*
X105519948Y-122127222D01*
X105404778Y-122162160D01*
X105285000Y-122173956D01*
X105165223Y-122162160D01*
X105050053Y-122127222D01*
X105050050Y-122127221D01*
X104943905Y-122070486D01*
X104935563Y-122063640D01*
X104850868Y-121994133D01*
X104774514Y-121901095D01*
X104717778Y-121794950D01*
X104682840Y-121679778D01*
X104674000Y-121590017D01*
X104674000Y-120949984D01*
X104682840Y-120860223D01*
X104717778Y-120745053D01*
X104717779Y-120745050D01*
X104774514Y-120638905D01*
X104799145Y-120608892D01*
X104850867Y-120545868D01*
X104943903Y-120469514D01*
X104993759Y-120442866D01*
X105050049Y-120412779D01*
X105050052Y-120412778D01*
X105165222Y-120377840D01*
X105285000Y-120366044D01*
X105404777Y-120377840D01*
X105404777Y-120377840D01*
G37*
G36*
X107944777Y-120377840D02*
G01*
X108059947Y-120412778D01*
X108059950Y-120412779D01*
X108166095Y-120469514D01*
X108166097Y-120469515D01*
X108166096Y-120469515D01*
X108259132Y-120545867D01*
X108335486Y-120638903D01*
X108335487Y-120638905D01*
X108392221Y-120745049D01*
X108392221Y-120745050D01*
X108392222Y-120745052D01*
X108427160Y-120860222D01*
X108436000Y-120949983D01*
X108436000Y-121590017D01*
X108427160Y-121679778D01*
X108392222Y-121794948D01*
X108392221Y-121794951D01*
X108335486Y-121901096D01*
X108335485Y-121901097D01*
X108259133Y-121994133D01*
X108174438Y-122063640D01*
X108166096Y-122070486D01*
X108059951Y-122127221D01*
X108059948Y-122127222D01*
X107944778Y-122162160D01*
X107825000Y-122173956D01*
X107705223Y-122162160D01*
X107590053Y-122127222D01*
X107590050Y-122127221D01*
X107483905Y-122070486D01*
X107475563Y-122063640D01*
X107390868Y-121994133D01*
X107314514Y-121901095D01*
X107257778Y-121794950D01*
X107222840Y-121679778D01*
X107214000Y-121590017D01*
X107214000Y-120949984D01*
X107222840Y-120860223D01*
X107257778Y-120745053D01*
X107257779Y-120745050D01*
X107314514Y-120638905D01*
X107339145Y-120608892D01*
X107390867Y-120545868D01*
X107483903Y-120469514D01*
X107533759Y-120442866D01*
X107590049Y-120412779D01*
X107590052Y-120412778D01*
X107705222Y-120377840D01*
X107825000Y-120366044D01*
X107944777Y-120377840D01*
X107944777Y-120377840D01*
G37*
G36*
X113024777Y-120377840D02*
G01*
X113139947Y-120412778D01*
X113139950Y-120412779D01*
X113246095Y-120469514D01*
X113246097Y-120469515D01*
X113246096Y-120469515D01*
X113339132Y-120545867D01*
X113415486Y-120638903D01*
X113415487Y-120638905D01*
X113472221Y-120745049D01*
X113472221Y-120745050D01*
X113472222Y-120745052D01*
X113507160Y-120860222D01*
X113516000Y-120949983D01*
X113516000Y-121590017D01*
X113507160Y-121679778D01*
X113472222Y-121794948D01*
X113472221Y-121794951D01*
X113415486Y-121901096D01*
X113415485Y-121901097D01*
X113339133Y-121994133D01*
X113254438Y-122063640D01*
X113246096Y-122070486D01*
X113139951Y-122127221D01*
X113139948Y-122127222D01*
X113024778Y-122162160D01*
X112905000Y-122173956D01*
X112785223Y-122162160D01*
X112670053Y-122127222D01*
X112670050Y-122127221D01*
X112563905Y-122070486D01*
X112555563Y-122063640D01*
X112470868Y-121994133D01*
X112394514Y-121901095D01*
X112337778Y-121794950D01*
X112302840Y-121679778D01*
X112294000Y-121590017D01*
X112294000Y-120949984D01*
X112302840Y-120860223D01*
X112337778Y-120745053D01*
X112337779Y-120745050D01*
X112394514Y-120638905D01*
X112419145Y-120608892D01*
X112470867Y-120545868D01*
X112563903Y-120469514D01*
X112613759Y-120442866D01*
X112670049Y-120412779D01*
X112670052Y-120412778D01*
X112785222Y-120377840D01*
X112905000Y-120366044D01*
X113024777Y-120377840D01*
X113024777Y-120377840D01*
G37*
G36*
X115564777Y-120377840D02*
G01*
X115679947Y-120412778D01*
X115679950Y-120412779D01*
X115786095Y-120469514D01*
X115786097Y-120469515D01*
X115786096Y-120469515D01*
X115879132Y-120545867D01*
X115955486Y-120638903D01*
X115955487Y-120638905D01*
X116012221Y-120745049D01*
X116012221Y-120745050D01*
X116012222Y-120745052D01*
X116047160Y-120860222D01*
X116056000Y-120949983D01*
X116056000Y-121590017D01*
X116047160Y-121679778D01*
X116012222Y-121794948D01*
X116012221Y-121794951D01*
X115955486Y-121901096D01*
X115955485Y-121901097D01*
X115879133Y-121994133D01*
X115794438Y-122063640D01*
X115786096Y-122070486D01*
X115679951Y-122127221D01*
X115679948Y-122127222D01*
X115564778Y-122162160D01*
X115445000Y-122173956D01*
X115325223Y-122162160D01*
X115210053Y-122127222D01*
X115210050Y-122127221D01*
X115103905Y-122070486D01*
X115095563Y-122063640D01*
X115010868Y-121994133D01*
X114934514Y-121901095D01*
X114877778Y-121794950D01*
X114842840Y-121679778D01*
X114834000Y-121590017D01*
X114834000Y-120949984D01*
X114842840Y-120860223D01*
X114877778Y-120745053D01*
X114877779Y-120745050D01*
X114934514Y-120638905D01*
X114959145Y-120608892D01*
X115010867Y-120545868D01*
X115103903Y-120469514D01*
X115153759Y-120442866D01*
X115210049Y-120412779D01*
X115210052Y-120412778D01*
X115325222Y-120377840D01*
X115445000Y-120366044D01*
X115564777Y-120377840D01*
X115564777Y-120377840D01*
G37*
G36*
X117326000Y-119604001D02*
G01*
X117328402Y-119628387D01*
X117335515Y-119651836D01*
X117347066Y-119673447D01*
X117362611Y-119692389D01*
X117381553Y-119707934D01*
X117403164Y-119719485D01*
X117426613Y-119726598D01*
X117450999Y-119729000D01*
X117558893Y-119729000D01*
X117713642Y-119759781D01*
X117859414Y-119820162D01*
X117859416Y-119820163D01*
X117990608Y-119907822D01*
X118102178Y-120019392D01*
X118189837Y-120150584D01*
X118189838Y-120150586D01*
X118250219Y-120296358D01*
X118281000Y-120451107D01*
X118281000Y-120608893D01*
X118250219Y-120763642D01*
X118210213Y-120860224D01*
X118189837Y-120909416D01*
X118102178Y-121040608D01*
X117990608Y-121152178D01*
X117859416Y-121239837D01*
X117859415Y-121239838D01*
X117859414Y-121239838D01*
X117713642Y-121300219D01*
X117558893Y-121331000D01*
X117401107Y-121331000D01*
X117246358Y-121300219D01*
X117100586Y-121239838D01*
X117100585Y-121239838D01*
X117100584Y-121239837D01*
X116969392Y-121152178D01*
X116857822Y-121040608D01*
X116770163Y-120909416D01*
X116749787Y-120860224D01*
X116709781Y-120763642D01*
X116679000Y-120608893D01*
X116679000Y-120451107D01*
X116709781Y-120296358D01*
X116770162Y-120150586D01*
X116770163Y-120150584D01*
X116857822Y-120019392D01*
X116969392Y-119907822D01*
X117041065Y-119859932D01*
X117060007Y-119844387D01*
X117075552Y-119825445D01*
X117087103Y-119803834D01*
X117094216Y-119780385D01*
X117096618Y-119755999D01*
X117094216Y-119731613D01*
X117087103Y-119708164D01*
X117075552Y-119686553D01*
X117060007Y-119667611D01*
X117041065Y-119652066D01*
X117019454Y-119640515D01*
X116996005Y-119633402D01*
X116971619Y-119631000D01*
X116104000Y-119631000D01*
X116104000Y-117829000D01*
X117326000Y-117829000D01*
X117326000Y-119604001D01*
X117326000Y-119604001D01*
G37*
G36*
X109214777Y-117837840D02*
G01*
X109329947Y-117872778D01*
X109329950Y-117872779D01*
X109436095Y-117929514D01*
X109436097Y-117929515D01*
X109436096Y-117929515D01*
X109529132Y-118005867D01*
X109605486Y-118098903D01*
X109605487Y-118098905D01*
X109662221Y-118205049D01*
X109662221Y-118205050D01*
X109662222Y-118205052D01*
X109697160Y-118320222D01*
X109706000Y-118409983D01*
X109706000Y-119050017D01*
X109697160Y-119139778D01*
X109662222Y-119254948D01*
X109662221Y-119254951D01*
X109605486Y-119361096D01*
X109605485Y-119361097D01*
X109529133Y-119454133D01*
X109444438Y-119523640D01*
X109436096Y-119530486D01*
X109329951Y-119587221D01*
X109329948Y-119587222D01*
X109214778Y-119622160D01*
X109095000Y-119633956D01*
X108975223Y-119622160D01*
X108860053Y-119587222D01*
X108860050Y-119587221D01*
X108753905Y-119530486D01*
X108745563Y-119523640D01*
X108660868Y-119454133D01*
X108584514Y-119361095D01*
X108527778Y-119254950D01*
X108492840Y-119139778D01*
X108484000Y-119050017D01*
X108484000Y-118409984D01*
X108492840Y-118320223D01*
X108527778Y-118205053D01*
X108527779Y-118205050D01*
X108584514Y-118098905D01*
X108596124Y-118084758D01*
X108660867Y-118005868D01*
X108753903Y-117929514D01*
X108803759Y-117902866D01*
X108860049Y-117872779D01*
X108860052Y-117872778D01*
X108975222Y-117837840D01*
X109095000Y-117826044D01*
X109214777Y-117837840D01*
X109214777Y-117837840D01*
G37*
G36*
X106674777Y-117837840D02*
G01*
X106789947Y-117872778D01*
X106789950Y-117872779D01*
X106896095Y-117929514D01*
X106896097Y-117929515D01*
X106896096Y-117929515D01*
X106989132Y-118005867D01*
X107065486Y-118098903D01*
X107065487Y-118098905D01*
X107122221Y-118205049D01*
X107122221Y-118205050D01*
X107122222Y-118205052D01*
X107157160Y-118320222D01*
X107166000Y-118409983D01*
X107166000Y-119050017D01*
X107157160Y-119139778D01*
X107122222Y-119254948D01*
X107122221Y-119254951D01*
X107065486Y-119361096D01*
X107065485Y-119361097D01*
X106989133Y-119454133D01*
X106904438Y-119523640D01*
X106896096Y-119530486D01*
X106789951Y-119587221D01*
X106789948Y-119587222D01*
X106674778Y-119622160D01*
X106555000Y-119633956D01*
X106435223Y-119622160D01*
X106320053Y-119587222D01*
X106320050Y-119587221D01*
X106213905Y-119530486D01*
X106205563Y-119523640D01*
X106120868Y-119454133D01*
X106044514Y-119361095D01*
X105987778Y-119254950D01*
X105952840Y-119139778D01*
X105944000Y-119050017D01*
X105944000Y-118409984D01*
X105952840Y-118320223D01*
X105987778Y-118205053D01*
X105987779Y-118205050D01*
X106044514Y-118098905D01*
X106056124Y-118084758D01*
X106120867Y-118005868D01*
X106213903Y-117929514D01*
X106263759Y-117902866D01*
X106320049Y-117872779D01*
X106320052Y-117872778D01*
X106435222Y-117837840D01*
X106555000Y-117826044D01*
X106674777Y-117837840D01*
X106674777Y-117837840D01*
G37*
G36*
X111754777Y-117837840D02*
G01*
X111869947Y-117872778D01*
X111869950Y-117872779D01*
X111976095Y-117929514D01*
X111976097Y-117929515D01*
X111976096Y-117929515D01*
X112069132Y-118005867D01*
X112145486Y-118098903D01*
X112145487Y-118098905D01*
X112202221Y-118205049D01*
X112202221Y-118205050D01*
X112202222Y-118205052D01*
X112237160Y-118320222D01*
X112246000Y-118409983D01*
X112246000Y-119050017D01*
X112237160Y-119139778D01*
X112202222Y-119254948D01*
X112202221Y-119254951D01*
X112145486Y-119361096D01*
X112145485Y-119361097D01*
X112069133Y-119454133D01*
X111984438Y-119523640D01*
X111976096Y-119530486D01*
X111869951Y-119587221D01*
X111869948Y-119587222D01*
X111754778Y-119622160D01*
X111635000Y-119633956D01*
X111515223Y-119622160D01*
X111400053Y-119587222D01*
X111400050Y-119587221D01*
X111293905Y-119530486D01*
X111285563Y-119523640D01*
X111200868Y-119454133D01*
X111124514Y-119361095D01*
X111067778Y-119254950D01*
X111032840Y-119139778D01*
X111024000Y-119050017D01*
X111024000Y-118409984D01*
X111032840Y-118320223D01*
X111067778Y-118205053D01*
X111067779Y-118205050D01*
X111124514Y-118098905D01*
X111136124Y-118084758D01*
X111200867Y-118005868D01*
X111293903Y-117929514D01*
X111343759Y-117902866D01*
X111400049Y-117872779D01*
X111400052Y-117872778D01*
X111515222Y-117837840D01*
X111635000Y-117826044D01*
X111754777Y-117837840D01*
X111754777Y-117837840D01*
G37*
G36*
X114294777Y-117837840D02*
G01*
X114409947Y-117872778D01*
X114409950Y-117872779D01*
X114516095Y-117929514D01*
X114516097Y-117929515D01*
X114516096Y-117929515D01*
X114609132Y-118005867D01*
X114685486Y-118098903D01*
X114685487Y-118098905D01*
X114742221Y-118205049D01*
X114742221Y-118205050D01*
X114742222Y-118205052D01*
X114777160Y-118320222D01*
X114786000Y-118409983D01*
X114786000Y-119050017D01*
X114777160Y-119139778D01*
X114742222Y-119254948D01*
X114742221Y-119254951D01*
X114685486Y-119361096D01*
X114685485Y-119361097D01*
X114609133Y-119454133D01*
X114524438Y-119523640D01*
X114516096Y-119530486D01*
X114409951Y-119587221D01*
X114409948Y-119587222D01*
X114294778Y-119622160D01*
X114175000Y-119633956D01*
X114055223Y-119622160D01*
X113940053Y-119587222D01*
X113940050Y-119587221D01*
X113833905Y-119530486D01*
X113825563Y-119523640D01*
X113740868Y-119454133D01*
X113664514Y-119361095D01*
X113607778Y-119254950D01*
X113572840Y-119139778D01*
X113564000Y-119050017D01*
X113564000Y-118409984D01*
X113572840Y-118320223D01*
X113607778Y-118205053D01*
X113607779Y-118205050D01*
X113664514Y-118098905D01*
X113676124Y-118084758D01*
X113740867Y-118005868D01*
X113833903Y-117929514D01*
X113883759Y-117902866D01*
X113940049Y-117872779D01*
X113940052Y-117872778D01*
X114055222Y-117837840D01*
X114175000Y-117826044D01*
X114294777Y-117837840D01*
X114294777Y-117837840D01*
G37*
G36*
X113024777Y-112377840D02*
G01*
X113139947Y-112412778D01*
X113139950Y-112412779D01*
X113246095Y-112469514D01*
X113246097Y-112469515D01*
X113246096Y-112469515D01*
X113339132Y-112545867D01*
X113415486Y-112638903D01*
X113415487Y-112638905D01*
X113472221Y-112745049D01*
X113472221Y-112745050D01*
X113472222Y-112745052D01*
X113507160Y-112860222D01*
X113516000Y-112949983D01*
X113516000Y-113590017D01*
X113507160Y-113679778D01*
X113472222Y-113794948D01*
X113472221Y-113794951D01*
X113415486Y-113901096D01*
X113415485Y-113901097D01*
X113339133Y-113994133D01*
X113254438Y-114063640D01*
X113246096Y-114070486D01*
X113139951Y-114127221D01*
X113139948Y-114127222D01*
X113024778Y-114162160D01*
X112905000Y-114173956D01*
X112785223Y-114162160D01*
X112670053Y-114127222D01*
X112670050Y-114127221D01*
X112563905Y-114070486D01*
X112555563Y-114063640D01*
X112470868Y-113994133D01*
X112394514Y-113901095D01*
X112337778Y-113794950D01*
X112302840Y-113679778D01*
X112294000Y-113590017D01*
X112294000Y-112949984D01*
X112302840Y-112860223D01*
X112337778Y-112745053D01*
X112337779Y-112745050D01*
X112394514Y-112638905D01*
X112419145Y-112608892D01*
X112470867Y-112545868D01*
X112563903Y-112469514D01*
X112613759Y-112442866D01*
X112670049Y-112412779D01*
X112670052Y-112412778D01*
X112785222Y-112377840D01*
X112905000Y-112366044D01*
X113024777Y-112377840D01*
X113024777Y-112377840D01*
G37*
G36*
X115564777Y-112377840D02*
G01*
X115679947Y-112412778D01*
X115679950Y-112412779D01*
X115786095Y-112469514D01*
X115786097Y-112469515D01*
X115786096Y-112469515D01*
X115879132Y-112545867D01*
X115955486Y-112638903D01*
X115955487Y-112638905D01*
X116012221Y-112745049D01*
X116012221Y-112745050D01*
X116012222Y-112745052D01*
X116047160Y-112860222D01*
X116056000Y-112949983D01*
X116056000Y-113590017D01*
X116047160Y-113679778D01*
X116012222Y-113794948D01*
X116012221Y-113794951D01*
X115955486Y-113901096D01*
X115955485Y-113901097D01*
X115879133Y-113994133D01*
X115794438Y-114063640D01*
X115786096Y-114070486D01*
X115679951Y-114127221D01*
X115679948Y-114127222D01*
X115564778Y-114162160D01*
X115445000Y-114173956D01*
X115325223Y-114162160D01*
X115210053Y-114127222D01*
X115210050Y-114127221D01*
X115103905Y-114070486D01*
X115095563Y-114063640D01*
X115010868Y-113994133D01*
X114934514Y-113901095D01*
X114877778Y-113794950D01*
X114842840Y-113679778D01*
X114834000Y-113590017D01*
X114834000Y-112949984D01*
X114842840Y-112860223D01*
X114877778Y-112745053D01*
X114877779Y-112745050D01*
X114934514Y-112638905D01*
X114959145Y-112608892D01*
X115010867Y-112545868D01*
X115103903Y-112469514D01*
X115153759Y-112442866D01*
X115210049Y-112412779D01*
X115210052Y-112412778D01*
X115325222Y-112377840D01*
X115445000Y-112366044D01*
X115564777Y-112377840D01*
X115564777Y-112377840D01*
G37*
G36*
X110484777Y-112377840D02*
G01*
X110599947Y-112412778D01*
X110599950Y-112412779D01*
X110706095Y-112469514D01*
X110706097Y-112469515D01*
X110706096Y-112469515D01*
X110799132Y-112545867D01*
X110875486Y-112638903D01*
X110875487Y-112638905D01*
X110932221Y-112745049D01*
X110932221Y-112745050D01*
X110932222Y-112745052D01*
X110967160Y-112860222D01*
X110976000Y-112949983D01*
X110976000Y-113590017D01*
X110967160Y-113679778D01*
X110932222Y-113794948D01*
X110932221Y-113794951D01*
X110875486Y-113901096D01*
X110875485Y-113901097D01*
X110799133Y-113994133D01*
X110714438Y-114063640D01*
X110706096Y-114070486D01*
X110599951Y-114127221D01*
X110599948Y-114127222D01*
X110484778Y-114162160D01*
X110365000Y-114173956D01*
X110245223Y-114162160D01*
X110130053Y-114127222D01*
X110130050Y-114127221D01*
X110023905Y-114070486D01*
X110015563Y-114063640D01*
X109930868Y-113994133D01*
X109854514Y-113901095D01*
X109797778Y-113794950D01*
X109762840Y-113679778D01*
X109754000Y-113590017D01*
X109754000Y-112949984D01*
X109762840Y-112860223D01*
X109797778Y-112745053D01*
X109797779Y-112745050D01*
X109854514Y-112638905D01*
X109879145Y-112608892D01*
X109930867Y-112545868D01*
X110023903Y-112469514D01*
X110073759Y-112442866D01*
X110130049Y-112412779D01*
X110130052Y-112412778D01*
X110245222Y-112377840D01*
X110365000Y-112366044D01*
X110484777Y-112377840D01*
X110484777Y-112377840D01*
G37*
G36*
X107944777Y-112377840D02*
G01*
X108059947Y-112412778D01*
X108059950Y-112412779D01*
X108166095Y-112469514D01*
X108166097Y-112469515D01*
X108166096Y-112469515D01*
X108259132Y-112545867D01*
X108335486Y-112638903D01*
X108335487Y-112638905D01*
X108392221Y-112745049D01*
X108392221Y-112745050D01*
X108392222Y-112745052D01*
X108427160Y-112860222D01*
X108436000Y-112949983D01*
X108436000Y-113590017D01*
X108427160Y-113679778D01*
X108392222Y-113794948D01*
X108392221Y-113794951D01*
X108335486Y-113901096D01*
X108335485Y-113901097D01*
X108259133Y-113994133D01*
X108174438Y-114063640D01*
X108166096Y-114070486D01*
X108059951Y-114127221D01*
X108059948Y-114127222D01*
X107944778Y-114162160D01*
X107825000Y-114173956D01*
X107705223Y-114162160D01*
X107590053Y-114127222D01*
X107590050Y-114127221D01*
X107483905Y-114070486D01*
X107475563Y-114063640D01*
X107390868Y-113994133D01*
X107314514Y-113901095D01*
X107257778Y-113794950D01*
X107222840Y-113679778D01*
X107214000Y-113590017D01*
X107214000Y-112949984D01*
X107222840Y-112860223D01*
X107257778Y-112745053D01*
X107257779Y-112745050D01*
X107314514Y-112638905D01*
X107339145Y-112608892D01*
X107390867Y-112545868D01*
X107483903Y-112469514D01*
X107533759Y-112442866D01*
X107590049Y-112412779D01*
X107590052Y-112412778D01*
X107705222Y-112377840D01*
X107825000Y-112366044D01*
X107944777Y-112377840D01*
X107944777Y-112377840D01*
G37*
G36*
X105404777Y-112377840D02*
G01*
X105519947Y-112412778D01*
X105519950Y-112412779D01*
X105626095Y-112469514D01*
X105626097Y-112469515D01*
X105626096Y-112469515D01*
X105719132Y-112545867D01*
X105795486Y-112638903D01*
X105795487Y-112638905D01*
X105852221Y-112745049D01*
X105852221Y-112745050D01*
X105852222Y-112745052D01*
X105887160Y-112860222D01*
X105896000Y-112949983D01*
X105896000Y-113590017D01*
X105887160Y-113679778D01*
X105852222Y-113794948D01*
X105852221Y-113794951D01*
X105795486Y-113901096D01*
X105795485Y-113901097D01*
X105719133Y-113994133D01*
X105634438Y-114063640D01*
X105626096Y-114070486D01*
X105519951Y-114127221D01*
X105519948Y-114127222D01*
X105404778Y-114162160D01*
X105285000Y-114173956D01*
X105165223Y-114162160D01*
X105050053Y-114127222D01*
X105050050Y-114127221D01*
X104943905Y-114070486D01*
X104935563Y-114063640D01*
X104850868Y-113994133D01*
X104774514Y-113901095D01*
X104717778Y-113794950D01*
X104682840Y-113679778D01*
X104674000Y-113590017D01*
X104674000Y-112949984D01*
X104682840Y-112860223D01*
X104717778Y-112745053D01*
X104717779Y-112745050D01*
X104774514Y-112638905D01*
X104799145Y-112608892D01*
X104850867Y-112545868D01*
X104943903Y-112469514D01*
X104993759Y-112442866D01*
X105050049Y-112412779D01*
X105050052Y-112412778D01*
X105165222Y-112377840D01*
X105285000Y-112366044D01*
X105404777Y-112377840D01*
X105404777Y-112377840D01*
G37*
G36*
X117326000Y-111604001D02*
G01*
X117328402Y-111628387D01*
X117335515Y-111651836D01*
X117347066Y-111673447D01*
X117362611Y-111692389D01*
X117381553Y-111707934D01*
X117403164Y-111719485D01*
X117426613Y-111726598D01*
X117450999Y-111729000D01*
X117558893Y-111729000D01*
X117713642Y-111759781D01*
X117859414Y-111820162D01*
X117859416Y-111820163D01*
X117990608Y-111907822D01*
X118102178Y-112019392D01*
X118189837Y-112150584D01*
X118189838Y-112150586D01*
X118250219Y-112296358D01*
X118281000Y-112451107D01*
X118281000Y-112608893D01*
X118250219Y-112763642D01*
X118210213Y-112860224D01*
X118189837Y-112909416D01*
X118102178Y-113040608D01*
X117990608Y-113152178D01*
X117859416Y-113239837D01*
X117859415Y-113239838D01*
X117859414Y-113239838D01*
X117713642Y-113300219D01*
X117558893Y-113331000D01*
X117401107Y-113331000D01*
X117246358Y-113300219D01*
X117100586Y-113239838D01*
X117100585Y-113239838D01*
X117100584Y-113239837D01*
X116969392Y-113152178D01*
X116857822Y-113040608D01*
X116770163Y-112909416D01*
X116749787Y-112860224D01*
X116709781Y-112763642D01*
X116679000Y-112608893D01*
X116679000Y-112451107D01*
X116709781Y-112296358D01*
X116770162Y-112150586D01*
X116770163Y-112150584D01*
X116857822Y-112019392D01*
X116969392Y-111907822D01*
X117041065Y-111859932D01*
X117060007Y-111844387D01*
X117075552Y-111825445D01*
X117087103Y-111803834D01*
X117094216Y-111780385D01*
X117096618Y-111755999D01*
X117094216Y-111731613D01*
X117087103Y-111708164D01*
X117075552Y-111686553D01*
X117060007Y-111667611D01*
X117041065Y-111652066D01*
X117019454Y-111640515D01*
X116996005Y-111633402D01*
X116971619Y-111631000D01*
X116104000Y-111631000D01*
X116104000Y-109829000D01*
X117326000Y-109829000D01*
X117326000Y-111604001D01*
X117326000Y-111604001D01*
G37*
G36*
X114294777Y-109837840D02*
G01*
X114409947Y-109872778D01*
X114409950Y-109872779D01*
X114516095Y-109929514D01*
X114516097Y-109929515D01*
X114516096Y-109929515D01*
X114609132Y-110005867D01*
X114685486Y-110098903D01*
X114685487Y-110098905D01*
X114742221Y-110205049D01*
X114742221Y-110205050D01*
X114742222Y-110205052D01*
X114777160Y-110320222D01*
X114786000Y-110409983D01*
X114786000Y-111050017D01*
X114777160Y-111139778D01*
X114742222Y-111254948D01*
X114742221Y-111254951D01*
X114685486Y-111361096D01*
X114685485Y-111361097D01*
X114609133Y-111454133D01*
X114524438Y-111523640D01*
X114516096Y-111530486D01*
X114409951Y-111587221D01*
X114409948Y-111587222D01*
X114294778Y-111622160D01*
X114175000Y-111633956D01*
X114055223Y-111622160D01*
X113940053Y-111587222D01*
X113940050Y-111587221D01*
X113833905Y-111530486D01*
X113825563Y-111523640D01*
X113740868Y-111454133D01*
X113664514Y-111361095D01*
X113607778Y-111254950D01*
X113572840Y-111139778D01*
X113564000Y-111050017D01*
X113564000Y-110409984D01*
X113572840Y-110320223D01*
X113607778Y-110205053D01*
X113607779Y-110205050D01*
X113664514Y-110098905D01*
X113676124Y-110084758D01*
X113740867Y-110005868D01*
X113833903Y-109929514D01*
X113883759Y-109902866D01*
X113940049Y-109872779D01*
X113940052Y-109872778D01*
X114055222Y-109837840D01*
X114175000Y-109826044D01*
X114294777Y-109837840D01*
X114294777Y-109837840D01*
G37*
G36*
X111754777Y-109837840D02*
G01*
X111869947Y-109872778D01*
X111869950Y-109872779D01*
X111976095Y-109929514D01*
X111976097Y-109929515D01*
X111976096Y-109929515D01*
X112069132Y-110005867D01*
X112145486Y-110098903D01*
X112145487Y-110098905D01*
X112202221Y-110205049D01*
X112202221Y-110205050D01*
X112202222Y-110205052D01*
X112237160Y-110320222D01*
X112246000Y-110409983D01*
X112246000Y-111050017D01*
X112237160Y-111139778D01*
X112202222Y-111254948D01*
X112202221Y-111254951D01*
X112145486Y-111361096D01*
X112145485Y-111361097D01*
X112069133Y-111454133D01*
X111984438Y-111523640D01*
X111976096Y-111530486D01*
X111869951Y-111587221D01*
X111869948Y-111587222D01*
X111754778Y-111622160D01*
X111635000Y-111633956D01*
X111515223Y-111622160D01*
X111400053Y-111587222D01*
X111400050Y-111587221D01*
X111293905Y-111530486D01*
X111285563Y-111523640D01*
X111200868Y-111454133D01*
X111124514Y-111361095D01*
X111067778Y-111254950D01*
X111032840Y-111139778D01*
X111024000Y-111050017D01*
X111024000Y-110409984D01*
X111032840Y-110320223D01*
X111067778Y-110205053D01*
X111067779Y-110205050D01*
X111124514Y-110098905D01*
X111136124Y-110084758D01*
X111200867Y-110005868D01*
X111293903Y-109929514D01*
X111343759Y-109902866D01*
X111400049Y-109872779D01*
X111400052Y-109872778D01*
X111515222Y-109837840D01*
X111635000Y-109826044D01*
X111754777Y-109837840D01*
X111754777Y-109837840D01*
G37*
G36*
X106674777Y-109837840D02*
G01*
X106789947Y-109872778D01*
X106789950Y-109872779D01*
X106896095Y-109929514D01*
X106896097Y-109929515D01*
X106896096Y-109929515D01*
X106989132Y-110005867D01*
X107065486Y-110098903D01*
X107065487Y-110098905D01*
X107122221Y-110205049D01*
X107122221Y-110205050D01*
X107122222Y-110205052D01*
X107157160Y-110320222D01*
X107166000Y-110409983D01*
X107166000Y-111050017D01*
X107157160Y-111139778D01*
X107122222Y-111254948D01*
X107122221Y-111254951D01*
X107065486Y-111361096D01*
X107065485Y-111361097D01*
X106989133Y-111454133D01*
X106904438Y-111523640D01*
X106896096Y-111530486D01*
X106789951Y-111587221D01*
X106789948Y-111587222D01*
X106674778Y-111622160D01*
X106555000Y-111633956D01*
X106435223Y-111622160D01*
X106320053Y-111587222D01*
X106320050Y-111587221D01*
X106213905Y-111530486D01*
X106205563Y-111523640D01*
X106120868Y-111454133D01*
X106044514Y-111361095D01*
X105987778Y-111254950D01*
X105952840Y-111139778D01*
X105944000Y-111050017D01*
X105944000Y-110409984D01*
X105952840Y-110320223D01*
X105987778Y-110205053D01*
X105987779Y-110205050D01*
X106044514Y-110098905D01*
X106056124Y-110084758D01*
X106120867Y-110005868D01*
X106213903Y-109929514D01*
X106263759Y-109902866D01*
X106320049Y-109872779D01*
X106320052Y-109872778D01*
X106435222Y-109837840D01*
X106555000Y-109826044D01*
X106674777Y-109837840D01*
X106674777Y-109837840D01*
G37*
G36*
X109214777Y-109837840D02*
G01*
X109329947Y-109872778D01*
X109329950Y-109872779D01*
X109436095Y-109929514D01*
X109436097Y-109929515D01*
X109436096Y-109929515D01*
X109529132Y-110005867D01*
X109605486Y-110098903D01*
X109605487Y-110098905D01*
X109662221Y-110205049D01*
X109662221Y-110205050D01*
X109662222Y-110205052D01*
X109697160Y-110320222D01*
X109706000Y-110409983D01*
X109706000Y-111050017D01*
X109697160Y-111139778D01*
X109662222Y-111254948D01*
X109662221Y-111254951D01*
X109605486Y-111361096D01*
X109605485Y-111361097D01*
X109529133Y-111454133D01*
X109444438Y-111523640D01*
X109436096Y-111530486D01*
X109329951Y-111587221D01*
X109329948Y-111587222D01*
X109214778Y-111622160D01*
X109095000Y-111633956D01*
X108975223Y-111622160D01*
X108860053Y-111587222D01*
X108860050Y-111587221D01*
X108753905Y-111530486D01*
X108745563Y-111523640D01*
X108660868Y-111454133D01*
X108584514Y-111361095D01*
X108527778Y-111254950D01*
X108492840Y-111139778D01*
X108484000Y-111050017D01*
X108484000Y-110409984D01*
X108492840Y-110320223D01*
X108527778Y-110205053D01*
X108527779Y-110205050D01*
X108584514Y-110098905D01*
X108596124Y-110084758D01*
X108660867Y-110005868D01*
X108753903Y-109929514D01*
X108803759Y-109902866D01*
X108860049Y-109872779D01*
X108860052Y-109872778D01*
X108975222Y-109837840D01*
X109095000Y-109826044D01*
X109214777Y-109837840D01*
X109214777Y-109837840D01*
G37*
G36*
X191676626Y-106987037D02*
G01*
X191846465Y-107038557D01*
X191846467Y-107038558D01*
X192002989Y-107122221D01*
X192140186Y-107234814D01*
X192223448Y-107336271D01*
X192252778Y-107372009D01*
X192336443Y-107528534D01*
X192387963Y-107698373D01*
X192401000Y-107830742D01*
X192401000Y-108169257D01*
X192387963Y-108301626D01*
X192336443Y-108471466D01*
X192252778Y-108627991D01*
X192223448Y-108663729D01*
X192140186Y-108765186D01*
X192045250Y-108843097D01*
X192002991Y-108877778D01*
X191846466Y-108961443D01*
X191676627Y-109012963D01*
X191500000Y-109030359D01*
X191323374Y-109012963D01*
X191153535Y-108961443D01*
X190997010Y-108877778D01*
X190859815Y-108765185D01*
X190747222Y-108627991D01*
X190663557Y-108471466D01*
X190612037Y-108301627D01*
X190599000Y-108169258D01*
X190599000Y-107830743D01*
X190612037Y-107698374D01*
X190663557Y-107528535D01*
X190747222Y-107372010D01*
X190747223Y-107372009D01*
X190859814Y-107234814D01*
X190961271Y-107151552D01*
X190997009Y-107122222D01*
X191153534Y-107038557D01*
X191323373Y-106987037D01*
X191500000Y-106969641D01*
X191676626Y-106987037D01*
X191676626Y-106987037D01*
G37*
G36*
X189176626Y-106987037D02*
G01*
X189346465Y-107038557D01*
X189346467Y-107038558D01*
X189502989Y-107122221D01*
X189640186Y-107234814D01*
X189723448Y-107336271D01*
X189752778Y-107372009D01*
X189836443Y-107528534D01*
X189887963Y-107698373D01*
X189901000Y-107830742D01*
X189901000Y-108169257D01*
X189887963Y-108301626D01*
X189836443Y-108471466D01*
X189752778Y-108627991D01*
X189723448Y-108663729D01*
X189640186Y-108765186D01*
X189545250Y-108843097D01*
X189502991Y-108877778D01*
X189346466Y-108961443D01*
X189176627Y-109012963D01*
X189000000Y-109030359D01*
X188823374Y-109012963D01*
X188653535Y-108961443D01*
X188497010Y-108877778D01*
X188359815Y-108765185D01*
X188247222Y-108627991D01*
X188163557Y-108471466D01*
X188112037Y-108301627D01*
X188099000Y-108169258D01*
X188099000Y-107830743D01*
X188112037Y-107698374D01*
X188163557Y-107528535D01*
X188247222Y-107372010D01*
X188247223Y-107372009D01*
X188359814Y-107234814D01*
X188461271Y-107151552D01*
X188497009Y-107122222D01*
X188653534Y-107038557D01*
X188823373Y-106987037D01*
X189000000Y-106969641D01*
X189176626Y-106987037D01*
X189176626Y-106987037D01*
G37*
G36*
X186676626Y-106987037D02*
G01*
X186846465Y-107038557D01*
X186846467Y-107038558D01*
X187002989Y-107122221D01*
X187140186Y-107234814D01*
X187223448Y-107336271D01*
X187252778Y-107372009D01*
X187336443Y-107528534D01*
X187387963Y-107698373D01*
X187401000Y-107830742D01*
X187401000Y-108169257D01*
X187387963Y-108301626D01*
X187336443Y-108471466D01*
X187252778Y-108627991D01*
X187223448Y-108663729D01*
X187140186Y-108765186D01*
X187045250Y-108843097D01*
X187002991Y-108877778D01*
X186846466Y-108961443D01*
X186676627Y-109012963D01*
X186500000Y-109030359D01*
X186323374Y-109012963D01*
X186153535Y-108961443D01*
X185997010Y-108877778D01*
X185859815Y-108765185D01*
X185747222Y-108627991D01*
X185663557Y-108471466D01*
X185612037Y-108301627D01*
X185599000Y-108169258D01*
X185599000Y-107830743D01*
X185612037Y-107698374D01*
X185663557Y-107528535D01*
X185747222Y-107372010D01*
X185747223Y-107372009D01*
X185859814Y-107234814D01*
X185961271Y-107151552D01*
X185997009Y-107122222D01*
X186153534Y-107038557D01*
X186323373Y-106987037D01*
X186500000Y-106969641D01*
X186676626Y-106987037D01*
X186676626Y-106987037D01*
G37*
G36*
X184758600Y-106977989D02*
G01*
X184791652Y-106988015D01*
X184822103Y-107004292D01*
X184848799Y-107026201D01*
X184870708Y-107052897D01*
X184886985Y-107083348D01*
X184897011Y-107116400D01*
X184901000Y-107156903D01*
X184901000Y-108843097D01*
X184897011Y-108883600D01*
X184886985Y-108916652D01*
X184870708Y-108947103D01*
X184848799Y-108973799D01*
X184822103Y-108995708D01*
X184791652Y-109011985D01*
X184758600Y-109022011D01*
X184718097Y-109026000D01*
X183281903Y-109026000D01*
X183241400Y-109022011D01*
X183208348Y-109011985D01*
X183177897Y-108995708D01*
X183151201Y-108973799D01*
X183129292Y-108947103D01*
X183113015Y-108916652D01*
X183102989Y-108883600D01*
X183099000Y-108843097D01*
X183099000Y-107156903D01*
X183102989Y-107116400D01*
X183113015Y-107083348D01*
X183129292Y-107052897D01*
X183151201Y-107026201D01*
X183177897Y-107004292D01*
X183208348Y-106988015D01*
X183241400Y-106977989D01*
X183281903Y-106974000D01*
X184718097Y-106974000D01*
X184758600Y-106977989D01*
X184758600Y-106977989D01*
G37*
G36*
X114993410Y-100455525D02*
G01*
X115078426Y-100481314D01*
X115156775Y-100523193D01*
X115225449Y-100579551D01*
X115281807Y-100648225D01*
X115323686Y-100726574D01*
X115349475Y-100811590D01*
X115356000Y-100877842D01*
X115356000Y-101622158D01*
X115349475Y-101688410D01*
X115323686Y-101773426D01*
X115289327Y-101837705D01*
X115279950Y-101860344D01*
X115275169Y-101884377D01*
X115275169Y-101908881D01*
X115279949Y-101932914D01*
X115289326Y-101955553D01*
X115302940Y-101975928D01*
X115320267Y-101993255D01*
X115340641Y-102006869D01*
X115363280Y-102016246D01*
X115387313Y-102021027D01*
X115411817Y-102021027D01*
X115423952Y-102019227D01*
X115500504Y-102004000D01*
X115579496Y-102004000D01*
X115593919Y-102006869D01*
X115656967Y-102019410D01*
X115687195Y-102031931D01*
X115729944Y-102049638D01*
X115795622Y-102093523D01*
X115851477Y-102149378D01*
X115895362Y-102215056D01*
X115925590Y-102288034D01*
X115941000Y-102365504D01*
X115941000Y-102444496D01*
X115925590Y-102521966D01*
X115895362Y-102594944D01*
X115851477Y-102660622D01*
X115795622Y-102716477D01*
X115729944Y-102760362D01*
X115687195Y-102778069D01*
X115656967Y-102790590D01*
X115618231Y-102798295D01*
X115579496Y-102806000D01*
X115500504Y-102806000D01*
X115461769Y-102798295D01*
X115423033Y-102790590D01*
X115392805Y-102778069D01*
X115350056Y-102760362D01*
X115284378Y-102716477D01*
X115228523Y-102660622D01*
X115184638Y-102594944D01*
X115154410Y-102521966D01*
X115139000Y-102444496D01*
X115139000Y-102365504D01*
X115154410Y-102288034D01*
X115186373Y-102210868D01*
X115193670Y-102197216D01*
X115200782Y-102173767D01*
X115203184Y-102149381D01*
X115200782Y-102124995D01*
X115193668Y-102101546D01*
X115182117Y-102079935D01*
X115166572Y-102060993D01*
X115147630Y-102045448D01*
X115126019Y-102033897D01*
X115102570Y-102026785D01*
X115078184Y-102024383D01*
X115041899Y-102029766D01*
X114993412Y-102044475D01*
X114905000Y-102053182D01*
X114816590Y-102044475D01*
X114768100Y-102029766D01*
X114744066Y-102024986D01*
X114719562Y-102024986D01*
X114695529Y-102029767D01*
X114672890Y-102039144D01*
X114652516Y-102052758D01*
X114635189Y-102070085D01*
X114621575Y-102090460D01*
X114612198Y-102113098D01*
X114607418Y-102137132D01*
X114607418Y-102161636D01*
X114612199Y-102185669D01*
X114621576Y-102208308D01*
X114624782Y-102213657D01*
X114655590Y-102288034D01*
X114671000Y-102365504D01*
X114671000Y-102444496D01*
X114655590Y-102521966D01*
X114625362Y-102594944D01*
X114581477Y-102660622D01*
X114525622Y-102716477D01*
X114459944Y-102760362D01*
X114417195Y-102778069D01*
X114386967Y-102790590D01*
X114348231Y-102798295D01*
X114309496Y-102806000D01*
X114230504Y-102806000D01*
X114191769Y-102798295D01*
X114153033Y-102790590D01*
X114122805Y-102778069D01*
X114080056Y-102760362D01*
X114014378Y-102716477D01*
X113958523Y-102660622D01*
X113914638Y-102594944D01*
X113884410Y-102521966D01*
X113869000Y-102444496D01*
X113869000Y-102365504D01*
X113884410Y-102288034D01*
X113916373Y-102210868D01*
X113923670Y-102197216D01*
X113930782Y-102173767D01*
X113933184Y-102149381D01*
X113930782Y-102124995D01*
X113923668Y-102101546D01*
X113912117Y-102079935D01*
X113896572Y-102060993D01*
X113877630Y-102045448D01*
X113856019Y-102033897D01*
X113832570Y-102026785D01*
X113808184Y-102024383D01*
X113771899Y-102029766D01*
X113723412Y-102044475D01*
X113635000Y-102053182D01*
X113546590Y-102044475D01*
X113498100Y-102029766D01*
X113474066Y-102024986D01*
X113449562Y-102024986D01*
X113425529Y-102029767D01*
X113402890Y-102039144D01*
X113382516Y-102052758D01*
X113365189Y-102070085D01*
X113351575Y-102090460D01*
X113342198Y-102113098D01*
X113337418Y-102137132D01*
X113337418Y-102161636D01*
X113342199Y-102185669D01*
X113351576Y-102208308D01*
X113354782Y-102213657D01*
X113385590Y-102288034D01*
X113401000Y-102365504D01*
X113401000Y-102444496D01*
X113385590Y-102521966D01*
X113355362Y-102594944D01*
X113311477Y-102660622D01*
X113255622Y-102716477D01*
X113189944Y-102760362D01*
X113147195Y-102778069D01*
X113116967Y-102790590D01*
X113078231Y-102798295D01*
X113039496Y-102806000D01*
X112960504Y-102806000D01*
X112921769Y-102798295D01*
X112883033Y-102790590D01*
X112852805Y-102778069D01*
X112810056Y-102760362D01*
X112744378Y-102716477D01*
X112688523Y-102660622D01*
X112644638Y-102594944D01*
X112614410Y-102521966D01*
X112599000Y-102444496D01*
X112599000Y-102365504D01*
X112614410Y-102288034D01*
X112646373Y-102210868D01*
X112653670Y-102197216D01*
X112660782Y-102173767D01*
X112663184Y-102149381D01*
X112660782Y-102124995D01*
X112653668Y-102101546D01*
X112642117Y-102079935D01*
X112626572Y-102060993D01*
X112607630Y-102045448D01*
X112586019Y-102033897D01*
X112562570Y-102026785D01*
X112538184Y-102024383D01*
X112501899Y-102029766D01*
X112453412Y-102044475D01*
X112365000Y-102053182D01*
X112276590Y-102044475D01*
X112228100Y-102029766D01*
X112204066Y-102024986D01*
X112179562Y-102024986D01*
X112155529Y-102029767D01*
X112132890Y-102039144D01*
X112112516Y-102052758D01*
X112095189Y-102070085D01*
X112081575Y-102090460D01*
X112072198Y-102113098D01*
X112067418Y-102137132D01*
X112067418Y-102161636D01*
X112072199Y-102185669D01*
X112081576Y-102208308D01*
X112084782Y-102213657D01*
X112115590Y-102288034D01*
X112131000Y-102365504D01*
X112131000Y-102444496D01*
X112115590Y-102521966D01*
X112085362Y-102594944D01*
X112041477Y-102660622D01*
X111985622Y-102716477D01*
X111919944Y-102760362D01*
X111877195Y-102778069D01*
X111846967Y-102790590D01*
X111808231Y-102798295D01*
X111769496Y-102806000D01*
X111690504Y-102806000D01*
X111651769Y-102798295D01*
X111613033Y-102790590D01*
X111582805Y-102778069D01*
X111540056Y-102760362D01*
X111474378Y-102716477D01*
X111418523Y-102660622D01*
X111374638Y-102594944D01*
X111344410Y-102521966D01*
X111329000Y-102444496D01*
X111329000Y-102365504D01*
X111344410Y-102288034D01*
X111376373Y-102210868D01*
X111383670Y-102197216D01*
X111390782Y-102173767D01*
X111393184Y-102149381D01*
X111390782Y-102124995D01*
X111383668Y-102101546D01*
X111372117Y-102079935D01*
X111356572Y-102060993D01*
X111337630Y-102045448D01*
X111316019Y-102033897D01*
X111292570Y-102026785D01*
X111268184Y-102024383D01*
X111231899Y-102029766D01*
X111183412Y-102044475D01*
X111095000Y-102053182D01*
X111006590Y-102044475D01*
X110958100Y-102029766D01*
X110934066Y-102024986D01*
X110909562Y-102024986D01*
X110885529Y-102029767D01*
X110862890Y-102039144D01*
X110842516Y-102052758D01*
X110825189Y-102070085D01*
X110811575Y-102090460D01*
X110802198Y-102113098D01*
X110797418Y-102137132D01*
X110797418Y-102161636D01*
X110802199Y-102185669D01*
X110811576Y-102208308D01*
X110814782Y-102213657D01*
X110845590Y-102288034D01*
X110861000Y-102365504D01*
X110861000Y-102444496D01*
X110845590Y-102521966D01*
X110815362Y-102594944D01*
X110771477Y-102660622D01*
X110715622Y-102716477D01*
X110649944Y-102760362D01*
X110607195Y-102778069D01*
X110576967Y-102790590D01*
X110538231Y-102798295D01*
X110499496Y-102806000D01*
X110420504Y-102806000D01*
X110381769Y-102798295D01*
X110343033Y-102790590D01*
X110312805Y-102778069D01*
X110270056Y-102760362D01*
X110204378Y-102716477D01*
X110148523Y-102660622D01*
X110104638Y-102594944D01*
X110074410Y-102521966D01*
X110059000Y-102444496D01*
X110059000Y-102365504D01*
X110074410Y-102288034D01*
X110104638Y-102215056D01*
X110148523Y-102149378D01*
X110204378Y-102093523D01*
X110270056Y-102049638D01*
X110312805Y-102031931D01*
X110343033Y-102019410D01*
X110406081Y-102006869D01*
X110420504Y-102004000D01*
X110499496Y-102004000D01*
X110576048Y-102019227D01*
X110600434Y-102021629D01*
X110624820Y-102019227D01*
X110648269Y-102012114D01*
X110669880Y-102000563D01*
X110688822Y-101985017D01*
X110704367Y-101966075D01*
X110715918Y-101944465D01*
X110723031Y-101921016D01*
X110725433Y-101896630D01*
X110723031Y-101872244D01*
X110715918Y-101848795D01*
X110710673Y-101837705D01*
X110676314Y-101773425D01*
X110650525Y-101688409D01*
X110644000Y-101622157D01*
X110644000Y-100877842D01*
X110650525Y-100811590D01*
X110676313Y-100726577D01*
X110718195Y-100648224D01*
X110774552Y-100579551D01*
X110843226Y-100523193D01*
X110921575Y-100481314D01*
X111006591Y-100455525D01*
X111095000Y-100446818D01*
X111183410Y-100455525D01*
X111268426Y-100481314D01*
X111346775Y-100523193D01*
X111415449Y-100579551D01*
X111471807Y-100648225D01*
X111513686Y-100726574D01*
X111539475Y-100811590D01*
X111546000Y-100877842D01*
X111546000Y-101622158D01*
X111539475Y-101688410D01*
X111513686Y-101773426D01*
X111479327Y-101837705D01*
X111469950Y-101860344D01*
X111465169Y-101884377D01*
X111465169Y-101908881D01*
X111469949Y-101932914D01*
X111479326Y-101955553D01*
X111492940Y-101975928D01*
X111510267Y-101993255D01*
X111530641Y-102006869D01*
X111553280Y-102016246D01*
X111577313Y-102021027D01*
X111601817Y-102021027D01*
X111613952Y-102019227D01*
X111690504Y-102004000D01*
X111769496Y-102004000D01*
X111846048Y-102019227D01*
X111870434Y-102021629D01*
X111894820Y-102019227D01*
X111918269Y-102012114D01*
X111939880Y-102000563D01*
X111958822Y-101985017D01*
X111974367Y-101966075D01*
X111985918Y-101944465D01*
X111993031Y-101921016D01*
X111995433Y-101896630D01*
X111993031Y-101872244D01*
X111985918Y-101848795D01*
X111980673Y-101837705D01*
X111946314Y-101773425D01*
X111920525Y-101688409D01*
X111914000Y-101622157D01*
X111914000Y-100877842D01*
X111920525Y-100811590D01*
X111946313Y-100726577D01*
X111988195Y-100648224D01*
X112044552Y-100579551D01*
X112113226Y-100523193D01*
X112191575Y-100481314D01*
X112276591Y-100455525D01*
X112365000Y-100446818D01*
X112453410Y-100455525D01*
X112538426Y-100481314D01*
X112616775Y-100523193D01*
X112685449Y-100579551D01*
X112741807Y-100648225D01*
X112783686Y-100726574D01*
X112809475Y-100811590D01*
X112816000Y-100877842D01*
X112816000Y-101622158D01*
X112809475Y-101688410D01*
X112783686Y-101773426D01*
X112749327Y-101837705D01*
X112739950Y-101860344D01*
X112735169Y-101884377D01*
X112735169Y-101908881D01*
X112739949Y-101932914D01*
X112749326Y-101955553D01*
X112762940Y-101975928D01*
X112780267Y-101993255D01*
X112800641Y-102006869D01*
X112823280Y-102016246D01*
X112847313Y-102021027D01*
X112871817Y-102021027D01*
X112883952Y-102019227D01*
X112960504Y-102004000D01*
X113039496Y-102004000D01*
X113116048Y-102019227D01*
X113140434Y-102021629D01*
X113164820Y-102019227D01*
X113188269Y-102012114D01*
X113209880Y-102000563D01*
X113228822Y-101985017D01*
X113244367Y-101966075D01*
X113255918Y-101944465D01*
X113263031Y-101921016D01*
X113265433Y-101896630D01*
X113263031Y-101872244D01*
X113255918Y-101848795D01*
X113250673Y-101837705D01*
X113216314Y-101773425D01*
X113190525Y-101688409D01*
X113184000Y-101622157D01*
X113184000Y-100877842D01*
X113190525Y-100811590D01*
X113216313Y-100726577D01*
X113258195Y-100648224D01*
X113314552Y-100579551D01*
X113383226Y-100523193D01*
X113461575Y-100481314D01*
X113546591Y-100455525D01*
X113635000Y-100446818D01*
X113723410Y-100455525D01*
X113808426Y-100481314D01*
X113886775Y-100523193D01*
X113955449Y-100579551D01*
X114011807Y-100648225D01*
X114053686Y-100726574D01*
X114079475Y-100811590D01*
X114086000Y-100877842D01*
X114086000Y-101622158D01*
X114079475Y-101688410D01*
X114053686Y-101773426D01*
X114019327Y-101837705D01*
X114009950Y-101860344D01*
X114005169Y-101884377D01*
X114005169Y-101908881D01*
X114009949Y-101932914D01*
X114019326Y-101955553D01*
X114032940Y-101975928D01*
X114050267Y-101993255D01*
X114070641Y-102006869D01*
X114093280Y-102016246D01*
X114117313Y-102021027D01*
X114141817Y-102021027D01*
X114153952Y-102019227D01*
X114230504Y-102004000D01*
X114309496Y-102004000D01*
X114386048Y-102019227D01*
X114410434Y-102021629D01*
X114434820Y-102019227D01*
X114458269Y-102012114D01*
X114479880Y-102000563D01*
X114498822Y-101985017D01*
X114514367Y-101966075D01*
X114525918Y-101944465D01*
X114533031Y-101921016D01*
X114535433Y-101896630D01*
X114533031Y-101872244D01*
X114525918Y-101848795D01*
X114520673Y-101837705D01*
X114486314Y-101773425D01*
X114460525Y-101688409D01*
X114454000Y-101622157D01*
X114454000Y-100877842D01*
X114460525Y-100811590D01*
X114486313Y-100726577D01*
X114528195Y-100648224D01*
X114584552Y-100579551D01*
X114653226Y-100523193D01*
X114731575Y-100481314D01*
X114816591Y-100455525D01*
X114905000Y-100446818D01*
X114993410Y-100455525D01*
X114993410Y-100455525D01*
G37*
M02*
