G04 #@! TF.GenerationSoftware,KiCad,Pcbnew,5.1.4+dfsg1-1*
G04 #@! TF.CreationDate,2020-01-26T17:09:30+03:00*
G04 #@! TF.ProjectId,smart-roller-gate-controller,736d6172-742d-4726-9f6c-6c65722d6761,rev?*
G04 #@! TF.SameCoordinates,Original*
G04 #@! TF.FileFunction,Paste,Top*
G04 #@! TF.FilePolarity,Positive*
%FSLAX46Y46*%
G04 Gerber Fmt 4.6, Leading zero omitted, Abs format (unit mm)*
G04 Created by KiCad (PCBNEW 5.1.4+dfsg1-1) date 2020-01-26 17:09:30*
%MOMM*%
%LPD*%
G04 APERTURE LIST*
%ADD10C,0.100000*%
%ADD11C,1.350000*%
%ADD12C,0.850000*%
%ADD13R,1.500000X1.000000*%
%ADD14R,1.800000X1.000000*%
%ADD15R,1.840000X2.200000*%
%ADD16C,1.000000*%
%ADD17R,2.000000X0.700000*%
%ADD18R,0.700000X2.000000*%
%ADD19R,5.000000X5.000000*%
%ADD20R,2.000000X0.900000*%
%ADD21R,0.900000X2.000000*%
%ADD22R,0.600000X1.300000*%
%ADD23C,0.950000*%
%ADD24R,0.900000X1.200000*%
G04 APERTURE END LIST*
D10*
G36*
X193124505Y-139326204D02*
G01*
X193148773Y-139329804D01*
X193172572Y-139335765D01*
X193195671Y-139344030D01*
X193217850Y-139354520D01*
X193238893Y-139367132D01*
X193258599Y-139381747D01*
X193276777Y-139398223D01*
X193293253Y-139416401D01*
X193307868Y-139436107D01*
X193320480Y-139457150D01*
X193330970Y-139479329D01*
X193339235Y-139502428D01*
X193345196Y-139526227D01*
X193348796Y-139550495D01*
X193350000Y-139574999D01*
X193350000Y-140425001D01*
X193348796Y-140449505D01*
X193345196Y-140473773D01*
X193339235Y-140497572D01*
X193330970Y-140520671D01*
X193320480Y-140542850D01*
X193307868Y-140563893D01*
X193293253Y-140583599D01*
X193276777Y-140601777D01*
X193258599Y-140618253D01*
X193238893Y-140632868D01*
X193217850Y-140645480D01*
X193195671Y-140655970D01*
X193172572Y-140664235D01*
X193148773Y-140670196D01*
X193124505Y-140673796D01*
X193100001Y-140675000D01*
X192199999Y-140675000D01*
X192175495Y-140673796D01*
X192151227Y-140670196D01*
X192127428Y-140664235D01*
X192104329Y-140655970D01*
X192082150Y-140645480D01*
X192061107Y-140632868D01*
X192041401Y-140618253D01*
X192023223Y-140601777D01*
X192006747Y-140583599D01*
X191992132Y-140563893D01*
X191979520Y-140542850D01*
X191969030Y-140520671D01*
X191960765Y-140497572D01*
X191954804Y-140473773D01*
X191951204Y-140449505D01*
X191950000Y-140425001D01*
X191950000Y-139574999D01*
X191951204Y-139550495D01*
X191954804Y-139526227D01*
X191960765Y-139502428D01*
X191969030Y-139479329D01*
X191979520Y-139457150D01*
X191992132Y-139436107D01*
X192006747Y-139416401D01*
X192023223Y-139398223D01*
X192041401Y-139381747D01*
X192061107Y-139367132D01*
X192082150Y-139354520D01*
X192104329Y-139344030D01*
X192127428Y-139335765D01*
X192151227Y-139329804D01*
X192175495Y-139326204D01*
X192199999Y-139325000D01*
X193100001Y-139325000D01*
X193124505Y-139326204D01*
X193124505Y-139326204D01*
G37*
D11*
X192650000Y-140000000D03*
D10*
G36*
X195824505Y-139326204D02*
G01*
X195848773Y-139329804D01*
X195872572Y-139335765D01*
X195895671Y-139344030D01*
X195917850Y-139354520D01*
X195938893Y-139367132D01*
X195958599Y-139381747D01*
X195976777Y-139398223D01*
X195993253Y-139416401D01*
X196007868Y-139436107D01*
X196020480Y-139457150D01*
X196030970Y-139479329D01*
X196039235Y-139502428D01*
X196045196Y-139526227D01*
X196048796Y-139550495D01*
X196050000Y-139574999D01*
X196050000Y-140425001D01*
X196048796Y-140449505D01*
X196045196Y-140473773D01*
X196039235Y-140497572D01*
X196030970Y-140520671D01*
X196020480Y-140542850D01*
X196007868Y-140563893D01*
X195993253Y-140583599D01*
X195976777Y-140601777D01*
X195958599Y-140618253D01*
X195938893Y-140632868D01*
X195917850Y-140645480D01*
X195895671Y-140655970D01*
X195872572Y-140664235D01*
X195848773Y-140670196D01*
X195824505Y-140673796D01*
X195800001Y-140675000D01*
X194899999Y-140675000D01*
X194875495Y-140673796D01*
X194851227Y-140670196D01*
X194827428Y-140664235D01*
X194804329Y-140655970D01*
X194782150Y-140645480D01*
X194761107Y-140632868D01*
X194741401Y-140618253D01*
X194723223Y-140601777D01*
X194706747Y-140583599D01*
X194692132Y-140563893D01*
X194679520Y-140542850D01*
X194669030Y-140520671D01*
X194660765Y-140497572D01*
X194654804Y-140473773D01*
X194651204Y-140449505D01*
X194650000Y-140425001D01*
X194650000Y-139574999D01*
X194651204Y-139550495D01*
X194654804Y-139526227D01*
X194660765Y-139502428D01*
X194669030Y-139479329D01*
X194679520Y-139457150D01*
X194692132Y-139436107D01*
X194706747Y-139416401D01*
X194723223Y-139398223D01*
X194741401Y-139381747D01*
X194761107Y-139367132D01*
X194782150Y-139354520D01*
X194804329Y-139344030D01*
X194827428Y-139335765D01*
X194851227Y-139329804D01*
X194875495Y-139326204D01*
X194899999Y-139325000D01*
X195800001Y-139325000D01*
X195824505Y-139326204D01*
X195824505Y-139326204D01*
G37*
D11*
X195350000Y-140000000D03*
D10*
G36*
X193124505Y-149326204D02*
G01*
X193148773Y-149329804D01*
X193172572Y-149335765D01*
X193195671Y-149344030D01*
X193217850Y-149354520D01*
X193238893Y-149367132D01*
X193258599Y-149381747D01*
X193276777Y-149398223D01*
X193293253Y-149416401D01*
X193307868Y-149436107D01*
X193320480Y-149457150D01*
X193330970Y-149479329D01*
X193339235Y-149502428D01*
X193345196Y-149526227D01*
X193348796Y-149550495D01*
X193350000Y-149574999D01*
X193350000Y-150425001D01*
X193348796Y-150449505D01*
X193345196Y-150473773D01*
X193339235Y-150497572D01*
X193330970Y-150520671D01*
X193320480Y-150542850D01*
X193307868Y-150563893D01*
X193293253Y-150583599D01*
X193276777Y-150601777D01*
X193258599Y-150618253D01*
X193238893Y-150632868D01*
X193217850Y-150645480D01*
X193195671Y-150655970D01*
X193172572Y-150664235D01*
X193148773Y-150670196D01*
X193124505Y-150673796D01*
X193100001Y-150675000D01*
X192199999Y-150675000D01*
X192175495Y-150673796D01*
X192151227Y-150670196D01*
X192127428Y-150664235D01*
X192104329Y-150655970D01*
X192082150Y-150645480D01*
X192061107Y-150632868D01*
X192041401Y-150618253D01*
X192023223Y-150601777D01*
X192006747Y-150583599D01*
X191992132Y-150563893D01*
X191979520Y-150542850D01*
X191969030Y-150520671D01*
X191960765Y-150497572D01*
X191954804Y-150473773D01*
X191951204Y-150449505D01*
X191950000Y-150425001D01*
X191950000Y-149574999D01*
X191951204Y-149550495D01*
X191954804Y-149526227D01*
X191960765Y-149502428D01*
X191969030Y-149479329D01*
X191979520Y-149457150D01*
X191992132Y-149436107D01*
X192006747Y-149416401D01*
X192023223Y-149398223D01*
X192041401Y-149381747D01*
X192061107Y-149367132D01*
X192082150Y-149354520D01*
X192104329Y-149344030D01*
X192127428Y-149335765D01*
X192151227Y-149329804D01*
X192175495Y-149326204D01*
X192199999Y-149325000D01*
X193100001Y-149325000D01*
X193124505Y-149326204D01*
X193124505Y-149326204D01*
G37*
D11*
X192650000Y-150000000D03*
D10*
G36*
X195824505Y-149326204D02*
G01*
X195848773Y-149329804D01*
X195872572Y-149335765D01*
X195895671Y-149344030D01*
X195917850Y-149354520D01*
X195938893Y-149367132D01*
X195958599Y-149381747D01*
X195976777Y-149398223D01*
X195993253Y-149416401D01*
X196007868Y-149436107D01*
X196020480Y-149457150D01*
X196030970Y-149479329D01*
X196039235Y-149502428D01*
X196045196Y-149526227D01*
X196048796Y-149550495D01*
X196050000Y-149574999D01*
X196050000Y-150425001D01*
X196048796Y-150449505D01*
X196045196Y-150473773D01*
X196039235Y-150497572D01*
X196030970Y-150520671D01*
X196020480Y-150542850D01*
X196007868Y-150563893D01*
X195993253Y-150583599D01*
X195976777Y-150601777D01*
X195958599Y-150618253D01*
X195938893Y-150632868D01*
X195917850Y-150645480D01*
X195895671Y-150655970D01*
X195872572Y-150664235D01*
X195848773Y-150670196D01*
X195824505Y-150673796D01*
X195800001Y-150675000D01*
X194899999Y-150675000D01*
X194875495Y-150673796D01*
X194851227Y-150670196D01*
X194827428Y-150664235D01*
X194804329Y-150655970D01*
X194782150Y-150645480D01*
X194761107Y-150632868D01*
X194741401Y-150618253D01*
X194723223Y-150601777D01*
X194706747Y-150583599D01*
X194692132Y-150563893D01*
X194679520Y-150542850D01*
X194669030Y-150520671D01*
X194660765Y-150497572D01*
X194654804Y-150473773D01*
X194651204Y-150449505D01*
X194650000Y-150425001D01*
X194650000Y-149574999D01*
X194651204Y-149550495D01*
X194654804Y-149526227D01*
X194660765Y-149502428D01*
X194669030Y-149479329D01*
X194679520Y-149457150D01*
X194692132Y-149436107D01*
X194706747Y-149416401D01*
X194723223Y-149398223D01*
X194741401Y-149381747D01*
X194761107Y-149367132D01*
X194782150Y-149354520D01*
X194804329Y-149344030D01*
X194827428Y-149335765D01*
X194851227Y-149329804D01*
X194875495Y-149326204D01*
X194899999Y-149325000D01*
X195800001Y-149325000D01*
X195824505Y-149326204D01*
X195824505Y-149326204D01*
G37*
D11*
X195350000Y-150000000D03*
D12*
X196667000Y-145000000D03*
D10*
G36*
X196242000Y-143900000D02*
G01*
X197092000Y-144500000D01*
X197092000Y-145500000D01*
X196242000Y-146100000D01*
X196242000Y-143900000D01*
X196242000Y-143900000D01*
G37*
D13*
X192520000Y-143500000D03*
D14*
X192666500Y-145000000D03*
D13*
X192520000Y-146500000D03*
D15*
X195333500Y-145000000D03*
D16*
X193923800Y-145000000D03*
D10*
G36*
X194423800Y-146100000D02*
G01*
X193423800Y-145400000D01*
X193423800Y-144600000D01*
X194423800Y-143900000D01*
X194423800Y-146100000D01*
X194423800Y-146100000D01*
G37*
D17*
X171050000Y-115240000D03*
X171050000Y-113970000D03*
X171050000Y-112700000D03*
X171050000Y-111430000D03*
X171050000Y-110160000D03*
X171050000Y-108890000D03*
X171050000Y-107620000D03*
X171050000Y-106350000D03*
D18*
X159540000Y-117500000D03*
X160810000Y-117500000D03*
X162080000Y-117500000D03*
X163350000Y-117500000D03*
X164620000Y-117500000D03*
X165890000Y-117500000D03*
X167160000Y-117500000D03*
X168430000Y-117500000D03*
D17*
X156950000Y-106350000D03*
X156950000Y-107620000D03*
X156950000Y-108890000D03*
X156950000Y-110160000D03*
X156950000Y-111430000D03*
X156950000Y-112700000D03*
X156950000Y-113970000D03*
X156950000Y-115240000D03*
D19*
X135000000Y-109245000D03*
D20*
X127500000Y-101745000D03*
X127500000Y-103015000D03*
X127500000Y-104285000D03*
X127500000Y-105555000D03*
X127500000Y-106825000D03*
X127500000Y-108095000D03*
X127500000Y-109365000D03*
X127500000Y-110635000D03*
X127500000Y-111905000D03*
X127500000Y-113175000D03*
X127500000Y-114445000D03*
X127500000Y-115715000D03*
X127500000Y-116985000D03*
X127500000Y-118255000D03*
D21*
X130285000Y-119255000D03*
X131555000Y-119255000D03*
X132825000Y-119255000D03*
X134095000Y-119255000D03*
X135365000Y-119255000D03*
X136635000Y-119255000D03*
X137905000Y-119255000D03*
X139175000Y-119255000D03*
X140445000Y-119255000D03*
X141715000Y-119255000D03*
D20*
X144500000Y-118255000D03*
X144500000Y-116985000D03*
X144500000Y-115715000D03*
X144500000Y-114445000D03*
X144500000Y-113175000D03*
X144500000Y-111905000D03*
X144500000Y-110635000D03*
X144500000Y-109365000D03*
X144500000Y-108095000D03*
X144500000Y-106825000D03*
X144500000Y-105555000D03*
X144500000Y-104285000D03*
X144500000Y-103015000D03*
X144500000Y-101745000D03*
D22*
X120000000Y-133050000D03*
X119050000Y-130950000D03*
X120950000Y-130950000D03*
X135950000Y-130950000D03*
X134050000Y-130950000D03*
X135000000Y-133050000D03*
D10*
G36*
X106435779Y-104226144D02*
G01*
X106458834Y-104229563D01*
X106481443Y-104235227D01*
X106503387Y-104243079D01*
X106524457Y-104253044D01*
X106544448Y-104265026D01*
X106563168Y-104278910D01*
X106580438Y-104294562D01*
X106596090Y-104311832D01*
X106609974Y-104330552D01*
X106621956Y-104350543D01*
X106631921Y-104371613D01*
X106639773Y-104393557D01*
X106645437Y-104416166D01*
X106648856Y-104439221D01*
X106650000Y-104462500D01*
X106650000Y-104937500D01*
X106648856Y-104960779D01*
X106645437Y-104983834D01*
X106639773Y-105006443D01*
X106631921Y-105028387D01*
X106621956Y-105049457D01*
X106609974Y-105069448D01*
X106596090Y-105088168D01*
X106580438Y-105105438D01*
X106563168Y-105121090D01*
X106544448Y-105134974D01*
X106524457Y-105146956D01*
X106503387Y-105156921D01*
X106481443Y-105164773D01*
X106458834Y-105170437D01*
X106435779Y-105173856D01*
X106412500Y-105175000D01*
X105837500Y-105175000D01*
X105814221Y-105173856D01*
X105791166Y-105170437D01*
X105768557Y-105164773D01*
X105746613Y-105156921D01*
X105725543Y-105146956D01*
X105705552Y-105134974D01*
X105686832Y-105121090D01*
X105669562Y-105105438D01*
X105653910Y-105088168D01*
X105640026Y-105069448D01*
X105628044Y-105049457D01*
X105618079Y-105028387D01*
X105610227Y-105006443D01*
X105604563Y-104983834D01*
X105601144Y-104960779D01*
X105600000Y-104937500D01*
X105600000Y-104462500D01*
X105601144Y-104439221D01*
X105604563Y-104416166D01*
X105610227Y-104393557D01*
X105618079Y-104371613D01*
X105628044Y-104350543D01*
X105640026Y-104330552D01*
X105653910Y-104311832D01*
X105669562Y-104294562D01*
X105686832Y-104278910D01*
X105705552Y-104265026D01*
X105725543Y-104253044D01*
X105746613Y-104243079D01*
X105768557Y-104235227D01*
X105791166Y-104229563D01*
X105814221Y-104226144D01*
X105837500Y-104225000D01*
X106412500Y-104225000D01*
X106435779Y-104226144D01*
X106435779Y-104226144D01*
G37*
D23*
X106125000Y-104700000D03*
D10*
G36*
X108185779Y-104226144D02*
G01*
X108208834Y-104229563D01*
X108231443Y-104235227D01*
X108253387Y-104243079D01*
X108274457Y-104253044D01*
X108294448Y-104265026D01*
X108313168Y-104278910D01*
X108330438Y-104294562D01*
X108346090Y-104311832D01*
X108359974Y-104330552D01*
X108371956Y-104350543D01*
X108381921Y-104371613D01*
X108389773Y-104393557D01*
X108395437Y-104416166D01*
X108398856Y-104439221D01*
X108400000Y-104462500D01*
X108400000Y-104937500D01*
X108398856Y-104960779D01*
X108395437Y-104983834D01*
X108389773Y-105006443D01*
X108381921Y-105028387D01*
X108371956Y-105049457D01*
X108359974Y-105069448D01*
X108346090Y-105088168D01*
X108330438Y-105105438D01*
X108313168Y-105121090D01*
X108294448Y-105134974D01*
X108274457Y-105146956D01*
X108253387Y-105156921D01*
X108231443Y-105164773D01*
X108208834Y-105170437D01*
X108185779Y-105173856D01*
X108162500Y-105175000D01*
X107587500Y-105175000D01*
X107564221Y-105173856D01*
X107541166Y-105170437D01*
X107518557Y-105164773D01*
X107496613Y-105156921D01*
X107475543Y-105146956D01*
X107455552Y-105134974D01*
X107436832Y-105121090D01*
X107419562Y-105105438D01*
X107403910Y-105088168D01*
X107390026Y-105069448D01*
X107378044Y-105049457D01*
X107368079Y-105028387D01*
X107360227Y-105006443D01*
X107354563Y-104983834D01*
X107351144Y-104960779D01*
X107350000Y-104937500D01*
X107350000Y-104462500D01*
X107351144Y-104439221D01*
X107354563Y-104416166D01*
X107360227Y-104393557D01*
X107368079Y-104371613D01*
X107378044Y-104350543D01*
X107390026Y-104330552D01*
X107403910Y-104311832D01*
X107419562Y-104294562D01*
X107436832Y-104278910D01*
X107455552Y-104265026D01*
X107475543Y-104253044D01*
X107496613Y-104243079D01*
X107518557Y-104235227D01*
X107541166Y-104229563D01*
X107564221Y-104226144D01*
X107587500Y-104225000D01*
X108162500Y-104225000D01*
X108185779Y-104226144D01*
X108185779Y-104226144D01*
G37*
D23*
X107875000Y-104700000D03*
D10*
G36*
X108185779Y-105726144D02*
G01*
X108208834Y-105729563D01*
X108231443Y-105735227D01*
X108253387Y-105743079D01*
X108274457Y-105753044D01*
X108294448Y-105765026D01*
X108313168Y-105778910D01*
X108330438Y-105794562D01*
X108346090Y-105811832D01*
X108359974Y-105830552D01*
X108371956Y-105850543D01*
X108381921Y-105871613D01*
X108389773Y-105893557D01*
X108395437Y-105916166D01*
X108398856Y-105939221D01*
X108400000Y-105962500D01*
X108400000Y-106437500D01*
X108398856Y-106460779D01*
X108395437Y-106483834D01*
X108389773Y-106506443D01*
X108381921Y-106528387D01*
X108371956Y-106549457D01*
X108359974Y-106569448D01*
X108346090Y-106588168D01*
X108330438Y-106605438D01*
X108313168Y-106621090D01*
X108294448Y-106634974D01*
X108274457Y-106646956D01*
X108253387Y-106656921D01*
X108231443Y-106664773D01*
X108208834Y-106670437D01*
X108185779Y-106673856D01*
X108162500Y-106675000D01*
X107587500Y-106675000D01*
X107564221Y-106673856D01*
X107541166Y-106670437D01*
X107518557Y-106664773D01*
X107496613Y-106656921D01*
X107475543Y-106646956D01*
X107455552Y-106634974D01*
X107436832Y-106621090D01*
X107419562Y-106605438D01*
X107403910Y-106588168D01*
X107390026Y-106569448D01*
X107378044Y-106549457D01*
X107368079Y-106528387D01*
X107360227Y-106506443D01*
X107354563Y-106483834D01*
X107351144Y-106460779D01*
X107350000Y-106437500D01*
X107350000Y-105962500D01*
X107351144Y-105939221D01*
X107354563Y-105916166D01*
X107360227Y-105893557D01*
X107368079Y-105871613D01*
X107378044Y-105850543D01*
X107390026Y-105830552D01*
X107403910Y-105811832D01*
X107419562Y-105794562D01*
X107436832Y-105778910D01*
X107455552Y-105765026D01*
X107475543Y-105753044D01*
X107496613Y-105743079D01*
X107518557Y-105735227D01*
X107541166Y-105729563D01*
X107564221Y-105726144D01*
X107587500Y-105725000D01*
X108162500Y-105725000D01*
X108185779Y-105726144D01*
X108185779Y-105726144D01*
G37*
D23*
X107875000Y-106200000D03*
D10*
G36*
X106435779Y-105726144D02*
G01*
X106458834Y-105729563D01*
X106481443Y-105735227D01*
X106503387Y-105743079D01*
X106524457Y-105753044D01*
X106544448Y-105765026D01*
X106563168Y-105778910D01*
X106580438Y-105794562D01*
X106596090Y-105811832D01*
X106609974Y-105830552D01*
X106621956Y-105850543D01*
X106631921Y-105871613D01*
X106639773Y-105893557D01*
X106645437Y-105916166D01*
X106648856Y-105939221D01*
X106650000Y-105962500D01*
X106650000Y-106437500D01*
X106648856Y-106460779D01*
X106645437Y-106483834D01*
X106639773Y-106506443D01*
X106631921Y-106528387D01*
X106621956Y-106549457D01*
X106609974Y-106569448D01*
X106596090Y-106588168D01*
X106580438Y-106605438D01*
X106563168Y-106621090D01*
X106544448Y-106634974D01*
X106524457Y-106646956D01*
X106503387Y-106656921D01*
X106481443Y-106664773D01*
X106458834Y-106670437D01*
X106435779Y-106673856D01*
X106412500Y-106675000D01*
X105837500Y-106675000D01*
X105814221Y-106673856D01*
X105791166Y-106670437D01*
X105768557Y-106664773D01*
X105746613Y-106656921D01*
X105725543Y-106646956D01*
X105705552Y-106634974D01*
X105686832Y-106621090D01*
X105669562Y-106605438D01*
X105653910Y-106588168D01*
X105640026Y-106569448D01*
X105628044Y-106549457D01*
X105618079Y-106528387D01*
X105610227Y-106506443D01*
X105604563Y-106483834D01*
X105601144Y-106460779D01*
X105600000Y-106437500D01*
X105600000Y-105962500D01*
X105601144Y-105939221D01*
X105604563Y-105916166D01*
X105610227Y-105893557D01*
X105618079Y-105871613D01*
X105628044Y-105850543D01*
X105640026Y-105830552D01*
X105653910Y-105811832D01*
X105669562Y-105794562D01*
X105686832Y-105778910D01*
X105705552Y-105765026D01*
X105725543Y-105753044D01*
X105746613Y-105743079D01*
X105768557Y-105735227D01*
X105791166Y-105729563D01*
X105814221Y-105726144D01*
X105837500Y-105725000D01*
X106412500Y-105725000D01*
X106435779Y-105726144D01*
X106435779Y-105726144D01*
G37*
D23*
X106125000Y-106200000D03*
D10*
G36*
X108185779Y-102526144D02*
G01*
X108208834Y-102529563D01*
X108231443Y-102535227D01*
X108253387Y-102543079D01*
X108274457Y-102553044D01*
X108294448Y-102565026D01*
X108313168Y-102578910D01*
X108330438Y-102594562D01*
X108346090Y-102611832D01*
X108359974Y-102630552D01*
X108371956Y-102650543D01*
X108381921Y-102671613D01*
X108389773Y-102693557D01*
X108395437Y-102716166D01*
X108398856Y-102739221D01*
X108400000Y-102762500D01*
X108400000Y-103237500D01*
X108398856Y-103260779D01*
X108395437Y-103283834D01*
X108389773Y-103306443D01*
X108381921Y-103328387D01*
X108371956Y-103349457D01*
X108359974Y-103369448D01*
X108346090Y-103388168D01*
X108330438Y-103405438D01*
X108313168Y-103421090D01*
X108294448Y-103434974D01*
X108274457Y-103446956D01*
X108253387Y-103456921D01*
X108231443Y-103464773D01*
X108208834Y-103470437D01*
X108185779Y-103473856D01*
X108162500Y-103475000D01*
X107587500Y-103475000D01*
X107564221Y-103473856D01*
X107541166Y-103470437D01*
X107518557Y-103464773D01*
X107496613Y-103456921D01*
X107475543Y-103446956D01*
X107455552Y-103434974D01*
X107436832Y-103421090D01*
X107419562Y-103405438D01*
X107403910Y-103388168D01*
X107390026Y-103369448D01*
X107378044Y-103349457D01*
X107368079Y-103328387D01*
X107360227Y-103306443D01*
X107354563Y-103283834D01*
X107351144Y-103260779D01*
X107350000Y-103237500D01*
X107350000Y-102762500D01*
X107351144Y-102739221D01*
X107354563Y-102716166D01*
X107360227Y-102693557D01*
X107368079Y-102671613D01*
X107378044Y-102650543D01*
X107390026Y-102630552D01*
X107403910Y-102611832D01*
X107419562Y-102594562D01*
X107436832Y-102578910D01*
X107455552Y-102565026D01*
X107475543Y-102553044D01*
X107496613Y-102543079D01*
X107518557Y-102535227D01*
X107541166Y-102529563D01*
X107564221Y-102526144D01*
X107587500Y-102525000D01*
X108162500Y-102525000D01*
X108185779Y-102526144D01*
X108185779Y-102526144D01*
G37*
D23*
X107875000Y-103000000D03*
D10*
G36*
X106435779Y-102526144D02*
G01*
X106458834Y-102529563D01*
X106481443Y-102535227D01*
X106503387Y-102543079D01*
X106524457Y-102553044D01*
X106544448Y-102565026D01*
X106563168Y-102578910D01*
X106580438Y-102594562D01*
X106596090Y-102611832D01*
X106609974Y-102630552D01*
X106621956Y-102650543D01*
X106631921Y-102671613D01*
X106639773Y-102693557D01*
X106645437Y-102716166D01*
X106648856Y-102739221D01*
X106650000Y-102762500D01*
X106650000Y-103237500D01*
X106648856Y-103260779D01*
X106645437Y-103283834D01*
X106639773Y-103306443D01*
X106631921Y-103328387D01*
X106621956Y-103349457D01*
X106609974Y-103369448D01*
X106596090Y-103388168D01*
X106580438Y-103405438D01*
X106563168Y-103421090D01*
X106544448Y-103434974D01*
X106524457Y-103446956D01*
X106503387Y-103456921D01*
X106481443Y-103464773D01*
X106458834Y-103470437D01*
X106435779Y-103473856D01*
X106412500Y-103475000D01*
X105837500Y-103475000D01*
X105814221Y-103473856D01*
X105791166Y-103470437D01*
X105768557Y-103464773D01*
X105746613Y-103456921D01*
X105725543Y-103446956D01*
X105705552Y-103434974D01*
X105686832Y-103421090D01*
X105669562Y-103405438D01*
X105653910Y-103388168D01*
X105640026Y-103369448D01*
X105628044Y-103349457D01*
X105618079Y-103328387D01*
X105610227Y-103306443D01*
X105604563Y-103283834D01*
X105601144Y-103260779D01*
X105600000Y-103237500D01*
X105600000Y-102762500D01*
X105601144Y-102739221D01*
X105604563Y-102716166D01*
X105610227Y-102693557D01*
X105618079Y-102671613D01*
X105628044Y-102650543D01*
X105640026Y-102630552D01*
X105653910Y-102611832D01*
X105669562Y-102594562D01*
X105686832Y-102578910D01*
X105705552Y-102565026D01*
X105725543Y-102553044D01*
X105746613Y-102543079D01*
X105768557Y-102535227D01*
X105791166Y-102529563D01*
X105814221Y-102526144D01*
X105837500Y-102525000D01*
X106412500Y-102525000D01*
X106435779Y-102526144D01*
X106435779Y-102526144D01*
G37*
D23*
X106125000Y-103000000D03*
D10*
G36*
X180185779Y-131526144D02*
G01*
X180208834Y-131529563D01*
X180231443Y-131535227D01*
X180253387Y-131543079D01*
X180274457Y-131553044D01*
X180294448Y-131565026D01*
X180313168Y-131578910D01*
X180330438Y-131594562D01*
X180346090Y-131611832D01*
X180359974Y-131630552D01*
X180371956Y-131650543D01*
X180381921Y-131671613D01*
X180389773Y-131693557D01*
X180395437Y-131716166D01*
X180398856Y-131739221D01*
X180400000Y-131762500D01*
X180400000Y-132237500D01*
X180398856Y-132260779D01*
X180395437Y-132283834D01*
X180389773Y-132306443D01*
X180381921Y-132328387D01*
X180371956Y-132349457D01*
X180359974Y-132369448D01*
X180346090Y-132388168D01*
X180330438Y-132405438D01*
X180313168Y-132421090D01*
X180294448Y-132434974D01*
X180274457Y-132446956D01*
X180253387Y-132456921D01*
X180231443Y-132464773D01*
X180208834Y-132470437D01*
X180185779Y-132473856D01*
X180162500Y-132475000D01*
X179587500Y-132475000D01*
X179564221Y-132473856D01*
X179541166Y-132470437D01*
X179518557Y-132464773D01*
X179496613Y-132456921D01*
X179475543Y-132446956D01*
X179455552Y-132434974D01*
X179436832Y-132421090D01*
X179419562Y-132405438D01*
X179403910Y-132388168D01*
X179390026Y-132369448D01*
X179378044Y-132349457D01*
X179368079Y-132328387D01*
X179360227Y-132306443D01*
X179354563Y-132283834D01*
X179351144Y-132260779D01*
X179350000Y-132237500D01*
X179350000Y-131762500D01*
X179351144Y-131739221D01*
X179354563Y-131716166D01*
X179360227Y-131693557D01*
X179368079Y-131671613D01*
X179378044Y-131650543D01*
X179390026Y-131630552D01*
X179403910Y-131611832D01*
X179419562Y-131594562D01*
X179436832Y-131578910D01*
X179455552Y-131565026D01*
X179475543Y-131553044D01*
X179496613Y-131543079D01*
X179518557Y-131535227D01*
X179541166Y-131529563D01*
X179564221Y-131526144D01*
X179587500Y-131525000D01*
X180162500Y-131525000D01*
X180185779Y-131526144D01*
X180185779Y-131526144D01*
G37*
D23*
X179875000Y-132000000D03*
D10*
G36*
X178435779Y-131526144D02*
G01*
X178458834Y-131529563D01*
X178481443Y-131535227D01*
X178503387Y-131543079D01*
X178524457Y-131553044D01*
X178544448Y-131565026D01*
X178563168Y-131578910D01*
X178580438Y-131594562D01*
X178596090Y-131611832D01*
X178609974Y-131630552D01*
X178621956Y-131650543D01*
X178631921Y-131671613D01*
X178639773Y-131693557D01*
X178645437Y-131716166D01*
X178648856Y-131739221D01*
X178650000Y-131762500D01*
X178650000Y-132237500D01*
X178648856Y-132260779D01*
X178645437Y-132283834D01*
X178639773Y-132306443D01*
X178631921Y-132328387D01*
X178621956Y-132349457D01*
X178609974Y-132369448D01*
X178596090Y-132388168D01*
X178580438Y-132405438D01*
X178563168Y-132421090D01*
X178544448Y-132434974D01*
X178524457Y-132446956D01*
X178503387Y-132456921D01*
X178481443Y-132464773D01*
X178458834Y-132470437D01*
X178435779Y-132473856D01*
X178412500Y-132475000D01*
X177837500Y-132475000D01*
X177814221Y-132473856D01*
X177791166Y-132470437D01*
X177768557Y-132464773D01*
X177746613Y-132456921D01*
X177725543Y-132446956D01*
X177705552Y-132434974D01*
X177686832Y-132421090D01*
X177669562Y-132405438D01*
X177653910Y-132388168D01*
X177640026Y-132369448D01*
X177628044Y-132349457D01*
X177618079Y-132328387D01*
X177610227Y-132306443D01*
X177604563Y-132283834D01*
X177601144Y-132260779D01*
X177600000Y-132237500D01*
X177600000Y-131762500D01*
X177601144Y-131739221D01*
X177604563Y-131716166D01*
X177610227Y-131693557D01*
X177618079Y-131671613D01*
X177628044Y-131650543D01*
X177640026Y-131630552D01*
X177653910Y-131611832D01*
X177669562Y-131594562D01*
X177686832Y-131578910D01*
X177705552Y-131565026D01*
X177725543Y-131553044D01*
X177746613Y-131543079D01*
X177768557Y-131535227D01*
X177791166Y-131529563D01*
X177814221Y-131526144D01*
X177837500Y-131525000D01*
X178412500Y-131525000D01*
X178435779Y-131526144D01*
X178435779Y-131526144D01*
G37*
D23*
X178125000Y-132000000D03*
D10*
G36*
X123260779Y-115101144D02*
G01*
X123283834Y-115104563D01*
X123306443Y-115110227D01*
X123328387Y-115118079D01*
X123349457Y-115128044D01*
X123369448Y-115140026D01*
X123388168Y-115153910D01*
X123405438Y-115169562D01*
X123421090Y-115186832D01*
X123434974Y-115205552D01*
X123446956Y-115225543D01*
X123456921Y-115246613D01*
X123464773Y-115268557D01*
X123470437Y-115291166D01*
X123473856Y-115314221D01*
X123475000Y-115337500D01*
X123475000Y-115912500D01*
X123473856Y-115935779D01*
X123470437Y-115958834D01*
X123464773Y-115981443D01*
X123456921Y-116003387D01*
X123446956Y-116024457D01*
X123434974Y-116044448D01*
X123421090Y-116063168D01*
X123405438Y-116080438D01*
X123388168Y-116096090D01*
X123369448Y-116109974D01*
X123349457Y-116121956D01*
X123328387Y-116131921D01*
X123306443Y-116139773D01*
X123283834Y-116145437D01*
X123260779Y-116148856D01*
X123237500Y-116150000D01*
X122762500Y-116150000D01*
X122739221Y-116148856D01*
X122716166Y-116145437D01*
X122693557Y-116139773D01*
X122671613Y-116131921D01*
X122650543Y-116121956D01*
X122630552Y-116109974D01*
X122611832Y-116096090D01*
X122594562Y-116080438D01*
X122578910Y-116063168D01*
X122565026Y-116044448D01*
X122553044Y-116024457D01*
X122543079Y-116003387D01*
X122535227Y-115981443D01*
X122529563Y-115958834D01*
X122526144Y-115935779D01*
X122525000Y-115912500D01*
X122525000Y-115337500D01*
X122526144Y-115314221D01*
X122529563Y-115291166D01*
X122535227Y-115268557D01*
X122543079Y-115246613D01*
X122553044Y-115225543D01*
X122565026Y-115205552D01*
X122578910Y-115186832D01*
X122594562Y-115169562D01*
X122611832Y-115153910D01*
X122630552Y-115140026D01*
X122650543Y-115128044D01*
X122671613Y-115118079D01*
X122693557Y-115110227D01*
X122716166Y-115104563D01*
X122739221Y-115101144D01*
X122762500Y-115100000D01*
X123237500Y-115100000D01*
X123260779Y-115101144D01*
X123260779Y-115101144D01*
G37*
D23*
X123000000Y-115625000D03*
D10*
G36*
X123260779Y-116851144D02*
G01*
X123283834Y-116854563D01*
X123306443Y-116860227D01*
X123328387Y-116868079D01*
X123349457Y-116878044D01*
X123369448Y-116890026D01*
X123388168Y-116903910D01*
X123405438Y-116919562D01*
X123421090Y-116936832D01*
X123434974Y-116955552D01*
X123446956Y-116975543D01*
X123456921Y-116996613D01*
X123464773Y-117018557D01*
X123470437Y-117041166D01*
X123473856Y-117064221D01*
X123475000Y-117087500D01*
X123475000Y-117662500D01*
X123473856Y-117685779D01*
X123470437Y-117708834D01*
X123464773Y-117731443D01*
X123456921Y-117753387D01*
X123446956Y-117774457D01*
X123434974Y-117794448D01*
X123421090Y-117813168D01*
X123405438Y-117830438D01*
X123388168Y-117846090D01*
X123369448Y-117859974D01*
X123349457Y-117871956D01*
X123328387Y-117881921D01*
X123306443Y-117889773D01*
X123283834Y-117895437D01*
X123260779Y-117898856D01*
X123237500Y-117900000D01*
X122762500Y-117900000D01*
X122739221Y-117898856D01*
X122716166Y-117895437D01*
X122693557Y-117889773D01*
X122671613Y-117881921D01*
X122650543Y-117871956D01*
X122630552Y-117859974D01*
X122611832Y-117846090D01*
X122594562Y-117830438D01*
X122578910Y-117813168D01*
X122565026Y-117794448D01*
X122553044Y-117774457D01*
X122543079Y-117753387D01*
X122535227Y-117731443D01*
X122529563Y-117708834D01*
X122526144Y-117685779D01*
X122525000Y-117662500D01*
X122525000Y-117087500D01*
X122526144Y-117064221D01*
X122529563Y-117041166D01*
X122535227Y-117018557D01*
X122543079Y-116996613D01*
X122553044Y-116975543D01*
X122565026Y-116955552D01*
X122578910Y-116936832D01*
X122594562Y-116919562D01*
X122611832Y-116903910D01*
X122630552Y-116890026D01*
X122650543Y-116878044D01*
X122671613Y-116868079D01*
X122693557Y-116860227D01*
X122716166Y-116854563D01*
X122739221Y-116851144D01*
X122762500Y-116850000D01*
X123237500Y-116850000D01*
X123260779Y-116851144D01*
X123260779Y-116851144D01*
G37*
D23*
X123000000Y-117375000D03*
D10*
G36*
X129185779Y-121526144D02*
G01*
X129208834Y-121529563D01*
X129231443Y-121535227D01*
X129253387Y-121543079D01*
X129274457Y-121553044D01*
X129294448Y-121565026D01*
X129313168Y-121578910D01*
X129330438Y-121594562D01*
X129346090Y-121611832D01*
X129359974Y-121630552D01*
X129371956Y-121650543D01*
X129381921Y-121671613D01*
X129389773Y-121693557D01*
X129395437Y-121716166D01*
X129398856Y-121739221D01*
X129400000Y-121762500D01*
X129400000Y-122237500D01*
X129398856Y-122260779D01*
X129395437Y-122283834D01*
X129389773Y-122306443D01*
X129381921Y-122328387D01*
X129371956Y-122349457D01*
X129359974Y-122369448D01*
X129346090Y-122388168D01*
X129330438Y-122405438D01*
X129313168Y-122421090D01*
X129294448Y-122434974D01*
X129274457Y-122446956D01*
X129253387Y-122456921D01*
X129231443Y-122464773D01*
X129208834Y-122470437D01*
X129185779Y-122473856D01*
X129162500Y-122475000D01*
X128587500Y-122475000D01*
X128564221Y-122473856D01*
X128541166Y-122470437D01*
X128518557Y-122464773D01*
X128496613Y-122456921D01*
X128475543Y-122446956D01*
X128455552Y-122434974D01*
X128436832Y-122421090D01*
X128419562Y-122405438D01*
X128403910Y-122388168D01*
X128390026Y-122369448D01*
X128378044Y-122349457D01*
X128368079Y-122328387D01*
X128360227Y-122306443D01*
X128354563Y-122283834D01*
X128351144Y-122260779D01*
X128350000Y-122237500D01*
X128350000Y-121762500D01*
X128351144Y-121739221D01*
X128354563Y-121716166D01*
X128360227Y-121693557D01*
X128368079Y-121671613D01*
X128378044Y-121650543D01*
X128390026Y-121630552D01*
X128403910Y-121611832D01*
X128419562Y-121594562D01*
X128436832Y-121578910D01*
X128455552Y-121565026D01*
X128475543Y-121553044D01*
X128496613Y-121543079D01*
X128518557Y-121535227D01*
X128541166Y-121529563D01*
X128564221Y-121526144D01*
X128587500Y-121525000D01*
X129162500Y-121525000D01*
X129185779Y-121526144D01*
X129185779Y-121526144D01*
G37*
D23*
X128875000Y-122000000D03*
D10*
G36*
X127435779Y-121526144D02*
G01*
X127458834Y-121529563D01*
X127481443Y-121535227D01*
X127503387Y-121543079D01*
X127524457Y-121553044D01*
X127544448Y-121565026D01*
X127563168Y-121578910D01*
X127580438Y-121594562D01*
X127596090Y-121611832D01*
X127609974Y-121630552D01*
X127621956Y-121650543D01*
X127631921Y-121671613D01*
X127639773Y-121693557D01*
X127645437Y-121716166D01*
X127648856Y-121739221D01*
X127650000Y-121762500D01*
X127650000Y-122237500D01*
X127648856Y-122260779D01*
X127645437Y-122283834D01*
X127639773Y-122306443D01*
X127631921Y-122328387D01*
X127621956Y-122349457D01*
X127609974Y-122369448D01*
X127596090Y-122388168D01*
X127580438Y-122405438D01*
X127563168Y-122421090D01*
X127544448Y-122434974D01*
X127524457Y-122446956D01*
X127503387Y-122456921D01*
X127481443Y-122464773D01*
X127458834Y-122470437D01*
X127435779Y-122473856D01*
X127412500Y-122475000D01*
X126837500Y-122475000D01*
X126814221Y-122473856D01*
X126791166Y-122470437D01*
X126768557Y-122464773D01*
X126746613Y-122456921D01*
X126725543Y-122446956D01*
X126705552Y-122434974D01*
X126686832Y-122421090D01*
X126669562Y-122405438D01*
X126653910Y-122388168D01*
X126640026Y-122369448D01*
X126628044Y-122349457D01*
X126618079Y-122328387D01*
X126610227Y-122306443D01*
X126604563Y-122283834D01*
X126601144Y-122260779D01*
X126600000Y-122237500D01*
X126600000Y-121762500D01*
X126601144Y-121739221D01*
X126604563Y-121716166D01*
X126610227Y-121693557D01*
X126618079Y-121671613D01*
X126628044Y-121650543D01*
X126640026Y-121630552D01*
X126653910Y-121611832D01*
X126669562Y-121594562D01*
X126686832Y-121578910D01*
X126705552Y-121565026D01*
X126725543Y-121553044D01*
X126746613Y-121543079D01*
X126768557Y-121535227D01*
X126791166Y-121529563D01*
X126814221Y-121526144D01*
X126837500Y-121525000D01*
X127412500Y-121525000D01*
X127435779Y-121526144D01*
X127435779Y-121526144D01*
G37*
D23*
X127125000Y-122000000D03*
D10*
G36*
X121185779Y-128526144D02*
G01*
X121208834Y-128529563D01*
X121231443Y-128535227D01*
X121253387Y-128543079D01*
X121274457Y-128553044D01*
X121294448Y-128565026D01*
X121313168Y-128578910D01*
X121330438Y-128594562D01*
X121346090Y-128611832D01*
X121359974Y-128630552D01*
X121371956Y-128650543D01*
X121381921Y-128671613D01*
X121389773Y-128693557D01*
X121395437Y-128716166D01*
X121398856Y-128739221D01*
X121400000Y-128762500D01*
X121400000Y-129237500D01*
X121398856Y-129260779D01*
X121395437Y-129283834D01*
X121389773Y-129306443D01*
X121381921Y-129328387D01*
X121371956Y-129349457D01*
X121359974Y-129369448D01*
X121346090Y-129388168D01*
X121330438Y-129405438D01*
X121313168Y-129421090D01*
X121294448Y-129434974D01*
X121274457Y-129446956D01*
X121253387Y-129456921D01*
X121231443Y-129464773D01*
X121208834Y-129470437D01*
X121185779Y-129473856D01*
X121162500Y-129475000D01*
X120587500Y-129475000D01*
X120564221Y-129473856D01*
X120541166Y-129470437D01*
X120518557Y-129464773D01*
X120496613Y-129456921D01*
X120475543Y-129446956D01*
X120455552Y-129434974D01*
X120436832Y-129421090D01*
X120419562Y-129405438D01*
X120403910Y-129388168D01*
X120390026Y-129369448D01*
X120378044Y-129349457D01*
X120368079Y-129328387D01*
X120360227Y-129306443D01*
X120354563Y-129283834D01*
X120351144Y-129260779D01*
X120350000Y-129237500D01*
X120350000Y-128762500D01*
X120351144Y-128739221D01*
X120354563Y-128716166D01*
X120360227Y-128693557D01*
X120368079Y-128671613D01*
X120378044Y-128650543D01*
X120390026Y-128630552D01*
X120403910Y-128611832D01*
X120419562Y-128594562D01*
X120436832Y-128578910D01*
X120455552Y-128565026D01*
X120475543Y-128553044D01*
X120496613Y-128543079D01*
X120518557Y-128535227D01*
X120541166Y-128529563D01*
X120564221Y-128526144D01*
X120587500Y-128525000D01*
X121162500Y-128525000D01*
X121185779Y-128526144D01*
X121185779Y-128526144D01*
G37*
D23*
X120875000Y-129000000D03*
D10*
G36*
X119435779Y-128526144D02*
G01*
X119458834Y-128529563D01*
X119481443Y-128535227D01*
X119503387Y-128543079D01*
X119524457Y-128553044D01*
X119544448Y-128565026D01*
X119563168Y-128578910D01*
X119580438Y-128594562D01*
X119596090Y-128611832D01*
X119609974Y-128630552D01*
X119621956Y-128650543D01*
X119631921Y-128671613D01*
X119639773Y-128693557D01*
X119645437Y-128716166D01*
X119648856Y-128739221D01*
X119650000Y-128762500D01*
X119650000Y-129237500D01*
X119648856Y-129260779D01*
X119645437Y-129283834D01*
X119639773Y-129306443D01*
X119631921Y-129328387D01*
X119621956Y-129349457D01*
X119609974Y-129369448D01*
X119596090Y-129388168D01*
X119580438Y-129405438D01*
X119563168Y-129421090D01*
X119544448Y-129434974D01*
X119524457Y-129446956D01*
X119503387Y-129456921D01*
X119481443Y-129464773D01*
X119458834Y-129470437D01*
X119435779Y-129473856D01*
X119412500Y-129475000D01*
X118837500Y-129475000D01*
X118814221Y-129473856D01*
X118791166Y-129470437D01*
X118768557Y-129464773D01*
X118746613Y-129456921D01*
X118725543Y-129446956D01*
X118705552Y-129434974D01*
X118686832Y-129421090D01*
X118669562Y-129405438D01*
X118653910Y-129388168D01*
X118640026Y-129369448D01*
X118628044Y-129349457D01*
X118618079Y-129328387D01*
X118610227Y-129306443D01*
X118604563Y-129283834D01*
X118601144Y-129260779D01*
X118600000Y-129237500D01*
X118600000Y-128762500D01*
X118601144Y-128739221D01*
X118604563Y-128716166D01*
X118610227Y-128693557D01*
X118618079Y-128671613D01*
X118628044Y-128650543D01*
X118640026Y-128630552D01*
X118653910Y-128611832D01*
X118669562Y-128594562D01*
X118686832Y-128578910D01*
X118705552Y-128565026D01*
X118725543Y-128553044D01*
X118746613Y-128543079D01*
X118768557Y-128535227D01*
X118791166Y-128529563D01*
X118814221Y-128526144D01*
X118837500Y-128525000D01*
X119412500Y-128525000D01*
X119435779Y-128526144D01*
X119435779Y-128526144D01*
G37*
D23*
X119125000Y-129000000D03*
D10*
G36*
X134435779Y-128526144D02*
G01*
X134458834Y-128529563D01*
X134481443Y-128535227D01*
X134503387Y-128543079D01*
X134524457Y-128553044D01*
X134544448Y-128565026D01*
X134563168Y-128578910D01*
X134580438Y-128594562D01*
X134596090Y-128611832D01*
X134609974Y-128630552D01*
X134621956Y-128650543D01*
X134631921Y-128671613D01*
X134639773Y-128693557D01*
X134645437Y-128716166D01*
X134648856Y-128739221D01*
X134650000Y-128762500D01*
X134650000Y-129237500D01*
X134648856Y-129260779D01*
X134645437Y-129283834D01*
X134639773Y-129306443D01*
X134631921Y-129328387D01*
X134621956Y-129349457D01*
X134609974Y-129369448D01*
X134596090Y-129388168D01*
X134580438Y-129405438D01*
X134563168Y-129421090D01*
X134544448Y-129434974D01*
X134524457Y-129446956D01*
X134503387Y-129456921D01*
X134481443Y-129464773D01*
X134458834Y-129470437D01*
X134435779Y-129473856D01*
X134412500Y-129475000D01*
X133837500Y-129475000D01*
X133814221Y-129473856D01*
X133791166Y-129470437D01*
X133768557Y-129464773D01*
X133746613Y-129456921D01*
X133725543Y-129446956D01*
X133705552Y-129434974D01*
X133686832Y-129421090D01*
X133669562Y-129405438D01*
X133653910Y-129388168D01*
X133640026Y-129369448D01*
X133628044Y-129349457D01*
X133618079Y-129328387D01*
X133610227Y-129306443D01*
X133604563Y-129283834D01*
X133601144Y-129260779D01*
X133600000Y-129237500D01*
X133600000Y-128762500D01*
X133601144Y-128739221D01*
X133604563Y-128716166D01*
X133610227Y-128693557D01*
X133618079Y-128671613D01*
X133628044Y-128650543D01*
X133640026Y-128630552D01*
X133653910Y-128611832D01*
X133669562Y-128594562D01*
X133686832Y-128578910D01*
X133705552Y-128565026D01*
X133725543Y-128553044D01*
X133746613Y-128543079D01*
X133768557Y-128535227D01*
X133791166Y-128529563D01*
X133814221Y-128526144D01*
X133837500Y-128525000D01*
X134412500Y-128525000D01*
X134435779Y-128526144D01*
X134435779Y-128526144D01*
G37*
D23*
X134125000Y-129000000D03*
D10*
G36*
X136185779Y-128526144D02*
G01*
X136208834Y-128529563D01*
X136231443Y-128535227D01*
X136253387Y-128543079D01*
X136274457Y-128553044D01*
X136294448Y-128565026D01*
X136313168Y-128578910D01*
X136330438Y-128594562D01*
X136346090Y-128611832D01*
X136359974Y-128630552D01*
X136371956Y-128650543D01*
X136381921Y-128671613D01*
X136389773Y-128693557D01*
X136395437Y-128716166D01*
X136398856Y-128739221D01*
X136400000Y-128762500D01*
X136400000Y-129237500D01*
X136398856Y-129260779D01*
X136395437Y-129283834D01*
X136389773Y-129306443D01*
X136381921Y-129328387D01*
X136371956Y-129349457D01*
X136359974Y-129369448D01*
X136346090Y-129388168D01*
X136330438Y-129405438D01*
X136313168Y-129421090D01*
X136294448Y-129434974D01*
X136274457Y-129446956D01*
X136253387Y-129456921D01*
X136231443Y-129464773D01*
X136208834Y-129470437D01*
X136185779Y-129473856D01*
X136162500Y-129475000D01*
X135587500Y-129475000D01*
X135564221Y-129473856D01*
X135541166Y-129470437D01*
X135518557Y-129464773D01*
X135496613Y-129456921D01*
X135475543Y-129446956D01*
X135455552Y-129434974D01*
X135436832Y-129421090D01*
X135419562Y-129405438D01*
X135403910Y-129388168D01*
X135390026Y-129369448D01*
X135378044Y-129349457D01*
X135368079Y-129328387D01*
X135360227Y-129306443D01*
X135354563Y-129283834D01*
X135351144Y-129260779D01*
X135350000Y-129237500D01*
X135350000Y-128762500D01*
X135351144Y-128739221D01*
X135354563Y-128716166D01*
X135360227Y-128693557D01*
X135368079Y-128671613D01*
X135378044Y-128650543D01*
X135390026Y-128630552D01*
X135403910Y-128611832D01*
X135419562Y-128594562D01*
X135436832Y-128578910D01*
X135455552Y-128565026D01*
X135475543Y-128553044D01*
X135496613Y-128543079D01*
X135518557Y-128535227D01*
X135541166Y-128529563D01*
X135564221Y-128526144D01*
X135587500Y-128525000D01*
X136162500Y-128525000D01*
X136185779Y-128526144D01*
X136185779Y-128526144D01*
G37*
D23*
X135875000Y-129000000D03*
D10*
G36*
X178435779Y-130026144D02*
G01*
X178458834Y-130029563D01*
X178481443Y-130035227D01*
X178503387Y-130043079D01*
X178524457Y-130053044D01*
X178544448Y-130065026D01*
X178563168Y-130078910D01*
X178580438Y-130094562D01*
X178596090Y-130111832D01*
X178609974Y-130130552D01*
X178621956Y-130150543D01*
X178631921Y-130171613D01*
X178639773Y-130193557D01*
X178645437Y-130216166D01*
X178648856Y-130239221D01*
X178650000Y-130262500D01*
X178650000Y-130737500D01*
X178648856Y-130760779D01*
X178645437Y-130783834D01*
X178639773Y-130806443D01*
X178631921Y-130828387D01*
X178621956Y-130849457D01*
X178609974Y-130869448D01*
X178596090Y-130888168D01*
X178580438Y-130905438D01*
X178563168Y-130921090D01*
X178544448Y-130934974D01*
X178524457Y-130946956D01*
X178503387Y-130956921D01*
X178481443Y-130964773D01*
X178458834Y-130970437D01*
X178435779Y-130973856D01*
X178412500Y-130975000D01*
X177837500Y-130975000D01*
X177814221Y-130973856D01*
X177791166Y-130970437D01*
X177768557Y-130964773D01*
X177746613Y-130956921D01*
X177725543Y-130946956D01*
X177705552Y-130934974D01*
X177686832Y-130921090D01*
X177669562Y-130905438D01*
X177653910Y-130888168D01*
X177640026Y-130869448D01*
X177628044Y-130849457D01*
X177618079Y-130828387D01*
X177610227Y-130806443D01*
X177604563Y-130783834D01*
X177601144Y-130760779D01*
X177600000Y-130737500D01*
X177600000Y-130262500D01*
X177601144Y-130239221D01*
X177604563Y-130216166D01*
X177610227Y-130193557D01*
X177618079Y-130171613D01*
X177628044Y-130150543D01*
X177640026Y-130130552D01*
X177653910Y-130111832D01*
X177669562Y-130094562D01*
X177686832Y-130078910D01*
X177705552Y-130065026D01*
X177725543Y-130053044D01*
X177746613Y-130043079D01*
X177768557Y-130035227D01*
X177791166Y-130029563D01*
X177814221Y-130026144D01*
X177837500Y-130025000D01*
X178412500Y-130025000D01*
X178435779Y-130026144D01*
X178435779Y-130026144D01*
G37*
D23*
X178125000Y-130500000D03*
D10*
G36*
X180185779Y-130026144D02*
G01*
X180208834Y-130029563D01*
X180231443Y-130035227D01*
X180253387Y-130043079D01*
X180274457Y-130053044D01*
X180294448Y-130065026D01*
X180313168Y-130078910D01*
X180330438Y-130094562D01*
X180346090Y-130111832D01*
X180359974Y-130130552D01*
X180371956Y-130150543D01*
X180381921Y-130171613D01*
X180389773Y-130193557D01*
X180395437Y-130216166D01*
X180398856Y-130239221D01*
X180400000Y-130262500D01*
X180400000Y-130737500D01*
X180398856Y-130760779D01*
X180395437Y-130783834D01*
X180389773Y-130806443D01*
X180381921Y-130828387D01*
X180371956Y-130849457D01*
X180359974Y-130869448D01*
X180346090Y-130888168D01*
X180330438Y-130905438D01*
X180313168Y-130921090D01*
X180294448Y-130934974D01*
X180274457Y-130946956D01*
X180253387Y-130956921D01*
X180231443Y-130964773D01*
X180208834Y-130970437D01*
X180185779Y-130973856D01*
X180162500Y-130975000D01*
X179587500Y-130975000D01*
X179564221Y-130973856D01*
X179541166Y-130970437D01*
X179518557Y-130964773D01*
X179496613Y-130956921D01*
X179475543Y-130946956D01*
X179455552Y-130934974D01*
X179436832Y-130921090D01*
X179419562Y-130905438D01*
X179403910Y-130888168D01*
X179390026Y-130869448D01*
X179378044Y-130849457D01*
X179368079Y-130828387D01*
X179360227Y-130806443D01*
X179354563Y-130783834D01*
X179351144Y-130760779D01*
X179350000Y-130737500D01*
X179350000Y-130262500D01*
X179351144Y-130239221D01*
X179354563Y-130216166D01*
X179360227Y-130193557D01*
X179368079Y-130171613D01*
X179378044Y-130150543D01*
X179390026Y-130130552D01*
X179403910Y-130111832D01*
X179419562Y-130094562D01*
X179436832Y-130078910D01*
X179455552Y-130065026D01*
X179475543Y-130053044D01*
X179496613Y-130043079D01*
X179518557Y-130035227D01*
X179541166Y-130029563D01*
X179564221Y-130026144D01*
X179587500Y-130025000D01*
X180162500Y-130025000D01*
X180185779Y-130026144D01*
X180185779Y-130026144D01*
G37*
D23*
X179875000Y-130500000D03*
D10*
G36*
X180185779Y-128526144D02*
G01*
X180208834Y-128529563D01*
X180231443Y-128535227D01*
X180253387Y-128543079D01*
X180274457Y-128553044D01*
X180294448Y-128565026D01*
X180313168Y-128578910D01*
X180330438Y-128594562D01*
X180346090Y-128611832D01*
X180359974Y-128630552D01*
X180371956Y-128650543D01*
X180381921Y-128671613D01*
X180389773Y-128693557D01*
X180395437Y-128716166D01*
X180398856Y-128739221D01*
X180400000Y-128762500D01*
X180400000Y-129237500D01*
X180398856Y-129260779D01*
X180395437Y-129283834D01*
X180389773Y-129306443D01*
X180381921Y-129328387D01*
X180371956Y-129349457D01*
X180359974Y-129369448D01*
X180346090Y-129388168D01*
X180330438Y-129405438D01*
X180313168Y-129421090D01*
X180294448Y-129434974D01*
X180274457Y-129446956D01*
X180253387Y-129456921D01*
X180231443Y-129464773D01*
X180208834Y-129470437D01*
X180185779Y-129473856D01*
X180162500Y-129475000D01*
X179587500Y-129475000D01*
X179564221Y-129473856D01*
X179541166Y-129470437D01*
X179518557Y-129464773D01*
X179496613Y-129456921D01*
X179475543Y-129446956D01*
X179455552Y-129434974D01*
X179436832Y-129421090D01*
X179419562Y-129405438D01*
X179403910Y-129388168D01*
X179390026Y-129369448D01*
X179378044Y-129349457D01*
X179368079Y-129328387D01*
X179360227Y-129306443D01*
X179354563Y-129283834D01*
X179351144Y-129260779D01*
X179350000Y-129237500D01*
X179350000Y-128762500D01*
X179351144Y-128739221D01*
X179354563Y-128716166D01*
X179360227Y-128693557D01*
X179368079Y-128671613D01*
X179378044Y-128650543D01*
X179390026Y-128630552D01*
X179403910Y-128611832D01*
X179419562Y-128594562D01*
X179436832Y-128578910D01*
X179455552Y-128565026D01*
X179475543Y-128553044D01*
X179496613Y-128543079D01*
X179518557Y-128535227D01*
X179541166Y-128529563D01*
X179564221Y-128526144D01*
X179587500Y-128525000D01*
X180162500Y-128525000D01*
X180185779Y-128526144D01*
X180185779Y-128526144D01*
G37*
D23*
X179875000Y-129000000D03*
D10*
G36*
X178435779Y-128526144D02*
G01*
X178458834Y-128529563D01*
X178481443Y-128535227D01*
X178503387Y-128543079D01*
X178524457Y-128553044D01*
X178544448Y-128565026D01*
X178563168Y-128578910D01*
X178580438Y-128594562D01*
X178596090Y-128611832D01*
X178609974Y-128630552D01*
X178621956Y-128650543D01*
X178631921Y-128671613D01*
X178639773Y-128693557D01*
X178645437Y-128716166D01*
X178648856Y-128739221D01*
X178650000Y-128762500D01*
X178650000Y-129237500D01*
X178648856Y-129260779D01*
X178645437Y-129283834D01*
X178639773Y-129306443D01*
X178631921Y-129328387D01*
X178621956Y-129349457D01*
X178609974Y-129369448D01*
X178596090Y-129388168D01*
X178580438Y-129405438D01*
X178563168Y-129421090D01*
X178544448Y-129434974D01*
X178524457Y-129446956D01*
X178503387Y-129456921D01*
X178481443Y-129464773D01*
X178458834Y-129470437D01*
X178435779Y-129473856D01*
X178412500Y-129475000D01*
X177837500Y-129475000D01*
X177814221Y-129473856D01*
X177791166Y-129470437D01*
X177768557Y-129464773D01*
X177746613Y-129456921D01*
X177725543Y-129446956D01*
X177705552Y-129434974D01*
X177686832Y-129421090D01*
X177669562Y-129405438D01*
X177653910Y-129388168D01*
X177640026Y-129369448D01*
X177628044Y-129349457D01*
X177618079Y-129328387D01*
X177610227Y-129306443D01*
X177604563Y-129283834D01*
X177601144Y-129260779D01*
X177600000Y-129237500D01*
X177600000Y-128762500D01*
X177601144Y-128739221D01*
X177604563Y-128716166D01*
X177610227Y-128693557D01*
X177618079Y-128671613D01*
X177628044Y-128650543D01*
X177640026Y-128630552D01*
X177653910Y-128611832D01*
X177669562Y-128594562D01*
X177686832Y-128578910D01*
X177705552Y-128565026D01*
X177725543Y-128553044D01*
X177746613Y-128543079D01*
X177768557Y-128535227D01*
X177791166Y-128529563D01*
X177814221Y-128526144D01*
X177837500Y-128525000D01*
X178412500Y-128525000D01*
X178435779Y-128526144D01*
X178435779Y-128526144D01*
G37*
D23*
X178125000Y-129000000D03*
D24*
X113350000Y-133000000D03*
X116650000Y-133000000D03*
X131650000Y-133000000D03*
X128350000Y-133000000D03*
M02*
