%FSLAX45Y45*%
G04 Gerber Fmt 4.5, Leading zero omitted, Abs format (unit mm)*
G04 Created by KiCad (PCBNEW 5.1.4+dfsg1-1) date 2020-01-26 17:02:55*
%MOMM*%
%LPD*%
G04 APERTURE LIST*
%ADD10C,0.050000*%
%ADD11C,0.200000*%
%ADD12C,0.300000*%
G04 APERTURE END LIST*
D10*
X10000000Y-17500000D02*
X10000000Y-10000000D01*
X20000000Y-17500000D02*
X10000000Y-17500000D01*
X20000000Y-10000000D02*
X20000000Y-17500000D01*
X10000000Y-10000000D02*
X20000000Y-10000000D01*
D11*
X10230000Y-10680000D02*
X10270000Y-10720000D01*
X10270000Y-10680000D02*
X10230000Y-10720000D01*
X10780000Y-11580000D02*
X10820000Y-11620000D01*
X10820000Y-11580000D02*
X10780000Y-11620000D01*
X11131266Y-10681266D02*
X11171266Y-10721266D01*
X11171266Y-10681266D02*
X11131266Y-10721266D01*
X11143999Y-10406759D02*
X11183999Y-10446759D01*
X11183999Y-10406759D02*
X11143999Y-10446759D01*
X11330000Y-10380000D02*
X11370000Y-10420000D01*
X11370000Y-10380000D02*
X11330000Y-10420000D01*
X11730000Y-12880000D02*
X11770000Y-12920000D01*
X11770000Y-12880000D02*
X11730000Y-12920000D01*
X11787505Y-10452501D02*
X11827505Y-10492501D01*
X11827505Y-10452501D02*
X11787505Y-10492501D01*
X11948979Y-11608357D02*
X11988979Y-11648357D01*
X11988979Y-11608357D02*
X11948979Y-11648357D01*
X12005501Y-11438326D02*
X12045501Y-11478326D01*
X12045501Y-11438326D02*
X12005501Y-11478326D01*
X12046979Y-11643065D02*
X12086979Y-11683065D01*
X12086979Y-11643065D02*
X12046979Y-11683065D01*
X12062498Y-11323130D02*
X12102498Y-11363130D01*
X12102498Y-11323130D02*
X12062498Y-11363130D01*
X12080000Y-11880000D02*
X12120000Y-11920000D01*
X12120000Y-11880000D02*
X12080000Y-11920000D01*
X12230000Y-10130000D02*
X12270000Y-10170000D01*
X12270000Y-10130000D02*
X12230000Y-10170000D01*
X12280000Y-10630000D02*
X12320000Y-10670000D01*
X12320000Y-10630000D02*
X12280000Y-10670000D01*
X12480000Y-12180000D02*
X12520000Y-12220000D01*
X12520000Y-12180000D02*
X12480000Y-12220000D01*
X12930000Y-11180000D02*
X12970000Y-11220000D01*
X12970000Y-11180000D02*
X12930000Y-11220000D01*
X12980000Y-10830000D02*
X13020000Y-10870000D01*
X13020000Y-10830000D02*
X12980000Y-10870000D01*
X12980000Y-10980000D02*
X13020000Y-11020000D01*
X13020000Y-10980000D02*
X12980000Y-11020000D01*
X13030000Y-12180000D02*
X13070000Y-12220000D01*
X13070000Y-12180000D02*
X13030000Y-12220000D01*
X13080000Y-11680000D02*
X13120000Y-11720000D01*
X13120000Y-11680000D02*
X13080000Y-11720000D01*
X13230000Y-12880000D02*
X13270000Y-12920000D01*
X13270000Y-12880000D02*
X13230000Y-12920000D01*
X13980000Y-10230000D02*
X14020000Y-10270000D01*
X14020000Y-10230000D02*
X13980000Y-10270000D01*
X13980000Y-10480000D02*
X14020000Y-10520000D01*
X14020000Y-10480000D02*
X13980000Y-10520000D01*
X13980000Y-10830000D02*
X14020000Y-10870000D01*
X14020000Y-10830000D02*
X13980000Y-10870000D01*
X14080000Y-10330000D02*
X14120000Y-10370000D01*
X14120000Y-10330000D02*
X14080000Y-10370000D01*
X14130000Y-11480000D02*
X14170000Y-11520000D01*
X14170000Y-11480000D02*
X14130000Y-11520000D01*
X14630000Y-10230000D02*
X14670000Y-10270000D01*
X14670000Y-10230000D02*
X14630000Y-10270000D01*
X14944277Y-11267140D02*
X14984277Y-11307140D01*
X14984277Y-11267140D02*
X14944277Y-11307140D01*
X15021113Y-10989717D02*
X15061113Y-11029717D01*
X15061113Y-10989717D02*
X15021113Y-11029717D01*
X15033400Y-11312498D02*
X15073400Y-11352498D01*
X15073400Y-11312498D02*
X15033400Y-11352498D01*
X15135754Y-11357499D02*
X15175754Y-11397499D01*
X15175754Y-11357499D02*
X15135754Y-11397499D01*
X15164957Y-11037416D02*
X15204957Y-11077416D01*
X15204957Y-11037416D02*
X15164957Y-11077416D01*
X15331266Y-10728734D02*
X15371266Y-10768734D01*
X15371266Y-10728734D02*
X15331266Y-10768734D01*
X15480000Y-10630000D02*
X15520000Y-10670000D01*
X15520000Y-10630000D02*
X15480000Y-10670000D01*
X16697502Y-11030000D02*
X16737502Y-11070000D01*
X16737502Y-11030000D02*
X16697502Y-11070000D01*
X16722302Y-10838881D02*
X16762302Y-10878881D01*
X16762302Y-10838881D02*
X16722302Y-10878881D01*
X16742503Y-11130000D02*
X16782503Y-11170000D01*
X16782503Y-11130000D02*
X16742503Y-11170000D01*
X17330000Y-10530000D02*
X17370000Y-10570000D01*
X17370000Y-10530000D02*
X17330000Y-10570000D01*
X17330000Y-13080000D02*
X17370000Y-13120000D01*
X17370000Y-13080000D02*
X17330000Y-13120000D01*
X17580000Y-12980000D02*
X17620000Y-13020000D01*
X17620000Y-12980000D02*
X17580000Y-13020000D01*
X17630000Y-13119999D02*
X17670000Y-13159999D01*
X17670000Y-13119999D02*
X17630000Y-13159999D01*
X18430000Y-12080000D02*
X18470000Y-12120000D01*
X18470000Y-12080000D02*
X18430000Y-12120000D01*
X19330000Y-11230000D02*
X19370000Y-11270000D01*
X19370000Y-11230000D02*
X19330000Y-11270000D01*
X11835000Y-10650000D02*
G75*
G03X11835000Y-10650000I-35000J0D01*
G01*
X12435000Y-10150000D02*
G75*
G03X12435000Y-10150000I-35000J0D01*
G01*
X14985000Y-10150000D02*
G75*
G03X14985000Y-10150000I-35000J0D01*
G01*
X14100000Y-14814500D02*
X14100000Y-14885500D01*
X14064500Y-14850000D02*
X14135500Y-14850000D01*
X14220000Y-14304500D02*
X14220000Y-14375500D01*
X14184500Y-14340000D02*
X14255500Y-14340000D01*
X14190000Y-13844500D02*
X14190000Y-13915500D01*
X14154500Y-13880000D02*
X14225500Y-13880000D01*
X14700000Y-13964500D02*
X14700000Y-14035500D01*
X14664500Y-14000000D02*
X14735500Y-14000000D01*
X10556785Y-11355284D02*
X10556785Y-11298715D01*
X10500216Y-11298715D01*
X10500216Y-11355284D01*
X10556785Y-11355284D01*
X10683785Y-11101285D02*
X10683785Y-11044716D01*
X10627216Y-11044716D01*
X10627216Y-11101285D01*
X10683785Y-11101285D01*
X10810785Y-11355284D02*
X10810785Y-11298715D01*
X10754216Y-11298715D01*
X10754216Y-11355284D01*
X10810785Y-11355284D01*
X10937785Y-11101285D02*
X10937785Y-11044716D01*
X10881216Y-11044716D01*
X10881216Y-11101285D01*
X10937785Y-11101285D01*
X11064785Y-11355284D02*
X11064785Y-11298715D01*
X11008216Y-11298715D01*
X11008216Y-11355284D01*
X11064785Y-11355284D01*
X11191784Y-11101285D02*
X11191784Y-11044716D01*
X11135216Y-11044716D01*
X11135216Y-11101285D01*
X11191784Y-11101285D01*
X11318784Y-11355284D02*
X11318784Y-11298715D01*
X11262215Y-11298715D01*
X11262215Y-11355284D01*
X11318784Y-11355284D01*
X11445784Y-11101285D02*
X11445784Y-11044716D01*
X11389215Y-11044716D01*
X11389215Y-11101285D01*
X11445784Y-11101285D01*
X11572784Y-11355284D02*
X11572784Y-11298715D01*
X11516215Y-11298715D01*
X11516215Y-11355284D01*
X11572784Y-11355284D01*
X11699784Y-11101285D02*
X11699784Y-11044716D01*
X11643215Y-11044716D01*
X11643215Y-11101285D01*
X11699784Y-11101285D01*
X10556785Y-12155284D02*
X10556785Y-12098715D01*
X10500216Y-12098715D01*
X10500216Y-12155284D01*
X10556785Y-12155284D01*
X10683785Y-11901284D02*
X10683785Y-11844715D01*
X10627216Y-11844715D01*
X10627216Y-11901284D01*
X10683785Y-11901284D01*
X10810785Y-12155284D02*
X10810785Y-12098715D01*
X10754216Y-12098715D01*
X10754216Y-12155284D01*
X10810785Y-12155284D01*
X10937785Y-11901284D02*
X10937785Y-11844715D01*
X10881216Y-11844715D01*
X10881216Y-11901284D01*
X10937785Y-11901284D01*
X11064785Y-12155284D02*
X11064785Y-12098715D01*
X11008216Y-12098715D01*
X11008216Y-12155284D01*
X11064785Y-12155284D01*
X11191784Y-11901284D02*
X11191784Y-11844715D01*
X11135216Y-11844715D01*
X11135216Y-11901284D01*
X11191784Y-11901284D01*
X11318784Y-12155284D02*
X11318784Y-12098715D01*
X11262215Y-12098715D01*
X11262215Y-12155284D01*
X11318784Y-12155284D01*
X11445784Y-11901284D02*
X11445784Y-11844715D01*
X11389215Y-11844715D01*
X11389215Y-11901284D01*
X11445784Y-11901284D01*
X11572784Y-12155284D02*
X11572784Y-12098715D01*
X11516215Y-12098715D01*
X11516215Y-12155284D01*
X11572784Y-12155284D01*
X11699784Y-11901284D02*
X11699784Y-11844715D01*
X11643215Y-11844715D01*
X11643215Y-11901284D01*
X11699784Y-11901284D01*
X18400000Y-10847500D02*
X18447500Y-10800000D01*
X18400000Y-10752500D01*
X18352500Y-10800000D01*
X18400000Y-10847500D01*
X18650000Y-10847500D02*
X18697500Y-10800000D01*
X18650000Y-10752500D01*
X18602500Y-10800000D01*
X18650000Y-10847500D01*
X18900000Y-10847500D02*
X18947500Y-10800000D01*
X18900000Y-10752500D01*
X18852500Y-10800000D01*
X18900000Y-10847500D01*
X19150000Y-10847500D02*
X19197500Y-10800000D01*
X19150000Y-10752500D01*
X19102500Y-10800000D01*
X19150000Y-10847500D01*
X15040000Y-14950000D02*
X15140000Y-15050000D01*
X15140000Y-14950000D02*
X15040000Y-15050000D01*
X15140000Y-15000000D02*
G75*
G03X15140000Y-15000000I-50000J0D01*
G01*
X15250000Y-13950000D02*
X15350000Y-14050000D01*
X15350000Y-13950000D02*
X15250000Y-14050000D01*
X15350000Y-14000000D02*
G75*
G03X15350000Y-14000000I-50000J0D01*
G01*
X15750000Y-14200000D02*
X15850000Y-14300000D01*
X15850000Y-14200000D02*
X15750000Y-14300000D01*
X15850000Y-14250000D02*
G75*
G03X15850000Y-14250000I-50000J0D01*
G01*
X15750000Y-14700000D02*
X15850000Y-14800000D01*
X15850000Y-14700000D02*
X15750000Y-14800000D01*
X15850000Y-14750000D02*
G75*
G03X15850000Y-14750000I-50000J0D01*
G01*
X18690000Y-13680000D02*
X18790000Y-13780000D01*
X18790000Y-13680000D02*
X18690000Y-13780000D01*
X18790000Y-13730000D02*
G75*
G03X18790000Y-13730000I-50000J0D01*
G01*
X18690000Y-15220000D02*
X18790000Y-15320000D01*
X18790000Y-15220000D02*
X18690000Y-15320000D01*
X18790000Y-15270000D02*
G75*
G03X18790000Y-15270000I-50000J0D01*
G01*
X10240056Y-14040056D02*
X10359944Y-14159944D01*
X10359944Y-14040056D02*
X10240056Y-14159944D01*
X10300000Y-14040056D02*
X10300000Y-14159944D01*
X10240056Y-14100000D02*
X10359944Y-14100000D01*
X10240056Y-16240056D02*
X10359944Y-16359944D01*
X10359944Y-16240056D02*
X10240056Y-16359944D01*
X10300000Y-16240056D02*
X10300000Y-16359944D01*
X10240056Y-16300000D02*
X10359944Y-16300000D01*
X14640056Y-15240056D02*
X14759944Y-15359944D01*
X14759944Y-15240056D02*
X14640056Y-15359944D01*
X14700000Y-15240056D02*
X14700000Y-15359944D01*
X14640056Y-15300000D02*
X14759944Y-15300000D01*
X10240056Y-16940056D02*
X10359944Y-17059944D01*
X10359944Y-16940056D02*
X10240056Y-17059944D01*
X10300000Y-16940056D02*
X10300000Y-17059944D01*
X10240056Y-17000000D02*
X10359944Y-17000000D01*
X10640000Y-15040000D02*
X10760000Y-15160000D01*
X10760000Y-15040000D02*
X10640000Y-15160000D01*
X10742427Y-15142427D02*
X10742427Y-15057573D01*
X10657573Y-15057573D01*
X10657573Y-15142427D01*
X10742427Y-15142427D01*
X10760000Y-14020000D02*
X10880000Y-14140000D01*
X10880000Y-14020000D02*
X10760000Y-14140000D01*
X10862427Y-14122427D02*
X10862427Y-14037573D01*
X10777573Y-14037573D01*
X10777573Y-14122427D01*
X10862427Y-14122427D01*
X10912500Y-16432500D02*
X11037500Y-16557500D01*
X11037500Y-16432500D02*
X10912500Y-16557500D01*
X10975000Y-16557500D02*
X11037500Y-16495000D01*
X10975000Y-16432500D01*
X10912500Y-16495000D01*
X10975000Y-16557500D01*
X11262500Y-16942500D02*
X11387500Y-17067500D01*
X11387500Y-16942500D02*
X11262500Y-17067500D01*
X11325000Y-17067500D02*
X11387500Y-17005000D01*
X11325000Y-16942500D01*
X11262500Y-17005000D01*
X11325000Y-17067500D01*
X11612500Y-16432500D02*
X11737500Y-16557500D01*
X11737500Y-16432500D02*
X11612500Y-16557500D01*
X11675000Y-16557500D02*
X11737500Y-16495000D01*
X11675000Y-16432500D01*
X11612500Y-16495000D01*
X11675000Y-16557500D01*
X11962500Y-16942500D02*
X12087500Y-17067500D01*
X12087500Y-16942500D02*
X11962500Y-17067500D01*
X12025000Y-17067500D02*
X12087500Y-17005000D01*
X12025000Y-16942500D01*
X11962500Y-17005000D01*
X12025000Y-17067500D01*
X17912500Y-16432500D02*
X18037500Y-16557500D01*
X18037500Y-16432500D02*
X17912500Y-16557500D01*
X17975000Y-16557500D02*
X18037500Y-16495000D01*
X17975000Y-16432500D01*
X17912500Y-16495000D01*
X17975000Y-16557500D01*
X18262500Y-16942500D02*
X18387500Y-17067500D01*
X18387500Y-16942500D02*
X18262500Y-17067500D01*
X18325000Y-17067500D02*
X18387500Y-17005000D01*
X18325000Y-16942500D01*
X18262500Y-17005000D01*
X18325000Y-17067500D01*
X18612500Y-16432500D02*
X18737500Y-16557500D01*
X18737500Y-16432500D02*
X18612500Y-16557500D01*
X18675000Y-16557500D02*
X18737500Y-16495000D01*
X18675000Y-16432500D01*
X18612500Y-16495000D01*
X18675000Y-16557500D01*
X18962500Y-16942500D02*
X19087500Y-17067500D01*
X19087500Y-16942500D02*
X18962500Y-17067500D01*
X19025000Y-17067500D02*
X19087500Y-17005000D01*
X19025000Y-16942500D01*
X18962500Y-17005000D01*
X19025000Y-17067500D01*
X14412500Y-16432500D02*
X14537500Y-16557500D01*
X14537500Y-16432500D02*
X14412500Y-16557500D01*
X14475000Y-16557500D02*
X14537500Y-16495000D01*
X14475000Y-16432500D01*
X14412500Y-16495000D01*
X14475000Y-16557500D01*
X14762500Y-16942500D02*
X14887500Y-17067500D01*
X14887500Y-16942500D02*
X14762500Y-17067500D01*
X14825000Y-17067500D02*
X14887500Y-17005000D01*
X14825000Y-16942500D01*
X14762500Y-17005000D01*
X14825000Y-17067500D01*
X15112500Y-16432500D02*
X15237500Y-16557500D01*
X15237500Y-16432500D02*
X15112500Y-16557500D01*
X15175000Y-16557500D02*
X15237500Y-16495000D01*
X15175000Y-16432500D01*
X15112500Y-16495000D01*
X15175000Y-16557500D01*
X15462500Y-16942500D02*
X15587500Y-17067500D01*
X15587500Y-16942500D02*
X15462500Y-17067500D01*
X15525000Y-17067500D02*
X15587500Y-17005000D01*
X15525000Y-16942500D01*
X15462500Y-17005000D01*
X15525000Y-17067500D01*
X16162500Y-16432500D02*
X16287500Y-16557500D01*
X16287500Y-16432500D02*
X16162500Y-16557500D01*
X16225000Y-16557500D02*
X16287500Y-16495000D01*
X16225000Y-16432500D01*
X16162500Y-16495000D01*
X16225000Y-16557500D01*
X16512500Y-16942500D02*
X16637500Y-17067500D01*
X16637500Y-16942500D02*
X16512500Y-17067500D01*
X16575000Y-17067500D02*
X16637500Y-17005000D01*
X16575000Y-16942500D01*
X16512500Y-17005000D01*
X16575000Y-17067500D01*
X16862500Y-16432500D02*
X16987500Y-16557500D01*
X16987500Y-16432500D02*
X16862500Y-16557500D01*
X16925000Y-16557500D02*
X16987500Y-16495000D01*
X16925000Y-16432500D01*
X16862500Y-16495000D01*
X16925000Y-16557500D01*
X17212500Y-16942500D02*
X17337500Y-17067500D01*
X17337500Y-16942500D02*
X17212500Y-17067500D01*
X17275000Y-17067500D02*
X17337500Y-17005000D01*
X17275000Y-16942500D01*
X17212500Y-17005000D01*
X17275000Y-17067500D01*
X12662500Y-16432500D02*
X12787500Y-16557500D01*
X12787500Y-16432500D02*
X12662500Y-16557500D01*
X12725000Y-16557500D02*
X12787500Y-16495000D01*
X12725000Y-16432500D01*
X12662500Y-16495000D01*
X12725000Y-16557500D01*
X13012500Y-16942500D02*
X13137500Y-17067500D01*
X13137500Y-16942500D02*
X13012500Y-17067500D01*
X13075000Y-17067500D02*
X13137500Y-17005000D01*
X13075000Y-16942500D01*
X13012500Y-17005000D01*
X13075000Y-17067500D01*
X13362500Y-16432500D02*
X13487500Y-16557500D01*
X13487500Y-16432500D02*
X13362500Y-16557500D01*
X13425000Y-16557500D02*
X13487500Y-16495000D01*
X13425000Y-16432500D01*
X13362500Y-16495000D01*
X13425000Y-16557500D01*
X13712500Y-16942500D02*
X13837500Y-17067500D01*
X13837500Y-16942500D02*
X13712500Y-17067500D01*
X13775000Y-17067500D02*
X13837500Y-17005000D01*
X13775000Y-16942500D01*
X13712500Y-17005000D01*
X13775000Y-17067500D01*
X12900000Y-13530000D02*
X12900000Y-13670000D01*
X12830000Y-13600000D02*
X12970000Y-13600000D01*
X12970000Y-13600000D02*
G75*
G03X12970000Y-13600000I-70000J0D01*
G01*
X12900000Y-14546000D02*
X12900000Y-14686000D01*
X12830000Y-14616000D02*
X12970000Y-14616000D01*
X12970000Y-14616000D02*
G75*
G03X12970000Y-14616000I-70000J0D01*
G01*
X12900000Y-15308000D02*
X12900000Y-15448000D01*
X12830000Y-15378000D02*
X12970000Y-15378000D01*
X12970000Y-15378000D02*
G75*
G03X12970000Y-15378000I-70000J0D01*
G01*
X13662000Y-13530000D02*
X13662000Y-13670000D01*
X13592000Y-13600000D02*
X13732000Y-13600000D01*
X13732000Y-13600000D02*
G75*
G03X13732000Y-13600000I-70000J0D01*
G01*
X13662000Y-15308000D02*
X13662000Y-15448000D01*
X13592000Y-15378000D02*
X13732000Y-15378000D01*
X13732000Y-15378000D02*
G75*
G03X13732000Y-15378000I-70000J0D01*
G01*
X11400000Y-13530000D02*
X11400000Y-13670000D01*
X11330000Y-13600000D02*
X11470000Y-13600000D01*
X11470000Y-13600000D02*
G75*
G03X11470000Y-13600000I-70000J0D01*
G01*
X11400000Y-14546000D02*
X11400000Y-14686000D01*
X11330000Y-14616000D02*
X11470000Y-14616000D01*
X11470000Y-14616000D02*
G75*
G03X11470000Y-14616000I-70000J0D01*
G01*
X11400000Y-15308000D02*
X11400000Y-15448000D01*
X11330000Y-15378000D02*
X11470000Y-15378000D01*
X11470000Y-15378000D02*
G75*
G03X11470000Y-15378000I-70000J0D01*
G01*
X12162000Y-13530000D02*
X12162000Y-13670000D01*
X12092000Y-13600000D02*
X12232000Y-13600000D01*
X12232000Y-13600000D02*
G75*
G03X12232000Y-13600000I-70000J0D01*
G01*
X12162000Y-15308000D02*
X12162000Y-15448000D01*
X12092000Y-15378000D02*
X12232000Y-15378000D01*
X12232000Y-15378000D02*
G75*
G03X12232000Y-15378000I-70000J0D01*
G01*
X11070749Y-10265249D02*
X11070749Y-10215751D01*
X11021251Y-10215751D01*
X11021251Y-10265249D01*
X11070749Y-10265249D01*
X11081000Y-10240500D02*
G75*
G03X11081000Y-10240500I-35000J0D01*
G01*
X11197749Y-10265249D02*
X11197749Y-10215751D01*
X11148251Y-10215751D01*
X11148251Y-10265249D01*
X11197749Y-10265249D01*
X11208000Y-10240500D02*
G75*
G03X11208000Y-10240500I-35000J0D01*
G01*
X11324749Y-10265249D02*
X11324749Y-10215751D01*
X11275251Y-10215751D01*
X11275251Y-10265249D01*
X11324749Y-10265249D01*
X11335000Y-10240500D02*
G75*
G03X11335000Y-10240500I-35000J0D01*
G01*
X11451749Y-10265249D02*
X11451749Y-10215751D01*
X11402251Y-10215751D01*
X11402251Y-10265249D01*
X11451749Y-10265249D01*
X11462000Y-10240500D02*
G75*
G03X11462000Y-10240500I-35000J0D01*
G01*
X11578749Y-10265249D02*
X11578749Y-10215751D01*
X11529251Y-10215751D01*
X11529251Y-10265249D01*
X11578749Y-10265249D01*
X11589000Y-10240500D02*
G75*
G03X11589000Y-10240500I-35000J0D01*
G01*
X11748000Y-11328000D02*
X11823000Y-11253000D01*
X11748000Y-11178000D01*
X11673000Y-11253000D01*
X11748000Y-11328000D01*
X11823000Y-11253000D02*
G75*
G03X11823000Y-11253000I-75000J0D01*
G01*
X11748000Y-12128000D02*
X11823000Y-12053000D01*
X11748000Y-11978000D01*
X11673000Y-12053000D01*
X11748000Y-12128000D01*
X11823000Y-12053000D02*
G75*
G03X11823000Y-12053000I-75000J0D01*
G01*
D12*
X10283928Y-17968214D02*
X10283928Y-17668214D01*
X10355357Y-17668214D01*
X10398214Y-17682500D01*
X10426786Y-17711072D01*
X10441071Y-17739643D01*
X10455357Y-17796786D01*
X10455357Y-17839643D01*
X10441071Y-17896786D01*
X10426786Y-17925357D01*
X10398214Y-17953929D01*
X10355357Y-17968214D01*
X10283928Y-17968214D01*
X10583928Y-17968214D02*
X10583928Y-17768214D01*
X10583928Y-17825357D02*
X10598214Y-17796786D01*
X10612500Y-17782500D01*
X10641071Y-17768214D01*
X10669643Y-17768214D01*
X10769643Y-17968214D02*
X10769643Y-17768214D01*
X10769643Y-17668214D02*
X10755357Y-17682500D01*
X10769643Y-17696786D01*
X10783928Y-17682500D01*
X10769643Y-17668214D01*
X10769643Y-17696786D01*
X10955357Y-17968214D02*
X10926786Y-17953929D01*
X10912500Y-17925357D01*
X10912500Y-17668214D01*
X11112500Y-17968214D02*
X11083928Y-17953929D01*
X11069643Y-17925357D01*
X11069643Y-17668214D01*
X11455357Y-17968214D02*
X11455357Y-17668214D01*
X11555357Y-17882500D01*
X11655357Y-17668214D01*
X11655357Y-17968214D01*
X11926786Y-17968214D02*
X11926786Y-17811072D01*
X11912500Y-17782500D01*
X11883928Y-17768214D01*
X11826786Y-17768214D01*
X11798214Y-17782500D01*
X11926786Y-17953929D02*
X11898214Y-17968214D01*
X11826786Y-17968214D01*
X11798214Y-17953929D01*
X11783928Y-17925357D01*
X11783928Y-17896786D01*
X11798214Y-17868214D01*
X11826786Y-17853929D01*
X11898214Y-17853929D01*
X11926786Y-17839643D01*
X12069643Y-17768214D02*
X12069643Y-18068214D01*
X12069643Y-17782500D02*
X12098214Y-17768214D01*
X12155357Y-17768214D01*
X12183928Y-17782500D01*
X12198214Y-17796786D01*
X12212500Y-17825357D01*
X12212500Y-17911072D01*
X12198214Y-17939643D01*
X12183928Y-17953929D01*
X12155357Y-17968214D01*
X12098214Y-17968214D01*
X12069643Y-17953929D01*
X12341071Y-17939643D02*
X12355357Y-17953929D01*
X12341071Y-17968214D01*
X12326786Y-17953929D01*
X12341071Y-17939643D01*
X12341071Y-17968214D01*
X12341071Y-17782500D02*
X12355357Y-17796786D01*
X12341071Y-17811072D01*
X12326786Y-17796786D01*
X12341071Y-17782500D01*
X12341071Y-17811072D01*
X9957500Y-18442500D02*
X9997500Y-18482500D01*
X9997500Y-18442500D02*
X9957500Y-18482500D01*
X10341071Y-18298214D02*
X10369643Y-18298214D01*
X10398214Y-18312500D01*
X10412500Y-18326786D01*
X10426786Y-18355357D01*
X10441071Y-18412500D01*
X10441071Y-18483929D01*
X10426786Y-18541072D01*
X10412500Y-18569643D01*
X10398214Y-18583929D01*
X10369643Y-18598214D01*
X10341071Y-18598214D01*
X10312500Y-18583929D01*
X10298214Y-18569643D01*
X10283928Y-18541072D01*
X10269643Y-18483929D01*
X10269643Y-18412500D01*
X10283928Y-18355357D01*
X10298214Y-18326786D01*
X10312500Y-18312500D01*
X10341071Y-18298214D01*
X10569643Y-18569643D02*
X10583928Y-18583929D01*
X10569643Y-18598214D01*
X10555357Y-18583929D01*
X10569643Y-18569643D01*
X10569643Y-18598214D01*
X10841071Y-18398214D02*
X10841071Y-18598214D01*
X10769643Y-18283929D02*
X10698214Y-18498214D01*
X10883928Y-18498214D01*
X11055357Y-18298214D02*
X11083928Y-18298214D01*
X11112500Y-18312500D01*
X11126786Y-18326786D01*
X11141071Y-18355357D01*
X11155357Y-18412500D01*
X11155357Y-18483929D01*
X11141071Y-18541072D01*
X11126786Y-18569643D01*
X11112500Y-18583929D01*
X11083928Y-18598214D01*
X11055357Y-18598214D01*
X11026786Y-18583929D01*
X11012500Y-18569643D01*
X10998214Y-18541072D01*
X10983928Y-18483929D01*
X10983928Y-18412500D01*
X10998214Y-18355357D01*
X11012500Y-18326786D01*
X11026786Y-18312500D01*
X11055357Y-18298214D01*
X11283928Y-18598214D02*
X11283928Y-18398214D01*
X11283928Y-18426786D02*
X11298214Y-18412500D01*
X11326786Y-18398214D01*
X11369643Y-18398214D01*
X11398214Y-18412500D01*
X11412500Y-18441072D01*
X11412500Y-18598214D01*
X11412500Y-18441072D02*
X11426786Y-18412500D01*
X11455357Y-18398214D01*
X11498214Y-18398214D01*
X11526786Y-18412500D01*
X11541071Y-18441072D01*
X11541071Y-18598214D01*
X11683928Y-18598214D02*
X11683928Y-18398214D01*
X11683928Y-18426786D02*
X11698214Y-18412500D01*
X11726786Y-18398214D01*
X11769643Y-18398214D01*
X11798214Y-18412500D01*
X11812500Y-18441072D01*
X11812500Y-18598214D01*
X11812500Y-18441072D02*
X11826786Y-18412500D01*
X11855357Y-18398214D01*
X11898214Y-18398214D01*
X11926786Y-18412500D01*
X11941071Y-18441072D01*
X11941071Y-18598214D01*
X12526786Y-18283929D02*
X12269643Y-18669643D01*
X12912500Y-18298214D02*
X12941071Y-18298214D01*
X12969643Y-18312500D01*
X12983928Y-18326786D01*
X12998214Y-18355357D01*
X13012500Y-18412500D01*
X13012500Y-18483929D01*
X12998214Y-18541072D01*
X12983928Y-18569643D01*
X12969643Y-18583929D01*
X12941071Y-18598214D01*
X12912500Y-18598214D01*
X12883928Y-18583929D01*
X12869643Y-18569643D01*
X12855357Y-18541072D01*
X12841071Y-18483929D01*
X12841071Y-18412500D01*
X12855357Y-18355357D01*
X12869643Y-18326786D01*
X12883928Y-18312500D01*
X12912500Y-18298214D01*
X13141071Y-18569643D02*
X13155357Y-18583929D01*
X13141071Y-18598214D01*
X13126786Y-18583929D01*
X13141071Y-18569643D01*
X13141071Y-18598214D01*
X13341071Y-18298214D02*
X13369643Y-18298214D01*
X13398214Y-18312500D01*
X13412500Y-18326786D01*
X13426786Y-18355357D01*
X13441071Y-18412500D01*
X13441071Y-18483929D01*
X13426786Y-18541072D01*
X13412500Y-18569643D01*
X13398214Y-18583929D01*
X13369643Y-18598214D01*
X13341071Y-18598214D01*
X13312500Y-18583929D01*
X13298214Y-18569643D01*
X13283928Y-18541072D01*
X13269643Y-18483929D01*
X13269643Y-18412500D01*
X13283928Y-18355357D01*
X13298214Y-18326786D01*
X13312500Y-18312500D01*
X13341071Y-18298214D01*
X13726786Y-18598214D02*
X13555357Y-18598214D01*
X13641071Y-18598214D02*
X13641071Y-18298214D01*
X13612500Y-18341072D01*
X13583928Y-18369643D01*
X13555357Y-18383929D01*
X13983928Y-18298214D02*
X13926786Y-18298214D01*
X13898214Y-18312500D01*
X13883928Y-18326786D01*
X13855357Y-18369643D01*
X13841071Y-18426786D01*
X13841071Y-18541072D01*
X13855357Y-18569643D01*
X13869643Y-18583929D01*
X13898214Y-18598214D01*
X13955357Y-18598214D01*
X13983928Y-18583929D01*
X13998214Y-18569643D01*
X14012500Y-18541072D01*
X14012500Y-18469643D01*
X13998214Y-18441072D01*
X13983928Y-18426786D01*
X13955357Y-18412500D01*
X13898214Y-18412500D01*
X13869643Y-18426786D01*
X13855357Y-18441072D01*
X13841071Y-18469643D01*
X14126786Y-18298214D02*
X14126786Y-18355357D01*
X14241071Y-18298214D02*
X14241071Y-18355357D01*
X14683928Y-18712500D02*
X14669643Y-18698214D01*
X14641071Y-18655357D01*
X14626786Y-18626786D01*
X14612500Y-18583929D01*
X14598214Y-18512500D01*
X14598214Y-18455357D01*
X14612500Y-18383929D01*
X14626786Y-18341072D01*
X14641071Y-18312500D01*
X14669643Y-18269643D01*
X14683928Y-18255357D01*
X14926786Y-18398214D02*
X14926786Y-18598214D01*
X14855357Y-18283929D02*
X14783928Y-18498214D01*
X14969643Y-18498214D01*
X15055357Y-18298214D02*
X15241071Y-18298214D01*
X15141071Y-18412500D01*
X15183928Y-18412500D01*
X15212500Y-18426786D01*
X15226786Y-18441072D01*
X15241071Y-18469643D01*
X15241071Y-18541072D01*
X15226786Y-18569643D01*
X15212500Y-18583929D01*
X15183928Y-18598214D01*
X15098214Y-18598214D01*
X15069643Y-18583929D01*
X15055357Y-18569643D01*
X15598214Y-18598214D02*
X15598214Y-18298214D01*
X15726786Y-18598214D02*
X15726786Y-18441072D01*
X15712500Y-18412500D01*
X15683928Y-18398214D01*
X15641071Y-18398214D01*
X15612500Y-18412500D01*
X15598214Y-18426786D01*
X15912500Y-18598214D02*
X15883928Y-18583929D01*
X15869643Y-18569643D01*
X15855357Y-18541072D01*
X15855357Y-18455357D01*
X15869643Y-18426786D01*
X15883928Y-18412500D01*
X15912500Y-18398214D01*
X15955357Y-18398214D01*
X15983928Y-18412500D01*
X15998214Y-18426786D01*
X16012500Y-18455357D01*
X16012500Y-18541072D01*
X15998214Y-18569643D01*
X15983928Y-18583929D01*
X15955357Y-18598214D01*
X15912500Y-18598214D01*
X16183928Y-18598214D02*
X16155357Y-18583929D01*
X16141071Y-18555357D01*
X16141071Y-18298214D01*
X16412500Y-18583929D02*
X16383928Y-18598214D01*
X16326786Y-18598214D01*
X16298214Y-18583929D01*
X16283928Y-18555357D01*
X16283928Y-18441072D01*
X16298214Y-18412500D01*
X16326786Y-18398214D01*
X16383928Y-18398214D01*
X16412500Y-18412500D01*
X16426786Y-18441072D01*
X16426786Y-18469643D01*
X16283928Y-18498214D01*
X16541071Y-18583929D02*
X16569643Y-18598214D01*
X16626786Y-18598214D01*
X16655357Y-18583929D01*
X16669643Y-18555357D01*
X16669643Y-18541072D01*
X16655357Y-18512500D01*
X16626786Y-18498214D01*
X16583928Y-18498214D01*
X16555357Y-18483929D01*
X16541071Y-18455357D01*
X16541071Y-18441072D01*
X16555357Y-18412500D01*
X16583928Y-18398214D01*
X16626786Y-18398214D01*
X16655357Y-18412500D01*
X16769643Y-18712500D02*
X16783928Y-18698214D01*
X16812500Y-18655357D01*
X16826786Y-18626786D01*
X16841071Y-18583929D01*
X16855357Y-18512500D01*
X16855357Y-18455357D01*
X16841071Y-18383929D01*
X16826786Y-18341072D01*
X16812500Y-18312500D01*
X16783928Y-18269643D01*
X16769643Y-18255357D01*
X9997500Y-18858500D02*
G75*
G03X9997500Y-18858500I-35000J0D01*
G01*
X10341071Y-18694214D02*
X10369643Y-18694214D01*
X10398214Y-18708500D01*
X10412500Y-18722786D01*
X10426786Y-18751357D01*
X10441071Y-18808500D01*
X10441071Y-18879929D01*
X10426786Y-18937072D01*
X10412500Y-18965643D01*
X10398214Y-18979929D01*
X10369643Y-18994214D01*
X10341071Y-18994214D01*
X10312500Y-18979929D01*
X10298214Y-18965643D01*
X10283928Y-18937072D01*
X10269643Y-18879929D01*
X10269643Y-18808500D01*
X10283928Y-18751357D01*
X10298214Y-18722786D01*
X10312500Y-18708500D01*
X10341071Y-18694214D01*
X10569643Y-18965643D02*
X10583928Y-18979929D01*
X10569643Y-18994214D01*
X10555357Y-18979929D01*
X10569643Y-18965643D01*
X10569643Y-18994214D01*
X10683928Y-18694214D02*
X10883928Y-18694214D01*
X10755357Y-18994214D01*
X11055357Y-18694214D02*
X11083928Y-18694214D01*
X11112500Y-18708500D01*
X11126786Y-18722786D01*
X11141071Y-18751357D01*
X11155357Y-18808500D01*
X11155357Y-18879929D01*
X11141071Y-18937072D01*
X11126786Y-18965643D01*
X11112500Y-18979929D01*
X11083928Y-18994214D01*
X11055357Y-18994214D01*
X11026786Y-18979929D01*
X11012500Y-18965643D01*
X10998214Y-18937072D01*
X10983928Y-18879929D01*
X10983928Y-18808500D01*
X10998214Y-18751357D01*
X11012500Y-18722786D01*
X11026786Y-18708500D01*
X11055357Y-18694214D01*
X11283928Y-18994214D02*
X11283928Y-18794214D01*
X11283928Y-18822786D02*
X11298214Y-18808500D01*
X11326786Y-18794214D01*
X11369643Y-18794214D01*
X11398214Y-18808500D01*
X11412500Y-18837072D01*
X11412500Y-18994214D01*
X11412500Y-18837072D02*
X11426786Y-18808500D01*
X11455357Y-18794214D01*
X11498214Y-18794214D01*
X11526786Y-18808500D01*
X11541071Y-18837072D01*
X11541071Y-18994214D01*
X11683928Y-18994214D02*
X11683928Y-18794214D01*
X11683928Y-18822786D02*
X11698214Y-18808500D01*
X11726786Y-18794214D01*
X11769643Y-18794214D01*
X11798214Y-18808500D01*
X11812500Y-18837072D01*
X11812500Y-18994214D01*
X11812500Y-18837072D02*
X11826786Y-18808500D01*
X11855357Y-18794214D01*
X11898214Y-18794214D01*
X11926786Y-18808500D01*
X11941071Y-18837072D01*
X11941071Y-18994214D01*
X12526786Y-18679929D02*
X12269643Y-19065643D01*
X12912500Y-18694214D02*
X12941071Y-18694214D01*
X12969643Y-18708500D01*
X12983928Y-18722786D01*
X12998214Y-18751357D01*
X13012500Y-18808500D01*
X13012500Y-18879929D01*
X12998214Y-18937072D01*
X12983928Y-18965643D01*
X12969643Y-18979929D01*
X12941071Y-18994214D01*
X12912500Y-18994214D01*
X12883928Y-18979929D01*
X12869643Y-18965643D01*
X12855357Y-18937072D01*
X12841071Y-18879929D01*
X12841071Y-18808500D01*
X12855357Y-18751357D01*
X12869643Y-18722786D01*
X12883928Y-18708500D01*
X12912500Y-18694214D01*
X13141071Y-18965643D02*
X13155357Y-18979929D01*
X13141071Y-18994214D01*
X13126786Y-18979929D01*
X13141071Y-18965643D01*
X13141071Y-18994214D01*
X13341071Y-18694214D02*
X13369643Y-18694214D01*
X13398214Y-18708500D01*
X13412500Y-18722786D01*
X13426786Y-18751357D01*
X13441071Y-18808500D01*
X13441071Y-18879929D01*
X13426786Y-18937072D01*
X13412500Y-18965643D01*
X13398214Y-18979929D01*
X13369643Y-18994214D01*
X13341071Y-18994214D01*
X13312500Y-18979929D01*
X13298214Y-18965643D01*
X13283928Y-18937072D01*
X13269643Y-18879929D01*
X13269643Y-18808500D01*
X13283928Y-18751357D01*
X13298214Y-18722786D01*
X13312500Y-18708500D01*
X13341071Y-18694214D01*
X13555357Y-18722786D02*
X13569643Y-18708500D01*
X13598214Y-18694214D01*
X13669643Y-18694214D01*
X13698214Y-18708500D01*
X13712500Y-18722786D01*
X13726786Y-18751357D01*
X13726786Y-18779929D01*
X13712500Y-18822786D01*
X13541071Y-18994214D01*
X13726786Y-18994214D01*
X13898214Y-18822786D02*
X13869643Y-18808500D01*
X13855357Y-18794214D01*
X13841071Y-18765643D01*
X13841071Y-18751357D01*
X13855357Y-18722786D01*
X13869643Y-18708500D01*
X13898214Y-18694214D01*
X13955357Y-18694214D01*
X13983928Y-18708500D01*
X13998214Y-18722786D01*
X14012500Y-18751357D01*
X14012500Y-18765643D01*
X13998214Y-18794214D01*
X13983928Y-18808500D01*
X13955357Y-18822786D01*
X13898214Y-18822786D01*
X13869643Y-18837072D01*
X13855357Y-18851357D01*
X13841071Y-18879929D01*
X13841071Y-18937072D01*
X13855357Y-18965643D01*
X13869643Y-18979929D01*
X13898214Y-18994214D01*
X13955357Y-18994214D01*
X13983928Y-18979929D01*
X13998214Y-18965643D01*
X14012500Y-18937072D01*
X14012500Y-18879929D01*
X13998214Y-18851357D01*
X13983928Y-18837072D01*
X13955357Y-18822786D01*
X14126786Y-18694214D02*
X14126786Y-18751357D01*
X14241071Y-18694214D02*
X14241071Y-18751357D01*
X14683928Y-19108500D02*
X14669643Y-19094214D01*
X14641071Y-19051357D01*
X14626786Y-19022786D01*
X14612500Y-18979929D01*
X14598214Y-18908500D01*
X14598214Y-18851357D01*
X14612500Y-18779929D01*
X14626786Y-18737072D01*
X14641071Y-18708500D01*
X14669643Y-18665643D01*
X14683928Y-18651357D01*
X14769643Y-18694214D02*
X14955357Y-18694214D01*
X14855357Y-18808500D01*
X14898214Y-18808500D01*
X14926786Y-18822786D01*
X14941071Y-18837072D01*
X14955357Y-18865643D01*
X14955357Y-18937072D01*
X14941071Y-18965643D01*
X14926786Y-18979929D01*
X14898214Y-18994214D01*
X14812500Y-18994214D01*
X14783928Y-18979929D01*
X14769643Y-18965643D01*
X15312500Y-18994214D02*
X15312500Y-18694214D01*
X15441071Y-18994214D02*
X15441071Y-18837072D01*
X15426786Y-18808500D01*
X15398214Y-18794214D01*
X15355357Y-18794214D01*
X15326786Y-18808500D01*
X15312500Y-18822786D01*
X15626786Y-18994214D02*
X15598214Y-18979929D01*
X15583928Y-18965643D01*
X15569643Y-18937072D01*
X15569643Y-18851357D01*
X15583928Y-18822786D01*
X15598214Y-18808500D01*
X15626786Y-18794214D01*
X15669643Y-18794214D01*
X15698214Y-18808500D01*
X15712500Y-18822786D01*
X15726786Y-18851357D01*
X15726786Y-18937072D01*
X15712500Y-18965643D01*
X15698214Y-18979929D01*
X15669643Y-18994214D01*
X15626786Y-18994214D01*
X15898214Y-18994214D02*
X15869643Y-18979929D01*
X15855357Y-18951357D01*
X15855357Y-18694214D01*
X16126786Y-18979929D02*
X16098214Y-18994214D01*
X16041071Y-18994214D01*
X16012500Y-18979929D01*
X15998214Y-18951357D01*
X15998214Y-18837072D01*
X16012500Y-18808500D01*
X16041071Y-18794214D01*
X16098214Y-18794214D01*
X16126786Y-18808500D01*
X16141071Y-18837072D01*
X16141071Y-18865643D01*
X15998214Y-18894214D01*
X16255357Y-18979929D02*
X16283928Y-18994214D01*
X16341071Y-18994214D01*
X16369643Y-18979929D01*
X16383928Y-18951357D01*
X16383928Y-18937072D01*
X16369643Y-18908500D01*
X16341071Y-18894214D01*
X16298214Y-18894214D01*
X16269643Y-18879929D01*
X16255357Y-18851357D01*
X16255357Y-18837072D01*
X16269643Y-18808500D01*
X16298214Y-18794214D01*
X16341071Y-18794214D01*
X16369643Y-18808500D01*
X16483928Y-19108500D02*
X16498214Y-19094214D01*
X16526786Y-19051357D01*
X16541071Y-19022786D01*
X16555357Y-18979929D01*
X16569643Y-18908500D01*
X16569643Y-18851357D01*
X16555357Y-18779929D01*
X16541071Y-18737072D01*
X16526786Y-18708500D01*
X16498214Y-18665643D01*
X16483928Y-18651357D01*
X9962000Y-19219000D02*
X9962000Y-19290000D01*
X9926500Y-19254500D02*
X9997500Y-19254500D01*
X10341071Y-19090214D02*
X10369643Y-19090214D01*
X10398214Y-19104500D01*
X10412500Y-19118786D01*
X10426786Y-19147357D01*
X10441071Y-19204500D01*
X10441071Y-19275929D01*
X10426786Y-19333072D01*
X10412500Y-19361643D01*
X10398214Y-19375929D01*
X10369643Y-19390214D01*
X10341071Y-19390214D01*
X10312500Y-19375929D01*
X10298214Y-19361643D01*
X10283928Y-19333072D01*
X10269643Y-19275929D01*
X10269643Y-19204500D01*
X10283928Y-19147357D01*
X10298214Y-19118786D01*
X10312500Y-19104500D01*
X10341071Y-19090214D01*
X10569643Y-19361643D02*
X10583928Y-19375929D01*
X10569643Y-19390214D01*
X10555357Y-19375929D01*
X10569643Y-19361643D01*
X10569643Y-19390214D01*
X10683928Y-19090214D02*
X10883928Y-19090214D01*
X10755357Y-19390214D01*
X11155357Y-19390214D02*
X10983928Y-19390214D01*
X11069643Y-19390214D02*
X11069643Y-19090214D01*
X11041071Y-19133072D01*
X11012500Y-19161643D01*
X10983928Y-19175929D01*
X11283928Y-19390214D02*
X11283928Y-19190214D01*
X11283928Y-19218786D02*
X11298214Y-19204500D01*
X11326786Y-19190214D01*
X11369643Y-19190214D01*
X11398214Y-19204500D01*
X11412500Y-19233072D01*
X11412500Y-19390214D01*
X11412500Y-19233072D02*
X11426786Y-19204500D01*
X11455357Y-19190214D01*
X11498214Y-19190214D01*
X11526786Y-19204500D01*
X11541071Y-19233072D01*
X11541071Y-19390214D01*
X11683928Y-19390214D02*
X11683928Y-19190214D01*
X11683928Y-19218786D02*
X11698214Y-19204500D01*
X11726786Y-19190214D01*
X11769643Y-19190214D01*
X11798214Y-19204500D01*
X11812500Y-19233072D01*
X11812500Y-19390214D01*
X11812500Y-19233072D02*
X11826786Y-19204500D01*
X11855357Y-19190214D01*
X11898214Y-19190214D01*
X11926786Y-19204500D01*
X11941071Y-19233072D01*
X11941071Y-19390214D01*
X12526786Y-19075929D02*
X12269643Y-19461643D01*
X12912500Y-19090214D02*
X12941071Y-19090214D01*
X12969643Y-19104500D01*
X12983928Y-19118786D01*
X12998214Y-19147357D01*
X13012500Y-19204500D01*
X13012500Y-19275929D01*
X12998214Y-19333072D01*
X12983928Y-19361643D01*
X12969643Y-19375929D01*
X12941071Y-19390214D01*
X12912500Y-19390214D01*
X12883928Y-19375929D01*
X12869643Y-19361643D01*
X12855357Y-19333072D01*
X12841071Y-19275929D01*
X12841071Y-19204500D01*
X12855357Y-19147357D01*
X12869643Y-19118786D01*
X12883928Y-19104500D01*
X12912500Y-19090214D01*
X13141071Y-19361643D02*
X13155357Y-19375929D01*
X13141071Y-19390214D01*
X13126786Y-19375929D01*
X13141071Y-19361643D01*
X13141071Y-19390214D01*
X13341071Y-19090214D02*
X13369643Y-19090214D01*
X13398214Y-19104500D01*
X13412500Y-19118786D01*
X13426786Y-19147357D01*
X13441071Y-19204500D01*
X13441071Y-19275929D01*
X13426786Y-19333072D01*
X13412500Y-19361643D01*
X13398214Y-19375929D01*
X13369643Y-19390214D01*
X13341071Y-19390214D01*
X13312500Y-19375929D01*
X13298214Y-19361643D01*
X13283928Y-19333072D01*
X13269643Y-19275929D01*
X13269643Y-19204500D01*
X13283928Y-19147357D01*
X13298214Y-19118786D01*
X13312500Y-19104500D01*
X13341071Y-19090214D01*
X13555357Y-19118786D02*
X13569643Y-19104500D01*
X13598214Y-19090214D01*
X13669643Y-19090214D01*
X13698214Y-19104500D01*
X13712500Y-19118786D01*
X13726786Y-19147357D01*
X13726786Y-19175929D01*
X13712500Y-19218786D01*
X13541071Y-19390214D01*
X13726786Y-19390214D01*
X13898214Y-19218786D02*
X13869643Y-19204500D01*
X13855357Y-19190214D01*
X13841071Y-19161643D01*
X13841071Y-19147357D01*
X13855357Y-19118786D01*
X13869643Y-19104500D01*
X13898214Y-19090214D01*
X13955357Y-19090214D01*
X13983928Y-19104500D01*
X13998214Y-19118786D01*
X14012500Y-19147357D01*
X14012500Y-19161643D01*
X13998214Y-19190214D01*
X13983928Y-19204500D01*
X13955357Y-19218786D01*
X13898214Y-19218786D01*
X13869643Y-19233072D01*
X13855357Y-19247357D01*
X13841071Y-19275929D01*
X13841071Y-19333072D01*
X13855357Y-19361643D01*
X13869643Y-19375929D01*
X13898214Y-19390214D01*
X13955357Y-19390214D01*
X13983928Y-19375929D01*
X13998214Y-19361643D01*
X14012500Y-19333072D01*
X14012500Y-19275929D01*
X13998214Y-19247357D01*
X13983928Y-19233072D01*
X13955357Y-19218786D01*
X14126786Y-19090214D02*
X14126786Y-19147357D01*
X14241071Y-19090214D02*
X14241071Y-19147357D01*
X14683928Y-19504500D02*
X14669643Y-19490214D01*
X14641071Y-19447357D01*
X14626786Y-19418786D01*
X14612500Y-19375929D01*
X14598214Y-19304500D01*
X14598214Y-19247357D01*
X14612500Y-19175929D01*
X14626786Y-19133072D01*
X14641071Y-19104500D01*
X14669643Y-19061643D01*
X14683928Y-19047357D01*
X14926786Y-19190214D02*
X14926786Y-19390214D01*
X14855357Y-19075929D02*
X14783928Y-19290214D01*
X14969643Y-19290214D01*
X15312500Y-19390214D02*
X15312500Y-19090214D01*
X15441071Y-19390214D02*
X15441071Y-19233072D01*
X15426786Y-19204500D01*
X15398214Y-19190214D01*
X15355357Y-19190214D01*
X15326786Y-19204500D01*
X15312500Y-19218786D01*
X15626786Y-19390214D02*
X15598214Y-19375929D01*
X15583928Y-19361643D01*
X15569643Y-19333072D01*
X15569643Y-19247357D01*
X15583928Y-19218786D01*
X15598214Y-19204500D01*
X15626786Y-19190214D01*
X15669643Y-19190214D01*
X15698214Y-19204500D01*
X15712500Y-19218786D01*
X15726786Y-19247357D01*
X15726786Y-19333072D01*
X15712500Y-19361643D01*
X15698214Y-19375929D01*
X15669643Y-19390214D01*
X15626786Y-19390214D01*
X15898214Y-19390214D02*
X15869643Y-19375929D01*
X15855357Y-19347357D01*
X15855357Y-19090214D01*
X16126786Y-19375929D02*
X16098214Y-19390214D01*
X16041071Y-19390214D01*
X16012500Y-19375929D01*
X15998214Y-19347357D01*
X15998214Y-19233072D01*
X16012500Y-19204500D01*
X16041071Y-19190214D01*
X16098214Y-19190214D01*
X16126786Y-19204500D01*
X16141071Y-19233072D01*
X16141071Y-19261643D01*
X15998214Y-19290214D01*
X16255357Y-19375929D02*
X16283928Y-19390214D01*
X16341071Y-19390214D01*
X16369643Y-19375929D01*
X16383928Y-19347357D01*
X16383928Y-19333072D01*
X16369643Y-19304500D01*
X16341071Y-19290214D01*
X16298214Y-19290214D01*
X16269643Y-19275929D01*
X16255357Y-19247357D01*
X16255357Y-19233072D01*
X16269643Y-19204500D01*
X16298214Y-19190214D01*
X16341071Y-19190214D01*
X16369643Y-19204500D01*
X16483928Y-19504500D02*
X16498214Y-19490214D01*
X16526786Y-19447357D01*
X16541071Y-19418786D01*
X16555357Y-19375929D01*
X16569643Y-19304500D01*
X16569643Y-19247357D01*
X16555357Y-19175929D01*
X16541071Y-19133072D01*
X16526786Y-19104500D01*
X16498214Y-19061643D01*
X16483928Y-19047357D01*
X9985784Y-19678785D02*
X9985784Y-19622216D01*
X9929215Y-19622216D01*
X9929215Y-19678785D01*
X9985784Y-19678785D01*
X10341071Y-19486214D02*
X10369643Y-19486214D01*
X10398214Y-19500500D01*
X10412500Y-19514786D01*
X10426786Y-19543357D01*
X10441071Y-19600500D01*
X10441071Y-19671929D01*
X10426786Y-19729072D01*
X10412500Y-19757643D01*
X10398214Y-19771929D01*
X10369643Y-19786214D01*
X10341071Y-19786214D01*
X10312500Y-19771929D01*
X10298214Y-19757643D01*
X10283928Y-19729072D01*
X10269643Y-19671929D01*
X10269643Y-19600500D01*
X10283928Y-19543357D01*
X10298214Y-19514786D01*
X10312500Y-19500500D01*
X10341071Y-19486214D01*
X10569643Y-19757643D02*
X10583928Y-19771929D01*
X10569643Y-19786214D01*
X10555357Y-19771929D01*
X10569643Y-19757643D01*
X10569643Y-19786214D01*
X10755357Y-19614786D02*
X10726786Y-19600500D01*
X10712500Y-19586214D01*
X10698214Y-19557643D01*
X10698214Y-19543357D01*
X10712500Y-19514786D01*
X10726786Y-19500500D01*
X10755357Y-19486214D01*
X10812500Y-19486214D01*
X10841071Y-19500500D01*
X10855357Y-19514786D01*
X10869643Y-19543357D01*
X10869643Y-19557643D01*
X10855357Y-19586214D01*
X10841071Y-19600500D01*
X10812500Y-19614786D01*
X10755357Y-19614786D01*
X10726786Y-19629072D01*
X10712500Y-19643357D01*
X10698214Y-19671929D01*
X10698214Y-19729072D01*
X10712500Y-19757643D01*
X10726786Y-19771929D01*
X10755357Y-19786214D01*
X10812500Y-19786214D01*
X10841071Y-19771929D01*
X10855357Y-19757643D01*
X10869643Y-19729072D01*
X10869643Y-19671929D01*
X10855357Y-19643357D01*
X10841071Y-19629072D01*
X10812500Y-19614786D01*
X11055357Y-19486214D02*
X11083928Y-19486214D01*
X11112500Y-19500500D01*
X11126786Y-19514786D01*
X11141071Y-19543357D01*
X11155357Y-19600500D01*
X11155357Y-19671929D01*
X11141071Y-19729072D01*
X11126786Y-19757643D01*
X11112500Y-19771929D01*
X11083928Y-19786214D01*
X11055357Y-19786214D01*
X11026786Y-19771929D01*
X11012500Y-19757643D01*
X10998214Y-19729072D01*
X10983928Y-19671929D01*
X10983928Y-19600500D01*
X10998214Y-19543357D01*
X11012500Y-19514786D01*
X11026786Y-19500500D01*
X11055357Y-19486214D01*
X11283928Y-19786214D02*
X11283928Y-19586214D01*
X11283928Y-19614786D02*
X11298214Y-19600500D01*
X11326786Y-19586214D01*
X11369643Y-19586214D01*
X11398214Y-19600500D01*
X11412500Y-19629072D01*
X11412500Y-19786214D01*
X11412500Y-19629072D02*
X11426786Y-19600500D01*
X11455357Y-19586214D01*
X11498214Y-19586214D01*
X11526786Y-19600500D01*
X11541071Y-19629072D01*
X11541071Y-19786214D01*
X11683928Y-19786214D02*
X11683928Y-19586214D01*
X11683928Y-19614786D02*
X11698214Y-19600500D01*
X11726786Y-19586214D01*
X11769643Y-19586214D01*
X11798214Y-19600500D01*
X11812500Y-19629072D01*
X11812500Y-19786214D01*
X11812500Y-19629072D02*
X11826786Y-19600500D01*
X11855357Y-19586214D01*
X11898214Y-19586214D01*
X11926786Y-19600500D01*
X11941071Y-19629072D01*
X11941071Y-19786214D01*
X12526786Y-19471929D02*
X12269643Y-19857643D01*
X12912500Y-19486214D02*
X12941071Y-19486214D01*
X12969643Y-19500500D01*
X12983928Y-19514786D01*
X12998214Y-19543357D01*
X13012500Y-19600500D01*
X13012500Y-19671929D01*
X12998214Y-19729072D01*
X12983928Y-19757643D01*
X12969643Y-19771929D01*
X12941071Y-19786214D01*
X12912500Y-19786214D01*
X12883928Y-19771929D01*
X12869643Y-19757643D01*
X12855357Y-19729072D01*
X12841071Y-19671929D01*
X12841071Y-19600500D01*
X12855357Y-19543357D01*
X12869643Y-19514786D01*
X12883928Y-19500500D01*
X12912500Y-19486214D01*
X13141071Y-19757643D02*
X13155357Y-19771929D01*
X13141071Y-19786214D01*
X13126786Y-19771929D01*
X13141071Y-19757643D01*
X13141071Y-19786214D01*
X13341071Y-19486214D02*
X13369643Y-19486214D01*
X13398214Y-19500500D01*
X13412500Y-19514786D01*
X13426786Y-19543357D01*
X13441071Y-19600500D01*
X13441071Y-19671929D01*
X13426786Y-19729072D01*
X13412500Y-19757643D01*
X13398214Y-19771929D01*
X13369643Y-19786214D01*
X13341071Y-19786214D01*
X13312500Y-19771929D01*
X13298214Y-19757643D01*
X13283928Y-19729072D01*
X13269643Y-19671929D01*
X13269643Y-19600500D01*
X13283928Y-19543357D01*
X13298214Y-19514786D01*
X13312500Y-19500500D01*
X13341071Y-19486214D01*
X13541071Y-19486214D02*
X13726786Y-19486214D01*
X13626786Y-19600500D01*
X13669643Y-19600500D01*
X13698214Y-19614786D01*
X13712500Y-19629072D01*
X13726786Y-19657643D01*
X13726786Y-19729072D01*
X13712500Y-19757643D01*
X13698214Y-19771929D01*
X13669643Y-19786214D01*
X13583928Y-19786214D01*
X13555357Y-19771929D01*
X13541071Y-19757643D01*
X14012500Y-19786214D02*
X13841071Y-19786214D01*
X13926786Y-19786214D02*
X13926786Y-19486214D01*
X13898214Y-19529072D01*
X13869643Y-19557643D01*
X13841071Y-19571929D01*
X14126786Y-19486214D02*
X14126786Y-19543357D01*
X14241071Y-19486214D02*
X14241071Y-19543357D01*
X14683928Y-19900500D02*
X14669643Y-19886214D01*
X14641071Y-19843357D01*
X14626786Y-19814786D01*
X14612500Y-19771929D01*
X14598214Y-19700500D01*
X14598214Y-19643357D01*
X14612500Y-19571929D01*
X14626786Y-19529072D01*
X14641071Y-19500500D01*
X14669643Y-19457643D01*
X14683928Y-19443357D01*
X14783928Y-19514786D02*
X14798214Y-19500500D01*
X14826786Y-19486214D01*
X14898214Y-19486214D01*
X14926786Y-19500500D01*
X14941071Y-19514786D01*
X14955357Y-19543357D01*
X14955357Y-19571929D01*
X14941071Y-19614786D01*
X14769643Y-19786214D01*
X14955357Y-19786214D01*
X15141071Y-19486214D02*
X15169643Y-19486214D01*
X15198214Y-19500500D01*
X15212500Y-19514786D01*
X15226786Y-19543357D01*
X15241071Y-19600500D01*
X15241071Y-19671929D01*
X15226786Y-19729072D01*
X15212500Y-19757643D01*
X15198214Y-19771929D01*
X15169643Y-19786214D01*
X15141071Y-19786214D01*
X15112500Y-19771929D01*
X15098214Y-19757643D01*
X15083928Y-19729072D01*
X15069643Y-19671929D01*
X15069643Y-19600500D01*
X15083928Y-19543357D01*
X15098214Y-19514786D01*
X15112500Y-19500500D01*
X15141071Y-19486214D01*
X15598214Y-19786214D02*
X15598214Y-19486214D01*
X15726786Y-19786214D02*
X15726786Y-19629072D01*
X15712500Y-19600500D01*
X15683928Y-19586214D01*
X15641071Y-19586214D01*
X15612500Y-19600500D01*
X15598214Y-19614786D01*
X15912500Y-19786214D02*
X15883928Y-19771929D01*
X15869643Y-19757643D01*
X15855357Y-19729072D01*
X15855357Y-19643357D01*
X15869643Y-19614786D01*
X15883928Y-19600500D01*
X15912500Y-19586214D01*
X15955357Y-19586214D01*
X15983928Y-19600500D01*
X15998214Y-19614786D01*
X16012500Y-19643357D01*
X16012500Y-19729072D01*
X15998214Y-19757643D01*
X15983928Y-19771929D01*
X15955357Y-19786214D01*
X15912500Y-19786214D01*
X16183928Y-19786214D02*
X16155357Y-19771929D01*
X16141071Y-19743357D01*
X16141071Y-19486214D01*
X16412500Y-19771929D02*
X16383928Y-19786214D01*
X16326786Y-19786214D01*
X16298214Y-19771929D01*
X16283928Y-19743357D01*
X16283928Y-19629072D01*
X16298214Y-19600500D01*
X16326786Y-19586214D01*
X16383928Y-19586214D01*
X16412500Y-19600500D01*
X16426786Y-19629072D01*
X16426786Y-19657643D01*
X16283928Y-19686214D01*
X16541071Y-19771929D02*
X16569643Y-19786214D01*
X16626786Y-19786214D01*
X16655357Y-19771929D01*
X16669643Y-19743357D01*
X16669643Y-19729072D01*
X16655357Y-19700500D01*
X16626786Y-19686214D01*
X16583928Y-19686214D01*
X16555357Y-19671929D01*
X16541071Y-19643357D01*
X16541071Y-19629072D01*
X16555357Y-19600500D01*
X16583928Y-19586214D01*
X16626786Y-19586214D01*
X16655357Y-19600500D01*
X16769643Y-19900500D02*
X16783928Y-19886214D01*
X16812500Y-19843357D01*
X16826786Y-19814786D01*
X16841071Y-19771929D01*
X16855357Y-19700500D01*
X16855357Y-19643357D01*
X16841071Y-19571929D01*
X16826786Y-19529072D01*
X16812500Y-19500500D01*
X16783928Y-19457643D01*
X16769643Y-19443357D01*
X9950000Y-20094000D02*
X9997500Y-20046500D01*
X9950000Y-19999000D01*
X9902500Y-20046500D01*
X9950000Y-20094000D01*
X10341071Y-19882214D02*
X10369643Y-19882214D01*
X10398214Y-19896500D01*
X10412500Y-19910786D01*
X10426786Y-19939357D01*
X10441071Y-19996500D01*
X10441071Y-20067929D01*
X10426786Y-20125072D01*
X10412500Y-20153643D01*
X10398214Y-20167929D01*
X10369643Y-20182214D01*
X10341071Y-20182214D01*
X10312500Y-20167929D01*
X10298214Y-20153643D01*
X10283928Y-20125072D01*
X10269643Y-20067929D01*
X10269643Y-19996500D01*
X10283928Y-19939357D01*
X10298214Y-19910786D01*
X10312500Y-19896500D01*
X10341071Y-19882214D01*
X10569643Y-20153643D02*
X10583928Y-20167929D01*
X10569643Y-20182214D01*
X10555357Y-20167929D01*
X10569643Y-20153643D01*
X10569643Y-20182214D01*
X10726786Y-20182214D02*
X10783928Y-20182214D01*
X10812500Y-20167929D01*
X10826786Y-20153643D01*
X10855357Y-20110786D01*
X10869643Y-20053643D01*
X10869643Y-19939357D01*
X10855357Y-19910786D01*
X10841071Y-19896500D01*
X10812500Y-19882214D01*
X10755357Y-19882214D01*
X10726786Y-19896500D01*
X10712500Y-19910786D01*
X10698214Y-19939357D01*
X10698214Y-20010786D01*
X10712500Y-20039357D01*
X10726786Y-20053643D01*
X10755357Y-20067929D01*
X10812500Y-20067929D01*
X10841071Y-20053643D01*
X10855357Y-20039357D01*
X10869643Y-20010786D01*
X11141071Y-19882214D02*
X10998214Y-19882214D01*
X10983928Y-20025072D01*
X10998214Y-20010786D01*
X11026786Y-19996500D01*
X11098214Y-19996500D01*
X11126786Y-20010786D01*
X11141071Y-20025072D01*
X11155357Y-20053643D01*
X11155357Y-20125072D01*
X11141071Y-20153643D01*
X11126786Y-20167929D01*
X11098214Y-20182214D01*
X11026786Y-20182214D01*
X10998214Y-20167929D01*
X10983928Y-20153643D01*
X11283928Y-20182214D02*
X11283928Y-19982214D01*
X11283928Y-20010786D02*
X11298214Y-19996500D01*
X11326786Y-19982214D01*
X11369643Y-19982214D01*
X11398214Y-19996500D01*
X11412500Y-20025072D01*
X11412500Y-20182214D01*
X11412500Y-20025072D02*
X11426786Y-19996500D01*
X11455357Y-19982214D01*
X11498214Y-19982214D01*
X11526786Y-19996500D01*
X11541071Y-20025072D01*
X11541071Y-20182214D01*
X11683928Y-20182214D02*
X11683928Y-19982214D01*
X11683928Y-20010786D02*
X11698214Y-19996500D01*
X11726786Y-19982214D01*
X11769643Y-19982214D01*
X11798214Y-19996500D01*
X11812500Y-20025072D01*
X11812500Y-20182214D01*
X11812500Y-20025072D02*
X11826786Y-19996500D01*
X11855357Y-19982214D01*
X11898214Y-19982214D01*
X11926786Y-19996500D01*
X11941071Y-20025072D01*
X11941071Y-20182214D01*
X12526786Y-19867929D02*
X12269643Y-20253643D01*
X12912500Y-19882214D02*
X12941071Y-19882214D01*
X12969643Y-19896500D01*
X12983928Y-19910786D01*
X12998214Y-19939357D01*
X13012500Y-19996500D01*
X13012500Y-20067929D01*
X12998214Y-20125072D01*
X12983928Y-20153643D01*
X12969643Y-20167929D01*
X12941071Y-20182214D01*
X12912500Y-20182214D01*
X12883928Y-20167929D01*
X12869643Y-20153643D01*
X12855357Y-20125072D01*
X12841071Y-20067929D01*
X12841071Y-19996500D01*
X12855357Y-19939357D01*
X12869643Y-19910786D01*
X12883928Y-19896500D01*
X12912500Y-19882214D01*
X13141071Y-20153643D02*
X13155357Y-20167929D01*
X13141071Y-20182214D01*
X13126786Y-20167929D01*
X13141071Y-20153643D01*
X13141071Y-20182214D01*
X13341071Y-19882214D02*
X13369643Y-19882214D01*
X13398214Y-19896500D01*
X13412500Y-19910786D01*
X13426786Y-19939357D01*
X13441071Y-19996500D01*
X13441071Y-20067929D01*
X13426786Y-20125072D01*
X13412500Y-20153643D01*
X13398214Y-20167929D01*
X13369643Y-20182214D01*
X13341071Y-20182214D01*
X13312500Y-20167929D01*
X13298214Y-20153643D01*
X13283928Y-20125072D01*
X13269643Y-20067929D01*
X13269643Y-19996500D01*
X13283928Y-19939357D01*
X13298214Y-19910786D01*
X13312500Y-19896500D01*
X13341071Y-19882214D01*
X13541071Y-19882214D02*
X13726786Y-19882214D01*
X13626786Y-19996500D01*
X13669643Y-19996500D01*
X13698214Y-20010786D01*
X13712500Y-20025072D01*
X13726786Y-20053643D01*
X13726786Y-20125072D01*
X13712500Y-20153643D01*
X13698214Y-20167929D01*
X13669643Y-20182214D01*
X13583928Y-20182214D01*
X13555357Y-20167929D01*
X13541071Y-20153643D01*
X13826786Y-19882214D02*
X14026786Y-19882214D01*
X13898214Y-20182214D01*
X14126786Y-19882214D02*
X14126786Y-19939357D01*
X14241071Y-19882214D02*
X14241071Y-19939357D01*
X14683928Y-20296500D02*
X14669643Y-20282214D01*
X14641071Y-20239357D01*
X14626786Y-20210786D01*
X14612500Y-20167929D01*
X14598214Y-20096500D01*
X14598214Y-20039357D01*
X14612500Y-19967929D01*
X14626786Y-19925072D01*
X14641071Y-19896500D01*
X14669643Y-19853643D01*
X14683928Y-19839357D01*
X14926786Y-19982214D02*
X14926786Y-20182214D01*
X14855357Y-19867929D02*
X14783928Y-20082214D01*
X14969643Y-20082214D01*
X15312500Y-20182214D02*
X15312500Y-19882214D01*
X15441071Y-20182214D02*
X15441071Y-20025072D01*
X15426786Y-19996500D01*
X15398214Y-19982214D01*
X15355357Y-19982214D01*
X15326786Y-19996500D01*
X15312500Y-20010786D01*
X15626786Y-20182214D02*
X15598214Y-20167929D01*
X15583928Y-20153643D01*
X15569643Y-20125072D01*
X15569643Y-20039357D01*
X15583928Y-20010786D01*
X15598214Y-19996500D01*
X15626786Y-19982214D01*
X15669643Y-19982214D01*
X15698214Y-19996500D01*
X15712500Y-20010786D01*
X15726786Y-20039357D01*
X15726786Y-20125072D01*
X15712500Y-20153643D01*
X15698214Y-20167929D01*
X15669643Y-20182214D01*
X15626786Y-20182214D01*
X15898214Y-20182214D02*
X15869643Y-20167929D01*
X15855357Y-20139357D01*
X15855357Y-19882214D01*
X16126786Y-20167929D02*
X16098214Y-20182214D01*
X16041071Y-20182214D01*
X16012500Y-20167929D01*
X15998214Y-20139357D01*
X15998214Y-20025072D01*
X16012500Y-19996500D01*
X16041071Y-19982214D01*
X16098214Y-19982214D01*
X16126786Y-19996500D01*
X16141071Y-20025072D01*
X16141071Y-20053643D01*
X15998214Y-20082214D01*
X16255357Y-20167929D02*
X16283928Y-20182214D01*
X16341071Y-20182214D01*
X16369643Y-20167929D01*
X16383928Y-20139357D01*
X16383928Y-20125072D01*
X16369643Y-20096500D01*
X16341071Y-20082214D01*
X16298214Y-20082214D01*
X16269643Y-20067929D01*
X16255357Y-20039357D01*
X16255357Y-20025072D01*
X16269643Y-19996500D01*
X16298214Y-19982214D01*
X16341071Y-19982214D01*
X16369643Y-19996500D01*
X16483928Y-20296500D02*
X16498214Y-20282214D01*
X16526786Y-20239357D01*
X16541071Y-20210786D01*
X16555357Y-20167929D01*
X16569643Y-20096500D01*
X16569643Y-20039357D01*
X16555357Y-19967929D01*
X16541071Y-19925072D01*
X16526786Y-19896500D01*
X16498214Y-19853643D01*
X16483928Y-19839357D01*
X9897500Y-20392500D02*
X9997500Y-20492500D01*
X9997500Y-20392500D02*
X9897500Y-20492500D01*
X9997500Y-20442500D02*
G75*
G03X9997500Y-20442500I-50000J0D01*
G01*
X10441071Y-20578214D02*
X10269643Y-20578214D01*
X10355357Y-20578214D02*
X10355357Y-20278214D01*
X10326786Y-20321072D01*
X10298214Y-20349643D01*
X10269643Y-20363929D01*
X10569643Y-20549643D02*
X10583928Y-20563929D01*
X10569643Y-20578214D01*
X10555357Y-20563929D01*
X10569643Y-20549643D01*
X10569643Y-20578214D01*
X10769643Y-20278214D02*
X10798214Y-20278214D01*
X10826786Y-20292500D01*
X10841071Y-20306786D01*
X10855357Y-20335357D01*
X10869643Y-20392500D01*
X10869643Y-20463929D01*
X10855357Y-20521072D01*
X10841071Y-20549643D01*
X10826786Y-20563929D01*
X10798214Y-20578214D01*
X10769643Y-20578214D01*
X10741071Y-20563929D01*
X10726786Y-20549643D01*
X10712500Y-20521072D01*
X10698214Y-20463929D01*
X10698214Y-20392500D01*
X10712500Y-20335357D01*
X10726786Y-20306786D01*
X10741071Y-20292500D01*
X10769643Y-20278214D01*
X11055357Y-20278214D02*
X11083928Y-20278214D01*
X11112500Y-20292500D01*
X11126786Y-20306786D01*
X11141071Y-20335357D01*
X11155357Y-20392500D01*
X11155357Y-20463929D01*
X11141071Y-20521072D01*
X11126786Y-20549643D01*
X11112500Y-20563929D01*
X11083928Y-20578214D01*
X11055357Y-20578214D01*
X11026786Y-20563929D01*
X11012500Y-20549643D01*
X10998214Y-20521072D01*
X10983928Y-20463929D01*
X10983928Y-20392500D01*
X10998214Y-20335357D01*
X11012500Y-20306786D01*
X11026786Y-20292500D01*
X11055357Y-20278214D01*
X11283928Y-20578214D02*
X11283928Y-20378214D01*
X11283928Y-20406786D02*
X11298214Y-20392500D01*
X11326786Y-20378214D01*
X11369643Y-20378214D01*
X11398214Y-20392500D01*
X11412500Y-20421072D01*
X11412500Y-20578214D01*
X11412500Y-20421072D02*
X11426786Y-20392500D01*
X11455357Y-20378214D01*
X11498214Y-20378214D01*
X11526786Y-20392500D01*
X11541071Y-20421072D01*
X11541071Y-20578214D01*
X11683928Y-20578214D02*
X11683928Y-20378214D01*
X11683928Y-20406786D02*
X11698214Y-20392500D01*
X11726786Y-20378214D01*
X11769643Y-20378214D01*
X11798214Y-20392500D01*
X11812500Y-20421072D01*
X11812500Y-20578214D01*
X11812500Y-20421072D02*
X11826786Y-20392500D01*
X11855357Y-20378214D01*
X11898214Y-20378214D01*
X11926786Y-20392500D01*
X11941071Y-20421072D01*
X11941071Y-20578214D01*
X12526786Y-20263929D02*
X12269643Y-20649643D01*
X12912500Y-20278214D02*
X12941071Y-20278214D01*
X12969643Y-20292500D01*
X12983928Y-20306786D01*
X12998214Y-20335357D01*
X13012500Y-20392500D01*
X13012500Y-20463929D01*
X12998214Y-20521072D01*
X12983928Y-20549643D01*
X12969643Y-20563929D01*
X12941071Y-20578214D01*
X12912500Y-20578214D01*
X12883928Y-20563929D01*
X12869643Y-20549643D01*
X12855357Y-20521072D01*
X12841071Y-20463929D01*
X12841071Y-20392500D01*
X12855357Y-20335357D01*
X12869643Y-20306786D01*
X12883928Y-20292500D01*
X12912500Y-20278214D01*
X13141071Y-20549643D02*
X13155357Y-20563929D01*
X13141071Y-20578214D01*
X13126786Y-20563929D01*
X13141071Y-20549643D01*
X13141071Y-20578214D01*
X13341071Y-20278214D02*
X13369643Y-20278214D01*
X13398214Y-20292500D01*
X13412500Y-20306786D01*
X13426786Y-20335357D01*
X13441071Y-20392500D01*
X13441071Y-20463929D01*
X13426786Y-20521072D01*
X13412500Y-20549643D01*
X13398214Y-20563929D01*
X13369643Y-20578214D01*
X13341071Y-20578214D01*
X13312500Y-20563929D01*
X13298214Y-20549643D01*
X13283928Y-20521072D01*
X13269643Y-20463929D01*
X13269643Y-20392500D01*
X13283928Y-20335357D01*
X13298214Y-20306786D01*
X13312500Y-20292500D01*
X13341071Y-20278214D01*
X13541071Y-20278214D02*
X13726786Y-20278214D01*
X13626786Y-20392500D01*
X13669643Y-20392500D01*
X13698214Y-20406786D01*
X13712500Y-20421072D01*
X13726786Y-20449643D01*
X13726786Y-20521072D01*
X13712500Y-20549643D01*
X13698214Y-20563929D01*
X13669643Y-20578214D01*
X13583928Y-20578214D01*
X13555357Y-20563929D01*
X13541071Y-20549643D01*
X13869643Y-20578214D02*
X13926786Y-20578214D01*
X13955357Y-20563929D01*
X13969643Y-20549643D01*
X13998214Y-20506786D01*
X14012500Y-20449643D01*
X14012500Y-20335357D01*
X13998214Y-20306786D01*
X13983928Y-20292500D01*
X13955357Y-20278214D01*
X13898214Y-20278214D01*
X13869643Y-20292500D01*
X13855357Y-20306786D01*
X13841071Y-20335357D01*
X13841071Y-20406786D01*
X13855357Y-20435357D01*
X13869643Y-20449643D01*
X13898214Y-20463929D01*
X13955357Y-20463929D01*
X13983928Y-20449643D01*
X13998214Y-20435357D01*
X14012500Y-20406786D01*
X14126786Y-20278214D02*
X14126786Y-20335357D01*
X14241071Y-20278214D02*
X14241071Y-20335357D01*
X14683928Y-20692500D02*
X14669643Y-20678214D01*
X14641071Y-20635357D01*
X14626786Y-20606786D01*
X14612500Y-20563929D01*
X14598214Y-20492500D01*
X14598214Y-20435357D01*
X14612500Y-20363929D01*
X14626786Y-20321072D01*
X14641071Y-20292500D01*
X14669643Y-20249643D01*
X14683928Y-20235357D01*
X14926786Y-20278214D02*
X14869643Y-20278214D01*
X14841071Y-20292500D01*
X14826786Y-20306786D01*
X14798214Y-20349643D01*
X14783928Y-20406786D01*
X14783928Y-20521072D01*
X14798214Y-20549643D01*
X14812500Y-20563929D01*
X14841071Y-20578214D01*
X14898214Y-20578214D01*
X14926786Y-20563929D01*
X14941071Y-20549643D01*
X14955357Y-20521072D01*
X14955357Y-20449643D01*
X14941071Y-20421072D01*
X14926786Y-20406786D01*
X14898214Y-20392500D01*
X14841071Y-20392500D01*
X14812500Y-20406786D01*
X14798214Y-20421072D01*
X14783928Y-20449643D01*
X15312500Y-20578214D02*
X15312500Y-20278214D01*
X15441071Y-20578214D02*
X15441071Y-20421072D01*
X15426786Y-20392500D01*
X15398214Y-20378214D01*
X15355357Y-20378214D01*
X15326786Y-20392500D01*
X15312500Y-20406786D01*
X15626786Y-20578214D02*
X15598214Y-20563929D01*
X15583928Y-20549643D01*
X15569643Y-20521072D01*
X15569643Y-20435357D01*
X15583928Y-20406786D01*
X15598214Y-20392500D01*
X15626786Y-20378214D01*
X15669643Y-20378214D01*
X15698214Y-20392500D01*
X15712500Y-20406786D01*
X15726786Y-20435357D01*
X15726786Y-20521072D01*
X15712500Y-20549643D01*
X15698214Y-20563929D01*
X15669643Y-20578214D01*
X15626786Y-20578214D01*
X15898214Y-20578214D02*
X15869643Y-20563929D01*
X15855357Y-20535357D01*
X15855357Y-20278214D01*
X16126786Y-20563929D02*
X16098214Y-20578214D01*
X16041071Y-20578214D01*
X16012500Y-20563929D01*
X15998214Y-20535357D01*
X15998214Y-20421072D01*
X16012500Y-20392500D01*
X16041071Y-20378214D01*
X16098214Y-20378214D01*
X16126786Y-20392500D01*
X16141071Y-20421072D01*
X16141071Y-20449643D01*
X15998214Y-20478214D01*
X16255357Y-20563929D02*
X16283928Y-20578214D01*
X16341071Y-20578214D01*
X16369643Y-20563929D01*
X16383928Y-20535357D01*
X16383928Y-20521072D01*
X16369643Y-20492500D01*
X16341071Y-20478214D01*
X16298214Y-20478214D01*
X16269643Y-20463929D01*
X16255357Y-20435357D01*
X16255357Y-20421072D01*
X16269643Y-20392500D01*
X16298214Y-20378214D01*
X16341071Y-20378214D01*
X16369643Y-20392500D01*
X16483928Y-20692500D02*
X16498214Y-20678214D01*
X16526786Y-20635357D01*
X16541071Y-20606786D01*
X16555357Y-20563929D01*
X16569643Y-20492500D01*
X16569643Y-20435357D01*
X16555357Y-20363929D01*
X16541071Y-20321072D01*
X16526786Y-20292500D01*
X16498214Y-20249643D01*
X16483928Y-20235357D01*
X9877612Y-20778556D02*
X9997500Y-20898444D01*
X9997500Y-20778556D02*
X9877612Y-20898444D01*
X9937556Y-20778556D02*
X9937556Y-20898444D01*
X9877612Y-20838500D02*
X9997500Y-20838500D01*
X10441071Y-20974214D02*
X10269643Y-20974214D01*
X10355357Y-20974214D02*
X10355357Y-20674214D01*
X10326786Y-20717072D01*
X10298214Y-20745643D01*
X10269643Y-20759929D01*
X10569643Y-20945643D02*
X10583928Y-20959929D01*
X10569643Y-20974214D01*
X10555357Y-20959929D01*
X10569643Y-20945643D01*
X10569643Y-20974214D01*
X10698214Y-20702786D02*
X10712500Y-20688500D01*
X10741071Y-20674214D01*
X10812500Y-20674214D01*
X10841071Y-20688500D01*
X10855357Y-20702786D01*
X10869643Y-20731357D01*
X10869643Y-20759929D01*
X10855357Y-20802786D01*
X10683928Y-20974214D01*
X10869643Y-20974214D01*
X11055357Y-20674214D02*
X11083928Y-20674214D01*
X11112500Y-20688500D01*
X11126786Y-20702786D01*
X11141071Y-20731357D01*
X11155357Y-20788500D01*
X11155357Y-20859929D01*
X11141071Y-20917072D01*
X11126786Y-20945643D01*
X11112500Y-20959929D01*
X11083928Y-20974214D01*
X11055357Y-20974214D01*
X11026786Y-20959929D01*
X11012500Y-20945643D01*
X10998214Y-20917072D01*
X10983928Y-20859929D01*
X10983928Y-20788500D01*
X10998214Y-20731357D01*
X11012500Y-20702786D01*
X11026786Y-20688500D01*
X11055357Y-20674214D01*
X11283928Y-20974214D02*
X11283928Y-20774214D01*
X11283928Y-20802786D02*
X11298214Y-20788500D01*
X11326786Y-20774214D01*
X11369643Y-20774214D01*
X11398214Y-20788500D01*
X11412500Y-20817072D01*
X11412500Y-20974214D01*
X11412500Y-20817072D02*
X11426786Y-20788500D01*
X11455357Y-20774214D01*
X11498214Y-20774214D01*
X11526786Y-20788500D01*
X11541071Y-20817072D01*
X11541071Y-20974214D01*
X11683928Y-20974214D02*
X11683928Y-20774214D01*
X11683928Y-20802786D02*
X11698214Y-20788500D01*
X11726786Y-20774214D01*
X11769643Y-20774214D01*
X11798214Y-20788500D01*
X11812500Y-20817072D01*
X11812500Y-20974214D01*
X11812500Y-20817072D02*
X11826786Y-20788500D01*
X11855357Y-20774214D01*
X11898214Y-20774214D01*
X11926786Y-20788500D01*
X11941071Y-20817072D01*
X11941071Y-20974214D01*
X12526786Y-20659929D02*
X12269643Y-21045643D01*
X12912500Y-20674214D02*
X12941071Y-20674214D01*
X12969643Y-20688500D01*
X12983928Y-20702786D01*
X12998214Y-20731357D01*
X13012500Y-20788500D01*
X13012500Y-20859929D01*
X12998214Y-20917072D01*
X12983928Y-20945643D01*
X12969643Y-20959929D01*
X12941071Y-20974214D01*
X12912500Y-20974214D01*
X12883928Y-20959929D01*
X12869643Y-20945643D01*
X12855357Y-20917072D01*
X12841071Y-20859929D01*
X12841071Y-20788500D01*
X12855357Y-20731357D01*
X12869643Y-20702786D01*
X12883928Y-20688500D01*
X12912500Y-20674214D01*
X13141071Y-20945643D02*
X13155357Y-20959929D01*
X13141071Y-20974214D01*
X13126786Y-20959929D01*
X13141071Y-20945643D01*
X13141071Y-20974214D01*
X13341071Y-20674214D02*
X13369643Y-20674214D01*
X13398214Y-20688500D01*
X13412500Y-20702786D01*
X13426786Y-20731357D01*
X13441071Y-20788500D01*
X13441071Y-20859929D01*
X13426786Y-20917072D01*
X13412500Y-20945643D01*
X13398214Y-20959929D01*
X13369643Y-20974214D01*
X13341071Y-20974214D01*
X13312500Y-20959929D01*
X13298214Y-20945643D01*
X13283928Y-20917072D01*
X13269643Y-20859929D01*
X13269643Y-20788500D01*
X13283928Y-20731357D01*
X13298214Y-20702786D01*
X13312500Y-20688500D01*
X13341071Y-20674214D01*
X13698214Y-20774214D02*
X13698214Y-20974214D01*
X13626786Y-20659929D02*
X13555357Y-20874214D01*
X13741071Y-20874214D01*
X13826786Y-20674214D02*
X14026786Y-20674214D01*
X13898214Y-20974214D01*
X14126786Y-20674214D02*
X14126786Y-20731357D01*
X14241071Y-20674214D02*
X14241071Y-20731357D01*
X14683928Y-21088500D02*
X14669643Y-21074214D01*
X14641071Y-21031357D01*
X14626786Y-21002786D01*
X14612500Y-20959929D01*
X14598214Y-20888500D01*
X14598214Y-20831357D01*
X14612500Y-20759929D01*
X14626786Y-20717072D01*
X14641071Y-20688500D01*
X14669643Y-20645643D01*
X14683928Y-20631357D01*
X14926786Y-20774214D02*
X14926786Y-20974214D01*
X14855357Y-20659929D02*
X14783928Y-20874214D01*
X14969643Y-20874214D01*
X15312500Y-20974214D02*
X15312500Y-20674214D01*
X15441071Y-20974214D02*
X15441071Y-20817072D01*
X15426786Y-20788500D01*
X15398214Y-20774214D01*
X15355357Y-20774214D01*
X15326786Y-20788500D01*
X15312500Y-20802786D01*
X15626786Y-20974214D02*
X15598214Y-20959929D01*
X15583928Y-20945643D01*
X15569643Y-20917072D01*
X15569643Y-20831357D01*
X15583928Y-20802786D01*
X15598214Y-20788500D01*
X15626786Y-20774214D01*
X15669643Y-20774214D01*
X15698214Y-20788500D01*
X15712500Y-20802786D01*
X15726786Y-20831357D01*
X15726786Y-20917072D01*
X15712500Y-20945643D01*
X15698214Y-20959929D01*
X15669643Y-20974214D01*
X15626786Y-20974214D01*
X15898214Y-20974214D02*
X15869643Y-20959929D01*
X15855357Y-20931357D01*
X15855357Y-20674214D01*
X16126786Y-20959929D02*
X16098214Y-20974214D01*
X16041071Y-20974214D01*
X16012500Y-20959929D01*
X15998214Y-20931357D01*
X15998214Y-20817072D01*
X16012500Y-20788500D01*
X16041071Y-20774214D01*
X16098214Y-20774214D01*
X16126786Y-20788500D01*
X16141071Y-20817072D01*
X16141071Y-20845643D01*
X15998214Y-20874214D01*
X16255357Y-20959929D02*
X16283928Y-20974214D01*
X16341071Y-20974214D01*
X16369643Y-20959929D01*
X16383928Y-20931357D01*
X16383928Y-20917072D01*
X16369643Y-20888500D01*
X16341071Y-20874214D01*
X16298214Y-20874214D01*
X16269643Y-20859929D01*
X16255357Y-20831357D01*
X16255357Y-20817072D01*
X16269643Y-20788500D01*
X16298214Y-20774214D01*
X16341071Y-20774214D01*
X16369643Y-20788500D01*
X16483928Y-21088500D02*
X16498214Y-21074214D01*
X16526786Y-21031357D01*
X16541071Y-21002786D01*
X16555357Y-20959929D01*
X16569643Y-20888500D01*
X16569643Y-20831357D01*
X16555357Y-20759929D01*
X16541071Y-20717072D01*
X16526786Y-20688500D01*
X16498214Y-20645643D01*
X16483928Y-20631357D01*
X9877500Y-21174500D02*
X9997500Y-21294500D01*
X9997500Y-21174500D02*
X9877500Y-21294500D01*
X9979927Y-21276927D02*
X9979927Y-21192073D01*
X9895073Y-21192073D01*
X9895073Y-21276927D01*
X9979927Y-21276927D01*
X10441071Y-21370214D02*
X10269643Y-21370214D01*
X10355357Y-21370214D02*
X10355357Y-21070214D01*
X10326786Y-21113072D01*
X10298214Y-21141643D01*
X10269643Y-21155929D01*
X10569643Y-21341643D02*
X10583928Y-21355929D01*
X10569643Y-21370214D01*
X10555357Y-21355929D01*
X10569643Y-21341643D01*
X10569643Y-21370214D01*
X10698214Y-21098786D02*
X10712500Y-21084500D01*
X10741071Y-21070214D01*
X10812500Y-21070214D01*
X10841071Y-21084500D01*
X10855357Y-21098786D01*
X10869643Y-21127357D01*
X10869643Y-21155929D01*
X10855357Y-21198786D01*
X10683928Y-21370214D01*
X10869643Y-21370214D01*
X11055357Y-21070214D02*
X11083928Y-21070214D01*
X11112500Y-21084500D01*
X11126786Y-21098786D01*
X11141071Y-21127357D01*
X11155357Y-21184500D01*
X11155357Y-21255929D01*
X11141071Y-21313072D01*
X11126786Y-21341643D01*
X11112500Y-21355929D01*
X11083928Y-21370214D01*
X11055357Y-21370214D01*
X11026786Y-21355929D01*
X11012500Y-21341643D01*
X10998214Y-21313072D01*
X10983928Y-21255929D01*
X10983928Y-21184500D01*
X10998214Y-21127357D01*
X11012500Y-21098786D01*
X11026786Y-21084500D01*
X11055357Y-21070214D01*
X11283928Y-21370214D02*
X11283928Y-21170214D01*
X11283928Y-21198786D02*
X11298214Y-21184500D01*
X11326786Y-21170214D01*
X11369643Y-21170214D01*
X11398214Y-21184500D01*
X11412500Y-21213072D01*
X11412500Y-21370214D01*
X11412500Y-21213072D02*
X11426786Y-21184500D01*
X11455357Y-21170214D01*
X11498214Y-21170214D01*
X11526786Y-21184500D01*
X11541071Y-21213072D01*
X11541071Y-21370214D01*
X11683928Y-21370214D02*
X11683928Y-21170214D01*
X11683928Y-21198786D02*
X11698214Y-21184500D01*
X11726786Y-21170214D01*
X11769643Y-21170214D01*
X11798214Y-21184500D01*
X11812500Y-21213072D01*
X11812500Y-21370214D01*
X11812500Y-21213072D02*
X11826786Y-21184500D01*
X11855357Y-21170214D01*
X11898214Y-21170214D01*
X11926786Y-21184500D01*
X11941071Y-21213072D01*
X11941071Y-21370214D01*
X12526786Y-21055929D02*
X12269643Y-21441643D01*
X12912500Y-21070214D02*
X12941071Y-21070214D01*
X12969643Y-21084500D01*
X12983928Y-21098786D01*
X12998214Y-21127357D01*
X13012500Y-21184500D01*
X13012500Y-21255929D01*
X12998214Y-21313072D01*
X12983928Y-21341643D01*
X12969643Y-21355929D01*
X12941071Y-21370214D01*
X12912500Y-21370214D01*
X12883928Y-21355929D01*
X12869643Y-21341643D01*
X12855357Y-21313072D01*
X12841071Y-21255929D01*
X12841071Y-21184500D01*
X12855357Y-21127357D01*
X12869643Y-21098786D01*
X12883928Y-21084500D01*
X12912500Y-21070214D01*
X13141071Y-21341643D02*
X13155357Y-21355929D01*
X13141071Y-21370214D01*
X13126786Y-21355929D01*
X13141071Y-21341643D01*
X13141071Y-21370214D01*
X13341071Y-21070214D02*
X13369643Y-21070214D01*
X13398214Y-21084500D01*
X13412500Y-21098786D01*
X13426786Y-21127357D01*
X13441071Y-21184500D01*
X13441071Y-21255929D01*
X13426786Y-21313072D01*
X13412500Y-21341643D01*
X13398214Y-21355929D01*
X13369643Y-21370214D01*
X13341071Y-21370214D01*
X13312500Y-21355929D01*
X13298214Y-21341643D01*
X13283928Y-21313072D01*
X13269643Y-21255929D01*
X13269643Y-21184500D01*
X13283928Y-21127357D01*
X13298214Y-21098786D01*
X13312500Y-21084500D01*
X13341071Y-21070214D01*
X13698214Y-21170214D02*
X13698214Y-21370214D01*
X13626786Y-21055929D02*
X13555357Y-21270214D01*
X13741071Y-21270214D01*
X13826786Y-21070214D02*
X14026786Y-21070214D01*
X13898214Y-21370214D01*
X14126786Y-21070214D02*
X14126786Y-21127357D01*
X14241071Y-21070214D02*
X14241071Y-21127357D01*
X14683928Y-21484500D02*
X14669643Y-21470214D01*
X14641071Y-21427357D01*
X14626786Y-21398786D01*
X14612500Y-21355929D01*
X14598214Y-21284500D01*
X14598214Y-21227357D01*
X14612500Y-21155929D01*
X14626786Y-21113072D01*
X14641071Y-21084500D01*
X14669643Y-21041643D01*
X14683928Y-21027357D01*
X14783928Y-21098786D02*
X14798214Y-21084500D01*
X14826786Y-21070214D01*
X14898214Y-21070214D01*
X14926786Y-21084500D01*
X14941071Y-21098786D01*
X14955357Y-21127357D01*
X14955357Y-21155929D01*
X14941071Y-21198786D01*
X14769643Y-21370214D01*
X14955357Y-21370214D01*
X15312500Y-21370214D02*
X15312500Y-21070214D01*
X15441071Y-21370214D02*
X15441071Y-21213072D01*
X15426786Y-21184500D01*
X15398214Y-21170214D01*
X15355357Y-21170214D01*
X15326786Y-21184500D01*
X15312500Y-21198786D01*
X15626786Y-21370214D02*
X15598214Y-21355929D01*
X15583928Y-21341643D01*
X15569643Y-21313072D01*
X15569643Y-21227357D01*
X15583928Y-21198786D01*
X15598214Y-21184500D01*
X15626786Y-21170214D01*
X15669643Y-21170214D01*
X15698214Y-21184500D01*
X15712500Y-21198786D01*
X15726786Y-21227357D01*
X15726786Y-21313072D01*
X15712500Y-21341643D01*
X15698214Y-21355929D01*
X15669643Y-21370214D01*
X15626786Y-21370214D01*
X15898214Y-21370214D02*
X15869643Y-21355929D01*
X15855357Y-21327357D01*
X15855357Y-21070214D01*
X16126786Y-21355929D02*
X16098214Y-21370214D01*
X16041071Y-21370214D01*
X16012500Y-21355929D01*
X15998214Y-21327357D01*
X15998214Y-21213072D01*
X16012500Y-21184500D01*
X16041071Y-21170214D01*
X16098214Y-21170214D01*
X16126786Y-21184500D01*
X16141071Y-21213072D01*
X16141071Y-21241643D01*
X15998214Y-21270214D01*
X16255357Y-21355929D02*
X16283928Y-21370214D01*
X16341071Y-21370214D01*
X16369643Y-21355929D01*
X16383928Y-21327357D01*
X16383928Y-21313072D01*
X16369643Y-21284500D01*
X16341071Y-21270214D01*
X16298214Y-21270214D01*
X16269643Y-21255929D01*
X16255357Y-21227357D01*
X16255357Y-21213072D01*
X16269643Y-21184500D01*
X16298214Y-21170214D01*
X16341071Y-21170214D01*
X16369643Y-21184500D01*
X16483928Y-21484500D02*
X16498214Y-21470214D01*
X16526786Y-21427357D01*
X16541071Y-21398786D01*
X16555357Y-21355929D01*
X16569643Y-21284500D01*
X16569643Y-21227357D01*
X16555357Y-21155929D01*
X16541071Y-21113072D01*
X16526786Y-21084500D01*
X16498214Y-21041643D01*
X16483928Y-21027357D01*
X9872500Y-21568000D02*
X9997500Y-21693000D01*
X9997500Y-21568000D02*
X9872500Y-21693000D01*
X9935000Y-21693000D02*
X9997500Y-21630500D01*
X9935000Y-21568000D01*
X9872500Y-21630500D01*
X9935000Y-21693000D01*
X10441071Y-21766214D02*
X10269643Y-21766214D01*
X10355357Y-21766214D02*
X10355357Y-21466214D01*
X10326786Y-21509072D01*
X10298214Y-21537643D01*
X10269643Y-21551929D01*
X10569643Y-21737643D02*
X10583928Y-21751929D01*
X10569643Y-21766214D01*
X10555357Y-21751929D01*
X10569643Y-21737643D01*
X10569643Y-21766214D01*
X10698214Y-21494786D02*
X10712500Y-21480500D01*
X10741071Y-21466214D01*
X10812500Y-21466214D01*
X10841071Y-21480500D01*
X10855357Y-21494786D01*
X10869643Y-21523357D01*
X10869643Y-21551929D01*
X10855357Y-21594786D01*
X10683928Y-21766214D01*
X10869643Y-21766214D01*
X11141071Y-21466214D02*
X10998214Y-21466214D01*
X10983928Y-21609072D01*
X10998214Y-21594786D01*
X11026786Y-21580500D01*
X11098214Y-21580500D01*
X11126786Y-21594786D01*
X11141071Y-21609072D01*
X11155357Y-21637643D01*
X11155357Y-21709072D01*
X11141071Y-21737643D01*
X11126786Y-21751929D01*
X11098214Y-21766214D01*
X11026786Y-21766214D01*
X10998214Y-21751929D01*
X10983928Y-21737643D01*
X11283928Y-21766214D02*
X11283928Y-21566214D01*
X11283928Y-21594786D02*
X11298214Y-21580500D01*
X11326786Y-21566214D01*
X11369643Y-21566214D01*
X11398214Y-21580500D01*
X11412500Y-21609072D01*
X11412500Y-21766214D01*
X11412500Y-21609072D02*
X11426786Y-21580500D01*
X11455357Y-21566214D01*
X11498214Y-21566214D01*
X11526786Y-21580500D01*
X11541071Y-21609072D01*
X11541071Y-21766214D01*
X11683928Y-21766214D02*
X11683928Y-21566214D01*
X11683928Y-21594786D02*
X11698214Y-21580500D01*
X11726786Y-21566214D01*
X11769643Y-21566214D01*
X11798214Y-21580500D01*
X11812500Y-21609072D01*
X11812500Y-21766214D01*
X11812500Y-21609072D02*
X11826786Y-21580500D01*
X11855357Y-21566214D01*
X11898214Y-21566214D01*
X11926786Y-21580500D01*
X11941071Y-21609072D01*
X11941071Y-21766214D01*
X12526786Y-21451929D02*
X12269643Y-21837643D01*
X12912500Y-21466214D02*
X12941071Y-21466214D01*
X12969643Y-21480500D01*
X12983928Y-21494786D01*
X12998214Y-21523357D01*
X13012500Y-21580500D01*
X13012500Y-21651929D01*
X12998214Y-21709072D01*
X12983928Y-21737643D01*
X12969643Y-21751929D01*
X12941071Y-21766214D01*
X12912500Y-21766214D01*
X12883928Y-21751929D01*
X12869643Y-21737643D01*
X12855357Y-21709072D01*
X12841071Y-21651929D01*
X12841071Y-21580500D01*
X12855357Y-21523357D01*
X12869643Y-21494786D01*
X12883928Y-21480500D01*
X12912500Y-21466214D01*
X13141071Y-21737643D02*
X13155357Y-21751929D01*
X13141071Y-21766214D01*
X13126786Y-21751929D01*
X13141071Y-21737643D01*
X13141071Y-21766214D01*
X13341071Y-21466214D02*
X13369643Y-21466214D01*
X13398214Y-21480500D01*
X13412500Y-21494786D01*
X13426786Y-21523357D01*
X13441071Y-21580500D01*
X13441071Y-21651929D01*
X13426786Y-21709072D01*
X13412500Y-21737643D01*
X13398214Y-21751929D01*
X13369643Y-21766214D01*
X13341071Y-21766214D01*
X13312500Y-21751929D01*
X13298214Y-21737643D01*
X13283928Y-21709072D01*
X13269643Y-21651929D01*
X13269643Y-21580500D01*
X13283928Y-21523357D01*
X13298214Y-21494786D01*
X13312500Y-21480500D01*
X13341071Y-21466214D01*
X13698214Y-21566214D02*
X13698214Y-21766214D01*
X13626786Y-21451929D02*
X13555357Y-21666214D01*
X13741071Y-21666214D01*
X13869643Y-21766214D02*
X13926786Y-21766214D01*
X13955357Y-21751929D01*
X13969643Y-21737643D01*
X13998214Y-21694786D01*
X14012500Y-21637643D01*
X14012500Y-21523357D01*
X13998214Y-21494786D01*
X13983928Y-21480500D01*
X13955357Y-21466214D01*
X13898214Y-21466214D01*
X13869643Y-21480500D01*
X13855357Y-21494786D01*
X13841071Y-21523357D01*
X13841071Y-21594786D01*
X13855357Y-21623357D01*
X13869643Y-21637643D01*
X13898214Y-21651929D01*
X13955357Y-21651929D01*
X13983928Y-21637643D01*
X13998214Y-21623357D01*
X14012500Y-21594786D01*
X14126786Y-21466214D02*
X14126786Y-21523357D01*
X14241071Y-21466214D02*
X14241071Y-21523357D01*
X14683928Y-21880500D02*
X14669643Y-21866214D01*
X14641071Y-21823357D01*
X14626786Y-21794786D01*
X14612500Y-21751929D01*
X14598214Y-21680500D01*
X14598214Y-21623357D01*
X14612500Y-21551929D01*
X14626786Y-21509072D01*
X14641071Y-21480500D01*
X14669643Y-21437643D01*
X14683928Y-21423357D01*
X14783928Y-21494786D02*
X14798214Y-21480500D01*
X14826786Y-21466214D01*
X14898214Y-21466214D01*
X14926786Y-21480500D01*
X14941071Y-21494786D01*
X14955357Y-21523357D01*
X14955357Y-21551929D01*
X14941071Y-21594786D01*
X14769643Y-21766214D01*
X14955357Y-21766214D01*
X15141071Y-21466214D02*
X15169643Y-21466214D01*
X15198214Y-21480500D01*
X15212500Y-21494786D01*
X15226786Y-21523357D01*
X15241071Y-21580500D01*
X15241071Y-21651929D01*
X15226786Y-21709072D01*
X15212500Y-21737643D01*
X15198214Y-21751929D01*
X15169643Y-21766214D01*
X15141071Y-21766214D01*
X15112500Y-21751929D01*
X15098214Y-21737643D01*
X15083928Y-21709072D01*
X15069643Y-21651929D01*
X15069643Y-21580500D01*
X15083928Y-21523357D01*
X15098214Y-21494786D01*
X15112500Y-21480500D01*
X15141071Y-21466214D01*
X15598214Y-21766214D02*
X15598214Y-21466214D01*
X15726786Y-21766214D02*
X15726786Y-21609072D01*
X15712500Y-21580500D01*
X15683928Y-21566214D01*
X15641071Y-21566214D01*
X15612500Y-21580500D01*
X15598214Y-21594786D01*
X15912500Y-21766214D02*
X15883928Y-21751929D01*
X15869643Y-21737643D01*
X15855357Y-21709072D01*
X15855357Y-21623357D01*
X15869643Y-21594786D01*
X15883928Y-21580500D01*
X15912500Y-21566214D01*
X15955357Y-21566214D01*
X15983928Y-21580500D01*
X15998214Y-21594786D01*
X16012500Y-21623357D01*
X16012500Y-21709072D01*
X15998214Y-21737643D01*
X15983928Y-21751929D01*
X15955357Y-21766214D01*
X15912500Y-21766214D01*
X16183928Y-21766214D02*
X16155357Y-21751929D01*
X16141071Y-21723357D01*
X16141071Y-21466214D01*
X16412500Y-21751929D02*
X16383928Y-21766214D01*
X16326786Y-21766214D01*
X16298214Y-21751929D01*
X16283928Y-21723357D01*
X16283928Y-21609072D01*
X16298214Y-21580500D01*
X16326786Y-21566214D01*
X16383928Y-21566214D01*
X16412500Y-21580500D01*
X16426786Y-21609072D01*
X16426786Y-21637643D01*
X16283928Y-21666214D01*
X16541071Y-21751929D02*
X16569643Y-21766214D01*
X16626786Y-21766214D01*
X16655357Y-21751929D01*
X16669643Y-21723357D01*
X16669643Y-21709072D01*
X16655357Y-21680500D01*
X16626786Y-21666214D01*
X16583928Y-21666214D01*
X16555357Y-21651929D01*
X16541071Y-21623357D01*
X16541071Y-21609072D01*
X16555357Y-21580500D01*
X16583928Y-21566214D01*
X16626786Y-21566214D01*
X16655357Y-21580500D01*
X16769643Y-21880500D02*
X16783928Y-21866214D01*
X16812500Y-21823357D01*
X16826786Y-21794786D01*
X16841071Y-21751929D01*
X16855357Y-21680500D01*
X16855357Y-21623357D01*
X16841071Y-21551929D01*
X16826786Y-21509072D01*
X16812500Y-21480500D01*
X16783928Y-21437643D01*
X16769643Y-21423357D01*
X9927500Y-21956500D02*
X9927500Y-22096500D01*
X9857500Y-22026500D02*
X9997500Y-22026500D01*
X9997500Y-22026500D02*
G75*
G03X9997500Y-22026500I-70000J0D01*
G01*
X10441071Y-22162214D02*
X10269643Y-22162214D01*
X10355357Y-22162214D02*
X10355357Y-21862214D01*
X10326786Y-21905072D01*
X10298214Y-21933643D01*
X10269643Y-21947929D01*
X10569643Y-22133643D02*
X10583928Y-22147929D01*
X10569643Y-22162214D01*
X10555357Y-22147929D01*
X10569643Y-22133643D01*
X10569643Y-22162214D01*
X10841071Y-21962214D02*
X10841071Y-22162214D01*
X10769643Y-21847929D02*
X10698214Y-22062214D01*
X10883928Y-22062214D01*
X11055357Y-21862214D02*
X11083928Y-21862214D01*
X11112500Y-21876500D01*
X11126786Y-21890786D01*
X11141071Y-21919357D01*
X11155357Y-21976500D01*
X11155357Y-22047929D01*
X11141071Y-22105072D01*
X11126786Y-22133643D01*
X11112500Y-22147929D01*
X11083928Y-22162214D01*
X11055357Y-22162214D01*
X11026786Y-22147929D01*
X11012500Y-22133643D01*
X10998214Y-22105072D01*
X10983928Y-22047929D01*
X10983928Y-21976500D01*
X10998214Y-21919357D01*
X11012500Y-21890786D01*
X11026786Y-21876500D01*
X11055357Y-21862214D01*
X11283928Y-22162214D02*
X11283928Y-21962214D01*
X11283928Y-21990786D02*
X11298214Y-21976500D01*
X11326786Y-21962214D01*
X11369643Y-21962214D01*
X11398214Y-21976500D01*
X11412500Y-22005072D01*
X11412500Y-22162214D01*
X11412500Y-22005072D02*
X11426786Y-21976500D01*
X11455357Y-21962214D01*
X11498214Y-21962214D01*
X11526786Y-21976500D01*
X11541071Y-22005072D01*
X11541071Y-22162214D01*
X11683928Y-22162214D02*
X11683928Y-21962214D01*
X11683928Y-21990786D02*
X11698214Y-21976500D01*
X11726786Y-21962214D01*
X11769643Y-21962214D01*
X11798214Y-21976500D01*
X11812500Y-22005072D01*
X11812500Y-22162214D01*
X11812500Y-22005072D02*
X11826786Y-21976500D01*
X11855357Y-21962214D01*
X11898214Y-21962214D01*
X11926786Y-21976500D01*
X11941071Y-22005072D01*
X11941071Y-22162214D01*
X12526786Y-21847929D02*
X12269643Y-22233643D01*
X12912500Y-21862214D02*
X12941071Y-21862214D01*
X12969643Y-21876500D01*
X12983928Y-21890786D01*
X12998214Y-21919357D01*
X13012500Y-21976500D01*
X13012500Y-22047929D01*
X12998214Y-22105072D01*
X12983928Y-22133643D01*
X12969643Y-22147929D01*
X12941071Y-22162214D01*
X12912500Y-22162214D01*
X12883928Y-22147929D01*
X12869643Y-22133643D01*
X12855357Y-22105072D01*
X12841071Y-22047929D01*
X12841071Y-21976500D01*
X12855357Y-21919357D01*
X12869643Y-21890786D01*
X12883928Y-21876500D01*
X12912500Y-21862214D01*
X13141071Y-22133643D02*
X13155357Y-22147929D01*
X13141071Y-22162214D01*
X13126786Y-22147929D01*
X13141071Y-22133643D01*
X13141071Y-22162214D01*
X13341071Y-21862214D02*
X13369643Y-21862214D01*
X13398214Y-21876500D01*
X13412500Y-21890786D01*
X13426786Y-21919357D01*
X13441071Y-21976500D01*
X13441071Y-22047929D01*
X13426786Y-22105072D01*
X13412500Y-22133643D01*
X13398214Y-22147929D01*
X13369643Y-22162214D01*
X13341071Y-22162214D01*
X13312500Y-22147929D01*
X13298214Y-22133643D01*
X13283928Y-22105072D01*
X13269643Y-22047929D01*
X13269643Y-21976500D01*
X13283928Y-21919357D01*
X13298214Y-21890786D01*
X13312500Y-21876500D01*
X13341071Y-21862214D01*
X13712500Y-21862214D02*
X13569643Y-21862214D01*
X13555357Y-22005072D01*
X13569643Y-21990786D01*
X13598214Y-21976500D01*
X13669643Y-21976500D01*
X13698214Y-21990786D01*
X13712500Y-22005072D01*
X13726786Y-22033643D01*
X13726786Y-22105072D01*
X13712500Y-22133643D01*
X13698214Y-22147929D01*
X13669643Y-22162214D01*
X13598214Y-22162214D01*
X13569643Y-22147929D01*
X13555357Y-22133643D01*
X13998214Y-21862214D02*
X13855357Y-21862214D01*
X13841071Y-22005072D01*
X13855357Y-21990786D01*
X13883928Y-21976500D01*
X13955357Y-21976500D01*
X13983928Y-21990786D01*
X13998214Y-22005072D01*
X14012500Y-22033643D01*
X14012500Y-22105072D01*
X13998214Y-22133643D01*
X13983928Y-22147929D01*
X13955357Y-22162214D01*
X13883928Y-22162214D01*
X13855357Y-22147929D01*
X13841071Y-22133643D01*
X14126786Y-21862214D02*
X14126786Y-21919357D01*
X14241071Y-21862214D02*
X14241071Y-21919357D01*
X14683928Y-22276500D02*
X14669643Y-22262214D01*
X14641071Y-22219357D01*
X14626786Y-22190786D01*
X14612500Y-22147929D01*
X14598214Y-22076500D01*
X14598214Y-22019357D01*
X14612500Y-21947929D01*
X14626786Y-21905072D01*
X14641071Y-21876500D01*
X14669643Y-21833643D01*
X14683928Y-21819357D01*
X14955357Y-22162214D02*
X14783928Y-22162214D01*
X14869643Y-22162214D02*
X14869643Y-21862214D01*
X14841071Y-21905072D01*
X14812500Y-21933643D01*
X14783928Y-21947929D01*
X15141071Y-21862214D02*
X15169643Y-21862214D01*
X15198214Y-21876500D01*
X15212500Y-21890786D01*
X15226786Y-21919357D01*
X15241071Y-21976500D01*
X15241071Y-22047929D01*
X15226786Y-22105072D01*
X15212500Y-22133643D01*
X15198214Y-22147929D01*
X15169643Y-22162214D01*
X15141071Y-22162214D01*
X15112500Y-22147929D01*
X15098214Y-22133643D01*
X15083928Y-22105072D01*
X15069643Y-22047929D01*
X15069643Y-21976500D01*
X15083928Y-21919357D01*
X15098214Y-21890786D01*
X15112500Y-21876500D01*
X15141071Y-21862214D01*
X15598214Y-22162214D02*
X15598214Y-21862214D01*
X15726786Y-22162214D02*
X15726786Y-22005072D01*
X15712500Y-21976500D01*
X15683928Y-21962214D01*
X15641071Y-21962214D01*
X15612500Y-21976500D01*
X15598214Y-21990786D01*
X15912500Y-22162214D02*
X15883928Y-22147929D01*
X15869643Y-22133643D01*
X15855357Y-22105072D01*
X15855357Y-22019357D01*
X15869643Y-21990786D01*
X15883928Y-21976500D01*
X15912500Y-21962214D01*
X15955357Y-21962214D01*
X15983928Y-21976500D01*
X15998214Y-21990786D01*
X16012500Y-22019357D01*
X16012500Y-22105072D01*
X15998214Y-22133643D01*
X15983928Y-22147929D01*
X15955357Y-22162214D01*
X15912500Y-22162214D01*
X16183928Y-22162214D02*
X16155357Y-22147929D01*
X16141071Y-22119357D01*
X16141071Y-21862214D01*
X16412500Y-22147929D02*
X16383928Y-22162214D01*
X16326786Y-22162214D01*
X16298214Y-22147929D01*
X16283928Y-22119357D01*
X16283928Y-22005072D01*
X16298214Y-21976500D01*
X16326786Y-21962214D01*
X16383928Y-21962214D01*
X16412500Y-21976500D01*
X16426786Y-22005072D01*
X16426786Y-22033643D01*
X16283928Y-22062214D01*
X16541071Y-22147929D02*
X16569643Y-22162214D01*
X16626786Y-22162214D01*
X16655357Y-22147929D01*
X16669643Y-22119357D01*
X16669643Y-22105072D01*
X16655357Y-22076500D01*
X16626786Y-22062214D01*
X16583928Y-22062214D01*
X16555357Y-22047929D01*
X16541071Y-22019357D01*
X16541071Y-22005072D01*
X16555357Y-21976500D01*
X16583928Y-21962214D01*
X16626786Y-21962214D01*
X16655357Y-21976500D01*
X16769643Y-22276500D02*
X16783928Y-22262214D01*
X16812500Y-22219357D01*
X16826786Y-22190786D01*
X16841071Y-22147929D01*
X16855357Y-22076500D01*
X16855357Y-22019357D01*
X16841071Y-21947929D01*
X16826786Y-21905072D01*
X16812500Y-21876500D01*
X16783928Y-21833643D01*
X16769643Y-21819357D01*
X9987249Y-22447249D02*
X9987249Y-22397751D01*
X9937751Y-22397751D01*
X9937751Y-22447249D01*
X9987249Y-22447249D01*
X9997500Y-22422500D02*
G75*
G03X9997500Y-22422500I-35000J0D01*
G01*
X10341071Y-22258214D02*
X10369643Y-22258214D01*
X10398214Y-22272500D01*
X10412500Y-22286786D01*
X10426786Y-22315357D01*
X10441071Y-22372500D01*
X10441071Y-22443929D01*
X10426786Y-22501071D01*
X10412500Y-22529643D01*
X10398214Y-22543929D01*
X10369643Y-22558214D01*
X10341071Y-22558214D01*
X10312500Y-22543929D01*
X10298214Y-22529643D01*
X10283928Y-22501071D01*
X10269643Y-22443929D01*
X10269643Y-22372500D01*
X10283928Y-22315357D01*
X10298214Y-22286786D01*
X10312500Y-22272500D01*
X10341071Y-22258214D01*
X10569643Y-22529643D02*
X10583928Y-22543929D01*
X10569643Y-22558214D01*
X10555357Y-22543929D01*
X10569643Y-22529643D01*
X10569643Y-22558214D01*
X10683928Y-22258214D02*
X10883928Y-22258214D01*
X10755357Y-22558214D01*
X11055357Y-22258214D02*
X11083928Y-22258214D01*
X11112500Y-22272500D01*
X11126786Y-22286786D01*
X11141071Y-22315357D01*
X11155357Y-22372500D01*
X11155357Y-22443929D01*
X11141071Y-22501071D01*
X11126786Y-22529643D01*
X11112500Y-22543929D01*
X11083928Y-22558214D01*
X11055357Y-22558214D01*
X11026786Y-22543929D01*
X11012500Y-22529643D01*
X10998214Y-22501071D01*
X10983928Y-22443929D01*
X10983928Y-22372500D01*
X10998214Y-22315357D01*
X11012500Y-22286786D01*
X11026786Y-22272500D01*
X11055357Y-22258214D01*
X11283928Y-22558214D02*
X11283928Y-22358214D01*
X11283928Y-22386786D02*
X11298214Y-22372500D01*
X11326786Y-22358214D01*
X11369643Y-22358214D01*
X11398214Y-22372500D01*
X11412500Y-22401071D01*
X11412500Y-22558214D01*
X11412500Y-22401071D02*
X11426786Y-22372500D01*
X11455357Y-22358214D01*
X11498214Y-22358214D01*
X11526786Y-22372500D01*
X11541071Y-22401071D01*
X11541071Y-22558214D01*
X11683928Y-22558214D02*
X11683928Y-22358214D01*
X11683928Y-22386786D02*
X11698214Y-22372500D01*
X11726786Y-22358214D01*
X11769643Y-22358214D01*
X11798214Y-22372500D01*
X11812500Y-22401071D01*
X11812500Y-22558214D01*
X11812500Y-22401071D02*
X11826786Y-22372500D01*
X11855357Y-22358214D01*
X11898214Y-22358214D01*
X11926786Y-22372500D01*
X11941071Y-22401071D01*
X11941071Y-22558214D01*
X12526786Y-22243929D02*
X12269643Y-22629643D01*
X12912500Y-22258214D02*
X12941071Y-22258214D01*
X12969643Y-22272500D01*
X12983928Y-22286786D01*
X12998214Y-22315357D01*
X13012500Y-22372500D01*
X13012500Y-22443929D01*
X12998214Y-22501071D01*
X12983928Y-22529643D01*
X12969643Y-22543929D01*
X12941071Y-22558214D01*
X12912500Y-22558214D01*
X12883928Y-22543929D01*
X12869643Y-22529643D01*
X12855357Y-22501071D01*
X12841071Y-22443929D01*
X12841071Y-22372500D01*
X12855357Y-22315357D01*
X12869643Y-22286786D01*
X12883928Y-22272500D01*
X12912500Y-22258214D01*
X13141071Y-22529643D02*
X13155357Y-22543929D01*
X13141071Y-22558214D01*
X13126786Y-22543929D01*
X13141071Y-22529643D01*
X13141071Y-22558214D01*
X13341071Y-22258214D02*
X13369643Y-22258214D01*
X13398214Y-22272500D01*
X13412500Y-22286786D01*
X13426786Y-22315357D01*
X13441071Y-22372500D01*
X13441071Y-22443929D01*
X13426786Y-22501071D01*
X13412500Y-22529643D01*
X13398214Y-22543929D01*
X13369643Y-22558214D01*
X13341071Y-22558214D01*
X13312500Y-22543929D01*
X13298214Y-22529643D01*
X13283928Y-22501071D01*
X13269643Y-22443929D01*
X13269643Y-22372500D01*
X13283928Y-22315357D01*
X13298214Y-22286786D01*
X13312500Y-22272500D01*
X13341071Y-22258214D01*
X13555357Y-22286786D02*
X13569643Y-22272500D01*
X13598214Y-22258214D01*
X13669643Y-22258214D01*
X13698214Y-22272500D01*
X13712500Y-22286786D01*
X13726786Y-22315357D01*
X13726786Y-22343929D01*
X13712500Y-22386786D01*
X13541071Y-22558214D01*
X13726786Y-22558214D01*
X13898214Y-22386786D02*
X13869643Y-22372500D01*
X13855357Y-22358214D01*
X13841071Y-22329643D01*
X13841071Y-22315357D01*
X13855357Y-22286786D01*
X13869643Y-22272500D01*
X13898214Y-22258214D01*
X13955357Y-22258214D01*
X13983928Y-22272500D01*
X13998214Y-22286786D01*
X14012500Y-22315357D01*
X14012500Y-22329643D01*
X13998214Y-22358214D01*
X13983928Y-22372500D01*
X13955357Y-22386786D01*
X13898214Y-22386786D01*
X13869643Y-22401071D01*
X13855357Y-22415357D01*
X13841071Y-22443929D01*
X13841071Y-22501071D01*
X13855357Y-22529643D01*
X13869643Y-22543929D01*
X13898214Y-22558214D01*
X13955357Y-22558214D01*
X13983928Y-22543929D01*
X13998214Y-22529643D01*
X14012500Y-22501071D01*
X14012500Y-22443929D01*
X13998214Y-22415357D01*
X13983928Y-22401071D01*
X13955357Y-22386786D01*
X14126786Y-22258214D02*
X14126786Y-22315357D01*
X14241071Y-22258214D02*
X14241071Y-22315357D01*
X14683928Y-22672500D02*
X14669643Y-22658214D01*
X14641071Y-22615357D01*
X14626786Y-22586786D01*
X14612500Y-22543929D01*
X14598214Y-22472500D01*
X14598214Y-22415357D01*
X14612500Y-22343929D01*
X14626786Y-22301072D01*
X14641071Y-22272500D01*
X14669643Y-22229643D01*
X14683928Y-22215357D01*
X14941071Y-22258214D02*
X14798214Y-22258214D01*
X14783928Y-22401071D01*
X14798214Y-22386786D01*
X14826786Y-22372500D01*
X14898214Y-22372500D01*
X14926786Y-22386786D01*
X14941071Y-22401071D01*
X14955357Y-22429643D01*
X14955357Y-22501071D01*
X14941071Y-22529643D01*
X14926786Y-22543929D01*
X14898214Y-22558214D01*
X14826786Y-22558214D01*
X14798214Y-22543929D01*
X14783928Y-22529643D01*
X15312500Y-22558214D02*
X15312500Y-22258214D01*
X15441071Y-22558214D02*
X15441071Y-22401071D01*
X15426786Y-22372500D01*
X15398214Y-22358214D01*
X15355357Y-22358214D01*
X15326786Y-22372500D01*
X15312500Y-22386786D01*
X15626786Y-22558214D02*
X15598214Y-22543929D01*
X15583928Y-22529643D01*
X15569643Y-22501071D01*
X15569643Y-22415357D01*
X15583928Y-22386786D01*
X15598214Y-22372500D01*
X15626786Y-22358214D01*
X15669643Y-22358214D01*
X15698214Y-22372500D01*
X15712500Y-22386786D01*
X15726786Y-22415357D01*
X15726786Y-22501071D01*
X15712500Y-22529643D01*
X15698214Y-22543929D01*
X15669643Y-22558214D01*
X15626786Y-22558214D01*
X15898214Y-22558214D02*
X15869643Y-22543929D01*
X15855357Y-22515357D01*
X15855357Y-22258214D01*
X16126786Y-22543929D02*
X16098214Y-22558214D01*
X16041071Y-22558214D01*
X16012500Y-22543929D01*
X15998214Y-22515357D01*
X15998214Y-22401071D01*
X16012500Y-22372500D01*
X16041071Y-22358214D01*
X16098214Y-22358214D01*
X16126786Y-22372500D01*
X16141071Y-22401071D01*
X16141071Y-22429643D01*
X15998214Y-22458214D01*
X16255357Y-22543929D02*
X16283928Y-22558214D01*
X16341071Y-22558214D01*
X16369643Y-22543929D01*
X16383928Y-22515357D01*
X16383928Y-22501071D01*
X16369643Y-22472500D01*
X16341071Y-22458214D01*
X16298214Y-22458214D01*
X16269643Y-22443929D01*
X16255357Y-22415357D01*
X16255357Y-22401071D01*
X16269643Y-22372500D01*
X16298214Y-22358214D01*
X16341071Y-22358214D01*
X16369643Y-22372500D01*
X16483928Y-22672500D02*
X16498214Y-22658214D01*
X16526786Y-22615357D01*
X16541071Y-22586786D01*
X16555357Y-22543929D01*
X16569643Y-22472500D01*
X16569643Y-22415357D01*
X16555357Y-22343929D01*
X16541071Y-22301072D01*
X16526786Y-22272500D01*
X16498214Y-22229643D01*
X16483928Y-22215357D01*
X17026786Y-22672500D02*
X17012500Y-22658214D01*
X16983928Y-22615357D01*
X16969643Y-22586786D01*
X16955357Y-22543929D01*
X16941071Y-22472500D01*
X16941071Y-22415357D01*
X16955357Y-22343929D01*
X16969643Y-22301072D01*
X16983928Y-22272500D01*
X17012500Y-22229643D01*
X17026786Y-22215357D01*
X17141071Y-22358214D02*
X17141071Y-22558214D01*
X17141071Y-22386786D02*
X17155357Y-22372500D01*
X17183928Y-22358214D01*
X17226786Y-22358214D01*
X17255357Y-22372500D01*
X17269643Y-22401071D01*
X17269643Y-22558214D01*
X17455357Y-22558214D02*
X17426786Y-22543929D01*
X17412500Y-22529643D01*
X17398214Y-22501071D01*
X17398214Y-22415357D01*
X17412500Y-22386786D01*
X17426786Y-22372500D01*
X17455357Y-22358214D01*
X17498214Y-22358214D01*
X17526786Y-22372500D01*
X17541071Y-22386786D01*
X17555357Y-22415357D01*
X17555357Y-22501071D01*
X17541071Y-22529643D01*
X17526786Y-22543929D01*
X17498214Y-22558214D01*
X17455357Y-22558214D01*
X17641071Y-22358214D02*
X17755357Y-22358214D01*
X17683928Y-22258214D02*
X17683928Y-22515357D01*
X17698214Y-22543929D01*
X17726786Y-22558214D01*
X17755357Y-22558214D01*
X18083928Y-22358214D02*
X18083928Y-22658214D01*
X18083928Y-22372500D02*
X18112500Y-22358214D01*
X18169643Y-22358214D01*
X18198214Y-22372500D01*
X18212500Y-22386786D01*
X18226786Y-22415357D01*
X18226786Y-22501071D01*
X18212500Y-22529643D01*
X18198214Y-22543929D01*
X18169643Y-22558214D01*
X18112500Y-22558214D01*
X18083928Y-22543929D01*
X18398214Y-22558214D02*
X18369643Y-22543929D01*
X18355357Y-22515357D01*
X18355357Y-22258214D01*
X18641071Y-22558214D02*
X18641071Y-22401071D01*
X18626786Y-22372500D01*
X18598214Y-22358214D01*
X18541071Y-22358214D01*
X18512500Y-22372500D01*
X18641071Y-22543929D02*
X18612500Y-22558214D01*
X18541071Y-22558214D01*
X18512500Y-22543929D01*
X18498214Y-22515357D01*
X18498214Y-22486786D01*
X18512500Y-22458214D01*
X18541071Y-22443929D01*
X18612500Y-22443929D01*
X18641071Y-22429643D01*
X18741071Y-22358214D02*
X18855357Y-22358214D01*
X18783928Y-22258214D02*
X18783928Y-22515357D01*
X18798214Y-22543929D01*
X18826786Y-22558214D01*
X18855357Y-22558214D01*
X19069643Y-22543929D02*
X19041071Y-22558214D01*
X18983928Y-22558214D01*
X18955357Y-22543929D01*
X18941071Y-22515357D01*
X18941071Y-22401071D01*
X18955357Y-22372500D01*
X18983928Y-22358214D01*
X19041071Y-22358214D01*
X19069643Y-22372500D01*
X19083928Y-22401071D01*
X19083928Y-22429643D01*
X18941071Y-22458214D01*
X19341071Y-22558214D02*
X19341071Y-22258214D01*
X19341071Y-22543929D02*
X19312500Y-22558214D01*
X19255357Y-22558214D01*
X19226786Y-22543929D01*
X19212500Y-22529643D01*
X19198214Y-22501071D01*
X19198214Y-22415357D01*
X19212500Y-22386786D01*
X19226786Y-22372500D01*
X19255357Y-22358214D01*
X19312500Y-22358214D01*
X19341071Y-22372500D01*
X19455357Y-22672500D02*
X19469643Y-22658214D01*
X19498214Y-22615357D01*
X19512500Y-22586786D01*
X19526786Y-22543929D01*
X19541071Y-22472500D01*
X19541071Y-22415357D01*
X19526786Y-22343929D01*
X19512500Y-22301072D01*
X19498214Y-22272500D01*
X19469643Y-22229643D01*
X19455357Y-22215357D01*
X9922500Y-22893500D02*
X9997500Y-22818500D01*
X9922500Y-22743500D01*
X9847500Y-22818500D01*
X9922500Y-22893500D01*
X9997500Y-22818500D02*
G75*
G03X9997500Y-22818500I-75000J0D01*
G01*
X10441071Y-22954214D02*
X10269643Y-22954214D01*
X10355357Y-22954214D02*
X10355357Y-22654214D01*
X10326786Y-22697071D01*
X10298214Y-22725643D01*
X10269643Y-22739929D01*
X10569643Y-22925643D02*
X10583928Y-22939929D01*
X10569643Y-22954214D01*
X10555357Y-22939929D01*
X10569643Y-22925643D01*
X10569643Y-22954214D01*
X10855357Y-22654214D02*
X10712500Y-22654214D01*
X10698214Y-22797071D01*
X10712500Y-22782786D01*
X10741071Y-22768500D01*
X10812500Y-22768500D01*
X10841071Y-22782786D01*
X10855357Y-22797071D01*
X10869643Y-22825643D01*
X10869643Y-22897071D01*
X10855357Y-22925643D01*
X10841071Y-22939929D01*
X10812500Y-22954214D01*
X10741071Y-22954214D01*
X10712500Y-22939929D01*
X10698214Y-22925643D01*
X11055357Y-22654214D02*
X11083928Y-22654214D01*
X11112500Y-22668500D01*
X11126786Y-22682786D01*
X11141071Y-22711357D01*
X11155357Y-22768500D01*
X11155357Y-22839929D01*
X11141071Y-22897071D01*
X11126786Y-22925643D01*
X11112500Y-22939929D01*
X11083928Y-22954214D01*
X11055357Y-22954214D01*
X11026786Y-22939929D01*
X11012500Y-22925643D01*
X10998214Y-22897071D01*
X10983928Y-22839929D01*
X10983928Y-22768500D01*
X10998214Y-22711357D01*
X11012500Y-22682786D01*
X11026786Y-22668500D01*
X11055357Y-22654214D01*
X11283928Y-22954214D02*
X11283928Y-22754214D01*
X11283928Y-22782786D02*
X11298214Y-22768500D01*
X11326786Y-22754214D01*
X11369643Y-22754214D01*
X11398214Y-22768500D01*
X11412500Y-22797071D01*
X11412500Y-22954214D01*
X11412500Y-22797071D02*
X11426786Y-22768500D01*
X11455357Y-22754214D01*
X11498214Y-22754214D01*
X11526786Y-22768500D01*
X11541071Y-22797071D01*
X11541071Y-22954214D01*
X11683928Y-22954214D02*
X11683928Y-22754214D01*
X11683928Y-22782786D02*
X11698214Y-22768500D01*
X11726786Y-22754214D01*
X11769643Y-22754214D01*
X11798214Y-22768500D01*
X11812500Y-22797071D01*
X11812500Y-22954214D01*
X11812500Y-22797071D02*
X11826786Y-22768500D01*
X11855357Y-22754214D01*
X11898214Y-22754214D01*
X11926786Y-22768500D01*
X11941071Y-22797071D01*
X11941071Y-22954214D01*
X12526786Y-22639929D02*
X12269643Y-23025643D01*
X12912500Y-22654214D02*
X12941071Y-22654214D01*
X12969643Y-22668500D01*
X12983928Y-22682786D01*
X12998214Y-22711357D01*
X13012500Y-22768500D01*
X13012500Y-22839929D01*
X12998214Y-22897071D01*
X12983928Y-22925643D01*
X12969643Y-22939929D01*
X12941071Y-22954214D01*
X12912500Y-22954214D01*
X12883928Y-22939929D01*
X12869643Y-22925643D01*
X12855357Y-22897071D01*
X12841071Y-22839929D01*
X12841071Y-22768500D01*
X12855357Y-22711357D01*
X12869643Y-22682786D01*
X12883928Y-22668500D01*
X12912500Y-22654214D01*
X13141071Y-22925643D02*
X13155357Y-22939929D01*
X13141071Y-22954214D01*
X13126786Y-22939929D01*
X13141071Y-22925643D01*
X13141071Y-22954214D01*
X13341071Y-22654214D02*
X13369643Y-22654214D01*
X13398214Y-22668500D01*
X13412500Y-22682786D01*
X13426786Y-22711357D01*
X13441071Y-22768500D01*
X13441071Y-22839929D01*
X13426786Y-22897071D01*
X13412500Y-22925643D01*
X13398214Y-22939929D01*
X13369643Y-22954214D01*
X13341071Y-22954214D01*
X13312500Y-22939929D01*
X13298214Y-22925643D01*
X13283928Y-22897071D01*
X13269643Y-22839929D01*
X13269643Y-22768500D01*
X13283928Y-22711357D01*
X13298214Y-22682786D01*
X13312500Y-22668500D01*
X13341071Y-22654214D01*
X13712500Y-22654214D02*
X13569643Y-22654214D01*
X13555357Y-22797071D01*
X13569643Y-22782786D01*
X13598214Y-22768500D01*
X13669643Y-22768500D01*
X13698214Y-22782786D01*
X13712500Y-22797071D01*
X13726786Y-22825643D01*
X13726786Y-22897071D01*
X13712500Y-22925643D01*
X13698214Y-22939929D01*
X13669643Y-22954214D01*
X13598214Y-22954214D01*
X13569643Y-22939929D01*
X13555357Y-22925643D01*
X13869643Y-22954214D02*
X13926786Y-22954214D01*
X13955357Y-22939929D01*
X13969643Y-22925643D01*
X13998214Y-22882786D01*
X14012500Y-22825643D01*
X14012500Y-22711357D01*
X13998214Y-22682786D01*
X13983928Y-22668500D01*
X13955357Y-22654214D01*
X13898214Y-22654214D01*
X13869643Y-22668500D01*
X13855357Y-22682786D01*
X13841071Y-22711357D01*
X13841071Y-22782786D01*
X13855357Y-22811357D01*
X13869643Y-22825643D01*
X13898214Y-22839929D01*
X13955357Y-22839929D01*
X13983928Y-22825643D01*
X13998214Y-22811357D01*
X14012500Y-22782786D01*
X14126786Y-22654214D02*
X14126786Y-22711357D01*
X14241071Y-22654214D02*
X14241071Y-22711357D01*
X14683928Y-23068500D02*
X14669643Y-23054214D01*
X14641071Y-23011357D01*
X14626786Y-22982786D01*
X14612500Y-22939929D01*
X14598214Y-22868500D01*
X14598214Y-22811357D01*
X14612500Y-22739929D01*
X14626786Y-22697071D01*
X14641071Y-22668500D01*
X14669643Y-22625643D01*
X14683928Y-22611357D01*
X14783928Y-22682786D02*
X14798214Y-22668500D01*
X14826786Y-22654214D01*
X14898214Y-22654214D01*
X14926786Y-22668500D01*
X14941071Y-22682786D01*
X14955357Y-22711357D01*
X14955357Y-22739929D01*
X14941071Y-22782786D01*
X14769643Y-22954214D01*
X14955357Y-22954214D01*
X15312500Y-22954214D02*
X15312500Y-22654214D01*
X15441071Y-22954214D02*
X15441071Y-22797071D01*
X15426786Y-22768500D01*
X15398214Y-22754214D01*
X15355357Y-22754214D01*
X15326786Y-22768500D01*
X15312500Y-22782786D01*
X15626786Y-22954214D02*
X15598214Y-22939929D01*
X15583928Y-22925643D01*
X15569643Y-22897071D01*
X15569643Y-22811357D01*
X15583928Y-22782786D01*
X15598214Y-22768500D01*
X15626786Y-22754214D01*
X15669643Y-22754214D01*
X15698214Y-22768500D01*
X15712500Y-22782786D01*
X15726786Y-22811357D01*
X15726786Y-22897071D01*
X15712500Y-22925643D01*
X15698214Y-22939929D01*
X15669643Y-22954214D01*
X15626786Y-22954214D01*
X15898214Y-22954214D02*
X15869643Y-22939929D01*
X15855357Y-22911357D01*
X15855357Y-22654214D01*
X16126786Y-22939929D02*
X16098214Y-22954214D01*
X16041071Y-22954214D01*
X16012500Y-22939929D01*
X15998214Y-22911357D01*
X15998214Y-22797071D01*
X16012500Y-22768500D01*
X16041071Y-22754214D01*
X16098214Y-22754214D01*
X16126786Y-22768500D01*
X16141071Y-22797071D01*
X16141071Y-22825643D01*
X15998214Y-22854214D01*
X16255357Y-22939929D02*
X16283928Y-22954214D01*
X16341071Y-22954214D01*
X16369643Y-22939929D01*
X16383928Y-22911357D01*
X16383928Y-22897071D01*
X16369643Y-22868500D01*
X16341071Y-22854214D01*
X16298214Y-22854214D01*
X16269643Y-22839929D01*
X16255357Y-22811357D01*
X16255357Y-22797071D01*
X16269643Y-22768500D01*
X16298214Y-22754214D01*
X16341071Y-22754214D01*
X16369643Y-22768500D01*
X16483928Y-23068500D02*
X16498214Y-23054214D01*
X16526786Y-23011357D01*
X16541071Y-22982786D01*
X16555357Y-22939929D01*
X16569643Y-22868500D01*
X16569643Y-22811357D01*
X16555357Y-22739929D01*
X16541071Y-22697071D01*
X16526786Y-22668500D01*
X16498214Y-22625643D01*
X16483928Y-22611357D01*
X17026786Y-23068500D02*
X17012500Y-23054214D01*
X16983928Y-23011357D01*
X16969643Y-22982786D01*
X16955357Y-22939929D01*
X16941071Y-22868500D01*
X16941071Y-22811357D01*
X16955357Y-22739929D01*
X16969643Y-22697071D01*
X16983928Y-22668500D01*
X17012500Y-22625643D01*
X17026786Y-22611357D01*
X17141071Y-22754214D02*
X17141071Y-22954214D01*
X17141071Y-22782786D02*
X17155357Y-22768500D01*
X17183928Y-22754214D01*
X17226786Y-22754214D01*
X17255357Y-22768500D01*
X17269643Y-22797071D01*
X17269643Y-22954214D01*
X17455357Y-22954214D02*
X17426786Y-22939929D01*
X17412500Y-22925643D01*
X17398214Y-22897071D01*
X17398214Y-22811357D01*
X17412500Y-22782786D01*
X17426786Y-22768500D01*
X17455357Y-22754214D01*
X17498214Y-22754214D01*
X17526786Y-22768500D01*
X17541071Y-22782786D01*
X17555357Y-22811357D01*
X17555357Y-22897071D01*
X17541071Y-22925643D01*
X17526786Y-22939929D01*
X17498214Y-22954214D01*
X17455357Y-22954214D01*
X17641071Y-22754214D02*
X17755357Y-22754214D01*
X17683928Y-22654214D02*
X17683928Y-22911357D01*
X17698214Y-22939929D01*
X17726786Y-22954214D01*
X17755357Y-22954214D01*
X18083928Y-22754214D02*
X18083928Y-23054214D01*
X18083928Y-22768500D02*
X18112500Y-22754214D01*
X18169643Y-22754214D01*
X18198214Y-22768500D01*
X18212500Y-22782786D01*
X18226786Y-22811357D01*
X18226786Y-22897071D01*
X18212500Y-22925643D01*
X18198214Y-22939929D01*
X18169643Y-22954214D01*
X18112500Y-22954214D01*
X18083928Y-22939929D01*
X18398214Y-22954214D02*
X18369643Y-22939929D01*
X18355357Y-22911357D01*
X18355357Y-22654214D01*
X18641071Y-22954214D02*
X18641071Y-22797071D01*
X18626786Y-22768500D01*
X18598214Y-22754214D01*
X18541071Y-22754214D01*
X18512500Y-22768500D01*
X18641071Y-22939929D02*
X18612500Y-22954214D01*
X18541071Y-22954214D01*
X18512500Y-22939929D01*
X18498214Y-22911357D01*
X18498214Y-22882786D01*
X18512500Y-22854214D01*
X18541071Y-22839929D01*
X18612500Y-22839929D01*
X18641071Y-22825643D01*
X18741071Y-22754214D02*
X18855357Y-22754214D01*
X18783928Y-22654214D02*
X18783928Y-22911357D01*
X18798214Y-22939929D01*
X18826786Y-22954214D01*
X18855357Y-22954214D01*
X19069643Y-22939929D02*
X19041071Y-22954214D01*
X18983928Y-22954214D01*
X18955357Y-22939929D01*
X18941071Y-22911357D01*
X18941071Y-22797071D01*
X18955357Y-22768500D01*
X18983928Y-22754214D01*
X19041071Y-22754214D01*
X19069643Y-22768500D01*
X19083928Y-22797071D01*
X19083928Y-22825643D01*
X18941071Y-22854214D01*
X19341071Y-22954214D02*
X19341071Y-22654214D01*
X19341071Y-22939929D02*
X19312500Y-22954214D01*
X19255357Y-22954214D01*
X19226786Y-22939929D01*
X19212500Y-22925643D01*
X19198214Y-22897071D01*
X19198214Y-22811357D01*
X19212500Y-22782786D01*
X19226786Y-22768500D01*
X19255357Y-22754214D01*
X19312500Y-22754214D01*
X19341071Y-22768500D01*
X19455357Y-23068500D02*
X19469643Y-23054214D01*
X19498214Y-23011357D01*
X19512500Y-22982786D01*
X19526786Y-22939929D01*
X19541071Y-22868500D01*
X19541071Y-22811357D01*
X19526786Y-22739929D01*
X19512500Y-22697071D01*
X19498214Y-22668500D01*
X19469643Y-22625643D01*
X19455357Y-22611357D01*
M02*
